# Made in Blockbench 4.4.3
mtllib crystal.mtl

o s0
v 0.9248 0.6457999999999999 -0.0030999999999999214
v 0.8185 0.6785 -0.0030999999999999283
v 0.8162 0.7064 0.16060000000000005
v 0.9581 0.6632 0.16060000000000008
v 0.7843 0.5726 -0.003099999999999905
v 0.7703 0.5653000000000001 0.16060000000000008
v 0.8907 0.5399 -0.0030999999999998975
v 0.9122 0.5221 0.1606000000000001
v 0.8707 0.6176 0.2697000000000001
vt 0 0
vt 1 0
vt 1 1
vt 1 1
vt 0 1
vt 0 0
vt 0 0
vt 1 0
vt 1 1
vt 1 1
vt 0 1
vt 0 0
vt 0 0
vt 1 0
vt 1 1
vt 1 1
vt 0 1
vt 0 0
vt 0 0
vt 1 0
vt 1 1
vt 1 1
vt 0 1
vt 0 0
vt 0 1
vt 1 1
vt 0.5 0.5
vt 0 1
vt 1 1
vt 0.5 0.5
vt 0 1
vt 1 1
vt 0.5 0.5
vt 0 1
vt 1 1
vt 0.5 0.5
vn 0.29038547237862555 0.9439747924724122 -0.15680519317965483
vn 0.28754249181667013 0.9444972127033682 -0.15888464556221002
vn -0.9494349905557454 0.3066163992163031 -0.06752468022908648
vn -0.9488801831073869 0.3086718667939697 -0.06593994810445157
vn -0.29314481088057903 -0.9538412195013339 -0.06521539568229234
vn -0.290579534083051 -0.954473052925577 -0.0674145801070212
vn 0.9397599553234047 -0.30260448042047233 -0.15900237356721528
vn 0.9392205752650874 -0.3055295847247871 -0.1565770859883967
vn 0.24606614006203018 0.8082589183981967 0.5349476381336313
vn -0.7692312199154505 0.25023184262309883 0.5879348222761064
vn -0.23561191818251867 -0.7739197034745229 0.587822521331278
vn 0.8036794016785906 -0.2614378776544808 0.5345555681545777
usemtl m_0e8c2ea5-507b-d88a-c0b4-41afa18f390b
f 1/1/1 2/2/1 3/3/1
f 3/4/2 4/5/2 1/6/2
f 2/7/3 5/8/3 6/9/3
f 6/10/4 3/11/4 2/12/4
f 5/13/5 7/14/5 8/15/5
f 8/16/6 6/17/6 5/18/6
f 7/19/7 1/20/7 4/21/7
f 4/22/8 8/23/8 7/24/8
f 4/25/9 3/26/9 9/27/9
f 3/28/10 6/29/10 9/30/10
f 6/31/11 8/32/11 9/33/11
f 8/34/12 4/35/12 9/36/12
o s1
v 0.1631 0.2891 -0.003099999999999842
v 0.2564 0.2368 -0.0030999999999998303
v 0.2547 0.2117 0.15410000000000015
v 0.1302 0.2811 0.15410000000000015
v 0.3152 0.32609999999999995 -0.0030999999999998503
v 0.3334 0.3305 0.15410000000000013
v 0.2219 0.37839999999999996 -0.003099999999999862
v 0.2089 0.39990000000000003 0.15410000000000013
v 0.2279 0.30480000000000007 0.2589000000000002
vt 0 0
vt 1 0
vt 1 1
vt 1 1
vt 0 1
vt 0 0
vt 0 0
vt 1 0
vt 1 1
vt 1 1
vt 0 1
vt 0 0
vt 0 0
vt 1 0
vt 1 1
vt 1 1
vt 0 1
vt 0 0
vt 0 0
vt 1 0
vt 1 1
vt 1 1
vt 0 1
vt 0 0
vt 0 1
vt 1 1
vt 0.5 0.5
vt 0 1
vt 1 1
vt 0.5 0.5
vt 0 1
vt 1 1
vt 0.5 0.5
vt 0 1
vt 1 1
vt 0.5 0.5
vn -0.48394246461758855 -0.8633237466313769 -0.1430796961214851
vn -0.48176131368539443 -0.8642548062511755 -0.14480906914922934
vn 0.8324554468935582 -0.5481341576409992 -0.0810362521618467
vn 0.8310660387876441 -0.550546273169929 -0.07891793378260933
vn 0.4874598087121262 0.8695984732856856 -0.0786220716436686
vn 0.48531099464868793 0.8706227497660175 -0.08055598092606032
vn -0.826344535099703 0.5441103993713612 -0.1452535115127821
vn -0.8250994818998227 0.5465936803494617 -0.14299018697335353
vn -0.40796468241570083 -0.7318674778206732 0.5458340524462202
vn 0.6817459171144924 -0.45162797707837143 0.5755472828689385
vn 0.3980645966085715 0.7141072374318032 0.5758432342003972
vn -0.6982492225065365 0.4625607223170407 0.5463383580150263
usemtl m_0e8c2ea5-507b-d88a-c0b4-41afa18f390b
f 10/37/13 11/38/13 12/39/13
f 12/40/14 13/41/14 10/42/14
f 11/43/15 14/44/15 15/45/15
f 15/46/16 12/47/16 11/48/16
f 14/49/17 16/50/17 17/51/17
f 17/52/18 15/53/18 14/54/18
f 16/55/19 10/56/19 13/57/19
f 13/58/20 17/59/20 16/60/20
f 13/61/21 12/62/21 18/63/21
f 12/64/22 15/65/22 18/66/22
f 15/67/23 17/68/23 18/69/23
f 17/70/24 13/71/24 18/72/24
o s2
v 0.5454 0.7509000000000001 0.25210000000000005
v 0.5518 0.7703 -0.0030999999999999487
v 0.6968 0.6731 0.25210000000000005
v 0.6652 0.7117 -0.0030999999999999357
v 0.7819 0.8205 0.25210000000000005
v 0.7288 0.8224 -0.0030999999999999604
v 0.6305 0.8982000000000001 0.2521
v 0.6154 0.881 -0.0030999999999999734
v 0.6555 0.7833000000000001 0.42230000000000006
vt 0 1
vt 0 0
vt 1 1
vt 1 0
vt 1 1
vt 0 0
vt 0 1
vt 0 0
vt 1 1
vt 1 0
vt 1 1
vt 0 0
vt 0 1
vt 0 0
vt 1 1
vt 1 0
vt 1 1
vt 0 0
vt 0 1
vt 0 0
vt 1 1
vt 1 0
vt 1 1
vt 0 0
vt 0.5 0.5
vt 0 1
vt 1 1
vt 0.5 0.5
vt 0 1
vt 1 1
vt 0.5 0.5
vt 0 1
vt 1 1
vt 0.5 0.5
vt 0 1
vt 1 1
vn -0.4556336268829659 -0.8866700656822749 -0.07883015080833485
vn -0.45770841516918825 -0.8857360798666546 -0.07729555941812893
vn 0.851903038862982 -0.4918381859378549 -0.17987887933100072
vn 0.8527494840584076 -0.4899265328465648 -0.18108094833820498
vn 0.4548181718199566 0.8862222807405595 -0.08803692237552004
vn 0.4573527262013447 0.8850477670858788 -0.08671178589152613
vn -0.865749220483815 0.5001714776861685 0.01751514033347761
vn -0.8669712463873858 0.4980973014474953 0.016122537896560134
vn -0.41444382990495554 -0.8065140854448616 0.4216293891947657
vn 0.7639699212389505 -0.4410708296976573 0.4709633559333169
vn 0.4028392929241785 0.7849403983104334 0.4707324879128336
vn -0.7851791789556435 0.4536235446648013 0.4215677130192522
usemtl m_0e8c2ea5-507b-d88a-c0b4-41afa18f390b
f 19/73/25 20/74/25 21/75/25
f 22/76/26 21/77/26 20/78/26
f 21/79/27 22/80/27 23/81/27
f 24/82/28 23/83/28 22/84/28
f 23/85/29 24/86/29 25/87/29
f 26/88/30 25/89/30 24/90/30
f 25/91/31 26/92/31 19/93/31
f 20/94/32 19/95/32 26/96/32
f 27/97/33 19/98/33 21/99/33
f 27/100/34 21/101/34 23/102/34
f 27/103/35 23/104/35 25/105/35
f 27/106/36 25/107/36 19/108/36
o s3
v 0.3571 0.8573 -0.0030999999999999682
v 0.3562 0.7411 -0.003099999999999942
v 0.3241 0.7323000000000001 0.16770000000000004
v 0.3257 0.8872 0.16770000000000002
v 0.4721 0.7478 -0.003099999999999944
v 0.4787 0.7416 0.16770000000000004
v 0.4731 0.864 -0.0030999999999999695
v 0.4803 0.8965000000000001 0.16770000000000002
v 0.3933 0.8228000000000001 0.2816000000000001
vt 0 0
vt 1 0
vt 1 1
vt 1 1
vt 0 1
vt 0 0
vt 0 0
vt 1 0
vt 1 1
vt 1 1
vt 0 1
vt 0 0
vt 0 0
vt 1 0
vt 1 1
vt 1 1
vt 0 1
vt 0 0
vt 0 0
vt 1 0
vt 1 1
vt 1 1
vt 0 1
vt 0 0
vt 0 1
vt 1 1
vt 0.5 0.5
vt 0 1
vt 1 1
vt 0.5 0.5
vt 0 1
vt 1 1
vt 0.5 0.5
vt 0 1
vt 1 1
vt 0.5 0.5
vn -0.9828365772585992 0.007612331493396657 -0.18432122724156422
vn -0.9831495634117551 0.010155192391599694 -0.18252070575900425
vn 0.05766944784945575 -0.9975953739928183 -0.03844092315317261
vn 0.059998367543352096 -0.9973922174411033 -0.04011184962142882
vn 0.9991432568104669 -0.008598478974272539 -0.040482323667280384
vn 0.9991864981910108 -0.010320841814755382 -0.038984895241874415
vn -0.05669665969659601 0.9816138096724114 -0.18226304463511858
vn -0.059019224778704395 0.9811152850309353 -0.18419969757083599
vn -0.8577076632467892 0.008859472312426547 0.5140613525232939
vn 0.047884272072125145 -0.7960116626183406 0.6033842303737381
vn 0.7972306590686178 -0.008234790539120462 0.6036186415824104
vn -0.05148902620377347 0.8559358549573525 0.5145120915770722
usemtl m_0e8c2ea5-507b-d88a-c0b4-41afa18f390b
f 28/109/37 29/110/37 30/111/37
f 30/112/38 31/113/38 28/114/38
f 29/115/39 32/116/39 33/117/39
f 33/118/40 30/119/40 29/120/40
f 32/121/41 34/122/41 35/123/41
f 35/124/42 33/125/42 32/126/42
f 34/127/43 28/128/43 31/129/43
f 31/130/44 35/131/44 34/132/44
f 31/133/45 30/134/45 36/135/45
f 30/136/46 33/137/46 36/138/46
f 33/139/47 35/140/47 36/141/47
f 35/142/48 31/143/48 36/144/48
o s4
v 0.7776 0.46619999999999995 0.2420000000000001
v 0.7749 0.44179999999999997 -0.003099999999999876
v 0.6519 0.3618 0.24200000000000013
v 0.6805 0.36360000000000003 -0.0030999999999998585
v 0.752 0.23260000000000003 0.24200000000000016
v 0.7558 0.2669 -0.0030999999999998373
v 0.8777 0.33699999999999997 0.24200000000000013
v 0.8502 0.34509999999999996 -0.0030999999999998546
v 0.7645 0.34620000000000006 0.40540000000000015
vt 0 1
vt 0 0
vt 1 1
vt 1 0
vt 1 1
vt 0 0
vt 0 1
vt 0 0
vt 1 1
vt 1 0
vt 1 1
vt 0 0
vt 0 1
vt 0 0
vt 1 1
vt 1 0
vt 1 1
vt 0 0
vt 0 1
vt 0 0
vt 1 1
vt 1 0
vt 1 1
vt 0 0
vt 0.5 0.5
vt 0 1
vt 1 1
vt 0.5 0.5
vt 0 1
vt 1 1
vt 0.5 0.5
vt 0 1
vt 1 1
vt 0.5 0.5
vt 0 1
vt 1 1
vn -0.6373799829047337 0.7674201518306997 -0.06937627805314713
vn -0.6364311961753555 0.7682749989636015 -0.06862112285793832
vn -0.78683070732321 -0.6096110975468522 -0.09628991515719335
vn -0.7852226978592259 -0.6114505599669052 -0.09774214793443449
vn 0.6358887467669634 -0.7656246692395342 -0.09728498130233174
vn 0.6349532359039113 -0.7664908627791462 -0.0965719705257799
vn 0.788658296991283 0.6110270551766833 -0.06829369245340369
vn 0.7870825738868367 0.6128988398519001 -0.06968524945687794
vn -0.568312326225593 0.6842611054267917 0.45695496436756244
vn -0.710909573625125 -0.550789847677051 0.4373078113000429
vn 0.5746616916825273 -0.6919058873993653 0.4370699979347389
vn 0.7033070513068224 0.5448996581719272 0.4565561894293183
usemtl m_0e8c2ea5-507b-d88a-c0b4-41afa18f390b
f 37/145/49 38/146/49 39/147/49
f 40/148/50 39/149/50 38/150/50
f 39/151/51 40/152/51 41/153/51
f 42/154/52 41/155/52 40/156/52
f 41/157/53 42/158/53 43/159/53
f 44/160/54 43/161/54 42/162/54
f 43/163/55 44/164/55 37/165/55
f 38/166/56 37/167/56 44/168/56
f 45/169/57 37/170/57 39/171/57
f 45/172/58 39/173/58 41/174/58
f 45/175/59 41/176/59 43/177/59
f 45/178/60 43/179/60 37/180/60
o s5
v 0.4615 0.11529999999999996 0.2277000000000002
v 0.4811 0.13370000000000004 -0.0030999999999998073
v 0.6152 0.10709999999999997 0.2277000000000002
v 0.5964 0.12729999999999997 -0.003099999999999806
v 0.6168 0.261 0.22770000000000018
v 0.5973 0.24270000000000003 -0.0030999999999998316
v 0.4631 0.2692 0.22770000000000018
v 0.4821 0.2491 -0.0030999999999998334
v 0.5372 0.18630000000000013 0.38160000000000016
vt 0 1
vt 0 0
vt 1 1
vt 1 0
vt 1 1
vt 0 0
vt 0 1
vt 0 0
vt 1 1
vt 1 0
vt 1 1
vt 0 0
vt 0 1
vt 0 0
vt 1 1
vt 1 0
vt 1 1
vt 0 0
vt 0 1
vt 0 0
vt 1 1
vt 1 0
vt 1 1
vt 0 0
vt 0.5 0.5
vt 0 1
vt 1 1
vt 0.5 0.5
vt 0 1
vt 1 1
vt 0.5 0.5
vt 0 1
vt 1 1
vt 0.5 0.5
vt 0 1
vt 1 1
vn -0.053087361359979615 -0.9950643220766925 -0.08383750350462206
vn -0.055232716760624245 -0.99505191289061 -0.08258957350645812
vn 0.9965716142033878 -0.010360718536227866 -0.08208333128880164
vn 0.9964712360220674 -0.007771439449045704 -0.08357440104208293
vn 0.05308937724003064 0.995102107535698 -0.08338653130019023
vn 0.05528271395730186 0.9950888512314403 -0.08210968086899165
vn -0.99650097865162 0.010359984183512534 -0.0829365436588793
vn -0.9964341730231117 0.008634611551326304 -0.08393081862525385
vn -0.04789910588103257 -0.8978161675505751 0.43775770117794094
vn 0.8900133287543109 -0.00925290010400859 0.4558406064397252
vn 0.04741601656157117 0.8887611884772564 0.45591147301853197
vn -0.8989852489888974 0.009346175428084733 0.437879174093993
usemtl m_0e8c2ea5-507b-d88a-c0b4-41afa18f390b
f 46/181/61 47/182/61 48/183/61
f 49/184/62 48/185/62 47/186/62
f 48/187/63 49/188/63 50/189/63
f 51/190/64 50/191/64 49/192/64
f 50/193/65 51/194/65 52/195/65
f 53/196/66 52/197/66 51/198/66
f 52/199/67 53/200/67 46/201/67
f 47/202/68 46/203/68 53/204/68
f 54/205/69 46/206/69 48/207/69
f 54/208/70 48/209/70 50/210/70
f 54/211/71 50/212/71 52/213/71
f 54/214/72 52/215/72 46/216/72
o s6
v 0.1142 0.6914 0.2518000000000001
v 0.1343 0.6657 -0.0030999999999999257
v 0.0887 0.5234000000000001 0.25180000000000013
v 0.1148 0.5398000000000001 -0.0030999999999998975
v 0.2579 0.5074000000000001 0.25180000000000013
v 0.2417 0.5282 -0.003099999999999895
v 0.2834 0.6755 0.2518000000000001
v 0.2612 0.6541 -0.003099999999999923
v 0.1851 0.6007000000000001 0.4216000000000001
vt 0 1
vt 0 0
vt 1 1
vt 1 0
vt 1 1
vt 0 0
vt 0 1
vt 0 0
vt 1 1
vt 1 0
vt 1 1
vt 0 0
vt 0 1
vt 0 0
vt 1 1
vt 1 0
vt 1 1
vt 0 0
vt 0 1
vt 0 0
vt 1 1
vt 1 0
vt 1 1
vt 0 0
vt 0.5 0.5
vt 0 1
vt 1 1
vt 0.5 0.5
vt 0 1
vt 1 1
vt 0.5 0.5
vt 0 1
vt 1 1
vt 0.5 0.5
vt 0 1
vt 1 1
vn -0.9844195186857712 0.14942081980051874 -0.09269104509398723
vn -0.9841202983399518 0.15242530434971452 -0.09096023850661993
vn -0.0938880779777138 -0.9928664246143261 -0.07349348057627793
vn -0.09077284290498362 -0.9930236004002089 -0.07526234144081419
vn 0.9859146416645979 -0.1495587350532256 -0.07486323610856645
vn 0.9855787692768141 -0.15265119937170665 -0.07302123582342386
vn 0.09316824774916675 0.9914507873684898 -0.09135104727233116
vn 0.09063800003609014 0.991548465912055 -0.09282452637589038
vn -0.8867742317791346 0.13459966018076155 0.44217009547429753
vn -0.08397861973488888 -0.8880739036964524 0.45196496877608455
vn 0.8820765597269563 -0.1338069736647076 0.45170414717926805
vn 0.08392410377604585 0.8930791420696191 0.4420027045229256
usemtl m_0e8c2ea5-507b-d88a-c0b4-41afa18f390b
f 55/217/73 56/218/73 57/219/73
f 58/220/74 57/221/74 56/222/74
f 57/223/75 58/224/75 59/225/75
f 60/226/76 59/227/76 58/228/76
f 59/229/77 60/230/77 61/231/77
f 62/232/78 61/233/78 60/234/78
f 61/235/79 62/236/79 55/237/79
f 56/238/80 55/239/80 62/240/80
f 63/241/81 55/242/81 57/243/81
f 63/244/82 57/245/82 59/246/82
f 63/247/83 59/248/83 61/249/83
f 63/250/84 61/251/84 55/252/84
o s7
v 0.3859 0.4466 -0.003099999999999877
v 0.5523 0.3841 -0.0030999999999998633
v 0.5673 0.3436000000000001 0.28340000000000015
v 0.3454 0.4264000000000001 0.2834000000000001
v 0.6024 0.5546 -0.003099999999999901
v 0.6347 0.5707 0.2834000000000001
v 0.4361 0.6171 -0.003099999999999915
v 0.4127 0.6535000000000001 0.28340000000000004
v 0.4873 0.4972000000000001 0.4868000000000001
vt 0 0
vt 1 0
vt 1 1
vt 1 1
vt 0 1
vt 0 0
vt 0 0
vt 1 0
vt 1 1
vt 1 1
vt 0 1
vt 0 0
vt 0 0
vt 1 0
vt 1 1
vt 1 1
vt 0 1
vt 0 0
vt 0 0
vt 1 0
vt 1 1
vt 1 1
vt 0 1
vt 0 0
vt 0 1
vt 1 1
vt 0.5 0.5
vt 0 1
vt 1 1
vt 0.5 0.5
vt 0 1
vt 1 1
vt 0.5 0.5
vt 0 1
vt 1 1
vt 0.5 0.5
vn -0.3493567838061071 -0.9301275012053795 -0.11319306122766556
vn -0.34728820442797487 -0.9307156106590296 -0.11471423251185107
vn 0.9553741107583591 -0.28072869764805763 -0.09193316490527487
vn 0.9547758565803698 -0.28336368442763954 -0.09004491123219872
vn 0.35037957830523386 0.9322899819545666 -0.08983062202723859
vn 0.3479866295470469 0.9330076299449807 -0.09166279572943754
vn -0.9529287325453817 0.2805690461805169 -0.11492537150171582
vn -0.9525713815845349 0.2822899778980151 -0.11366675575764705
vn -0.3037196659654325 -0.8139540323397281 0.4952102560970877
vn 0.8249804298215822 -0.2448422763979508 0.5093717209461741
vn 0.3007375317292702 0.8063252662306518 0.5093098291290428
vn -0.832975958350032 0.2468484456052717 0.49519379813675674
usemtl m_0e8c2ea5-507b-d88a-c0b4-41afa18f390b
f 64/253/85 65/254/85 66/255/85
f 66/256/86 67/257/86 64/258/86
f 65/259/87 68/260/87 69/261/87
f 69/262/88 66/263/88 65/264/88
f 68/265/89 70/266/89 71/267/89
f 71/268/90 69/269/90 68/270/90
f 70/271/91 64/272/91 67/273/91
f 67/274/92 71/275/92 70/276/92
f 67/277/93 66/278/93 72/279/93
f 66/280/94 69/281/94 72/282/94
f 69/283/95 71/284/95 72/285/95
f 71/286/96 67/287/96 72/288/96