# Made in Blockbench 4.3.1
mtllib scanner.mtl

o scanner
v 1.9 0.1 0.5
v 1.2 0.1 1.7124
v 1.2 -0.1 1.7124
v 1.9 -0.1 0.5
v 1.5 0.1 0.5
v 1 0.1 1.366
v 1.5 -0.1 0.5
v 1 -0.1 1.366
v -0.19999999999999996 0.1 1.7124
v -0.19999999999999996 -0.1 1.7124
v 0 0.1 1.366
v 0 -0.1 1.366
v -0.8999999999999999 0.1 0.5
v -0.8999999999999999 -0.1 0.5
v -0.5 0.1 0.5
v -0.5 -0.1 0.5
v -0.19999999999999996 0.1 -0.7123999999999999
v -0.19999999999999996 -0.1 -0.7123999999999999
v 0 0.1 -0.366
v 0 -0.1 -0.366
v 1.2 0.1 -0.7123999999999999
v 1.2 -0.1 -0.7123999999999999
v 1 0.1 -0.366
v 1 -0.1 -0.366
vt 0.7694 0.010000000000000009
vt 0.99 0.010000000000000009
vt 0.99 0.0464
vt 0.99 0.0464
vt 0.7694 0.0464
vt 0.7694 0.010000000000000009
vt 0.4467 0.23060000000000003
vt 0.3557 0.07299999999999995
vt 0.3921 0.010000000000000009
vt 0.3921 0.010000000000000009
vt 0.5195 0.23060000000000003
vt 0.4467 0.23060000000000003
vt 0.7064 0.1048
vt 0.5488 0.1048
vt 0.5488 0.06840000000000002
vt 0.5488 0.06840000000000002
vt 0.7064 0.06840000000000002
vt 0.7064 0.1048
vt 0.01 0.7011
vt 0.1374 0.4804999999999999
vt 0.1738 0.5436
vt 0.1738 0.5436
vt 0.0828 0.7011
vt 0.01 0.7011
vt 0.5488 0.12670000000000003
vt 0.8035 0.12670000000000003
vt 0.8035 0.16310000000000002
vt 0.8035 0.16310000000000002
vt 0.5488 0.16310000000000002
vt 0.5488 0.12670000000000003
vt 0.3557 0.07299999999999995
vt 0.1738 0.07299999999999995
vt 0.1374 0.010000000000000009
vt 0.1374 0.010000000000000009
vt 0.3921 0.010000000000000009
vt 0.3557 0.07299999999999995
vt 0.7308 0.22140000000000004
vt 0.5489 0.22140000000000004
vt 0.5489 0.18500000000000005
vt 0.5489 0.18500000000000005
vt 0.7308 0.18500000000000005
vt 0.7308 0.22140000000000004
vt 0.1374 0.4804999999999999
vt 0.3921 0.4804999999999999
vt 0.3557 0.5436
vt 0.3557 0.5436
vt 0.1738 0.5436
vt 0.1374 0.4804999999999999
vt 0.5488 0.010000000000000009
vt 0.7694 0.010000000000000009
vt 0.7694 0.0464
vt 0.7694 0.0464
vt 0.5488 0.0464
vt 0.5488 0.010000000000000009
vt 0.1738 0.07299999999999995
vt 0.0828 0.23060000000000003
vt 0.01 0.23060000000000003
vt 0.01 0.23060000000000003
vt 0.1374 0.010000000000000009
vt 0.1738 0.07299999999999995
vt 0.864 0.10470000000000002
vt 0.7064 0.10470000000000002
vt 0.7064 0.06830000000000003
vt 0.7064 0.06830000000000003
vt 0.864 0.06830000000000003
vt 0.864 0.10470000000000002
vt 0.3921 0.4804999999999999
vt 0.5195 0.7011
vt 0.4467 0.7011
vt 0.4467 0.7011
vt 0.3557 0.5436
vt 0.3921 0.4804999999999999
vt 0.7694 0.010000000000000009
vt 0.99 0.010000000000000009
vt 0.99 0.0464
vt 0.99 0.0464
vt 0.7694 0.0464
vt 0.7694 0.010000000000000009
vt 0.0828 0.23060000000000003
vt 0.1738 0.3882
vt 0.1374 0.45120000000000005
vt 0.1374 0.45120000000000005
vt 0.01 0.23060000000000003
vt 0.0828 0.23060000000000003
vt 0.7064 0.10470000000000002
vt 0.5489 0.10470000000000002
vt 0.5489 0.06830000000000003
vt 0.5489 0.06830000000000003
vt 0.7064 0.06830000000000003
vt 0.7064 0.10470000000000002
vt 0.5195 0.7011
vt 0.3921 0.9217
vt 0.3557 0.8587
vt 0.3557 0.8587
vt 0.4467 0.7011
vt 0.5195 0.7011
vt 0.5489 0.12670000000000003
vt 0.8036 0.12670000000000003
vt 0.8036 0.16300000000000003
vt 0.8036 0.16300000000000003
vt 0.5489 0.16300000000000003
vt 0.5489 0.12670000000000003
vt 0.1738 0.3882
vt 0.3557 0.3882
vt 0.3921 0.45120000000000005
vt 0.3921 0.45120000000000005
vt 0.1374 0.45120000000000005
vt 0.1738 0.3882
vt 0.7307 0.22150000000000003
vt 0.5488 0.22150000000000003
vt 0.5488 0.18510000000000004
vt 0.5488 0.18510000000000004
vt 0.7307 0.18510000000000004
vt 0.7307 0.22150000000000003
vt 0.3921 0.9217
vt 0.1374 0.9217
vt 0.1738 0.8587
vt 0.1738 0.8587
vt 0.3557 0.8587
vt 0.3921 0.9217
vt 0.5488 0.010000000000000009
vt 0.7694 0.010000000000000009
vt 0.7694 0.0464
vt 0.7694 0.0464
vt 0.5488 0.0464
vt 0.5488 0.010000000000000009
vt 0.3557 0.3882
vt 0.4467 0.23060000000000003
vt 0.5195 0.23060000000000003
vt 0.5195 0.23060000000000003
vt 0.3921 0.45120000000000005
vt 0.3557 0.3882
vt 0.8639 0.1048
vt 0.7064 0.1048
vt 0.7064 0.06840000000000002
vt 0.7064 0.06840000000000002
vt 0.8639 0.06840000000000002
vt 0.8639 0.1048
vt 0.1374 0.9217
vt 0.01 0.7011
vt 0.0828 0.7011
vt 0.0828 0.7011
vt 0.1738 0.8587
vt 0.1374 0.9217
vn 0.8660190526287392 0 0.5000110003630134
vn 0.8660190526287392 0 0.5000110003630134
vn 0 1 0
vn 0 1 0
vn -0.8660190526287391 0 -0.5000110003630134
vn -0.8660190526287391 0 -0.5000110003630134
vn 0 -1 0
vn 0 -1 0
vn 0 0 1
vn 0 0 1
vn 0 1 0
vn 0 1 0
vn 0 0 -1
vn 0 0 -1
vn 0 -1 0
vn 0 -1 0
vn -0.8660190526287392 0 0.5000110003630134
vn -0.8660190526287392 0 0.5000110003630134
vn 0 1 0
vn 0 1 0
vn 0.8660190526287391 0 -0.5000110003630134
vn 0.8660190526287391 0 -0.5000110003630134
vn 0 -1 0
vn 0 -1 0
vn -0.8660190526287392 0 -0.5000110003630134
vn -0.8660190526287392 0 -0.5000110003630134
vn 0 1 0
vn 0 1 0
vn 0.8660190526287391 0 0.5000110003630134
vn 0.8660190526287391 0 0.5000110003630134
vn 0 -1 0
vn 0 -1 0
vn 0 0 -1
vn 0 0 -1
vn 0 1 0
vn 0 1 0
vn 0 0 1
vn 0 0 1
vn 0 -1 0
vn 0 -1 0
vn 0.8660190526287392 0 -0.5000110003630134
vn 0.8660190526287392 0 -0.5000110003630134
vn 0 1 0
vn 0 1 0
vn -0.8660190526287391 0 0.5000110003630134
vn -0.8660190526287391 0 0.5000110003630134
vn 0 -1 0
vn 0 -1 0
usemtl m_0
f 1/1/1 2/2/1 3/3/1
f 3/4/2 4/5/2 1/6/2
f 5/7/3 6/8/3 2/9/3
f 2/10/4 1/11/4 5/12/4
f 7/13/5 8/14/5 6/15/5
f 6/16/6 5/17/6 7/18/6
f 4/19/7 3/20/7 8/21/7
f 8/22/8 7/23/8 4/24/8
f 2/25/9 9/26/9 10/27/9
f 10/28/10 3/29/10 2/30/10
f 6/31/11 11/32/11 9/33/11
f 9/34/12 2/35/12 6/36/12
f 8/37/13 12/38/13 11/39/13
f 11/40/14 6/41/14 8/42/14
f 3/43/15 10/44/15 12/45/15
f 12/46/16 8/47/16 3/48/16
f 9/49/17 13/50/17 14/51/17
f 14/52/18 10/53/18 9/54/18
f 11/55/19 15/56/19 13/57/19
f 13/58/20 9/59/20 11/60/20
f 12/61/21 16/62/21 15/63/21
f 15/64/22 11/65/22 12/66/22
f 10/67/23 14/68/23 16/69/23
f 16/70/24 12/71/24 10/72/24
f 13/73/25 17/74/25 18/75/25
f 18/76/26 14/77/26 13/78/26
f 15/79/27 19/80/27 17/81/27
f 17/82/28 13/83/28 15/84/28
f 16/85/29 20/86/29 19/87/29
f 19/88/30 15/89/30 16/90/30
f 14/91/31 18/92/31 20/93/31
f 20/94/32 16/95/32 14/96/32
f 17/97/33 21/98/33 22/99/33
f 22/100/34 18/101/34 17/102/34
f 19/103/35 23/104/35 21/105/35
f 21/106/36 17/107/36 19/108/36
f 20/109/37 24/110/37 23/111/37
f 23/112/38 19/113/38 20/114/38
f 18/115/39 22/116/39 24/117/39
f 24/118/40 20/119/40 18/120/40
f 21/121/41 1/122/41 4/123/41
f 4/124/42 22/125/42 21/126/42
f 23/127/43 5/128/43 1/129/43
f 1/130/44 21/131/44 23/132/44
f 24/133/45 7/134/45 5/135/45
f 5/136/46 23/137/46 24/138/46
f 22/139/47 4/140/47 7/141/47
f 7/142/48 24/143/48 22/144/48
o screen
v -0.5 0.004 0.5
v 0 0.004 1.366
v 1 0.004 1.366
v 0 0.004 -0.366
v 1 0.004 -0.366
v 1.5 0.004 0.5
vt 0.0122 0.5
vt 0.2561 0.07750000000000001
vt 0.7439 0.07750000000000001
vt 0.2561 0.9225
vt 0.0122 0.5
vt 0.7439 0.07750000000000001
vt 0.7439 0.9225
vt 0.2561 0.9225
vt 0.7439 0.07750000000000001
vt 0.9878 0.5
vt 0.7439 0.9225
vt 0.7439 0.07750000000000001
vn 0 1 0
vn 0 1 0
vn 0 1 0
vn 0 1 0
usemtl m_1
f 25/145/49 26/146/49 27/147/49
f 28/148/50 25/149/50 27/150/50
f 29/151/51 28/152/51 27/153/51
f 30/154/52 29/155/52 27/156/52
o screen_back
v 1 -0.01 1.366
v 0 -0.01 1.366
v -0.5 -0.01 0.5
v 0 -0.01 -0.366
v 1 -0.01 -0.366
v 1.5 -0.01 0.5
vt 0.7439 0.07750000000000001
vt 0.2561 0.07750000000000001
vt 0.0122 0.5
vt 0.7439 0.07750000000000001
vt 0.0122 0.5
vt 0.2561 0.9225
vt 0.7439 0.07750000000000001
vt 0.2561 0.9225
vt 0.7439 0.9225
vt 0.7439 0.07750000000000001
vt 0.7439 0.9225
vt 0.9878 0.5
vn 0 -1 0
vn 0 -1 0
vn 0 -1 0
vn 0 -1 0
usemtl m_1
f 31/157/53 32/158/53 33/159/53
f 31/160/54 33/161/54 34/162/54
f 31/163/55 34/164/55 35/165/55
f 31/166/56 35/167/56 36/168/56