# Blender 5.1.2
# www.blender.org
mtllib pole.mtl
o pole_l250w100
v -1.030212 0.000000 0.030212
v -1.030212 0.500000 0.030212
v -1.030212 0.000000 -0.030212
v -1.030212 0.500000 -0.030212
v -0.969788 0.000000 0.030212
v -0.969788 0.500000 0.030212
v -0.969788 0.000000 -0.030212
v -0.969788 0.500000 -0.030212
v -1.030212 0.500000 0.030212
v -1.030212 1.000000 0.030212
v -1.030212 0.500000 -0.030212
v -1.030212 1.000000 -0.030212
v -0.969788 0.500000 0.030212
v -0.969788 1.000000 0.030212
v -0.969788 0.500000 -0.030212
v -0.969788 1.000000 -0.030212
v -1.030212 1.000000 0.030212
v -1.030212 1.500000 0.030212
v -1.030212 1.000000 -0.030212
v -1.030212 1.500000 -0.030212
v -0.969788 1.000000 0.030212
v -0.969788 1.500000 0.030212
v -0.969788 1.000000 -0.030212
v -0.969788 1.500000 -0.030212
v -1.030212 1.500000 0.030212
v -1.030212 2.000000 0.030212
v -1.030212 1.500000 -0.030212
v -1.030212 2.000000 -0.030212
v -0.969788 1.500000 0.030212
v -0.969788 2.000000 0.030212
v -0.969788 1.500000 -0.030212
v -0.969788 2.000000 -0.030212
v -1.030212 2.000000 0.030212
v -1.030212 2.500000 0.030212
v -1.030212 2.000000 -0.030212
v -1.030212 2.500000 -0.030212
v -0.969788 2.000000 0.030212
v -0.969788 2.500000 0.030212
v -0.969788 2.000000 -0.030212
v -0.969788 2.500000 -0.030212
vn -1.0000 -0.0000 -0.0000
vn -0.0000 -0.0000 -1.0000
vn 1.0000 -0.0000 -0.0000
vn -0.0000 -0.0000 1.0000
vt 0.085938 -0.000000
vt 0.085938 0.710938
vt 0.000000 0.710938
vt 0.000000 -0.000000
vt 0.343750 -0.000000
vt 0.343750 0.710938
vt 0.257812 0.710938
vt 0.257812 -0.000000
vt 0.171875 0.710938
vt 0.171875 -0.000000
vt 0.085938 1.421875
vt 0.000000 1.421875
vt 0.343750 1.421875
vt 0.257812 1.421875
vt 0.171875 1.421875
vt 0.085938 2.132812
vt 0.000000 2.132812
vt 0.343750 2.132812
vt 0.257812 2.132812
vt 0.171875 2.132812
vt 0.085938 2.843750
vt 0.000000 2.843750
vt 0.343750 2.843750
vt 0.257812 2.843750
vt 0.171875 2.843750
vt 0.085938 3.554688
vt 0.000000 3.554688
vt 0.343750 3.554688
vt 0.257812 3.554688
vt 0.171875 3.554688
s 0
usemtl pole_atlas
f 1/1/1 2/2/1 4/3/1 3/4/1
f 3/5/2 4/6/2 8/7/2 7/8/2
f 7/8/3 8/7/3 6/9/3 5/10/3
f 5/10/4 6/9/4 2/2/4 1/1/4
f 9/2/1 10/11/1 12/12/1 11/3/1
f 11/6/2 12/13/2 16/14/2 15/7/2
f 15/7/3 16/14/3 14/15/3 13/9/3
f 13/9/4 14/15/4 10/11/4 9/2/4
f 17/11/1 18/16/1 20/17/1 19/12/1
f 19/13/2 20/18/2 24/19/2 23/14/2
f 23/14/3 24/19/3 22/20/3 21/15/3
f 21/15/4 22/20/4 18/16/4 17/11/4
f 25/16/1 26/21/1 28/22/1 27/17/1
f 27/18/2 28/23/2 32/24/2 31/19/2
f 31/19/3 32/24/3 30/25/3 29/20/3
f 29/20/4 30/25/4 26/21/4 25/16/4
f 33/21/1 34/26/1 36/27/1 35/22/1
f 35/23/2 36/28/2 40/29/2 39/24/2
f 39/24/3 40/29/3 38/30/3 37/25/3
f 37/25/4 38/30/4 34/26/4 33/21/4
o pole_end_l250w100
v -0.000000 2.530212 0.030212
v -0.000000 2.530212 -0.030212
v 0.000000 2.469788 0.030212
v 0.000000 2.469788 -0.030212
v 0.175781 2.530212 0.030212
v 0.175781 2.530212 -0.030212
v 0.175781 2.469788 -0.030212
v 0.175781 2.469788 0.030212
vn 1.0000 -0.0000 -0.0000
vn -0.0000 -1.0000 -0.0000
vn -0.0000 1.0000 -0.0000
vn -0.0000 -0.0000 1.0000
vn -0.0000 -0.0000 -1.0000
vt 0.914062 0.585938
vt 0.828125 0.585938
vt 0.828125 0.500000
vt 0.914062 0.500000
vt 0.914062 0.750000
vt 1.000000 0.750000
vt 1.000000 1.000000
vt 0.914062 1.000000
vt 0.914062 0.250000
vt 1.000000 0.250000
vt 1.000000 0.500000
vt 0.914062 -0.000000
vt 1.000000 -0.000000
s 0
usemtl pole_atlas
f 47/31/5 46/32/5 45/33/5 48/34/5
f 43/35/6 44/36/6 47/37/6 48/38/6
f 42/39/7 41/40/7 45/41/7 46/34/7
f 41/42/8 43/43/8 48/40/8 45/39/8
f 44/34/9 42/41/9 46/36/9 47/35/9
o pole_lshape_l250w100
v -0.969788 2.530212 0.030212
v -0.500000 2.530212 0.030212
v -0.969788 2.530212 -0.030212
v -0.500000 2.530212 -0.030212
v -0.969788 2.469788 0.030212
v -0.500000 2.469788 0.030212
v -0.969788 2.469788 -0.030212
v -0.500000 2.469788 -0.030212
v -1.030212 2.530212 0.030212
v -1.030212 2.530212 -0.030212
v -1.030212 2.500000 0.030212
v -1.030212 2.500000 -0.030212
v -0.969788 2.530212 0.030212
v -0.969788 2.500000 0.030212
v -0.969783 2.530212 -0.030212
v -0.969783 2.500000 -0.030212
v -0.969783 2.222415 0.016481
v -0.969783 2.222415 -0.016483
v -0.969783 2.181210 0.016481
v -0.969783 2.181210 -0.016483
v -0.640148 2.469788 0.016478
v -0.640148 2.469788 -0.016486
v -0.585208 2.469788 0.016478
v -0.585208 2.469788 -0.016486
vn -0.0000 1.0000 -0.0000
vn -0.0000 -0.0000 -1.0000
vn -0.0000 -1.0000 -0.0000
vn -0.0000 -0.0000 1.0000
vn -1.0000 -0.0000 -0.0000
vn 0.6002 -0.7999 -0.0000
vn -0.6002 0.7998 -0.0000
vt 0.625000 -0.644531
vt 0.625000 0.023438
vt 0.539062 0.023438
vt 0.539062 -0.644531
vt 0.531250 -0.714844
vt 0.531250 -0.046875
vt 0.445312 -0.046875
vt 0.445312 -0.714844
vt 0.718750 -0.574219
vt 0.718750 0.093750
vt 0.632812 0.093750
vt 0.632812 -0.574219
vt 0.437500 -0.785156
vt 0.437500 -0.117188
vt 0.351562 -0.117188
vt 0.351562 -0.785156
vt 0.437500 -0.109375
vt 0.437500 -0.023438
vt 0.351562 -0.023438
vt 0.351562 -0.109375
vt 0.625000 0.074219
vt 0.539062 0.074219
vt 0.539062 0.031250
vt 0.625000 0.031250
vt 0.445312 0.003906
vt 0.445312 -0.039062
vt 0.531250 -0.039062
vt 0.531250 0.003906
vt 0.718750 0.101562
vt 0.718750 0.144531
vt 0.632812 0.144531
vt 0.632812 0.101562
vt 0.351562 0.066406
vt 0.820312 0.417969
vt 0.898438 0.417969
vt 0.351562 0.007812
vt 0.781250 -0.296875
vt 0.828125 -0.296875
vt 0.828125 0.250000
vt 0.781250 0.250000
vt 0.773438 -0.253906
vt 0.773438 0.214844
vt 0.726562 0.214844
vt 0.726562 -0.253906
vt 0.351562 0.128906
vt 0.351562 0.070312
vt 0.898438 0.480469
vt 0.820312 0.480469
s 0
usemtl pole_atlas
f 49/44/10 50/45/10 52/46/10 51/47/10
f 51/48/11 52/49/11 56/50/11 55/51/11
f 55/52/12 56/53/12 54/54/12 53/55/12
f 53/56/13 54/57/13 50/58/13 49/59/13
f 49/60/10 51/61/10 58/62/10 57/63/10
f 57/64/14 58/65/14 60/66/14 59/67/14
f 57/68/13 59/69/13 62/70/13 61/71/13
f 60/72/11 58/73/11 63/74/11 64/75/11
f 66/76/11 70/77/11 72/78/11 68/79/11
f 67/80/15 68/81/15 72/82/15 71/83/15
f 65/84/16 69/85/16 70/86/16 66/87/16
f 65/88/13 67/89/13 71/90/13 69/91/13
o pole_l250w100_2
v -0.500000 2.530212 0.030212
v 0.000000 2.530212 0.030212
v -0.500000 2.530212 -0.030212
v 0.000000 2.530212 -0.030212
v -0.500000 2.469788 0.030212
v 0.000000 2.469788 0.030212
v -0.500000 2.469788 -0.030212
v 0.000000 2.469788 -0.030212
vn -0.0000 1.0000 -0.0000
vn -0.0000 -0.0000 -1.0000
vn -0.0000 -1.0000 -0.0000
vn -0.0000 -0.0000 1.0000
vt 0.085938 -0.000000
vt 0.085938 0.710938
vt 0.000000 0.710938
vt 0.000000 -0.000000
vt 0.343750 -0.000000
vt 0.343750 0.710938
vt 0.257812 0.710938
vt 0.257812 -0.000000
vt 0.171875 0.710938
vt 0.171875 -0.000000
s 0
usemtl pole_atlas
f 73/92/17 74/93/17 76/94/17 75/95/17
f 75/96/18 76/97/18 80/98/18 79/99/18
f 79/99/19 80/98/19 78/100/19 77/101/19
f 77/101/20 78/100/20 74/93/20 73/92/20
