# Blender 5.1.2
# www.blender.org
mtllib pole.mtl
o pole_r50
v 0.030212 1.000000 0.030212
v 0.030212 0.500000 0.030212
v 0.030212 1.000000 -0.030212
v 0.030212 0.500000 -0.030212
v -0.030212 1.000000 0.030212
v -0.030212 0.500000 0.030212
v -0.030212 1.000000 -0.030212
v -0.030212 0.500000 -0.030212
vn 1.0000 -0.0000 -0.0000
vn -0.0000 -0.0000 -1.0000
vn -1.0000 -0.0000 -0.0000
vn -0.0000 -0.0000 1.0000
vt 0.085938 -0.000000
vt 0.085938 0.710938
vt 0.000000 0.710938
vt 0.000000 -0.000000
vt 0.343750 -0.000000
vt 0.343750 0.710938
vt 0.257812 0.710938
vt 0.257812 -0.000000
vt 0.171875 0.710938
vt 0.171875 -0.000000
s 0
usemtl pole_atlas
f 1/1/1 2/2/1 4/3/1 3/4/1
f 3/5/2 4/6/2 8/7/2 7/8/2
f 7/8/3 8/7/3 6/9/3 5/10/3
f 5/10/4 6/9/4 2/2/4 1/1/4
o pole_end_r50
v 0.030212 0.500000 0.030212
v 0.030212 0.500000 -0.030212
v -0.030212 0.500000 0.030212
v -0.030212 0.500000 -0.030212
v 0.030212 0.324219 0.030212
v 0.030212 0.324219 -0.030212
v -0.030212 0.324219 -0.030212
v -0.030212 0.324219 0.030212
vn -0.0000 -1.0000 -0.0000
vn -1.0000 -0.0000 -0.0000
vn 1.0000 -0.0000 -0.0000
vn -0.0000 -0.0000 1.0000
vn -0.0000 -0.0000 -1.0000
vt 0.914062 0.585938
vt 0.828125 0.585938
vt 0.828125 0.500000
vt 0.914062 0.500000
vt 0.914062 0.750000
vt 1.000000 0.750000
vt 1.000000 1.000000
vt 0.914062 1.000000
vt 0.914062 0.250000
vt 1.000000 0.250000
vt 1.000000 0.500000
vt 0.914062 -0.000000
vt 1.000000 -0.000000
s 0
usemtl pole_atlas
f 15/11/5 14/12/5 13/13/5 16/14/5
f 11/15/6 12/16/6 15/17/6 16/18/6
f 10/19/7 9/20/7 13/21/7 14/14/7
f 9/22/8 11/23/8 16/20/8 13/19/8
f 12/14/9 10/21/9 14/16/9 15/15/9
