# Blender 5.1.2
# www.blender.org
mtllib sign.mtl
o display
v -0.175781 -0.175781 -0.950560
v 0.175781 -0.175781 -0.950560
v -0.175781 0.175781 -0.950560
v 0.175781 0.175781 -0.950560
vn -0.0000 -0.0000 1.0000
vt 0.000000 0.000000
vt 1.000000 0.000000
vt 1.000000 1.000000
vt 0.000000 1.000000
s 0
usemtl default
f 1/1/1 2/2/1 4/3/1 3/4/1
o french_cleat_horizontal
v 0.030212 -0.123596 -0.961551
v -0.030212 -0.123596 -0.961551
v 0.008240 -0.123596 -0.961551
v -0.008240 -0.123596 -0.961551
v 0.005493 -0.123596 -0.961551
v -0.005493 -0.123596 -0.961551
v 0.008240 -0.123596 -0.969786
v 0.005493 -0.123596 -0.969786
v -0.008240 -0.123596 -0.969786
v -0.005493 -0.123596 -0.969786
v 0.030212 0.123596 -0.961551
v -0.030212 0.123596 -0.961551
v 0.008240 0.123596 -0.961551
v -0.008240 0.123596 -0.961551
v 0.005493 0.123596 -0.961551
v -0.005493 0.123596 -0.961551
v 0.008240 0.123596 -0.969786
v 0.005493 0.123596 -0.969786
v -0.008240 0.123596 -0.969786
v -0.005493 0.123596 -0.969786
v 0.030212 -0.123596 -0.958800
v -0.030212 -0.123596 -0.958800
v 0.005493 -0.123596 -0.958800
v -0.005493 -0.123596 -0.958800
v 0.030212 0.123596 -0.958800
v -0.030212 0.123596 -0.958800
v 0.005493 0.123596 -0.958800
v -0.005493 0.123596 -0.958800
vn -1.0000 -0.0000 -0.0000
vn 1.0000 -0.0000 -0.0000
vn -0.0000 -0.0000 -1.0000
vn -0.0000 -1.0000 -0.0000
vn -0.0000 1.0000 -0.0000
vt 1.000000 0.078125
vt 0.648438 0.078125
vt 0.648438 0.085938
vt 1.000000 0.085938
vt 1.000000 0.050781
vt 0.648438 0.050781
vt 0.648438 0.062500
vt 1.000000 0.062500
vt 1.000000 0.035156
vt 1.000000 0.003906
vt 0.648438 0.003906
vt 0.648438 0.035156
vt 1.000000 0.089844
vt 0.648438 0.089844
vt 0.648438 0.105469
vt 1.000000 0.105469
vt 1.000000 0.136719
vt 0.648438 0.136719
vt 1.000000 0.046875
vt 0.648438 0.046875
vt 0.648438 0.000000
vt 1.000000 0.000000
vt 0.648438 0.140625
vt 1.000000 0.140625
vt 0.683594 0.246094
vt 0.687500 0.250000
vt 0.683594 0.281250
vt 0.687500 0.281250
vt 0.683594 0.230469
vt 0.683594 0.195312
vt 0.687500 0.226562
vt 0.687500 0.195312
vt 0.699219 0.230469
vt 0.699219 0.226562
vt 0.687500 0.230469
vt 0.687500 0.246094
vt 0.699219 0.246094
vt 0.699219 0.250000
vt 0.714844 0.246094
vt 0.718750 0.246094
vt 0.714844 0.250000
vt 0.703125 0.246094
vt 0.703125 0.250000
vt 0.714844 0.281250
vt 0.718750 0.281250
vt 0.714844 0.230469
vt 0.718750 0.230469
vt 0.714844 0.226562
vt 0.718750 0.195312
vt 0.714844 0.195312
vt 0.703125 0.230469
vt 0.703125 0.226562
s 0
usemtl sign_atlas
f 9/5/2 19/6/2 22/7/2 12/8/2
f 14/9/3 24/10/3 20/11/3 10/12/3
f 8/13/4 6/14/4 16/15/4 18/16/4
f 11/17/3 21/18/3 17/19/3 7/20/3
f 9/5/4 10/12/4 20/11/4 19/6/4
f 5/21/4 7/20/4 17/19/4 15/22/4
f 13/23/4 23/24/4 24/10/4 14/9/4
f 12/8/4 22/7/4 21/18/4 11/17/4
f 8/13/2 18/16/2 23/24/2 13/23/2
f 16/25/2 6/26/2 26/14/2 30/15/2
f 5/21/3 15/22/3 29/27/3 25/28/3
f 27/29/5 7/30/5 25/31/5
f 7/30/5 5/32/5 25/31/5
f 28/33/5 26/34/5 8/35/5
f 6/36/5 8/35/5 26/34/5
f 14/37/5 8/35/5 13/38/5
f 14/37/5 10/39/5 8/35/5
f 9/40/5 12/41/5 7/30/5
f 12/41/5 11/42/5 7/30/5
f 27/29/5 28/33/5 10/39/5
f 10/39/5 9/40/5 27/29/5
f 27/29/5 9/40/5 7/30/5
f 28/33/5 8/35/5 10/39/5
f 19/43/6 31/44/6 17/45/6
f 22/46/6 17/45/6 21/47/6
f 19/43/6 17/45/6 22/46/6
f 15/48/6 17/45/6 29/49/6
f 29/49/6 17/45/6 31/44/6
f 20/50/6 31/44/6 19/43/6
f 32/51/6 31/44/6 20/50/6
f 32/51/6 18/52/6 30/53/6
f 18/52/6 16/54/6 30/53/6
f 24/55/6 23/56/6 18/52/6
f 24/55/6 18/52/6 20/50/6
f 20/50/6 18/52/6 32/51/6
o hanger_horizontal
v 0.030212 -0.035706 -0.978026
v 0.030212 -0.030212 -0.961541
v -0.030212 -0.035706 -0.978026
v -0.030212 -0.030212 -0.961541
v 0.030212 -0.076904 -0.978026
v 0.030212 -0.076904 -0.961541
v -0.030212 -0.076904 -0.978026
v -0.030212 -0.076904 -0.961541
v 0.030212 -0.035706 -1.035704
v 0.030212 -0.030212 -1.030211
v -0.030212 -0.035706 -1.035704
v -0.030212 -0.030212 -1.030211
v 0.030212 0.035706 -1.035704
v 0.030212 0.030212 -1.030211
v -0.030212 0.035706 -1.035704
v -0.030212 0.030212 -1.030211
v 0.030212 0.035706 -0.978026
v 0.030212 0.030212 -0.961541
v -0.030212 0.035706 -0.978026
v -0.030212 0.030212 -0.961541
v 0.030212 0.076904 -0.961541
v 0.030212 0.076904 -0.978026
v -0.030212 0.076904 -0.961541
v -0.030212 0.076904 -0.978026
vn -0.0000 -1.0000 -0.0000
vn 1.0000 -0.0000 -0.0000
vn -1.0000 -0.0000 -0.0000
vn -0.0000 1.0000 -0.0000
vn -0.0000 -0.0000 -1.0000
vt 0.593750 0.304688
vt 0.593750 0.390625
vt 0.570312 0.390625
vt 0.570312 0.304688
vt 0.742188 0.394531
vt 0.675781 0.394531
vt 0.675781 0.417969
vt 0.734375 0.417969
vt 0.894531 0.300781
vt 0.828125 0.300781
vt 0.835938 0.277344
vt 0.894531 0.277344
vt 0.828125 0.203125
vt 0.835938 0.195312
vt 0.742188 0.492188
vt 0.734375 0.500000
vt 0.742188 0.203125
vt 0.734375 0.195312
vt 0.828125 0.492188
vt 0.835938 0.500000
vt 0.742188 0.300781
vt 0.734375 0.277344
vt 0.828125 0.394531
vt 0.835938 0.417969
vt 1.000000 0.304688
vt 1.000000 0.390625
vt 0.976562 0.390625
vt 0.976562 0.304688
vt 0.675781 0.300781
vt 0.675781 0.277344
vt 0.894531 0.394531
vt 0.894531 0.417969
vt 0.652344 0.390625
vt 0.652344 0.304688
vt 0.734375 0.304688
vt 0.734375 0.390625
vt 0.835938 0.304688
vt 0.835938 0.390625
vt 0.917969 0.304688
vt 0.917969 0.390625
vt 1.000000 0.394531
vt 1.000000 0.480469
vt 0.902344 0.480469
vt 0.902344 0.394531
vt 1.000000 0.214844
vt 1.000000 0.300781
vt 0.902344 0.300781
vt 0.902344 0.214844
s 0
usemtl sign_atlas
f 39/57/7 37/58/7 38/59/7 40/60/7
f 34/61/8 38/62/8 37/63/8 33/64/8
f 40/65/9 36/66/9 35/67/9 39/68/9
f 36/66/9 44/69/9 43/70/9 35/67/9
f 42/71/8 34/61/8 33/64/8 41/72/8
f 44/69/9 48/73/9 47/74/9 43/70/9
f 46/75/8 42/71/8 41/72/8 45/76/8
f 48/73/9 52/77/9 51/78/9 47/74/9
f 50/79/8 46/75/8 45/76/8 49/80/8
f 55/81/10 53/82/10 54/83/10 56/84/10
f 52/77/9 55/85/9 56/86/9 51/78/9
f 53/87/8 50/79/8 49/80/8 54/88/8
f 33/89/11 37/58/11 39/57/11 35/90/11
f 35/90/7 43/91/7 41/92/7 33/89/7
f 43/91/11 47/93/11 45/94/11 41/92/11
f 47/93/10 51/95/10 49/96/10 45/94/10
f 51/95/11 56/84/11 54/83/11 49/96/11
f 36/97/10 34/98/10 42/99/10 44/100/10
f 48/101/7 46/102/7 50/103/7 52/104/7
o pole_ao_horizontal
v -0.211519 0.031212 -0.968788
v 0.211519 0.031212 -0.968788
v -0.065928 0.031212 -1.031211
v 0.065928 0.031212 -1.031211
v -0.211519 -0.031212 -0.968788
v 0.211519 -0.031212 -0.968788
v -0.065928 -0.031212 -1.031211
v 0.065928 -0.031212 -1.031211
vn -0.0000 1.0000 -0.0000
vn -0.0000 -0.0000 -1.0000
vn -0.0000 -1.0000 -0.0000
vn -0.0000 -0.0000 1.0000
vt 0.019531 0.893109
vt 0.621094 0.893109
vt 0.414062 0.981891
vt 0.226562 0.981891
vt 0.019531 0.533734
vt 0.203125 0.533734
vt 0.203125 0.622516
vt 0.019531 0.622516
vt 0.226562 0.658734
vt 0.414062 0.658734
vt 0.621094 0.747516
vt 0.019531 0.747516
vt 0.019531 0.775922
vt 0.621094 0.775922
vt 0.621094 0.864703
vt 0.019531 0.864703
s 0
usemtl sign_ao#exteriortranslucent
f 57/105/12 58/106/12 60/107/12 59/108/12
f 59/109/13 60/110/13 64/111/13 63/112/13
f 63/113/14 64/114/14 62/115/14 61/116/14
f 61/117/15 62/118/15 58/119/15 57/120/15
o screw_horizontal
v -0.008241 -0.046699 -0.978029
v 0.008241 -0.046699 -0.978029
v -0.008241 -0.046699 -0.980776
v 0.008241 -0.046699 -0.980776
v -0.008241 -0.063181 -0.978029
v 0.008241 -0.063181 -0.978029
v -0.008241 -0.063181 -0.980776
v 0.008241 -0.063181 -0.980776
v 0.000000 -0.060434 -0.983523
v 0.005494 -0.054940 -0.983523
v 0.000000 -0.049446 -0.983523
v -0.005494 -0.054940 -0.983523
v 0.000000 -0.060434 -0.980776
v 0.005494 -0.054940 -0.980776
v 0.000000 -0.049446 -0.980776
v -0.005494 -0.054940 -0.980776
v -0.008241 0.063173 -0.978029
v 0.008241 0.063173 -0.978029
v -0.008241 0.063173 -0.980776
v 0.008241 0.063173 -0.980776
v -0.008241 0.046691 -0.978029
v 0.008241 0.046691 -0.978029
v -0.008241 0.046691 -0.980776
v 0.008241 0.046691 -0.980776
v -0.000000 0.049438 -0.983523
v 0.005494 0.054932 -0.983523
v -0.000000 0.060426 -0.983523
v -0.005494 0.054932 -0.983523
v -0.000000 0.049438 -0.980776
v 0.005494 0.054932 -0.980776
v -0.000000 0.060426 -0.980776
v -0.005494 0.054932 -0.980776
vn -0.0000 1.0000 -0.0000
vn -0.7071 -0.7071 -0.0000
vn -0.0000 -1.0000 -0.0000
vn -1.0000 -0.0000 -0.0000
vn 1.0000 -0.0000 -0.0000
vn -0.0000 -0.0000 -1.0000
vn 0.7071 0.7071 -0.0000
vn -0.7071 0.7071 -0.0000
vn 0.7071 -0.7071 -0.0000
vt 0.562500 0.437500
vt 0.562500 0.460938
vt 0.558594 0.460938
vt 0.558594 0.437500
vt 0.589844 0.484375
vt 0.589844 0.488281
vt 0.578125 0.488281
vt 0.578125 0.484375
vt 0.585938 0.437500
vt 0.585938 0.460938
vt 0.582031 0.460938
vt 0.582031 0.437500
vt 0.574219 0.437500
vt 0.574219 0.460938
vt 0.570312 0.460938
vt 0.570312 0.437500
vt 0.593750 0.460938
vt 0.593750 0.437500
vt 0.597656 0.437500
vt 0.597656 0.460938
vt 0.535156 0.492188
vt 0.527344 0.484375
vt 0.535156 0.476562
vt 0.542969 0.484375
vt 0.570312 0.484375
vt 0.570312 0.488281
vt 0.558594 0.488281
vt 0.558594 0.484375
vt 0.558594 0.476562
vt 0.558594 0.480469
vt 0.570312 0.480469
vt 0.570312 0.476562
vt 0.589844 0.476562
vt 0.589844 0.480469
vt 0.578125 0.480469
vt 0.578125 0.476562
vt 0.550781 0.437500
vt 0.550781 0.460938
vt 0.527344 0.460938
vt 0.527344 0.437500
vt 0.648438 0.437500
vt 0.648438 0.460938
vt 0.644531 0.460938
vt 0.644531 0.437500
vt 0.675781 0.484375
vt 0.675781 0.488281
vt 0.664062 0.488281
vt 0.664062 0.484375
vt 0.671875 0.437500
vt 0.671875 0.460938
vt 0.667969 0.460938
vt 0.667969 0.437500
vt 0.660156 0.437500
vt 0.660156 0.460938
vt 0.656250 0.460938
vt 0.656250 0.437500
vt 0.679688 0.460938
vt 0.679688 0.437500
vt 0.683594 0.437500
vt 0.683594 0.460938
vt 0.621094 0.492188
vt 0.613281 0.484375
vt 0.621094 0.476562
vt 0.628906 0.484375
vt 0.656250 0.484375
vt 0.656250 0.488281
vt 0.644531 0.488281
vt 0.644531 0.484375
vt 0.644531 0.476562
vt 0.644531 0.480469
vt 0.656250 0.480469
vt 0.656250 0.476562
vt 0.675781 0.476562
vt 0.675781 0.480469
vt 0.664062 0.480469
vt 0.664062 0.476562
vt 0.636719 0.437500
vt 0.636719 0.460938
vt 0.613281 0.460938
vt 0.613281 0.437500
s 0
usemtl sign_atlas
f 65/121/16 66/122/16 68/123/16 67/124/16
f 71/129/18 72/130/18 70/131/18 69/132/18
f 67/133/19 71/134/19 69/135/19 65/136/19
f 72/137/20 68/138/20 66/139/20 70/140/20
f 67/157/21 68/158/21 72/159/21 71/160/21
f 81/161/16 82/162/16 84/163/16 83/164/16
f 87/169/18 88/170/18 86/171/18 85/172/18
f 83/173/19 87/174/19 85/175/19 81/176/19
f 88/177/20 84/178/20 82/179/20 86/180/20
f 83/197/21 84/198/21 88/199/21 87/200/21
usemtl sign_atlas
f 73/125/17 77/126/17 80/127/17 76/128/17
f 74/141/21 73/142/21 76/143/21 75/144/21
f 75/145/22 79/146/22 78/147/22 74/148/22
f 76/149/23 80/150/23 79/151/23 75/152/23
f 74/153/24 78/154/24 77/155/24 73/156/24
f 89/165/17 93/166/17 96/167/17 92/168/17
f 90/181/21 89/182/21 92/183/21 91/184/21
f 91/185/22 95/186/22 94/187/22 90/188/22
f 92/189/23 96/190/23 95/191/23 91/192/23
f 90/193/24 94/194/24 93/195/24 89/196/24
o sign_horizontal
v -0.000000 0.175781 -0.958800
v 0.000000 -0.175781 -0.958800
v 0.175781 0.000000 -0.958800
v -0.175781 -0.000000 -0.958800
v 0.175781 0.000000 -0.950560
v 0.000000 -0.175781 -0.950560
v -0.000000 0.175781 -0.950560
v -0.175781 -0.000000 -0.950560
vn -0.0000 -0.0000 -1.0000
vn 0.7071 -0.7071 -0.0000
vn -0.7071 0.7071 -0.0000
vn 0.7071 0.7071 -0.0000
vn -0.7071 -0.7071 -0.0000
vt 0.507812 0.257812
vt 0.257812 0.507812
vt 0.007812 0.257812
vt 0.257812 0.007812
vt 0.550781 0.007812
vt 0.558594 0.007812
vt 0.558594 0.257812
vt 0.550781 0.257812
vt 0.574219 0.007812
vt 0.582031 0.007812
vt 0.582031 0.257812
vt 0.574219 0.257812
vt 0.527344 0.007812
vt 0.535156 0.007812
vt 0.535156 0.257812
vt 0.527344 0.257812
vt 0.605469 0.007812
vt 0.597656 0.007812
vt 0.597656 0.257812
vt 0.605469 0.257812
s 0
usemtl sign_atlas
f 97/201/25 99/202/25 98/203/25 100/204/25
f 99/205/26 101/206/26 102/207/26 98/208/26
f 100/209/27 104/210/27 103/211/27 97/212/27
f 97/213/28 103/214/28 101/215/28 99/216/28
f 98/217/29 102/218/29 104/219/29 100/220/29
