# Blender 3.5.0
# www.blender.org
mtllib gizmo.mtl
o 立方体
v 0.000000 -0.100000 0.100000
v 0.000000 0.100000 0.100000
v 0.000000 -0.100000 -0.100000
v 0.000000 0.100000 -0.100000
v 1.000000 -0.100000 0.100000
v 1.000000 0.100000 0.100000
v 1.000000 -0.100000 -0.100000
v 1.000000 0.100000 -0.100000
v 1.000000 0.100000 -0.100000
v 1.000000 -0.100000 -0.100000
v 1.000000 -0.100000 0.100000
v 1.000000 0.100000 0.100000
v 1.000000 0.240000 -0.240000
v 1.000000 -0.240000 -0.240000
v 1.000000 -0.240000 0.240000
v 1.000000 0.240000 0.240000
v 1.500000 0.000000 0.000000
v 1.500000 0.000000 0.000000
v 1.500000 0.000000 0.000000
v 1.500000 0.000000 0.000000
vn -1.0000 -0.0000 -0.0000
vn -0.0000 -0.0000 -1.0000
vn 0.4327 0.9015 -0.0000
vn -0.0000 -0.0000 1.0000
vn -0.0000 -1.0000 -0.0000
vn -0.0000 1.0000 -0.0000
vn 0.4327 -0.0000 -0.9015
vn 0.4327 -0.0000 0.9015
vn 0.4327 -0.9015 -0.0000
vt 0.375000 0.000000
vt 0.375000 1.000000
vt 0.125000 0.750000
vt 0.625000 0.000000
vt 0.625000 1.000000
vt 0.875000 0.750000
vt 0.375000 0.250000
vt 0.125000 0.500000
vt 0.625000 0.250000
vt 0.875000 0.500000
vt 0.000000 0.000000
vt 0.000000 0.000000
vt 0.375000 0.500000
vt 0.625000 0.500000
vt 0.000000 0.000000
vt 0.625000 0.500000
vt 0.000000 0.000000
vt 0.375000 0.500000
vt 0.375000 0.750000
vt 0.000000 0.000000
vt 0.625000 0.750000
vt 0.000000 0.000000
vt 0.625000 0.500000
vt 0.375000 0.500000
vt 0.375000 0.750000
vt 0.625000 0.750000
vt 0.625000 0.500000
vt 0.375000 0.500000
vt 0.375000 0.750000
vt 0.625000 0.750000
s 0
usemtl Material
f 1/1/1 2/4/1 4/9/1 3/7/1
f 3/7/2 4/9/2 9/16/2 10/18/2
f 13/23/3 16/26/3 20/30/3 17/27/3
f 11/19/4 12/21/4 2/5/4 1/2/4
f 3/8/5 10/18/5 11/19/5 1/3/5
f 9/16/6 4/10/6 2/6/6 12/21/6
f 8/14/6 7/13/6 10/17/6 9/15/6
f 7/13/6 5/11/6 11/19/6 10/18/6
f 6/12/6 8/14/6 9/16/6 12/21/6
f 5/11/6 6/12/6 12/22/6 11/20/6
f 7/13/1 8/14/1 13/23/1 14/24/1
f 5/11/1 7/13/1 14/24/1 15/25/1
f 8/14/1 6/12/1 16/26/1 13/23/1
f 6/12/1 5/11/1 15/25/1 16/26/1
f 18/28/6 17/27/6 20/30/6 19/29/6
f 14/24/7 13/23/7 17/27/7 18/28/7
f 16/26/8 15/25/8 19/29/8 20/30/8
f 15/25/9 14/24/9 18/28/9 19/29/9
o 立方体.001
v -0.100000 -0.100000 0.000000
v -0.100000 0.100000 0.000000
v 0.100000 -0.100000 0.000000
v 0.100000 0.100000 0.000000
v -0.100000 -0.100000 1.000000
v -0.100000 0.100000 1.000000
v 0.100000 -0.100000 1.000000
v 0.100000 0.100000 1.000000
v 0.100000 0.100000 1.000000
v 0.100000 -0.100000 1.000000
v -0.100000 -0.100000 1.000000
v -0.100000 0.100000 1.000000
v 0.240000 0.240000 1.000000
v 0.240000 -0.240000 1.000000
v -0.240000 -0.240000 1.000000
v -0.240000 0.240000 1.000000
v -0.000000 0.000000 1.500000
v -0.000000 0.000000 1.500000
v -0.000000 0.000000 1.500000
v -0.000000 0.000000 1.500000
vn -0.0000 -0.0000 -1.0000
vn 1.0000 -0.0000 -0.0000
vn -0.0000 0.9015 0.4327
vn -1.0000 -0.0000 -0.0000
vn -0.0000 -1.0000 -0.0000
vn -0.0000 1.0000 -0.0000
vn 0.9015 -0.0000 0.4327
vn -0.9015 -0.0000 0.4327
vn -0.0000 -0.9015 0.4327
vt 0.375000 0.000000
vt 0.375000 1.000000
vt 0.125000 0.750000
vt 0.625000 0.000000
vt 0.625000 1.000000
vt 0.875000 0.750000
vt 0.375000 0.250000
vt 0.125000 0.500000
vt 0.625000 0.250000
vt 0.875000 0.500000
vt 0.000000 0.000000
vt 0.000000 0.000000
vt 0.375000 0.500000
vt 0.625000 0.500000
vt 0.000000 0.000000
vt 0.625000 0.500000
vt 0.000000 0.000000
vt 0.375000 0.500000
vt 0.375000 0.750000
vt 0.000000 0.000000
vt 0.625000 0.750000
vt 0.000000 0.000000
vt 0.625000 0.500000
vt 0.375000 0.500000
vt 0.375000 0.750000
vt 0.625000 0.750000
vt 0.625000 0.500000
vt 0.375000 0.500000
vt 0.375000 0.750000
vt 0.625000 0.750000
s 0
usemtl Material.002
f 21/31/10 22/34/10 24/39/10 23/37/10
f 23/37/11 24/39/11 29/46/11 30/48/11
f 33/53/12 36/56/12 40/60/12 37/57/12
f 31/49/13 32/51/13 22/35/13 21/32/13
f 23/38/14 30/48/14 31/49/14 21/33/14
f 29/46/15 24/40/15 22/36/15 32/51/15
f 28/44/15 27/43/15 30/47/15 29/45/15
f 27/43/15 25/41/15 31/49/15 30/48/15
f 26/42/15 28/44/15 29/46/15 32/51/15
f 25/41/15 26/42/15 32/52/15 31/50/15
f 27/43/10 28/44/10 33/53/10 34/54/10
f 25/41/10 27/43/10 34/54/10 35/55/10
f 28/44/10 26/42/10 36/56/10 33/53/10
f 26/42/10 25/41/10 35/55/10 36/56/10
f 38/58/15 37/57/15 40/60/15 39/59/15
f 34/54/16 33/53/16 37/57/16 38/58/16
f 36/56/17 35/55/17 39/59/17 40/60/17
f 35/55/18 34/54/18 38/58/18 39/59/18
o 立方体.002
v -0.100000 0.000000 0.100000
v -0.100000 0.000000 -0.100000
v 0.100000 0.000000 0.100000
v 0.100000 0.000000 -0.100000
v -0.100000 1.000000 0.100000
v -0.100000 1.000000 -0.100000
v 0.100000 1.000000 0.100000
v 0.100000 1.000000 -0.100000
v 0.100000 1.000000 -0.100000
v 0.100000 1.000000 0.100000
v -0.100000 1.000000 0.100000
v -0.100000 1.000000 -0.100000
v 0.240000 1.000000 -0.240000
v 0.240000 1.000000 0.240000
v -0.240000 1.000000 0.240000
v -0.240000 1.000000 -0.240000
v 0.000000 1.500000 0.000000
v 0.000000 1.500000 0.000000
v 0.000000 1.500000 0.000000
v 0.000000 1.500000 0.000000
vn -0.0000 -1.0000 -0.0000
vn 1.0000 -0.0000 -0.0000
vn -0.0000 0.4327 -0.9015
vn -1.0000 -0.0000 -0.0000
vn -0.0000 -0.0000 1.0000
vn -0.0000 -0.0000 -1.0000
vn 0.9015 0.4327 -0.0000
vn -0.9015 0.4327 -0.0000
vn -0.0000 0.4327 0.9015
vt 0.375000 0.000000
vt 0.375000 1.000000
vt 0.125000 0.750000
vt 0.625000 0.000000
vt 0.625000 1.000000
vt 0.875000 0.750000
vt 0.375000 0.250000
vt 0.125000 0.500000
vt 0.625000 0.250000
vt 0.875000 0.500000
vt 0.000000 0.000000
vt 0.000000 0.000000
vt 0.375000 0.500000
vt 0.625000 0.500000
vt 0.000000 0.000000
vt 0.625000 0.500000
vt 0.000000 0.000000
vt 0.375000 0.500000
vt 0.375000 0.750000
vt 0.000000 0.000000
vt 0.625000 0.750000
vt 0.000000 0.000000
vt 0.625000 0.500000
vt 0.375000 0.500000
vt 0.375000 0.750000
vt 0.625000 0.750000
vt 0.625000 0.500000
vt 0.375000 0.500000
vt 0.375000 0.750000
vt 0.625000 0.750000
s 0
usemtl Material.003
f 41/61/19 42/64/19 44/69/19 43/67/19
f 43/67/20 44/69/20 49/76/20 50/78/20
f 53/83/21 56/86/21 60/90/21 57/87/21
f 51/79/22 52/81/22 42/65/22 41/62/22
f 43/68/23 50/78/23 51/79/23 41/63/23
f 49/76/24 44/70/24 42/66/24 52/81/24
f 48/74/24 47/73/24 50/77/24 49/75/24
f 47/73/24 45/71/24 51/79/24 50/78/24
f 46/72/24 48/74/24 49/76/24 52/81/24
f 45/71/24 46/72/24 52/82/24 51/80/24
f 47/73/19 48/74/19 53/83/19 54/84/19
f 45/71/19 47/73/19 54/84/19 55/85/19
f 48/74/19 46/72/19 56/86/19 53/83/19
f 46/72/19 45/71/19 55/85/19 56/86/19
f 58/88/24 57/87/24 60/90/24 59/89/24
f 54/84/25 53/83/25 57/87/25 58/88/25
f 56/86/26 55/85/26 59/89/26 60/90/26
f 55/85/27 54/84/27 58/88/27 59/89/27
