# Blender 3.5.0
# www.blender.org
mtllib cxd106_extra.mtl
o head.001
v 0.515588 1.945221 -5.089717
v 0.953379 1.945221 -5.089717
v 0.515588 2.081766 -5.053130
v 0.953379 2.081766 -5.053130
v 0.515588 2.081766 -5.020000
v 0.515588 1.945221 -5.020000
v 0.953379 2.081766 -5.020000
v 0.953379 1.945221 -5.020000
vn -0.0000 -0.0000 -1.0000
vn -0.0000 1.0000 -0.0000
vn 1.0000 -0.0000 -0.0000
vn -0.0000 -1.0000 -0.0000
vn -1.0000 -0.0000 -0.0000
vt 0.996877 0.965600
vt 0.990041 0.965600
vt 0.974987 0.965600
vt 0.984753 0.955834
vt 0.990041 0.972668
vt 0.996877 0.974621
vt 0.974987 0.974621
vt 0.984753 0.962902
vt 0.625000 1.000000
vt 0.990041 0.972668
vt 0.996877 0.974621
vt 0.625000 0.625000
vt 0.996877 0.965600
vt 0.990041 0.965600
vt 0.000000 1.000000
vt 0.974987 0.974621
vt 0.984753 0.962902
vt 0.000000 0.625000
vt 0.974987 0.965600
vt 0.984753 0.955834
s 0
usemtl extra_a#exterior
f 5/9/1 7/15/1 8/18/1 6/12/1
f 1/1/2 6/13/2 8/19/2 2/3/2
f 3/5/3 5/10/3 6/14/3 1/2/3
f 4/7/4 7/16/4 5/11/4 3/6/4
f 2/4/5 8/20/5 7/17/5 4/8/5
o head.002
v 0.515588 2.081766 -5.035000
v 0.515588 1.945221 -5.035000
v 0.953379 2.081766 -5.035000
v 0.953379 1.945221 -5.035000
vn -0.0000 -0.0000 -1.0000
vt 0.625000 1.000000
vt 0.625000 0.625000
vt 0.000000 1.000000
vt 0.000000 0.625000
s 0
usemtl default#lighttranslucent
f 9/21/6 11/23/6 12/24/6 10/22/6
o head.003
v -0.843932 2.081766 -5.035000
v -0.843932 1.945221 -5.035000
v -0.625036 2.081766 -5.035000
v -0.625036 1.945221 -5.035000
vn -0.0000 -0.0000 -1.0000
vt 0.312500 0.625000
vt 0.312500 0.250000
vt 0.000000 0.625000
vt 0.000000 0.250000
s 0
usemtl default#lighttranslucent
f 13/25/7 15/27/7 16/28/7 14/26/7
o head.004
v -0.843932 1.945221 -5.089717
v -0.625036 1.945221 -5.089717
v -0.843932 2.081766 -5.053130
v -0.625036 2.081766 -5.053130
v -0.843932 2.081766 -5.020000
v -0.843932 1.945221 -5.020000
v -0.625036 2.081766 -5.020000
v -0.625036 1.945221 -5.020000
vn -0.0000 -0.0000 -1.0000
vn -0.0000 1.0000 -0.0000
vn 1.0000 -0.0000 -0.0000
vn -0.0000 -1.0000 -0.0000
vn -1.0000 -0.0000 -0.0000
vt 0.996877 0.965600
vt 0.990041 0.965600
vt 0.974987 0.965600
vt 0.984753 0.955834
vt 0.990041 0.972668
vt 0.996877 0.974621
vt 0.974987 0.974621
vt 0.984753 0.962902
vt 0.312500 1.000000
vt 0.990041 0.972668
vt 0.996877 0.974621
vt 0.312500 0.625000
vt 0.996877 0.965600
vt 0.990041 0.965600
vt 0.000000 1.000000
vt 0.974987 0.974621
vt 0.984753 0.962902
vt 0.000000 0.625000
vt 0.974987 0.965600
vt 0.984753 0.955834
s 0
usemtl extra_a#exterior
f 21/37/8 23/43/8 24/46/8 22/40/8
f 17/29/9 22/41/9 24/47/9 18/31/9
f 19/33/10 21/38/10 22/42/10 17/30/10
f 20/35/11 23/44/11 21/39/11 19/34/11
f 18/32/12 24/48/12 23/45/12 20/36/12
