# Blender 5.2.1 LTS
# www.blender.org
mtllib evacuate_walkway_associate.mtl
o evacuate_walkway_associate
v -1.593750 -0.187500 0.531250
v -1.437500 -0.187500 0.531250
v -1.593750 -0.187500 -0.531250
v -1.437500 -0.187500 -0.531250
v -1.625000 -0.187500 0.531250
v -1.625000 -0.187500 -0.531250
v -1.406250 -0.187500 0.531250
v -1.406250 -0.187500 -0.531250
v -1.593750 -0.093750 -0.531250
v -1.593750 -0.093750 0.531250
v -1.437500 -0.093750 0.531250
v -1.437500 -0.093750 -0.531250
v -1.625000 -0.093750 -0.531250
v -1.625000 -0.093750 0.531250
v -1.406250 -0.093750 0.531250
v -1.406250 -0.093750 -0.531250
v -1.593750 -0.187500 -0.250000
v -1.593750 -0.187500 -0.281250
v -1.593750 -0.125000 -0.281250
v -1.593750 -0.125000 -0.250000
v -1.437500 -0.187500 -0.281250
v -1.437500 -0.187500 -0.250000
v -1.437500 -0.125000 -0.281250
v -1.437500 -0.125000 -0.250000
v -1.593750 -0.187500 0.281250
v -1.593750 -0.187500 0.250000
v -1.593750 -0.125000 0.250000
v -1.593750 -0.125000 0.281250
v -1.437500 -0.187500 0.250000
v -1.437500 -0.187500 0.281250
v -1.437500 -0.125000 0.250000
v -1.437500 -0.125000 0.281250
vn -0.0000 1.0000 -0.0000
vn -0.0000 -1.0000 -0.0000
vn -0.0000 -0.0000 1.0000
vn -1.0000 -0.0000 -0.0000
vn 1.0000 -0.0000 -0.0000
vn -0.0000 -0.0000 -1.0000
vt 0.273438 0.500000
vt 0.273438 0.765625
vt 0.265625 0.765625
vt 0.265625 0.500000
vt 0.281250 0.500000
vt 0.281250 0.765625
vt 0.289062 0.765625
vt 0.289062 0.500000
vt 0.296875 0.500000
vt 0.296875 0.765625
vt 0.117188 0.593750
vt 0.125000 0.593750
vt 0.125000 0.617188
vt 0.117188 0.617188
vt 0.140625 0.593750
vt 0.148438 0.593750
vt 0.148438 0.617188
vt 0.140625 0.617188
vt 0.000000 0.500000
vt 0.000000 0.523438
vt 0.265625 0.523438
vt 0.000000 0.546875
vt 0.265625 0.546875
vt 0.265625 0.570312
vt 0.000000 0.570312
vt 0.132812 0.593750
vt 0.132812 0.617188
vt 0.265625 0.593750
vt 0.000000 0.593750
vt 0.039062 0.617188
vt 0.039062 0.609375
vt 0.078125 0.609375
vt 0.078125 0.617188
vt 0.000000 0.609375
vt 0.039062 0.593750
vt 0.117188 0.609375
vt 0.078125 0.593750
vt 0.039062 0.625000
vt 0.078125 0.625000
vt 0.117188 0.625000
vt 0.000000 0.625000
s 0
usemtl rusty_aged_metal
f 10/1/1 9/2/1 13/3/1 14/4/1
f 1/5/2 5/1/2 6/2/2 3/6/2
f 4/6/2 8/7/2 7/8/2 2/5/2
f 12/7/1 11/8/1 15/9/1 16/10/1
f 2/11/3 7/12/3 15/13/3 11/14/3
f 5/15/3 1/16/3 10/17/3 14/18/3
f 6/4/4 5/19/4 14/20/4 13/21/4
f 4/21/4 2/20/4 11/22/4 12/23/4
f 1/22/5 3/23/5 9/24/5 10/25/5
f 8/26/6 4/12/6 12/13/6 16/27/6
f 7/25/5 8/24/5 16/28/5 15/29/5
f 3/15/6 6/26/6 13/27/6 9/18/6
f 19/30/1 20/31/1 24/32/1 23/33/1
f 20/34/3 17/29/3 22/35/3 24/31/3
f 17/32/2 18/33/2 21/14/2 22/36/2
f 18/35/6 19/31/6 23/32/6 21/37/6
f 27/38/1 28/30/1 32/33/1 31/39/1
f 28/32/3 25/37/3 30/11/3 32/36/3
f 25/33/2 26/39/2 29/40/2 30/14/2
f 26/34/6 27/41/6 31/38/6 29/31/6
