# Blender 5.2.1 LTS
# www.blender.org
mtllib evacuate_walkway_railing.mtl
o evacuate_walkway_railing
v -2.281250 1.000000 -0.531250
v -2.281250 1.000000 0.531250
v -2.187500 1.000000 0.531250
v -2.187500 1.000000 -0.531250
v -2.187500 1.062500 -0.531250
v -2.187500 1.062500 0.531250
v -2.281250 1.062500 -0.531250
v -2.281250 1.062500 0.531250
v -2.281250 0.937500 0.218750
v -2.281250 0.937500 0.250000
v -2.281250 1.062500 0.218750
v -2.281250 1.062500 0.250000
v -2.312500 0.968750 0.250000
v -2.312500 0.968750 0.218750
v -2.312500 1.062500 0.218750
v -2.312500 1.062500 0.250000
v -2.281250 1.281250 0.250000
v -2.281250 1.281250 0.218750
v -2.312500 1.281250 0.250000
v -2.312500 1.281250 0.218750
v -2.281250 1.312500 0.250000
v -2.281250 1.312500 0.218750
v -2.312500 1.312500 0.250000
v -2.312500 1.312500 0.218750
v -2.281250 1.593750 0.250000
v -2.281250 1.593750 0.218750
v -2.312500 1.593750 0.250000
v -2.312500 1.593750 0.218750
v -2.281250 1.625000 0.250000
v -2.281250 1.625000 0.218750
v -2.312500 1.625000 0.250000
v -2.312500 1.625000 0.218750
v -2.281250 1.593750 -0.250000
v -2.312500 1.593750 -0.250000
v -2.281250 1.625000 -0.250000
v -2.312500 1.625000 -0.250000
v -2.281250 1.593750 0.531250
v -2.312500 1.593750 0.531250
v -2.281250 1.625000 0.531250
v -2.312500 1.625000 0.531250
v -2.281250 1.281250 0.531250
v -2.312500 1.281250 0.531250
v -2.281250 1.312500 0.531250
v -2.312500 1.312500 0.531250
v -2.281250 1.281250 -0.250000
v -2.312500 1.281250 -0.250000
v -2.281250 1.312500 -0.250000
v -2.312500 1.312500 -0.250000
v -2.281250 0.937500 -0.281250
v -2.281250 0.937500 -0.250000
v -2.281250 1.062500 -0.281250
v -2.281250 1.062500 -0.250000
v -2.312500 0.968750 -0.250000
v -2.312500 0.968750 -0.281250
v -2.312500 1.062500 -0.281250
v -2.312500 1.062500 -0.250000
v -2.281250 1.281250 -0.281250
v -2.312500 1.281250 -0.281250
v -2.281250 1.312500 -0.281250
v -2.312500 1.312500 -0.281250
v -2.281250 1.593750 -0.281250
v -2.312500 1.593750 -0.281250
v -2.281250 1.625000 -0.281250
v -2.312500 1.625000 -0.281250
v -2.281250 1.593750 -0.531250
v -2.312500 1.593750 -0.531250
v -2.281250 1.625000 -0.531250
v -2.312500 1.625000 -0.531250
v -2.281250 1.281250 -0.531250
v -2.312500 1.281250 -0.531250
v -2.281250 1.312500 -0.531250
v -2.312500 1.312500 -0.531250
vn -1.0000 -0.0000 -0.0000
vn 1.0000 -0.0000 -0.0000
vn -0.0000 1.0000 -0.0000
vn -0.0000 -1.0000 -0.0000
vn -0.0000 -0.0000 1.0000
vn -0.7071 -0.7071 -0.0000
vn -0.0000 -0.0000 -1.0000
vt 0.695312 0.320312
vt 0.429688 0.320312
vt 0.429688 0.335938
vt 0.695312 0.335938
vt 0.695312 0.351562
vt 0.429688 0.351562
vt 0.734375 0.000000
vt 0.734375 0.265625
vt 0.710938 0.265625
vt 0.710938 0.000000
vt 0.750000 0.000000
vt 0.742188 0.000000
vt 0.742188 0.117188
vt 0.750000 0.117188
vt 0.507812 0.000000
vt 0.500000 0.000000
vt 0.500000 0.023438
vt 0.507812 0.023438
vt 0.734375 0.296875
vt 0.726562 0.296875
vt 0.726562 0.273438
vt 0.710938 0.343750
vt 0.710938 0.335938
vt 0.703125 0.335938
vt 0.703125 0.343750
vt 0.734375 0.351562
vt 0.726562 0.351562
vt 0.718750 0.296875
vt 0.718750 0.265625
vt 0.710938 0.273438
vt 0.710938 0.296875
vt 0.710938 0.351562
vt 0.718750 0.351562
vt 0.500000 0.078125
vt 0.507812 0.078125
vt 0.507812 0.171875
vt 0.515625 0.171875
vt 0.515625 0.226562
vt 0.507812 0.226562
vt 0.562500 0.000000
vt 0.570312 0.000000
vt 0.570312 0.070312
vt 0.562500 0.070312
vt 0.500000 0.085938
vt 0.507812 0.085938
vt 0.429688 0.078125
vt 0.429688 0.085938
vt 0.515625 0.234375
vt 0.507812 0.234375
vt 0.578125 0.070312
vt 0.578125 0.000000
vt 0.515625 0.304688
vt 0.507812 0.304688
vt 0.585938 0.000000
vt 0.585938 0.070312
vt 0.500000 0.156250
vt 0.507812 0.156250
vt 0.742188 0.070312
vt 0.742188 0.078125
vt 0.734375 0.078125
vt 0.734375 0.070312
vt 0.515625 0.312500
vt 0.507812 0.312500
vt 0.742188 0.195312
vt 0.734375 0.195312
vt 0.500000 0.164062
vt 0.507812 0.164062
vt 0.742188 0.234375
vt 0.750000 0.234375
vt 0.632812 0.304688
vt 0.632812 0.312500
vt 0.625000 0.164062
vt 0.625000 0.156250
vt 0.429688 0.156250
vt 0.429688 0.164062
vt 0.437500 0.312500
vt 0.437500 0.304688
vt 0.593750 0.070312
vt 0.593750 0.000000
vt 0.437500 0.234375
vt 0.437500 0.226562
vt 0.601562 0.070312
vt 0.601562 0.000000
vt 0.625000 0.085938
vt 0.625000 0.078125
vt 0.632812 0.226562
vt 0.632812 0.234375
vt 0.750000 0.351562
vt 0.742188 0.351562
vt 0.546875 0.000000
vt 0.539062 0.000000
vt 0.539062 0.062500
vt 0.546875 0.062500
vt 0.632812 0.000000
vt 0.625000 0.000000
vt 0.625000 0.023438
vt 0.632812 0.023438
vt 0.742188 0.265625
vt 0.742188 0.296875
vt 0.734375 0.273438
vt 0.703125 0.351562
vt 0.726562 0.265625
vt 0.718750 0.273438
vt 0.632812 0.078125
vt 0.632812 0.171875
vt 0.640625 0.171875
vt 0.640625 0.226562
vt 0.609375 0.000000
vt 0.609375 0.070312
vt 0.632812 0.085938
vt 0.640625 0.234375
vt 0.640625 0.304688
vt 0.617188 0.000000
vt 0.617188 0.070312
vt 0.632812 0.156250
vt 0.742188 0.203125
vt 0.734375 0.203125
vt 0.640625 0.312500
vt 0.632812 0.164062
vt 0.531250 0.000000
vt 0.523438 0.000000
vt 0.523438 0.062500
vt 0.531250 0.062500
vt 0.703125 0.304688
vt 0.703125 0.312500
vt 0.695312 0.164062
vt 0.695312 0.156250
vt 0.695312 0.085938
vt 0.695312 0.078125
vt 0.703125 0.226562
vt 0.703125 0.234375
s 0
usemtl rusty_metal
f 18/11/4 20/12/4 46/13/4 45/14/4
f 14/15/1 13/16/1 16/17/1 15/18/1
f 10/8/5 12/19/5 16/20/5 13/21/5
f 9/22/6 10/23/6 13/24/6 14/25/6
f 16/20/5 12/19/5 17/26/5 19/27/5
f 11/28/7 9/29/7 14/30/7 15/31/7
f 11/28/7 15/31/7 20/32/7 18/33/7
f 15/18/1 16/17/1 19/34/1 20/35/1
f 12/36/2 11/37/2 18/38/2 17/39/2
f 23/40/5 21/41/5 25/42/5 27/43/5
f 20/35/1 19/34/1 23/44/1 24/45/1
f 23/44/1 19/34/1 42/46/1 44/47/1
f 17/39/2 18/38/2 22/48/2 21/49/2
f 27/42/4 25/50/4 37/51/4 38/41/4
f 21/49/2 22/48/2 26/52/2 25/53/2
f 22/54/7 24/51/7 28/50/7 26/55/7
f 24/45/1 23/44/1 27/56/1 28/57/1
f 29/58/3 30/59/3 32/60/3 31/61/3
f 25/53/2 26/52/2 30/62/2 29/63/2
f 32/60/3 30/59/3 35/64/3 36/65/3
f 28/57/1 27/56/1 31/66/1 32/67/1
f 26/14/4 28/13/4 34/68/4 33/69/4
f 30/62/2 26/52/2 33/70/2 35/71/2
f 28/57/1 32/67/1 36/72/1 34/73/1
f 31/66/1 27/56/1 38/74/1 40/75/1
f 25/53/2 29/63/2 39/76/2 37/77/2
f 29/58/3 31/61/3 40/7/3 39/12/3
f 21/78/3 23/55/3 44/54/3 43/79/3
f 17/39/2 21/49/2 43/80/2 41/81/2
f 19/78/4 17/82/4 41/83/4 42/79/4
f 20/35/1 24/45/1 48/84/1 46/85/1
f 22/48/2 18/38/2 45/86/2 47/87/2
f 24/68/3 22/69/3 47/88/3 48/89/3
f 57/90/4 58/91/4 70/92/4 69/93/4
f 54/94/1 53/95/1 56/96/1 55/97/1
f 50/98/5 52/99/5 56/19/5 53/100/5
f 49/32/6 50/22/6 53/25/6 54/101/6
f 56/19/5 52/99/5 45/89/5 46/26/5
f 51/20/7 49/102/7 54/103/7 55/28/7
f 51/20/7 55/28/7 58/33/7 57/27/7
f 55/97/1 56/96/1 46/85/1 58/104/1
f 52/105/2 51/106/2 57/107/2 45/86/2
f 48/83/5 47/108/5 33/109/5 34/82/5
f 58/104/1 46/85/1 48/84/1 60/110/1
f 45/86/2 57/107/2 59/111/2 47/87/2
f 47/87/2 59/111/2 61/112/2 33/70/2
f 59/113/7 60/108/7 62/109/7 61/114/7
f 60/110/1 48/84/1 34/73/1 62/115/1
f 35/64/3 63/116/3 64/117/3 36/65/3
f 33/70/2 61/112/2 63/118/2 35/71/2
f 64/117/3 63/116/3 67/98/3 68/8/3
f 62/115/1 34/73/1 36/72/1 64/119/1
f 61/120/4 62/121/4 66/122/4 65/123/4
f 63/118/2 61/112/2 65/124/2 67/125/2
f 62/115/1 64/119/1 68/126/1 66/127/1
f 58/104/1 60/110/1 72/128/1 70/129/1
f 59/111/2 57/107/2 69/130/2 71/131/2
f 60/120/3 59/91/3 71/92/3 72/123/3
usemtl walkway_base_concrete
f 1/1/1 2/2/1 8/3/1 7/4/1
f 3/3/2 4/4/2 5/5/2 6/6/2
f 6/7/3 5/8/3 7/9/3 8/10/3
