# Blender 5.2.1 LTS
# www.blender.org
mtllib evacuate_walkway.mtl
o evacuate_walkway
v -1.718750 0.968750 0.531250
v -1.718750 1.000000 0.531250
v -1.718750 0.968750 -0.531250
v -1.718750 1.000000 -0.531250
v -2.281250 1.000000 -0.531250
v -2.281250 1.000000 0.531250
v -2.281250 0.968750 0.531250
v -2.281250 0.968750 -0.531250
v -2.187500 0.968750 0.531250
v -1.812500 0.968750 0.531250
v -1.812500 0.968750 -0.531250
v -2.187500 0.968750 -0.531250
v -1.812500 1.000000 0.531250
v -2.187500 1.000000 0.531250
v -2.187500 1.000000 -0.531250
v -1.812500 1.000000 -0.531250
v -1.750000 0.968750 0.531250
v -1.750000 0.968750 -0.531250
v -2.250000 0.968750 0.531250
v -2.250000 0.968750 -0.531250
v -2.218750 0.968750 0.531250
v -1.781250 0.968750 0.531250
v -1.781250 0.968750 -0.531250
v -2.218750 0.968750 -0.531250
v -2.250000 0.906250 -0.531250
v -2.250000 0.906250 0.531250
v -2.218750 0.906250 -0.531250
v -1.750000 0.906250 -0.531250
v -1.750000 0.906250 0.531250
v -1.781250 0.906250 0.531250
v -2.218750 0.906250 0.531250
v -1.781250 0.906250 -0.531250
v -2.281250 0.906250 -0.531250
v -2.281250 0.906250 0.531250
v -2.187500 0.906250 -0.531250
v -1.718750 0.906250 -0.531250
v -1.718750 0.906250 0.531250
v -1.812500 0.906250 0.531250
v -2.187500 0.906250 0.531250
v -1.812500 0.906250 -0.531250
v -2.281250 0.875000 -0.531250
v -2.281250 0.875000 0.531250
v -2.187500 0.875000 -0.531250
v -1.718750 0.875000 -0.531250
v -1.718750 0.875000 0.531250
v -1.812500 0.875000 0.531250
v -2.187500 0.875000 0.531250
v -1.812500 0.875000 -0.531250
v -2.218750 0.968750 0.031250
v -1.781250 0.968750 0.031250
v -1.781250 0.968750 -0.031250
v -2.218750 0.968750 -0.031250
v -2.218750 0.906250 -0.031250
v -1.781250 0.906250 0.031250
v -2.218750 0.906250 0.031250
v -1.781250 0.906250 -0.031250
v -1.812500 1.000000 0.531250
v -2.187500 1.000000 0.531250
v -2.187500 1.000000 -0.531250
v -1.812500 1.000000 -0.531250
vn 1.0000 -0.0000 -0.0000
vn -1.0000 -0.0000 -0.0000
vn -0.0000 1.0000 -0.0000
vn -0.0000 -1.0000 -0.0000
vn -0.0000 -0.0000 -1.0000
vn -0.0000 -0.0000 1.0000
vt 0.109375 0.390625
vt 0.375000 0.390625
vt 0.375000 0.398438
vt 0.109375 0.398438
vt 0.109375 0.312500
vt 0.109375 0.320312
vt 0.375000 0.320312
vt 0.375000 0.312500
vt 0.375000 0.000000
vt 0.375000 0.265625
vt 0.351562 0.265625
vt 0.351562 0.000000
vt 0.328125 0.000000
vt 0.328125 0.265625
vt 0.046875 0.265625
vt 0.046875 0.000000
vt 0.023438 0.000000
vt 0.023438 0.265625
vt 0.093750 0.265625
vt 0.093750 0.000000
vt 0.070312 0.000000
vt 0.070312 0.265625
vt 0.421875 0.265625
vt 0.421875 0.000000
vt 0.398438 0.000000
vt 0.398438 0.265625
vt 0.000000 0.265625
vt 0.000000 0.000000
vt 0.109375 0.367188
vt 0.375000 0.367188
vt 0.375000 0.351562
vt 0.109375 0.351562
vt 0.375000 0.382812
vt 0.109375 0.382812
vt 0.109375 0.296875
vt 0.375000 0.296875
vt 0.375000 0.281250
vt 0.109375 0.281250
vt 0.109375 0.343750
vt 0.375000 0.343750
vt 0.375000 0.335938
vt 0.109375 0.335938
vt 0.109375 0.273438
vt 0.375000 0.273438
vt 0.109375 0.265625
vt 0.375000 0.328125
vt 0.109375 0.328125
vt 0.000000 0.296875
vt 0.000000 0.312500
vt 0.000000 0.328125
vt 0.000000 0.281250
vt 0.234375 0.000000
vt 0.234375 0.265625
s 0
usemtl rusty_aged_metal
f 1/1/1 3/2/1 4/3/1 2/4/1
f 7/5/2 6/6/2 5/7/2 8/8/2
f 14/9/3 15/10/3 5/11/3 6/12/3
f 12/11/4 9/12/4 7/13/4 8/14/4
f 3/15/4 1/16/4 10/17/4 11/18/4
f 44/19/4 45/20/4 46/21/4 48/22/4
f 43/23/4 47/24/4 42/25/4 41/26/4
f 2/17/3 4/18/3 16/27/3 13/28/3
f 35/26/3 33/10/3 34/9/3 39/25/3
f 36/22/3 40/15/3 38/16/3 37/21/3
f 22/29/2 23/30/2 32/31/2 30/32/2
f 18/33/1 17/34/1 29/29/1 28/30/1
f 19/35/2 20/36/2 25/37/2 26/38/2
f 24/8/1 21/5/1 31/35/1 27/36/1
f 38/39/2 40/40/2 48/41/2 46/42/2
f 36/31/1 37/32/1 45/39/1 44/40/1
f 34/43/2 33/44/2 41/10/2 42/45/2
f 35/37/1 39/38/1 47/43/1 43/44/1
f 9/6/1 12/7/1 15/46/1 14/47/1
f 10/34/2 13/1/2 16/2/2 11/33/2
f 56/35/5 53/48/5 52/49/5 51/5/5
f 50/47/6 49/50/6 55/49/6 54/5/6
f 54/45/4 55/27/4 53/51/4 56/38/4
f 51/35/3 52/48/3 49/51/3 50/38/3
usemtl square_mesh
f 57/13/4 58/52/4 59/53/4 60/14/4
o evacuate_walkway_overlay_patch
v -1.718750 1.005000 0.531250
v -2.281250 1.005000 0.531250
v -2.281250 1.005000 -0.531250
v -1.718750 1.005000 -0.531250
vn -0.0000 1.0000 -0.0000
vt 0.234375 0.000000
vt 0.234375 0.265625
vt 0.093750 0.265625
vt 0.093750 0.000000
s 0
usemtl square_mesh
f 61/54/7 64/55/7 63/56/7 62/57/7
