# Blender 5.2.1 LTS
# www.blender.org
mtllib general_beam_double_track_walkway_support.mtl
o general_beam_double_track_walkway_support
v -1.281250 -0.312500 0.093750
v -1.281250 -0.187500 0.093750
v -1.281250 -0.312500 -0.093750
v -1.281250 -0.187500 -0.093750
v -2.093750 0.781250 0.093750
v -1.906250 0.781250 0.093750
v -2.093750 0.781250 -0.093750
v -1.906250 0.781250 -0.093750
v -0.718750 -0.875000 -0.093750
v -0.718750 -0.875000 0.093750
v -0.781250 -1.000000 -0.093750
v -0.781250 -1.000000 0.093750
v -1.906250 0.656250 -0.093750
v -1.906250 -0.062500 -0.093750
v -2.093750 -0.062500 -0.093750
v -1.906250 -0.062500 0.093750
v -2.093750 -0.062500 0.093750
v -1.781250 -0.187500 0.093750
v -1.781250 -0.187500 -0.093750
v -1.781250 -0.312500 0.093750
v -1.781250 -0.312500 -0.093750
v -1.843750 -0.468750 0.093750
v -1.781250 -0.343750 0.093750
v -1.843750 -0.468750 -0.093750
v -1.781250 -0.343750 -0.093750
v -1.906250 0.781250 0.062500
v -1.906250 0.781250 -0.062500
v -1.937500 0.781250 0.062500
v -1.937500 0.781250 -0.062500
v -1.906250 -0.062500 0.062500
v -1.906250 -0.062500 -0.062500
v -1.937500 -0.062500 0.062500
v -1.937500 -0.062500 -0.062500
v -2.093750 0.781250 0.125000
v -2.093750 0.781250 -0.125000
v -2.156250 0.875000 0.125000
v -2.156250 0.875000 -0.125000
v -2.281250 0.875000 0.125000
v -2.281250 0.875000 -0.125000
v -1.906250 0.656250 0.093750
v -1.906250 0.656250 0.125000
v -2.156250 0.875000 0.093750
v -2.156250 0.875000 -0.093750
v -2.281250 0.875000 0.093750
v -2.281250 0.875000 -0.093750
v -2.281250 0.843750 0.093750
v -2.281250 0.843750 -0.093750
v -2.187500 0.843750 0.093750
v -2.187500 0.843750 -0.093750
v -2.125000 0.750000 -0.093750
v -2.125000 0.750000 0.093750
v -2.125000 0.656250 -0.093750
v -2.125000 0.656250 -0.125000
v -2.125000 0.656250 0.125000
v -2.125000 0.656250 0.093750
v -2.281250 0.843750 -0.125000
v -2.281250 0.843750 0.125000
v -1.906250 0.781250 0.125000
v -1.906250 0.781250 -0.125000
v -1.843750 0.875000 0.125000
v -1.843750 0.875000 -0.125000
v -1.718750 0.875000 0.125000
v -1.718750 0.875000 -0.125000
v -2.093750 0.656250 0.093750
v -2.093750 0.656250 0.125000
v -1.843750 0.875000 0.093750
v -1.843750 0.875000 -0.093750
v -1.718750 0.875000 0.093750
v -1.718750 0.875000 -0.093750
v -1.718750 0.843750 0.093750
v -1.718750 0.843750 -0.093750
v -1.812500 0.843750 0.093750
v -1.812500 0.843750 -0.093750
v -1.875000 0.750000 -0.093750
v -1.875000 0.750000 0.093750
v -1.875000 0.656250 -0.093750
v -1.875000 0.656250 -0.125000
v -1.875000 0.656250 0.125000
v -1.875000 0.656250 0.093750
v -1.718750 0.843750 -0.125000
v -1.718750 0.843750 0.125000
v -2.093750 0.781250 -0.062500
v -2.093750 -0.062500 -0.062500
v -2.093750 0.781250 0.062500
v -2.093750 -0.062500 0.062500
v -2.062500 0.781250 -0.062500
v -2.062500 -0.062500 -0.062500
v -2.062500 0.781250 0.062500
v -2.062500 -0.062500 0.062500
v -1.906250 0.656250 -0.125000
v -2.093750 0.656250 -0.093750
v -2.093750 0.656250 -0.125000
v -0.718750 -0.875000 -0.062500
v -0.781250 -1.000000 -0.062500
v -1.843750 -0.468750 -0.062500
v -1.781250 -0.343750 -0.062500
v -0.718750 -0.875000 0.062500
v -0.781250 -1.000000 0.062500
v -1.843750 -0.468750 0.062500
v -1.781250 -0.343750 0.062500
v -1.593750 -0.593750 -0.062500
v -1.531250 -0.468750 -0.062500
v -1.593750 -0.593750 0.062500
v -1.531250 -0.468750 0.062500
v -1.531250 -0.625000 -0.062500
v -1.468750 -0.500000 -0.062500
v -1.531250 -0.625000 0.062500
v -1.468750 -0.500000 0.062500
v -1.218750 -0.781250 -0.062500
v -1.156250 -0.656250 -0.062500
v -1.218750 -0.781250 0.062500
v -1.156250 -0.656250 0.062500
v -1.156250 -0.812500 -0.062500
v -1.093750 -0.687500 -0.062500
v -1.156250 -0.812500 0.062500
v -1.093750 -0.687500 0.062500
v -1.281250 -0.312500 0.062500
v -1.781250 -0.312500 0.062500
v -1.281250 -0.187500 0.062500
v -1.781250 -0.187500 0.062500
v -1.281250 -0.312500 -0.062500
v -1.781250 -0.312500 -0.062500
v -1.281250 -0.187500 -0.062500
v -1.781250 -0.187500 -0.062500
v -1.281250 -0.218750 0.062500
v -1.781250 -0.218750 0.062500
v -1.281250 -0.218750 -0.062500
v -1.781250 -0.218750 -0.062500
v -1.281250 -0.281250 0.062500
v -1.781250 -0.281250 0.062500
v -1.281250 -0.281250 -0.062500
v -1.781250 -0.281250 -0.062500
v -2.000000 -0.390625 -0.093750
v -2.000000 -0.390625 0.093750
v -1.843750 -0.312500 0.093750
v -1.843750 -0.312500 -0.093750
v -1.906250 -0.062500 -0.093750
v -2.093750 -0.062500 -0.093750
v -1.906250 -0.062500 0.093750
v -2.093750 -0.062500 0.093750
v -1.781250 -0.187500 0.093750
v -1.781250 -0.187500 -0.093750
v -1.781250 -0.312500 0.093750
v -1.781250 -0.312500 -0.093750
v -1.843750 -0.468750 0.093750
v -1.781250 -0.343750 0.093750
v -1.843750 -0.468750 -0.093750
v -1.781250 -0.343750 -0.093750
v -2.718750 -0.312500 0.093750
v -2.718750 -0.187500 0.093750
v -2.718750 -0.312500 -0.093750
v -2.718750 -0.187500 -0.093750
v -3.281250 -0.875000 -0.093750
v -3.281250 -0.875000 0.093750
v -3.218750 -1.000000 -0.093750
v -3.218750 -1.000000 0.093750
v -2.218750 -0.187500 0.093750
v -2.218750 -0.187500 -0.093750
v -2.218750 -0.312500 0.093750
v -2.218750 -0.312500 -0.093750
v -2.156250 -0.468750 0.093750
v -2.218750 -0.343750 0.093750
v -2.156250 -0.468750 -0.093750
v -2.218750 -0.343750 -0.093750
v -3.281250 -0.875000 -0.062500
v -3.218750 -1.000000 -0.062500
v -2.156250 -0.468750 -0.062500
v -2.218750 -0.343750 -0.062500
v -3.281250 -0.875000 0.062500
v -3.218750 -1.000000 0.062500
v -2.156250 -0.468750 0.062500
v -2.218750 -0.343750 0.062500
v -2.406250 -0.593750 -0.062500
v -2.468750 -0.468750 -0.062500
v -2.406250 -0.593750 0.062500
v -2.468750 -0.468750 0.062500
v -2.468750 -0.625000 -0.062500
v -2.531250 -0.500000 -0.062500
v -2.468750 -0.625000 0.062500
v -2.531250 -0.500000 0.062500
v -2.781250 -0.781250 -0.062500
v -2.843750 -0.656250 -0.062500
v -2.781250 -0.781250 0.062500
v -2.843750 -0.656250 0.062500
v -2.843750 -0.812500 -0.062500
v -2.906250 -0.687500 -0.062500
v -2.843750 -0.812500 0.062500
v -2.906250 -0.687500 0.062500
v -2.718750 -0.312500 0.062500
v -2.218750 -0.312500 0.062500
v -2.718750 -0.187500 0.062500
v -2.218750 -0.187500 0.062500
v -2.718750 -0.312500 -0.062500
v -2.218750 -0.312500 -0.062500
v -2.718750 -0.187500 -0.062500
v -2.218750 -0.187500 -0.062500
v -2.718750 -0.218750 0.062500
v -2.218750 -0.218750 0.062500
v -2.718750 -0.218750 -0.062500
v -2.218750 -0.218750 -0.062500
v -2.718750 -0.281250 0.062500
v -2.218750 -0.281250 0.062500
v -2.718750 -0.281250 -0.062500
v -2.218750 -0.281250 -0.062500
v -2.156250 -0.312500 0.093750
v -2.156250 -0.312500 -0.093750
v -2.093750 -0.062500 -0.093750
v -1.906250 -0.062500 -0.093750
v -2.093750 -0.062500 0.093750
v -1.906250 -0.062500 0.093750
v -2.218750 -0.187500 0.093750
v -2.218750 -0.187500 -0.093750
v -2.218750 -0.312500 0.093750
v -2.218750 -0.312500 -0.093750
v -2.156250 -0.468750 0.093750
v -2.218750 -0.343750 0.093750
v -2.156250 -0.468750 -0.093750
v -2.218750 -0.343750 -0.093750
v -1.273438 -0.125000 0.148438
v -1.281250 -0.132812 0.148438
v -1.273438 -0.132812 0.156250
v -1.273438 -0.367188 0.156250
v -1.281250 -0.367188 0.148438
v -1.273438 -0.375000 0.148438
v -1.273438 -0.125000 -0.151633
v -1.273438 -0.132812 -0.159445
v -1.281250 -0.132812 -0.151633
v -1.273438 -0.375000 -0.151633
v -1.281250 -0.367188 -0.151633
v -1.273438 -0.367188 -0.159445
v -0.718750 -0.125000 0.148438
v -0.718750 -0.132812 0.156250
v -0.718750 -0.367188 0.156250
v -0.718750 -0.375000 0.148438
v -0.718750 -0.132812 -0.159445
v -0.718750 -0.125000 -0.151633
v -0.718750 -0.375000 -0.151633
v -0.718750 -0.367188 -0.159445
v -2.726562 -0.125000 0.148438
v -2.726562 -0.132812 0.156250
v -2.718750 -0.132812 0.148438
v -2.726562 -0.367188 0.156250
v -2.726562 -0.375000 0.148438
v -2.718750 -0.367188 0.148438
v -2.726562 -0.125000 -0.151633
v -2.718750 -0.132812 -0.151633
v -2.726562 -0.132812 -0.159445
v -2.726562 -0.375000 -0.151633
v -2.726562 -0.367188 -0.159445
v -2.718750 -0.367188 -0.151633
v -3.281250 -0.132812 0.156250
v -3.281250 -0.125000 0.148438
v -3.281250 -0.375000 0.148438
v -3.281250 -0.367188 0.156250
v -3.281250 -0.125000 -0.151633
v -3.281250 -0.132812 -0.159445
v -3.281250 -0.367188 -0.159445
v -3.281250 -0.375000 -0.151633
vn -0.0000 -0.0000 -1.0000
vn -0.0000 -0.0000 1.0000
vn -0.0000 1.0000 -0.0000
vn 1.0000 -0.0000 -0.0000
vn 0.8321 0.5547 -0.0000
vn -1.0000 -0.0000 -0.0000
vn -0.0000 -1.0000 -0.0000
vn -0.8321 -0.5547 -0.0000
vn -0.7682 -0.6402 -0.0000
vn -0.8321 0.5547 -0.0000
vn 0.8321 -0.5547 -0.0000
vn 0.7682 -0.6402 -0.0000
vn -0.4472 -0.8944 -0.0000
vn 0.4472 0.8944 -0.0000
vn -0.8944 0.4472 -0.0000
vn 0.8944 -0.4472 -0.0000
vn 0.7071 0.7071 -0.0000
vn 0.4472 -0.8944 -0.0000
vn -0.4472 0.8944 -0.0000
vn 0.8944 0.4472 -0.0000
vn -0.8944 -0.4472 -0.0000
vn -0.7071 0.7071 -0.0000
vn -0.5773 0.5774 0.5774
vn -0.5773 -0.5774 0.5774
vn -0.5773 0.5774 -0.5774
vn -0.5773 -0.5774 -0.5774
vn 0.5773 0.5774 0.5774
vn 0.5773 -0.5774 0.5774
vn 0.5773 0.5774 -0.5774
vn 0.5773 -0.5774 -0.5774
vn -0.7071 -0.0000 0.7071
vn -0.7071 -0.7071 -0.0000
vn -0.7071 -0.0000 -0.7071
vn -0.0000 -0.7071 -0.7071
vn -0.0000 -0.7071 0.7071
vn -0.0000 0.7071 0.7071
vn -0.0000 0.7071 -0.7071
vn 0.7071 -0.0000 0.7071
vn 0.7071 -0.7071 -0.0000
vn 0.7071 -0.0000 -0.7071
vt 0.320312 0.654297
vt 0.324219 0.662109
vt 0.390625 0.628906
vt 0.386719 0.621094
vt 0.669922 0.605469
vt 0.666016 0.597656
vt 0.732422 0.564453
vt 0.736328 0.572266
vt 0.732422 0.251953
vt 0.732422 0.199219
vt 0.744141 0.199219
vt 0.744141 0.251953
vt 0.855469 0.337891
vt 0.863281 0.337891
vt 0.863281 0.345703
vt 0.855469 0.345703
vt 0.853516 0.347656
vt 0.853516 0.345703
vt 0.865234 0.345703
vt 0.865234 0.347656
vt 0.824219 0.484375
vt 0.822266 0.484375
vt 0.822266 0.431641
vt 0.824219 0.431641
vt 0.419922 0.822266
vt 0.417969 0.822266
vt 0.417969 0.769531
vt 0.419922 0.769531
vt 0.835938 0.128906
vt 0.835938 0.181641
vt 0.833984 0.181641
vt 0.833984 0.128906
vt 0.833984 0.617188
vt 0.833984 0.564453
vt 0.832031 0.564453
vt 0.832031 0.617188
vt 0.583984 0.269531
vt 0.583984 0.216797
vt 0.591797 0.216797
vt 0.591797 0.269531
vt 0.732422 0.390625
vt 0.744141 0.390625
vt 0.744141 0.337891
vt 0.732422 0.337891
vt 0.853516 0.337891
vt 0.853516 0.335938
vt 0.865234 0.335938
vt 0.865234 0.337891
vt 0.880859 0.658203
vt 0.880859 0.660156
vt 0.873047 0.660156
vt 0.873047 0.658203
vt 0.869141 0.208984
vt 0.871094 0.208984
vt 0.871094 0.214844
vt 0.869141 0.214844
vt 0.865234 0.142578
vt 0.851562 0.142578
vt 0.851562 0.144531
vt 0.865234 0.144531
vt 0.853516 0.208984
vt 0.855469 0.208984
vt 0.855469 0.214844
vt 0.853516 0.214844
vt 0.880859 0.644531
vt 0.880859 0.646484
vt 0.873047 0.646484
vt 0.873047 0.644531
vt 0.882812 0.525391
vt 0.888672 0.525391
vt 0.888672 0.513672
vt 0.882812 0.513672
vt 0.875000 0.591797
vt 0.875000 0.585938
vt 0.861328 0.585938
vt 0.861328 0.591797
vt 0.742188 0.406250
vt 0.732422 0.417969
vt 0.738281 0.417969
vt 0.742188 0.412109
vt 0.880859 0.156250
vt 0.890625 0.144531
vt 0.890625 0.150391
vt 0.886719 0.156250
vt 0.875000 0.580078
vt 0.861328 0.580078
vt 0.849609 0.142578
vt 0.851562 0.130859
vt 0.849609 0.130859
vt 0.849609 0.144531
vt 0.867188 0.144531
vt 0.867188 0.142578
vt 0.867188 0.130859
vt 0.865234 0.130859
vt 0.779297 0.013672
vt 0.777344 0.005859
vt 0.767578 0.017578
vt 0.767578 0.019531
vt 0.775391 0.019531
vt 0.291016 0.667969
vt 0.287109 0.673828
vt 0.279297 0.673828
vt 0.279297 0.671875
vt 0.289062 0.660156
vt 0.154297 0.343750
vt 0.162109 0.343750
vt 0.162109 0.345703
vt 0.154297 0.345703
vt 0.875000 0.015625
vt 0.875000 0.021484
vt 0.876953 0.021484
vt 0.876953 0.015625
vt 0.867188 0.482422
vt 0.867188 0.484375
vt 0.853516 0.484375
vt 0.853516 0.482422
vt 0.861328 0.015625
vt 0.861328 0.021484
vt 0.863281 0.021484
vt 0.863281 0.015625
vt 0.154297 0.330078
vt 0.162109 0.330078
vt 0.162109 0.332031
vt 0.154297 0.332031
vt 0.888672 0.322266
vt 0.888672 0.310547
vt 0.882812 0.310547
vt 0.882812 0.322266
vt 0.876953 0.414062
vt 0.863281 0.414062
vt 0.863281 0.408203
vt 0.876953 0.408203
vt 0.880859 0.119141
vt 0.880859 0.125000
vt 0.884766 0.130859
vt 0.890625 0.130859
vt 0.892578 0.046875
vt 0.886719 0.046875
vt 0.882812 0.041016
vt 0.882812 0.035156
vt 0.863281 0.402344
vt 0.876953 0.402344
vt 0.851562 0.482422
vt 0.851562 0.468750
vt 0.853516 0.468750
vt 0.851562 0.484375
vt 0.869141 0.484375
vt 0.869141 0.482422
vt 0.869141 0.468750
vt 0.867188 0.468750
vt 0.791016 0.013672
vt 0.794922 0.019531
vt 0.802734 0.019531
vt 0.802734 0.017578
vt 0.792969 0.005859
vt 0.302734 0.667969
vt 0.304688 0.660156
vt 0.314453 0.671875
vt 0.314453 0.673828
vt 0.306641 0.673828
vt 0.835938 0.115234
vt 0.835938 0.062500
vt 0.833984 0.062500
vt 0.833984 0.115234
vt 0.818359 0.062500
vt 0.818359 0.115234
vt 0.820312 0.115234
vt 0.820312 0.062500
vt 0.832031 0.361328
vt 0.832031 0.414062
vt 0.833984 0.414062
vt 0.833984 0.361328
vt 0.837891 0.484375
vt 0.837891 0.431641
vt 0.839844 0.431641
vt 0.839844 0.484375
vt 0.162109 0.277344
vt 0.154297 0.277344
vt 0.853516 0.279297
vt 0.855469 0.279297
vt 0.855469 0.277344
vt 0.853516 0.277344
vt 0.869141 0.279297
vt 0.869141 0.277344
vt 0.867188 0.277344
vt 0.867188 0.279297
vt 0.291016 0.660156
vt 0.302734 0.660156
vt 0.660156 0.886719
vt 0.660156 0.884766
vt 0.671875 0.884766
vt 0.671875 0.886719
vt 0.869141 0.292969
vt 0.869141 0.291016
vt 0.867188 0.291016
vt 0.867188 0.292969
vt 0.853516 0.292969
vt 0.855469 0.292969
vt 0.855469 0.291016
vt 0.853516 0.291016
vt 0.791016 0.005859
vt 0.779297 0.005859
vt 0.453125 0.884766
vt 0.464844 0.884766
vt 0.464844 0.886719
vt 0.453125 0.886719
vt 0.875000 0.007812
vt 0.863281 0.007812
vt 0.855469 0.199219
vt 0.869141 0.199219
vt 0.283203 0.712891
vt 0.353516 0.712891
vt 0.353516 0.710938
vt 0.283203 0.710938
vt 0.859375 0.644531
vt 0.789062 0.644531
vt 0.789062 0.642578
vt 0.859375 0.642578
vt 0.353516 0.726562
vt 0.283203 0.726562
vt 0.283203 0.728516
vt 0.353516 0.728516
vt 0.753906 0.832031
vt 0.824219 0.832031
vt 0.824219 0.833984
vt 0.753906 0.833984
vt 0.673828 0.070312
vt 0.669922 0.062500
vt 0.736328 0.029297
vt 0.740234 0.037109
vt 0.685547 0.472656
vt 0.751953 0.439453
vt 0.748047 0.431641
vt 0.681641 0.464844
vt 0.714844 0.882812
vt 0.707031 0.882812
vt 0.707031 0.890625
vt 0.714844 0.890625
vt 0.890625 0.826172
vt 0.890625 0.835938
vt 0.882812 0.835938
vt 0.882812 0.826172
vt 0.439453 0.892578
vt 0.439453 0.884766
vt 0.433594 0.884766
vt 0.433594 0.892578
vt 0.892578 0.228516
vt 0.892578 0.236328
vt 0.884766 0.236328
vt 0.884766 0.228516
vt 0.003906 0.722656
vt 0.003906 0.730469
vt 0.000000 0.730469
vt 0.000000 0.722656
vt 0.892578 0.089844
vt 0.884766 0.089844
vt 0.884766 0.097656
vt 0.892578 0.097656
vt 0.007812 0.730469
vt 0.007812 0.722656
vt 0.757812 0.882812
vt 0.757812 0.890625
vt 0.753906 0.890625
vt 0.753906 0.882812
vt 0.865234 0.746094
vt 0.865234 0.753906
vt 0.833984 0.753906
vt 0.833984 0.746094
vt 0.820312 0.753906
vt 0.820312 0.746094
vt 0.789062 0.746094
vt 0.789062 0.753906
vt 0.509766 0.869141
vt 0.478516 0.869141
vt 0.478516 0.871094
vt 0.509766 0.871094
vt 0.523438 0.869141
vt 0.554688 0.869141
vt 0.554688 0.871094
vt 0.523438 0.871094
vt 0.283203 0.759766
vt 0.314453 0.759766
vt 0.314453 0.757812
vt 0.283203 0.757812
vt 0.359375 0.759766
vt 0.328125 0.759766
vt 0.328125 0.757812
vt 0.359375 0.757812
vt 0.833984 0.785156
vt 0.802734 0.785156
vt 0.802734 0.783203
vt 0.833984 0.783203
vt 0.804688 0.345703
vt 0.835938 0.345703
vt 0.835938 0.343750
vt 0.804688 0.343750
vt 0.031250 0.714844
vt 0.062500 0.714844
vt 0.062500 0.716797
vt 0.031250 0.716797
vt 0.093750 0.714844
vt 0.093750 0.716797
vt 0.740234 0.861328
vt 0.708984 0.861328
vt 0.708984 0.869141
vt 0.740234 0.869141
vt 0.867188 0.037109
vt 0.867188 0.044922
vt 0.835938 0.044922
vt 0.835938 0.037109
vt 0.888672 0.591797
vt 0.892578 0.591797
vt 0.892578 0.580078
vt 0.888672 0.580078
vt 0.859375 0.089844
vt 0.859375 0.103516
vt 0.871094 0.103516
vt 0.871094 0.089844
vt 0.869141 0.798828
vt 0.869141 0.812500
vt 0.861328 0.812500
vt 0.861328 0.798828
vt 0.847656 0.812500
vt 0.847656 0.798828
vt 0.728516 0.882812
vt 0.740234 0.882812
vt 0.740234 0.890625
vt 0.728516 0.890625
vt 0.548828 0.892578
vt 0.548828 0.884766
vt 0.560547 0.884766
vt 0.560547 0.892578
vt 0.390625 0.591797
vt 0.324219 0.558594
vt 0.320312 0.566406
vt 0.386719 0.599609
vt 0.664062 0.527344
vt 0.597656 0.494141
vt 0.601562 0.486328
vt 0.667969 0.519531
vt 0.824219 0.037109
vt 0.824219 0.035156
vt 0.753906 0.035156
vt 0.753906 0.037109
vt 0.789062 0.660156
vt 0.789062 0.658203
vt 0.859375 0.658203
vt 0.859375 0.660156
vt 0.753906 0.847656
vt 0.753906 0.849609
vt 0.824219 0.849609
vt 0.824219 0.847656
vt 0.353516 0.742188
vt 0.353516 0.744141
vt 0.283203 0.744141
vt 0.283203 0.742188
vt 0.664062 0.472656
vt 0.597656 0.439453
vt 0.601562 0.431641
vt 0.667969 0.464844
vt 0.386719 0.615234
vt 0.390625 0.607422
vt 0.324219 0.574219
vt 0.320312 0.582031
vt 0.892578 0.259766
vt 0.892578 0.267578
vt 0.882812 0.267578
vt 0.882812 0.259766
vt 0.892578 0.470703
vt 0.884766 0.470703
vt 0.884766 0.478516
vt 0.892578 0.478516
vt 0.890625 0.369141
vt 0.894531 0.369141
vt 0.894531 0.361328
vt 0.890625 0.361328
vt 0.892578 0.449219
vt 0.884766 0.449219
vt 0.884766 0.457031
vt 0.892578 0.457031
vt 0.890625 0.402344
vt 0.894531 0.402344
vt 0.894531 0.410156
vt 0.890625 0.410156
vt 0.892578 0.492188
vt 0.892578 0.500000
vt 0.884766 0.500000
vt 0.884766 0.492188
vt 0.890625 0.431641
vt 0.894531 0.431641
vt 0.894531 0.423828
vt 0.890625 0.423828
vt 0.890625 0.013672
vt 0.894531 0.013672
vt 0.894531 0.021484
vt 0.890625 0.021484
vt 0.814453 0.007812
vt 0.845703 0.007812
vt 0.845703 0.015625
vt 0.814453 0.015625
vt 0.382812 0.748047
vt 0.414062 0.748047
vt 0.414062 0.740234
vt 0.382812 0.740234
vt 0.568359 0.869141
vt 0.568359 0.871094
vt 0.599609 0.871094
vt 0.599609 0.869141
vt 0.644531 0.869141
vt 0.644531 0.871094
vt 0.613281 0.871094
vt 0.613281 0.869141
vt 0.156250 0.716797
vt 0.156250 0.714844
vt 0.125000 0.714844
vt 0.125000 0.716797
vt 0.187500 0.714844
vt 0.187500 0.716797
vt 0.837891 0.876953
vt 0.837891 0.875000
vt 0.869141 0.875000
vt 0.869141 0.876953
vt 0.414062 0.763672
vt 0.414062 0.761719
vt 0.382812 0.761719
vt 0.382812 0.763672
vt 0.689453 0.869141
vt 0.689453 0.871094
vt 0.658203 0.871094
vt 0.658203 0.869141
vt 0.802734 0.707031
vt 0.802734 0.714844
vt 0.833984 0.714844
vt 0.833984 0.707031
vt 0.802734 0.804688
vt 0.833984 0.804688
vt 0.833984 0.812500
vt 0.802734 0.812500
vt 0.892578 0.617188
vt 0.892578 0.605469
vt 0.888672 0.605469
vt 0.888672 0.617188
vt 0.849609 0.089844
vt 0.849609 0.103516
vt 0.847656 0.513672
vt 0.857422 0.513672
vt 0.857422 0.527344
vt 0.847656 0.527344
vt 0.869141 0.513672
vt 0.869141 0.527344
vt 0.878906 0.724609
vt 0.878906 0.732422
vt 0.890625 0.732422
vt 0.890625 0.724609
vt 0.523438 0.892578
vt 0.535156 0.892578
vt 0.535156 0.884766
vt 0.523438 0.884766
vt 0.408203 0.623047
vt 0.419922 0.623047
vt 0.414062 0.603516
vt 0.404297 0.597656
vt 0.400391 0.605469
vt 0.400391 0.615234
vt 0.798828 0.572266
vt 0.802734 0.564453
vt 0.812500 0.570312
vt 0.806641 0.589844
vt 0.798828 0.582031
vt 0.798828 0.574219
vt 0.802734 0.574219
vt 0.818359 0.589844
vt 0.818359 0.369141
vt 0.814453 0.371094
vt 0.818359 0.371094
vt 0.818359 0.378906
vt 0.810547 0.386719
vt 0.804688 0.367188
vt 0.814453 0.361328
vt 0.818359 0.248047
vt 0.814453 0.248047
vt 0.818359 0.246094
vt 0.814453 0.238281
vt 0.804688 0.244141
vt 0.810547 0.263672
vt 0.818359 0.255859
vt 0.814936 0.527344
vt 0.814936 0.526855
vt 0.814453 0.526856
vt 0.814453 0.512207
vt 0.814936 0.512207
vt 0.814936 0.511719
vt 0.754394 0.069829
vt 0.754395 0.070312
vt 0.753906 0.069829
vt 0.833501 0.511719
vt 0.833501 0.512207
vt 0.833984 0.512207
vt 0.792480 0.232953
vt 0.792481 0.232422
vt 0.792969 0.232954
vt 0.792480 0.199219
vt 0.792480 0.199750
vt 0.792969 0.199750
vt 0.401860 0.726562
vt 0.401860 0.726074
vt 0.402344 0.726074
vt 0.792480 0.220171
vt 0.792481 0.220703
vt 0.792969 0.220171
vt 0.833501 0.526855
vt 0.833501 0.527344
vt 0.833984 0.526856
vt 0.750488 0.585938
vt 0.785156 0.585938
vt 0.785156 0.585406
vt 0.750488 0.585406
vt 0.785156 0.564453
vt 0.750488 0.564453
vt 0.750488 0.564985
vt 0.785156 0.564985
vt 0.754395 0.050781
vt 0.789062 0.050781
vt 0.789062 0.051265
vt 0.754394 0.051265
vt 0.789062 0.070312
vt 0.789062 0.069829
vt 0.383296 0.726562
vt 0.383296 0.726074
vt 0.382812 0.726074
vt 0.382812 0.711426
vt 0.383296 0.711426
vt 0.383296 0.710938
vt 0.401860 0.710938
vt 0.401860 0.711426
vt 0.402344 0.711426
vt 0.757812 0.220171
vt 0.757812 0.220703
vt 0.757812 0.199750
vt 0.757812 0.199219
vt 0.757812 0.232954
vt 0.757812 0.232422
vt 0.757812 0.253375
vt 0.792480 0.253375
vt 0.792480 0.253906
vt 0.757812 0.253906
vt 0.758301 0.386231
vt 0.758301 0.371582
vt 0.792969 0.371582
vt 0.792969 0.386230
vt 0.758301 0.275879
vt 0.758301 0.290527
vt 0.792969 0.290527
vt 0.792969 0.275879
vt 0.796387 0.626465
vt 0.761719 0.626465
vt 0.761719 0.611816
vt 0.796387 0.611816
vt 0.792481 0.400879
vt 0.757812 0.400879
vt 0.757812 0.415527
vt 0.792481 0.415527
s 0
usemtl rusty_aged_metal
f 24/1/1 25/2/1 9/3/1 11/4/1
f 23/5/2 22/6/2 12/7/2 10/8/2
f 5/9/2 17/10/2 16/11/2 6/12/2
f 88/13/3 28/14/3 29/15/3 86/16/3
f 7/17/3 82/18/3 86/16/3 29/15/3 27/19/3 8/20/3
f 26/21/4 6/22/4 16/23/4 30/24/4
f 8/25/4 27/26/4 31/27/4 14/28/4
f 31/29/2 27/30/2 29/31/2 33/32/2
f 26/33/1 30/34/1 32/35/1 28/36/1
f 28/37/4 32/38/4 33/39/4 29/40/4
f 7/41/1 8/42/1 14/43/1 15/44/1
f 28/14/3 88/13/3 84/45/3 5/46/3 6/47/3 26/48/3
f 43/49/3 37/50/3 39/51/3 45/52/3
f 7/53/5 35/54/5 37/55/5 43/56/5
f 47/57/6 46/58/6 44/59/6 45/60/6
f 34/61/5 5/62/5 42/63/5 36/64/5
f 5/62/5 7/53/5 43/56/5 42/63/5
f 36/65/3 42/66/3 44/67/3 38/68/3
f 42/66/3 43/49/3 45/52/3 44/67/3
f 47/69/7 49/70/7 48/71/7 46/72/7
f 49/73/8 50/74/8 51/75/8 48/76/8
f 55/77/1 46/78/1 48/79/1 51/80/1
f 47/81/2 52/82/2 50/83/2 49/84/2
f 50/74/6 52/85/6 55/86/6 51/75/6
f 57/87/9 46/58/9 55/88/9 54/89/9
f 44/59/6 46/58/6 57/87/6 38/90/6
f 39/91/6 56/92/6 47/57/6 45/60/6
f 53/93/9 52/94/9 47/57/9 56/92/9
f 35/95/1 53/96/1 56/97/1 39/98/1 37/99/1
f 34/100/2 36/101/2 38/102/2 57/103/2 54/104/2
f 67/105/3 69/106/3 63/107/3 61/108/3
f 8/109/10 67/110/10 61/111/10 59/112/10
f 71/113/4 69/114/4 68/115/4 70/116/4
f 58/117/10 60/118/10 66/119/10 6/120/10
f 6/120/10 66/119/10 67/110/10 8/109/10
f 60/121/3 62/122/3 68/123/3 66/124/3
f 66/124/3 68/123/3 69/106/3 67/105/3
f 71/125/7 70/126/7 72/127/7 73/128/7
f 73/129/11 72/130/11 75/131/11 74/132/11
f 79/133/1 75/134/1 72/135/1 70/136/1
f 71/137/2 73/138/2 74/139/2 76/140/2
f 74/132/4 75/131/4 79/141/4 76/142/4
f 81/143/12 78/144/12 79/145/12 70/116/12
f 68/115/4 62/146/4 81/143/4 70/116/4
f 63/147/4 69/114/4 71/113/4 80/148/4
f 77/149/12 80/148/12 71/113/12 76/150/12
f 59/151/1 61/152/1 63/153/1 80/154/1 77/155/1
f 58/156/2 78/157/2 81/158/2 62/159/2 60/160/2
f 7/161/6 15/162/6 83/163/6 82/164/6
f 17/165/6 5/166/6 84/167/6 85/168/6
f 85/169/1 84/170/1 88/171/1 89/172/1
f 82/173/2 83/174/2 87/175/2 86/176/2
f 86/122/6 87/177/6 89/178/6 88/121/6
f 55/179/7 64/180/7 65/181/7 54/182/7
f 79/183/7 78/184/7 41/185/7 40/186/7
f 64/180/7 40/186/7 41/185/7 65/181/7
f 34/100/2 54/104/2 65/187/2
f 41/188/2 78/157/2 58/156/2
f 34/100/2 65/187/2 41/188/2 58/156/2
f 5/189/3 34/190/3 58/191/3 6/192/3
f 77/193/7 76/194/7 13/195/7 90/196/7
f 53/197/7 92/198/7 91/199/7 52/200/7
f 13/195/7 91/199/7 92/198/7 90/196/7
f 77/155/1 90/201/1 59/151/1
f 53/96/1 35/95/1 92/202/1
f 92/202/1 35/95/1 59/151/1 90/201/1
f 7/203/3 8/204/3 59/205/3 35/206/3
f 52/200/7 91/199/7 64/180/7 55/179/7
f 76/194/7 79/183/7 40/186/7 13/195/7
f 6/120/6 8/109/6 13/207/6 40/208/6
f 7/53/4 5/62/4 64/209/4 91/210/4
f 24/211/13 11/212/13 94/213/13 95/214/13
f 9/215/14 25/216/14 96/217/14 93/218/14
f 12/219/13 22/220/13 99/221/13 98/222/13
f 23/223/14 10/224/14 97/225/14 100/226/14
f 96/227/2 95/228/2 94/229/2 93/230/2
f 100/231/1 97/232/1 98/233/1 99/234/1
f 101/235/15 103/236/15 104/237/15 102/238/15
f 105/239/16 106/240/16 108/241/16 107/242/16
f 105/243/13 107/244/13 103/245/13 101/246/13
f 113/247/16 114/248/16 116/249/16 115/250/16
f 108/251/14 106/252/14 102/253/14 104/254/14
f 109/255/15 111/256/15 112/257/15 110/258/15
f 113/259/13 115/260/13 111/251/13 109/252/13
f 116/261/14 114/262/14 110/263/14 112/264/14
f 1/265/2 2/266/2 18/267/2 20/268/2
f 4/269/1 3/270/1 21/271/1 19/272/1
f 1/273/7 20/274/7 118/275/7 117/276/7
f 18/277/3 2/278/3 119/279/3 120/280/3
f 21/281/7 3/282/7 121/283/7 122/284/7
f 4/285/3 19/286/3 124/287/3 123/288/3
f 123/289/2 124/290/2 128/291/2 127/292/2
f 120/293/1 119/294/1 125/295/1 126/296/1
f 122/297/2 121/298/2 131/299/2 132/300/2
f 117/301/1 118/298/1 130/299/1 129/302/1
f 129/303/7 130/304/7 132/305/7 131/306/7
f 125/307/3 127/308/3 128/309/3 126/310/3
f 136/311/7 144/312/7 143/313/7 135/314/7
f 134/315/13 133/316/13 147/317/13 145/318/13
f 141/319/17 142/320/17 137/321/17 139/322/17
f 139/322/3 137/321/3 138/323/3 140/324/3
f 145/325/16 147/326/16 148/327/16 146/328/16
f 136/311/14 135/314/14 146/313/14 148/312/14
f 141/329/4 143/330/4 144/331/4 142/332/4
f 163/333/1 155/334/1 153/335/1 164/336/1
f 162/337/2 154/338/2 156/339/2 161/340/2
f 163/341/18 167/342/18 166/343/18 155/344/18
f 153/345/19 165/346/19 168/347/19 164/348/19
f 156/349/18 170/350/18 171/351/18 161/352/18
f 162/353/19 172/354/19 169/355/19 154/356/19
f 168/357/2 165/358/2 166/359/2 167/360/2
f 172/361/1 171/362/1 170/363/1 169/364/1
f 173/365/20 174/366/20 176/367/20 175/368/20
f 177/369/21 179/370/21 180/371/21 178/372/21
f 177/373/18 173/374/18 175/375/18 179/376/18
f 185/377/21 187/378/21 188/379/21 186/380/21
f 180/381/19 176/382/19 174/383/19 178/384/19
f 181/385/20 182/386/20 184/387/20 183/388/20
f 185/389/18 181/390/18 183/391/18 187/392/18
f 188/393/19 184/394/19 182/395/19 186/396/19
f 149/397/2 159/398/2 157/399/2 150/400/2
f 152/401/1 158/402/1 160/403/1 151/404/1
f 149/405/7 189/406/7 190/407/7 159/408/7
f 157/409/3 192/410/3 191/411/3 150/412/3
f 160/413/7 194/414/7 193/415/7 151/416/7
f 152/413/3 195/414/3 196/417/3 158/418/3
f 195/419/2 199/420/2 200/421/2 196/422/2
f 192/423/1 198/424/1 197/425/1 191/426/1
f 194/427/2 204/428/2 203/429/2 193/430/2
f 189/301/1 201/302/1 202/416/1 190/415/1
f 201/431/7 203/432/7 204/433/7 202/434/7
f 197/435/3 198/436/3 200/437/3 199/438/3
f 206/439/7 205/440/7 213/441/7 214/442/7
f 134/315/18 215/443/18 217/444/18 133/316/18
f 211/445/22 209/446/22 207/447/22 212/448/22
f 209/446/3 210/449/3 208/450/3 207/447/3
f 215/451/21 216/452/21 218/453/21 217/454/21
f 206/439/19 218/442/19 216/441/19 205/440/19
f 211/455/6 212/456/6 214/457/6 213/458/6
f 207/459/1 208/460/1 133/461/1
f 163/462/1 164/463/1 212/464/1 207/459/1 133/461/1
f 216/465/2 215/466/2 134/467/2 209/468/2 211/469/2 213/470/2 205/471/2
f 209/468/2 134/467/2 210/472/2
f 146/473/2 135/474/2 143/475/2 141/476/2 139/477/2 134/478/2 145/479/2
f 144/480/1 136/481/1 148/482/1 147/483/1 133/484/1 137/485/1 142/486/1
usemtl concrete_aged_brown
f 219/487/23 220/488/23 221/489/23
f 222/490/24 223/491/24 224/492/24
f 225/493/25 226/494/25 227/495/25
f 228/496/26 229/497/26 230/498/26
f 239/499/27 240/500/27 241/501/27
f 242/502/28 243/503/28 244/504/28
f 245/505/29 246/506/29 247/507/29
f 248/508/30 249/509/30 250/510/30
f 227/511/22 220/488/22 219/487/22 225/512/22
f 220/488/31 223/491/31 222/490/31 221/489/31
f 223/491/32 229/497/32 228/496/32 224/492/32
f 229/497/33 227/511/33 226/513/33 230/498/33
f 230/514/34 238/515/34 237/516/34 228/517/34
f 233/518/35 222/519/35 224/520/35 234/521/35
f 221/522/36 232/523/36 231/524/36 219/525/36
f 235/526/37 226/494/37 225/493/37 236/527/37
f 245/505/17 239/528/17 241/529/17 246/506/17
f 240/530/38 242/531/38 244/532/38 241/529/38
f 243/533/39 248/534/39 250/535/39 244/532/39
f 249/536/40 247/507/40 246/506/40 250/535/40
f 248/508/34 258/537/34 257/538/34 249/509/34
f 253/539/35 243/503/35 242/502/35 254/540/35
f 239/499/36 252/541/36 251/542/36 240/500/36
f 255/543/37 245/544/37 247/545/37 256/546/37
f 225/493/3 219/525/3 231/524/3 236/527/3
f 220/488/6 227/511/6 229/497/6 223/491/6
f 221/547/2 222/548/2 233/549/2 232/550/2
f 224/520/7 228/517/7 237/516/7 234/521/7
f 230/551/1 226/552/1 235/553/1 238/554/1
f 245/544/3 255/543/3 252/541/3 239/499/3
f 241/529/4 244/532/4 250/535/4 246/506/4
f 240/555/2 251/556/2 254/557/2 242/558/2
f 243/503/7 253/539/7 258/537/7 248/508/7
f 249/559/1 257/560/1 256/561/1 247/562/1
l 9 10
l 11 12
l 153 154
l 155 156
