# Blender 5.2.1 LTS
# www.blender.org
mtllib general_beam_fill.mtl
o general_beam_fill
v -0.968750 -0.281250 2.062500
v -0.968750 -0.281250 -2.062500
v 0.968750 -0.281250 -2.062500
v 0.968750 -0.281250 2.062500
v -0.968750 -0.843750 2.062500
v -0.968750 -0.843750 -2.062500
v 0.968750 -0.843750 -2.062500
v 0.968750 -0.843750 2.062500
v -1.062500 -0.937500 2.062500
v -1.062500 -0.937500 -2.062500
v 1.062500 -0.937500 -2.062500
v 1.062500 -0.937500 2.062500
v -0.562500 -0.843750 2.062500
v -0.562500 -0.843750 -2.062500
v -0.468750 -0.937500 2.062500
v -0.468750 -0.937500 -2.062500
v 0.562500 -0.843750 2.062500
v 0.562500 -0.843750 -2.062500
v 0.468750 -0.937500 2.062500
v 0.468750 -0.937500 -2.062500
v -0.562500 -0.343750 2.062500
v -0.562500 -0.343750 -2.062500
v 0.562500 -0.343750 2.062500
v 0.562500 -0.343750 -2.062500
v -0.437500 -0.218750 2.062500
v -0.437500 -0.218750 -2.062500
v 0.437500 -0.218750 2.062500
v 0.437500 -0.218750 -2.062500
v -1.242188 -0.062500 2.062500
v -1.250000 -0.070312 2.062500
v -1.250000 -0.070312 -2.062500
v -1.242188 -0.062500 -2.062500
v 1.242188 -0.062500 -2.062500
v 1.250000 -0.070312 -2.062500
v 1.250000 -0.070312 2.062500
v 1.242188 -0.062500 2.062500
v -1.250000 -0.210938 2.062500
v -1.242374 -0.220445 2.062500
v -1.242374 -0.220445 -2.062500
v -1.250000 -0.210938 -2.062500
v 1.250000 -0.210938 -2.062500
v 1.242374 -0.220445 -2.062500
v 1.242374 -0.220445 2.062500
v 1.250000 -0.210938 2.062500
v -1.062500 -1.210938 2.062500
v -1.054688 -1.218750 2.062500
v -1.054688 -1.218750 -2.062500
v -1.062500 -1.210938 -2.062500
v 1.062500 -1.210938 -2.062500
v 1.054688 -1.218750 -2.062500
v 1.054688 -1.218750 2.062500
v 1.062500 -1.210938 2.062500
v -0.476562 -1.218750 2.062500
v -0.468750 -1.210938 2.062500
v -0.468750 -1.210938 -2.062500
v -0.476562 -1.218750 -2.062500
v 0.468750 -1.210938 2.062500
v 0.476562 -1.218750 2.062500
v 0.476562 -1.218750 -2.062500
v 0.468750 -1.210938 -2.062500
vn -1.0000 -0.0000 -0.0000
vn 1.0000 -0.0000 -0.0000
vn -0.7071 0.7071 -0.0000
vn 0.7071 0.7071 -0.0000
vn -0.7071 -0.7071 -0.0000
vn 0.7071 -0.7071 -0.0000
vn -0.0000 -1.0000 -0.0000
vn -0.7800 -0.6257 -0.0000
vn 0.7800 -0.6257 -0.0000
vn -0.0000 1.0000 -0.0000
vn -0.2169 -0.9762 -0.0000
vn 0.2169 -0.9762 -0.0000
vt 0.000000 0.417969
vt 0.257812 0.417969
vt 0.257812 0.382812
vt 0.000000 0.382812
vt 0.257812 0.453125
vt 0.000000 0.453125
vt 0.677734 0.083984
vt 0.677734 0.390625
vt 0.669922 0.390625
vt 0.669922 0.083984
vt 0.648438 0.390625
vt 0.648438 0.083984
vt 0.656250 0.083984
vt 0.656250 0.390625
vt 0.628906 0.083984
vt 0.634766 0.083984
vt 0.634766 0.390625
vt 0.628906 0.390625
vt 0.615234 0.083984
vt 0.615234 0.390625
vt 0.607422 0.390625
vt 0.607422 0.083984
vt 0.257812 0.523438
vt 0.000000 0.523438
vt 0.000000 0.554688
vt 0.257812 0.554688
vt 0.257812 0.585938
vt 0.000000 0.585938
vt 0.476562 0.269531
vt 0.476562 -0.000000
vt 0.468750 -0.000000
vt 0.468750 0.269531
vt 0.404297 0.269531
vt 0.412109 0.269531
vt 0.412109 -0.000000
vt 0.404297 -0.000000
vt 0.000488 0.000000
vt 0.000488 0.257812
vt 0.000000 0.257812
vt 0.000000 0.000000
vt 0.155762 0.257812
vt 0.155762 0.000000
vt 0.156250 0.000000
vt 0.156250 0.257812
vt 0.000000 0.687988
vt 0.257812 0.687988
vt 0.257812 0.687500
vt 0.000000 0.687500
vt 0.552734 0.550781
vt 0.552734 0.289062
vt 0.552258 0.289062
vt 0.552258 0.550781
vt 0.433594 0.292969
vt 0.433594 0.550781
vt 0.434082 0.550781
vt 0.434082 0.292969
vt 0.691406 0.697754
vt 0.433594 0.697754
vt 0.433594 0.697266
vt 0.691406 0.697266
vt 0.470215 0.292969
vt 0.470215 0.550781
vt 0.470703 0.550781
vt 0.470703 0.292969
vt 0.000000 0.635254
vt 0.257812 0.635254
vt 0.257812 0.634766
vt 0.000000 0.634766
vt 0.257812 0.696777
vt 0.000000 0.696777
vt 0.433594 0.831543
vt 0.433594 0.822754
vt 0.691406 0.822754
vt 0.691406 0.831543
vt 0.486805 0.000000
vt 0.486805 0.261719
vt 0.503906 0.261719
vt 0.503906 0.000000
vt 0.535156 0.289062
vt 0.535156 0.550781
vt 0.257812 0.617676
vt 0.000000 0.617676
vt 0.520996 0.550781
vt 0.520996 0.292969
vt 0.484863 0.292969
vt 0.484863 0.550781
vt 0.691406 0.714844
vt 0.433594 0.714844
vt 0.433594 0.746094
vt 0.433594 0.729004
vt 0.691406 0.729004
vt 0.691406 0.746094
vt 0.000000 0.652344
vt 0.257812 0.652344
s 0
usemtl concrete_aged_brown
f 1/1/1 2/2/1 6/3/1 5/4/1
f 3/5/2 4/6/2 8/1/2 7/2/2
f 5/7/3 6/8/3 10/9/3 9/10/3
f 7/11/4 8/12/4 12/13/4 11/14/4
f 13/15/4 15/16/4 16/17/4 14/18/4
f 17/19/3 18/20/3 20/21/3 19/22/3
f 18/23/1 17/24/1 23/25/1 24/26/1
f 14/26/2 22/27/2 21/28/2 13/25/2
f 24/29/5 23/30/5 27/31/5 28/32/5
f 22/33/6 26/34/6 25/35/6 21/36/6
f 26/34/7 28/32/7 27/31/7 25/35/7
f 41/49/9 44/50/9 43/51/9 42/52/9
f 45/53/5 48/54/5 47/55/5 46/56/5
f 49/57/6 52/58/6 51/59/6 50/60/6
f 53/61/6 56/62/6 55/63/6 54/64/6
f 57/65/5 60/66/5 59/67/5 58/68/5
f 38/75/11 39/76/11 2/77/11 1/78/11
f 42/52/12 43/51/12 4/79/12 3/80/12
f 47/55/7 56/62/7 53/61/7 46/56/7
f 9/68/1 10/67/1 48/81/1 45/82/1
f 50/83/7 51/84/7 58/85/7 59/86/7
f 11/87/2 12/88/2 52/58/2 49/57/2
f 15/89/2 54/90/2 55/91/2 16/92/2
f 19/93/1 20/94/1 60/66/1 57/65/1
usemtl concrete_aged
f 29/37/3 32/38/3 31/39/3 30/40/3
f 33/41/4 36/42/4 35/43/4 34/44/4
f 37/45/8 40/46/8 39/47/8 38/48/8
f 31/69/1 40/46/1 37/45/1 30/70/1
f 32/38/10 29/37/10 36/42/10 33/41/10
f 35/71/2 44/72/2 41/73/2 34/74/2
