# Blender 5.2.1 LTS
# www.blender.org
mtllib general_beam_single_track_walkway_support.mtl
o general_beam_single_track_walkway_support
v -1.281250 -0.312500 0.093750
v -1.281250 -0.187500 0.093750
v -1.281250 -0.312500 -0.093750
v -1.281250 -0.187500 -0.093750
v -2.093750 0.781250 0.093750
v -1.906250 0.781250 0.093750
v -2.093750 0.781250 -0.093750
v -1.906250 0.781250 -0.093750
v -0.718750 -0.875000 -0.093750
v -0.718750 -0.875000 0.093750
v -0.781250 -1.000000 -0.093750
v -0.781250 -1.000000 0.093750
v -1.906250 0.656250 -0.093750
v -1.906250 -0.062500 -0.093750
v -2.093750 -0.062500 -0.093750
v -1.906250 -0.062500 0.093750
v -2.093750 -0.062500 0.093750
v -1.781250 -0.187500 0.093750
v -1.781250 -0.187500 -0.093750
v -1.781250 -0.312500 0.093750
v -1.781250 -0.312500 -0.093750
v -1.843750 -0.468750 0.093750
v -1.781250 -0.343750 0.093750
v -1.843750 -0.468750 -0.093750
v -1.781250 -0.343750 -0.093750
v -1.906250 0.781250 0.062500
v -1.906250 0.781250 -0.062500
v -1.937500 0.781250 0.062500
v -1.937500 0.781250 -0.062500
v -1.906250 -0.062500 0.062500
v -1.906250 -0.062500 -0.062500
v -1.937500 -0.062500 0.062500
v -1.937500 -0.062500 -0.062500
v -2.093750 0.781250 0.125000
v -2.093750 0.781250 -0.125000
v -2.156250 0.875000 0.125000
v -2.156250 0.875000 -0.125000
v -2.281250 0.875000 0.125000
v -2.281250 0.875000 -0.125000
v -1.906250 0.656250 0.093750
v -1.906250 0.656250 0.125000
v -2.156250 0.875000 0.093750
v -2.156250 0.875000 -0.093750
v -2.281250 0.875000 0.093750
v -2.281250 0.875000 -0.093750
v -2.281250 0.843750 0.093750
v -2.281250 0.843750 -0.093750
v -2.187500 0.843750 0.093750
v -2.187500 0.843750 -0.093750
v -2.125000 0.750000 -0.093750
v -2.125000 0.750000 0.093750
v -2.125000 0.656250 -0.093750
v -2.125000 0.656250 -0.125000
v -2.125000 0.656250 0.125000
v -2.125000 0.656250 0.093750
v -2.281250 0.843750 -0.125000
v -2.281250 0.843750 0.125000
v -1.906250 0.781250 0.125000
v -1.906250 0.781250 -0.125000
v -1.843750 0.875000 0.125000
v -1.843750 0.875000 -0.125000
v -1.718750 0.875000 0.125000
v -1.718750 0.875000 -0.125000
v -2.093750 0.656250 0.093750
v -2.093750 0.656250 0.125000
v -1.843750 0.875000 0.093750
v -1.843750 0.875000 -0.093750
v -1.718750 0.875000 0.093750
v -1.718750 0.875000 -0.093750
v -1.718750 0.843750 0.093750
v -1.718750 0.843750 -0.093750
v -1.812500 0.843750 0.093750
v -1.812500 0.843750 -0.093750
v -1.875000 0.750000 -0.093750
v -1.875000 0.750000 0.093750
v -1.875000 0.656250 -0.093750
v -1.875000 0.656250 -0.125000
v -1.875000 0.656250 0.125000
v -1.875000 0.656250 0.093750
v -1.718750 0.843750 -0.125000
v -1.718750 0.843750 0.125000
v -2.093750 0.781250 -0.062500
v -2.093750 -0.062500 -0.062500
v -2.093750 0.781250 0.062500
v -2.093750 -0.062500 0.062500
v -2.062500 0.781250 -0.062500
v -2.062500 -0.062500 -0.062500
v -2.062500 0.781250 0.062500
v -2.062500 -0.062500 0.062500
v -1.906250 0.656250 -0.125000
v -2.093750 0.656250 -0.093750
v -2.093750 0.656250 -0.125000
v -0.718750 -0.875000 -0.062500
v -0.781250 -1.000000 -0.062500
v -1.843750 -0.468750 -0.062500
v -1.781250 -0.343750 -0.062500
v -0.718750 -0.875000 0.062500
v -0.781250 -1.000000 0.062500
v -1.843750 -0.468750 0.062500
v -1.781250 -0.343750 0.062500
v -1.593750 -0.593750 -0.062500
v -1.531250 -0.468750 -0.062500
v -1.593750 -0.593750 0.062500
v -1.531250 -0.468750 0.062500
v -1.531250 -0.625000 -0.062500
v -1.468750 -0.500000 -0.062500
v -1.531250 -0.625000 0.062500
v -1.468750 -0.500000 0.062500
v -1.218750 -0.781250 -0.062500
v -1.156250 -0.656250 -0.062500
v -1.218750 -0.781250 0.062500
v -1.156250 -0.656250 0.062500
v -1.156250 -0.812500 -0.062500
v -1.093750 -0.687500 -0.062500
v -1.156250 -0.812500 0.062500
v -1.093750 -0.687500 0.062500
v -1.281250 -0.312500 0.062500
v -1.781250 -0.312500 0.062500
v -1.281250 -0.187500 0.062500
v -1.781250 -0.187500 0.062500
v -1.281250 -0.312500 -0.062500
v -1.781250 -0.312500 -0.062500
v -1.281250 -0.187500 -0.062500
v -1.781250 -0.187500 -0.062500
v -1.281250 -0.218750 0.062500
v -1.781250 -0.218750 0.062500
v -1.281250 -0.218750 -0.062500
v -1.781250 -0.218750 -0.062500
v -1.281250 -0.281250 0.062500
v -1.781250 -0.281250 0.062500
v -1.281250 -0.281250 -0.062500
v -1.781250 -0.281250 -0.062500
v -2.093750 -0.343750 -0.093750
v -2.093750 -0.343750 0.093750
v -1.843750 -0.312500 0.093750
v -1.843750 -0.312500 -0.093750
v -1.906250 -0.062500 -0.093750
v -2.093750 -0.062500 -0.093750
v -1.906250 -0.062500 0.093750
v -2.093750 -0.062500 0.093750
v -1.781250 -0.187500 0.093750
v -1.781250 -0.187500 -0.093750
v -1.781250 -0.312500 0.093750
v -1.781250 -0.312500 -0.093750
v -1.843750 -0.468750 0.093750
v -1.781250 -0.343750 0.093750
v -1.843750 -0.468750 -0.093750
v -1.781250 -0.343750 -0.093750
v -1.273438 -0.125000 0.148438
v -1.281250 -0.132812 0.148438
v -1.273438 -0.132812 0.156250
v -1.273438 -0.367188 0.156250
v -1.281250 -0.367188 0.148438
v -1.273438 -0.375000 0.148438
v -1.273438 -0.125000 -0.151633
v -1.273438 -0.132812 -0.159445
v -1.281250 -0.132812 -0.151633
v -1.273438 -0.375000 -0.151633
v -1.281250 -0.367188 -0.151633
v -1.273438 -0.367188 -0.159445
v -0.718750 -0.125000 0.148438
v -0.718750 -0.132812 0.156250
v -0.718750 -0.367188 0.156250
v -0.718750 -0.375000 0.148438
v -0.718750 -0.132812 -0.159445
v -0.718750 -0.125000 -0.151633
v -0.718750 -0.375000 -0.151633
v -0.718750 -0.367188 -0.159445
vn -0.0000 -0.0000 -1.0000
vn -0.0000 -0.0000 1.0000
vn -0.0000 1.0000 -0.0000
vn 1.0000 -0.0000 -0.0000
vn 0.8321 0.5547 -0.0000
vn -1.0000 -0.0000 -0.0000
vn -0.0000 -1.0000 -0.0000
vn -0.8321 -0.5547 -0.0000
vn -0.7682 -0.6402 -0.0000
vn -0.8321 0.5547 -0.0000
vn 0.8321 -0.5547 -0.0000
vn 0.7682 -0.6402 -0.0000
vn -0.4472 -0.8944 -0.0000
vn 0.4472 0.8944 -0.0000
vn -0.8944 0.4472 -0.0000
vn 0.8944 -0.4472 -0.0000
vn 0.7071 0.7071 -0.0000
vn -0.5773 0.5774 0.5774
vn -0.5773 -0.5774 0.5774
vn -0.5773 0.5774 -0.5774
vn -0.5773 -0.5774 -0.5774
vn -0.7071 0.7071 -0.0000
vn -0.7071 -0.0000 0.7071
vn -0.7071 -0.7071 -0.0000
vn -0.7071 -0.0000 -0.7071
vn -0.0000 -0.7071 -0.7071
vn -0.0000 -0.7071 0.7071
vn -0.0000 0.7071 0.7071
vn -0.0000 0.7071 -0.7071
vt 0.320312 0.669922
vt 0.324219 0.677734
vt 0.390625 0.644531
vt 0.386719 0.636719
vt 0.685547 0.527344
vt 0.681641 0.519531
vt 0.748047 0.486328
vt 0.751953 0.494141
vt 0.732422 0.318359
vt 0.732422 0.265625
vt 0.744141 0.265625
vt 0.744141 0.318359
vt 0.871094 0.542969
vt 0.878906 0.542969
vt 0.878906 0.550781
vt 0.871094 0.550781
vt 0.869141 0.552734
vt 0.869141 0.550781
vt 0.880859 0.550781
vt 0.880859 0.552734
vt 0.839844 0.330078
vt 0.837891 0.330078
vt 0.837891 0.277344
vt 0.839844 0.277344
vt 0.849609 0.617188
vt 0.847656 0.617188
vt 0.847656 0.564453
vt 0.849609 0.564453
vt 0.839844 0.199219
vt 0.839844 0.251953
vt 0.837891 0.251953
vt 0.837891 0.199219
vt 0.419922 0.755859
vt 0.419922 0.703125
vt 0.417969 0.703125
vt 0.417969 0.755859
vt 0.583984 0.136719
vt 0.583984 0.083984
vt 0.591797 0.083984
vt 0.591797 0.136719
vt 0.302734 0.646484
vt 0.314453 0.646484
vt 0.314453 0.593750
vt 0.302734 0.593750
vt 0.869141 0.542969
vt 0.869141 0.541016
vt 0.880859 0.541016
vt 0.880859 0.542969
vt 0.880859 0.689453
vt 0.880859 0.691406
vt 0.873047 0.691406
vt 0.873047 0.689453
vt 0.822266 0.871094
vt 0.824219 0.871094
vt 0.824219 0.876953
vt 0.822266 0.876953
vt 0.867188 0.453125
vt 0.853516 0.453125
vt 0.853516 0.455078
vt 0.867188 0.455078
vt 0.808594 0.871094
vt 0.810547 0.871094
vt 0.810547 0.876953
vt 0.808594 0.876953
vt 0.880859 0.675781
vt 0.880859 0.677734
vt 0.873047 0.677734
vt 0.873047 0.675781
vt 0.882812 0.292969
vt 0.888672 0.292969
vt 0.888672 0.281250
vt 0.882812 0.281250
vt 0.875000 0.617188
vt 0.875000 0.611328
vt 0.861328 0.611328
vt 0.861328 0.617188
vt 0.892578 0.798828
vt 0.882812 0.810547
vt 0.888672 0.810547
vt 0.892578 0.804688
vt 0.882812 0.861328
vt 0.892578 0.849609
vt 0.892578 0.855469
vt 0.888672 0.861328
vt 0.875000 0.605469
vt 0.861328 0.605469
vt 0.851562 0.453125
vt 0.853516 0.441406
vt 0.851562 0.441406
vt 0.851562 0.455078
vt 0.869141 0.455078
vt 0.869141 0.453125
vt 0.869141 0.441406
vt 0.867188 0.441406
vt 0.716797 0.812500
vt 0.714844 0.804688
vt 0.705078 0.816406
vt 0.705078 0.818359
vt 0.712891 0.818359
vt 0.765625 0.812500
vt 0.761719 0.818359
vt 0.753906 0.818359
vt 0.753906 0.816406
vt 0.763672 0.804688
vt 0.878906 0.759766
vt 0.886719 0.759766
vt 0.886719 0.761719
vt 0.878906 0.761719
vt 0.869141 0.236328
vt 0.869141 0.242188
vt 0.871094 0.242188
vt 0.871094 0.236328
vt 0.865234 0.179688
vt 0.865234 0.181641
vt 0.851562 0.181641
vt 0.851562 0.179688
vt 0.853516 0.236328
vt 0.853516 0.242188
vt 0.855469 0.242188
vt 0.855469 0.236328
vt 0.878906 0.746094
vt 0.886719 0.746094
vt 0.886719 0.748047
vt 0.878906 0.748047
vt 0.816406 0.626953
vt 0.816406 0.615234
vt 0.810547 0.615234
vt 0.810547 0.626953
vt 0.876953 0.373047
vt 0.863281 0.373047
vt 0.863281 0.367188
vt 0.876953 0.367188
vt 0.878906 0.335938
vt 0.878906 0.341797
vt 0.882812 0.347656
vt 0.888672 0.347656
vt 0.890625 0.181641
vt 0.884766 0.181641
vt 0.880859 0.175781
vt 0.880859 0.169922
vt 0.863281 0.361328
vt 0.876953 0.361328
vt 0.849609 0.179688
vt 0.849609 0.167969
vt 0.851562 0.167969
vt 0.849609 0.181641
vt 0.867188 0.181641
vt 0.867188 0.179688
vt 0.867188 0.167969
vt 0.865234 0.167969
vt 0.728516 0.812500
vt 0.732422 0.818359
vt 0.740234 0.818359
vt 0.740234 0.816406
vt 0.730469 0.804688
vt 0.777344 0.812500
vt 0.779297 0.804688
vt 0.789062 0.816406
vt 0.789062 0.818359
vt 0.781250 0.818359
vt 0.289062 0.646484
vt 0.289062 0.593750
vt 0.287109 0.593750
vt 0.287109 0.646484
vt 0.847656 0.361328
vt 0.847656 0.414062
vt 0.849609 0.414062
vt 0.849609 0.361328
vt 0.417969 0.636719
vt 0.417969 0.689453
vt 0.419922 0.689453
vt 0.419922 0.636719
vt 0.818359 0.181641
vt 0.818359 0.128906
vt 0.820312 0.128906
vt 0.820312 0.181641
vt 0.591797 0.203125
vt 0.591797 0.150391
vt 0.583984 0.150391
vt 0.583984 0.203125
vt 0.853516 0.308594
vt 0.855469 0.308594
vt 0.855469 0.306641
vt 0.853516 0.306641
vt 0.869141 0.308594
vt 0.869141 0.306641
vt 0.867188 0.306641
vt 0.867188 0.308594
vt 0.765625 0.804688
vt 0.777344 0.804688
vt 0.853516 0.257812
vt 0.853516 0.255859
vt 0.865234 0.255859
vt 0.865234 0.257812
vt 0.869141 0.322266
vt 0.869141 0.320312
vt 0.867188 0.320312
vt 0.867188 0.322266
vt 0.853516 0.322266
vt 0.855469 0.322266
vt 0.855469 0.320312
vt 0.853516 0.320312
vt 0.728516 0.804688
vt 0.716797 0.804688
vt 0.634766 0.884766
vt 0.646484 0.884766
vt 0.646484 0.886719
vt 0.634766 0.886719
vt 0.869141 0.228516
vt 0.855469 0.228516
vt 0.810547 0.863281
vt 0.822266 0.863281
vt 0.789062 0.675781
vt 0.859375 0.675781
vt 0.859375 0.673828
vt 0.789062 0.673828
vt 0.859375 0.730469
vt 0.789062 0.730469
vt 0.789062 0.728516
vt 0.859375 0.728516
vt 0.859375 0.689453
vt 0.789062 0.689453
vt 0.789062 0.691406
vt 0.859375 0.691406
vt 0.789062 0.767578
vt 0.859375 0.767578
vt 0.859375 0.769531
vt 0.789062 0.769531
vt 0.710938 0.685547
vt 0.707031 0.677734
vt 0.773438 0.644531
vt 0.777344 0.652344
vt 0.708984 0.771484
vt 0.775391 0.738281
vt 0.771484 0.730469
vt 0.705078 0.763672
vt 0.621094 0.884766
vt 0.613281 0.884766
vt 0.613281 0.892578
vt 0.621094 0.892578
vt 0.509766 0.884766
vt 0.509766 0.892578
vt 0.501953 0.892578
vt 0.501953 0.884766
vt 0.332031 0.781250
vt 0.332031 0.773438
vt 0.328125 0.773438
vt 0.328125 0.781250
vt 0.892578 0.199219
vt 0.892578 0.208984
vt 0.884766 0.208984
vt 0.884766 0.199219
vt 0.691406 0.882812
vt 0.691406 0.890625
vt 0.687500 0.890625
vt 0.687500 0.882812
vt 0.488281 0.884766
vt 0.480469 0.884766
vt 0.480469 0.892578
vt 0.488281 0.892578
vt 0.349609 0.781250
vt 0.349609 0.773438
vt 0.345703 0.773438
vt 0.345703 0.781250
vt 0.314453 0.773438
vt 0.314453 0.781250
vt 0.310547 0.781250
vt 0.310547 0.773438
vt 0.869141 0.832031
vt 0.869141 0.839844
vt 0.837891 0.839844
vt 0.837891 0.832031
vt 0.869141 0.861328
vt 0.869141 0.853516
vt 0.837891 0.853516
vt 0.837891 0.861328
vt 0.878906 0.707031
vt 0.847656 0.707031
vt 0.847656 0.708984
vt 0.878906 0.708984
vt 0.847656 0.783203
vt 0.878906 0.783203
vt 0.878906 0.785156
vt 0.847656 0.785156
vt 0.031250 0.701172
vt 0.062500 0.701172
vt 0.062500 0.699219
vt 0.031250 0.699219
vt 0.156250 0.701172
vt 0.125000 0.701172
vt 0.125000 0.699219
vt 0.156250 0.699219
vt 0.093750 0.701172
vt 0.093750 0.699219
vt 0.187500 0.701172
vt 0.187500 0.699219
vt 0.464844 0.869141
vt 0.433594 0.869141
vt 0.433594 0.871094
vt 0.464844 0.871094
vt 0.785156 0.863281
vt 0.753906 0.863281
vt 0.753906 0.871094
vt 0.785156 0.871094
vt 0.031250 0.697266
vt 0.031250 0.705078
vt 0.000000 0.705078
vt 0.000000 0.697266
vt 0.884766 0.074219
vt 0.888672 0.074219
vt 0.888672 0.062500
vt 0.884766 0.062500
vt 0.804688 0.279297
vt 0.804688 0.291016
vt 0.820312 0.291016
vt 0.820312 0.279297
vt 0.871094 0.064453
vt 0.871094 0.076172
vt 0.863281 0.076172
vt 0.863281 0.064453
vt 0.804688 0.400391
vt 0.804688 0.417969
vt 0.816406 0.417969
vt 0.816406 0.400391
vt 0.849609 0.076172
vt 0.849609 0.064453
vt 0.773438 0.882812
vt 0.785156 0.882812
vt 0.785156 0.890625
vt 0.773438 0.890625
vt 0.574219 0.892578
vt 0.574219 0.884766
vt 0.585938 0.884766
vt 0.585938 0.892578
vt 0.804688 0.330078
vt 0.816406 0.330078
vt 0.824219 0.322266
vt 0.824219 0.314453
vt 0.820312 0.314453
vt 0.824219 0.312500
vt 0.820312 0.304688
vt 0.804688 0.312500
vt 0.820312 0.208984
vt 0.824219 0.208984
vt 0.824219 0.216797
vt 0.816406 0.224609
vt 0.804688 0.224609
vt 0.804688 0.207031
vt 0.820312 0.199219
vt 0.824219 0.207031
vt 0.721186 0.847656
vt 0.721186 0.847168
vt 0.720703 0.847168
vt 0.720703 0.832519
vt 0.721186 0.832519
vt 0.721186 0.832031
vt 0.758301 0.323735
vt 0.758301 0.324219
vt 0.757812 0.323735
vt 0.739751 0.832031
vt 0.739751 0.832519
vt 0.740234 0.832519
vt 0.739751 0.847168
vt 0.739751 0.847656
vt 0.740234 0.847168
vt 0.758301 0.357422
vt 0.792969 0.357422
vt 0.792969 0.356939
vt 0.758301 0.356939
vt 0.792969 0.337891
vt 0.758301 0.337891
vt 0.758301 0.338374
vt 0.792969 0.338374
vt 0.758301 0.304688
vt 0.792969 0.304688
vt 0.792969 0.305171
vt 0.758301 0.305171
vt 0.792969 0.324219
vt 0.792969 0.323735
vt 0.766113 0.472168
vt 0.766113 0.457520
vt 0.800781 0.457520
vt 0.800781 0.472168
vt 0.766113 0.512207
vt 0.766113 0.526856
vt 0.800781 0.526856
vt 0.800781 0.512207
s 0
usemtl rusty_aged_metal
f 24/1/1 25/2/1 9/3/1 11/4/1
f 23/5/2 22/6/2 12/7/2 10/8/2
f 5/9/2 17/10/2 16/11/2 6/12/2
f 88/13/3 28/14/3 29/15/3 86/16/3
f 7/17/3 82/18/3 86/16/3 29/15/3 27/19/3 8/20/3
f 26/21/4 6/22/4 16/23/4 30/24/4
f 8/25/4 27/26/4 31/27/4 14/28/4
f 31/29/2 27/30/2 29/31/2 33/32/2
f 26/33/1 30/34/1 32/35/1 28/36/1
f 28/37/4 32/38/4 33/39/4 29/40/4
f 7/41/1 8/42/1 14/43/1 15/44/1
f 28/14/3 88/13/3 84/45/3 5/46/3 6/47/3 26/48/3
f 43/49/3 37/50/3 39/51/3 45/52/3
f 7/53/5 35/54/5 37/55/5 43/56/5
f 47/57/6 46/58/6 44/59/6 45/60/6
f 34/61/5 5/62/5 42/63/5 36/64/5
f 5/62/5 7/53/5 43/56/5 42/63/5
f 36/65/3 42/66/3 44/67/3 38/68/3
f 42/66/3 43/49/3 45/52/3 44/67/3
f 47/69/7 49/70/7 48/71/7 46/72/7
f 49/73/8 50/74/8 51/75/8 48/76/8
f 55/77/1 46/78/1 48/79/1 51/80/1
f 47/81/2 52/82/2 50/83/2 49/84/2
f 50/74/6 52/85/6 55/86/6 51/75/6
f 57/87/9 46/58/9 55/88/9 54/89/9
f 44/59/6 46/58/6 57/87/6 38/90/6
f 39/91/6 56/92/6 47/57/6 45/60/6
f 53/93/9 52/94/9 47/57/9 56/92/9
f 35/95/1 53/96/1 56/97/1 39/98/1 37/99/1
f 34/100/2 36/101/2 38/102/2 57/103/2 54/104/2
f 67/105/3 69/106/3 63/107/3 61/108/3
f 8/109/10 67/110/10 61/111/10 59/112/10
f 71/113/4 69/114/4 68/115/4 70/116/4
f 58/117/10 60/118/10 66/119/10 6/120/10
f 6/120/10 66/119/10 67/110/10 8/109/10
f 60/121/3 62/122/3 68/123/3 66/124/3
f 66/124/3 68/123/3 69/106/3 67/105/3
f 71/125/7 70/126/7 72/127/7 73/128/7
f 73/129/11 72/130/11 75/131/11 74/132/11
f 79/133/1 75/134/1 72/135/1 70/136/1
f 71/137/2 73/138/2 74/139/2 76/140/2
f 74/132/4 75/131/4 79/141/4 76/142/4
f 81/143/12 78/144/12 79/145/12 70/116/12
f 68/115/4 62/146/4 81/143/4 70/116/4
f 63/147/4 69/114/4 71/113/4 80/148/4
f 77/149/12 80/148/12 71/113/12 76/150/12
f 59/151/1 61/152/1 63/153/1 80/154/1 77/155/1
f 58/156/2 78/157/2 81/158/2 62/159/2 60/160/2
f 7/161/6 15/162/6 83/163/6 82/164/6
f 17/165/6 5/166/6 84/167/6 85/168/6
f 85/169/1 84/170/1 88/171/1 89/172/1
f 82/173/2 83/174/2 87/175/2 86/176/2
f 86/177/6 87/178/6 89/179/6 88/180/6
f 55/181/7 64/182/7 65/183/7 54/184/7
f 79/185/7 78/186/7 41/187/7 40/188/7
f 64/182/7 40/188/7 41/187/7 65/183/7
f 34/100/2 54/104/2 65/189/2
f 41/190/2 78/157/2 58/156/2
f 34/100/2 65/189/2 41/190/2 58/156/2
f 5/191/3 34/192/3 58/193/3 6/194/3
f 77/195/7 76/196/7 13/197/7 90/198/7
f 53/199/7 92/200/7 91/201/7 52/202/7
f 13/197/7 91/201/7 92/200/7 90/198/7
f 77/155/1 90/203/1 59/151/1
f 53/96/1 35/95/1 92/204/1
f 92/204/1 35/95/1 59/151/1 90/203/1
f 7/205/3 8/206/3 59/207/3 35/208/3
f 52/202/7 91/201/7 64/182/7 55/181/7
f 76/196/7 79/185/7 40/188/7 13/197/7
f 6/120/6 8/109/6 13/209/6 40/210/6
f 7/53/4 5/62/4 64/211/4 91/212/4
f 24/213/13 11/214/13 94/215/13 95/216/13
f 9/217/14 25/218/14 96/219/14 93/220/14
f 12/221/13 22/222/13 99/223/13 98/224/13
f 23/225/14 10/226/14 97/227/14 100/228/14
f 96/229/2 95/230/2 94/231/2 93/232/2
f 100/233/1 97/234/1 98/235/1 99/236/1
f 101/237/15 103/238/15 104/239/15 102/240/15
f 105/241/16 106/242/16 108/243/16 107/244/16
f 105/245/13 107/246/13 103/247/13 101/248/13
f 113/249/16 114/250/16 116/251/16 115/252/16
f 108/253/14 106/254/14 102/255/14 104/256/14
f 109/257/15 111/258/15 112/259/15 110/260/15
f 113/261/13 115/262/13 111/263/13 109/264/13
f 116/265/14 114/266/14 110/267/14 112/268/14
f 1/269/2 2/270/2 18/271/2 20/272/2
f 4/273/1 3/274/1 21/275/1 19/276/1
f 1/277/7 20/278/7 118/279/7 117/280/7
f 18/281/3 2/282/3 119/283/3 120/284/3
f 21/285/7 3/286/7 121/287/7 122/288/7
f 4/289/3 19/290/3 124/291/3 123/292/3
f 123/293/2 124/286/2 128/287/2 127/294/2
f 120/289/1 119/295/1 125/296/1 126/292/1
f 122/294/2 121/291/2 131/290/2 132/293/2
f 117/297/1 118/298/1 130/299/1 129/300/1
f 129/301/7 130/302/7 132/303/7 131/304/7
f 125/305/3 127/306/3 128/307/3 126/308/3
f 136/309/7 144/310/7 143/311/7 135/312/7
f 134/313/13 133/314/13 147/315/13 145/316/13
f 141/317/17 142/318/17 137/319/17 139/320/17
f 134/321/6 140/322/6 138/323/6 133/324/6
f 139/320/3 137/319/3 138/325/3 140/326/3
f 145/327/16 147/328/16 148/329/16 146/330/16
f 136/309/14 135/312/14 146/311/14 148/310/14
f 141/331/4 143/332/4 144/333/4 142/334/4
f 138/335/1 137/336/1 142/337/1 144/338/1 136/339/1 148/340/1 147/341/1 133/342/1
f 135/343/2 143/344/2 141/345/2 139/346/2 140/347/2 134/348/2 145/349/2 146/350/2
usemtl concrete_aged_brown
f 149/351/18 150/352/18 151/353/18
f 152/354/19 153/355/19 154/356/19
f 155/357/20 156/358/20 157/359/20
f 158/360/21 159/361/21 160/362/21
f 157/363/22 150/352/22 149/351/22 155/364/22
f 150/352/23 153/355/23 152/354/23 151/353/23
f 153/355/24 159/361/24 158/360/24 154/356/24
f 159/361/25 157/363/25 156/365/25 160/362/25
f 160/366/26 168/367/26 167/368/26 158/369/26
f 163/370/27 152/371/27 154/372/27 164/373/27
f 151/374/28 162/375/28 161/376/28 149/377/28
f 165/378/29 156/358/29 155/357/29 166/379/29
f 155/357/3 149/377/3 161/376/3 166/379/3
f 150/352/6 157/363/6 159/361/6 153/355/6
f 151/380/2 152/381/2 163/382/2 162/383/2
f 154/372/7 158/369/7 167/368/7 164/373/7
f 160/384/1 156/385/1 165/386/1 168/387/1
l 9 10
l 11 12
