# Blender 5.2.1 LTS
# www.blender.org
mtllib general_beam_end_panel.mtl
o general_beam_end_panel
v 0.468750 -1.218750 -0.593750
v 0.468750 -1.218750 0.593750
v -0.468750 -1.218750 0.593750
v -0.468750 -1.218750 -0.593750
v -0.562500 -0.937500 0.687500
v -0.562500 -0.937500 -0.687500
v 0.562500 -0.937500 -0.687500
v 0.562500 -0.937500 0.687500
v 1.054688 -1.218750 -0.593750
v 1.054688 -1.218750 0.593750
v -1.054688 -1.218750 0.593750
v -1.054688 -1.218750 -0.593750
v -0.474274 -0.937500 -0.599274
v -0.460938 -0.937500 -0.593750
v -0.468750 -0.945312 -0.593750
v -0.460938 -0.937500 0.593750
v -0.474274 -0.937500 0.599274
v -0.468750 -0.945312 0.593750
v 0.474274 -0.937500 0.599274
v 0.460938 -0.937500 0.593750
v 0.468750 -0.945312 0.593750
v 0.460938 -0.937500 -0.593750
v 0.474274 -0.937500 -0.599274
v 0.468750 -0.945312 -0.593750
v 0.474274 -0.316544 0.599274
v 0.464706 -0.306976 0.599274
v 0.460938 -0.320312 0.593750
v 0.474274 -0.316544 -0.599274
v 0.460938 -0.320312 -0.593750
v 0.464706 -0.306976 -0.599274
v -0.474274 -0.316544 -0.599274
v -0.464706 -0.306976 -0.599274
v -0.460938 -0.320312 -0.593750
v -0.474274 -0.316544 0.599274
v -0.460938 -0.320312 0.593750
v -0.464706 -0.306976 0.599274
v -0.562500 -0.228318 0.687500
v -0.552932 -0.218750 0.687500
v -0.552932 -0.218750 -0.687500
v -0.562500 -0.228318 -0.687500
v 0.562500 -0.228318 -0.687500
v 0.552932 -0.218750 -0.687500
v 0.552932 -0.218750 0.687500
v 0.562500 -0.228318 0.687500
v 1.046876 -1.718750 -0.585938
v 1.054688 -1.710938 -0.593750
v 1.046876 -1.718750 0.585938
v 1.054688 -1.710938 0.593750
v -1.046876 -1.718750 0.585938
v -1.054688 -1.710938 0.593750
v -1.046876 -1.718750 -0.585938
v -1.054688 -1.710938 -0.593750
vn 0.3574 -0.3574 -0.8629
vn 0.3574 -0.3574 0.8629
vn -0.3574 -0.3574 0.8629
vn -0.3574 -0.3574 -0.8629
vn -0.2938 -0.2938 0.9096
vn -0.2938 -0.2938 -0.9096
vn 0.2938 -0.2938 -0.9096
vn 0.2938 -0.2938 0.9096
vn 0.3827 -0.0000 -0.9239
vn 0.3827 -0.0000 0.9239
vn -0.3827 -0.0000 0.9239
vn -0.3827 -0.0000 -0.9239
vn -0.0000 -0.3827 -0.9239
vn -0.0000 -0.3827 0.9239
vn 0.4082 -0.4082 0.8165
vn 0.4082 -0.4083 -0.8165
vn -0.4082 -0.4082 0.8165
vn -0.4082 -0.4083 -0.8165
vn 0.7071 -0.7071 -0.0000
vn -0.7071 -0.7071 -0.0000
vn -0.0000 -0.7071 0.7071
vn -0.0000 -0.7071 -0.7071
vn 0.7071 -0.0000 -0.7071
vn -0.0000 -0.0000 -1.0000
vn 0.7071 -0.0000 0.7071
vn -0.0000 -0.0000 1.0000
vn -0.7071 -0.0000 0.7071
vn -0.7071 -0.0000 -0.7071
vn -0.0000 -1.0000 -0.0000
vn 1.0000 -0.0000 -0.0000
vn -1.0000 -0.0000 -0.0000
vt 0.212660 0.316406
vt 0.213379 0.316406
vt 0.212891 0.316162
vt 0.037598 0.316406
vt 0.036879 0.316406
vt 0.037109 0.315918
vt 0.095933 0.316406
vt 0.095215 0.316406
vt 0.095703 0.316162
vt 0.270996 0.316406
vt 0.271715 0.316406
vt 0.271484 0.315918
vt 0.742382 0.624854
vt 0.741941 0.624655
vt 0.741618 0.625000
vt 0.271715 0.357146
vt 0.270996 0.356909
vt 0.271232 0.357422
vt 0.675635 0.007958
vt 0.676152 0.008158
vt 0.676367 0.007812
vt 0.036879 0.355216
vt 0.037598 0.354981
vt 0.037362 0.355469
vt 0.212545 0.357141
vt 0.213379 0.356909
vt 0.096048 0.355216
vt 0.095215 0.354980
vt 0.745508 0.007812
vt 0.745838 0.008158
vt 0.674074 0.624655
vt 0.674398 0.625000
vt 0.666281 0.619340
vt 0.673634 0.624854
vt 0.666730 0.619141
vt 0.670636 0.013672
vt 0.670121 0.013473
vt 0.749734 0.619340
vt 0.749286 0.619141
vt 0.753192 0.013672
vt 0.753640 0.013473
vt 0.746288 0.007958
vt 0.565914 0.564941
vt 0.565914 0.638184
vt 0.566406 0.638672
vt 0.566406 0.564453
vt 0.433594 0.564453
vt 0.433594 0.638672
vt 0.434086 0.638184
vt 0.434086 0.564941
vt 0.207031 0.362657
vt 0.207031 0.316406
vt 0.271484 0.298828
vt 0.212891 0.298828
vt 0.031250 0.360730
vt 0.031250 0.316406
vt 0.037109 0.298828
vt 0.095703 0.298828
vt 0.101562 0.316406
vt 0.101562 0.360730
vt 0.277344 0.316406
vt 0.277344 0.362657
vt 0.732422 0.160156
vt 0.732422 0.129395
vt 0.806641 0.129395
vt 0.806641 0.160156
vt 0.175781 0.298828
vt 0.308594 0.298828
vt 0.308594 0.268066
vt 0.175781 0.268066
vt 0.000000 0.298828
vt 0.000000 0.268066
vt 0.132812 0.268066
vt 0.132812 0.298828
vt 0.806641 0.115234
vt 0.806641 0.084473
vt 0.732422 0.084473
vt 0.732422 0.115234
s 0
usemtl concrete_aged_brown
f 13/1/1 14/2/1 15/3/1
f 16/4/2 17/5/2 18/6/2
f 19/7/3 20/8/3 21/9/3
f 22/10/4 23/11/4 24/12/4
f 25/13/5 26/14/5 27/15/5
f 28/16/6 29/17/6 30/18/6
f 31/19/7 32/20/7 33/21/7
f 34/22/8 35/23/8 36/24/8
f 13/1/9 31/25/9 33/26/9 14/2/9
f 16/4/10 35/23/10 34/22/10 17/5/10
f 19/7/11 25/27/11 27/28/11 20/8/11
f 22/10/12 29/17/12 28/16/12 23/11/12
f 29/29/13 33/21/13 32/20/13 30/30/13
f 26/14/14 36/31/14 35/32/14 27/15/14
f 37/33/15 34/34/15 36/31/15 38/35/15
f 39/36/16 32/20/16 31/19/16 40/37/16
f 25/13/17 44/38/17 43/39/17 26/14/17
f 30/30/18 42/40/18 41/41/18 28/42/18
f 47/43/19 45/44/19 46/45/19 48/46/19
f 50/47/20 52/48/20 51/49/20 49/50/20
f 48/46/21 50/47/21 49/50/21 47/43/21
f 45/44/22 51/49/22 52/48/22 46/45/22
f 40/51/23 31/25/23 13/1/23 6/52/23
f 14/2/24 33/26/24 29/17/24 22/10/24
f 15/3/24 14/2/24 22/10/24 24/12/24 1/53/24 4/54/24
f 37/55/25 5/56/25 17/5/25 34/22/25
f 16/4/26 20/8/26 27/28/26 35/23/26
f 21/9/26 20/8/26 16/4/26 18/6/26 3/57/26 2/58/26
f 8/59/27 44/60/27 25/27/27 19/7/27
f 7/61/28 23/11/28 28/16/28 41/62/28
f 26/14/21 43/39/21 38/35/21 36/31/21
f 42/40/22 30/30/22 32/20/22 39/36/22
f 45/44/29 47/43/29 49/50/29 51/49/29
f 10/63/30 48/64/30 46/65/30 9/66/30
f 12/67/24 4/54/24 1/53/24 9/68/24 46/69/24 52/70/24
f 3/57/26 11/71/26 50/72/26 48/73/26 10/74/26 2/58/26
f 12/75/31 52/76/31 50/77/31 11/78/31
