# Blender 5.2.1 LTS
# www.blender.org
mtllib general_beam_inner_panel.mtl
o general_beam_inner_panel
v -0.562500 -0.937500 0.187500
v -0.562500 -0.937500 -0.187500
v 0.562500 -0.937500 -0.187500
v 0.562500 -0.937500 0.187500
v -0.474274 -0.937500 -0.099274
v -0.460938 -0.937500 -0.093750
v -0.462250 -0.941833 -0.093750
v -0.468750 -0.945312 -0.093750
v -0.460938 -0.937500 0.093750
v -0.474274 -0.937500 0.099274
v -0.468750 -0.945312 0.093750
v -0.462250 -0.941833 0.093750
v -0.461044 -0.938784 0.093750
v -0.468750 -1.208581 -0.093750
v -0.468750 -1.218750 -0.085938
v -0.468750 -1.218750 0.085938
v -0.468750 -1.206795 0.093750
v 0.474274 -0.937500 0.099274
v 0.460938 -0.937500 0.093750
v 0.462250 -0.941833 0.093750
v 0.468750 -0.945312 0.093750
v 0.460938 -0.937500 -0.093750
v 0.474274 -0.937500 -0.099274
v 0.468750 -0.945312 -0.093750
v 0.462250 -0.941833 -0.093750
v 0.461044 -0.938784 -0.093750
v 0.468750 -1.208581 0.093750
v 0.468750 -1.218750 0.085938
v 0.468750 -1.218750 -0.085938
v 0.468750 -1.206795 -0.093750
v -0.286925 -1.057060 -0.093750
v -0.273438 -1.062500 -0.085938
v -0.287251 -1.067501 -0.085938
v -0.287251 -1.067501 0.085938
v -0.273438 -1.062500 0.085938
v -0.289268 -1.057155 0.093750
v 0.286925 -1.057060 0.093750
v 0.273438 -1.062500 0.085938
v 0.287251 -1.067501 0.085938
v 0.287251 -1.067501 -0.085938
v 0.273438 -1.062500 -0.085938
v 0.289268 -1.057155 -0.093750
v 0.474274 -0.316544 0.099274
v 0.464706 -0.306976 0.099274
v 0.460938 -0.320312 0.093750
v 0.474274 -0.316544 -0.099274
v 0.460938 -0.320312 -0.093750
v 0.464706 -0.306976 -0.099274
v -0.474274 -0.316544 -0.099274
v -0.464706 -0.306976 -0.099274
v -0.460938 -0.320312 -0.093750
v -0.474274 -0.316544 0.099274
v -0.460938 -0.320312 0.093750
v -0.464706 -0.306976 0.099274
v -0.562500 -0.228318 0.187500
v -0.552932 -0.218750 0.187500
v -0.552932 -0.218750 -0.187500
v -0.562500 -0.228318 -0.187500
v 0.562500 -0.228318 -0.187500
v 0.552932 -0.218750 -0.187500
v 0.552932 -0.218750 0.187500
v 0.562500 -0.228318 0.187500
vn 0.3047 -0.3047 -0.9024
vn 0.3024 -0.3024 0.9040
vn -0.3047 -0.3047 0.9024
vn -0.3024 -0.3023 -0.9040
vn 0.2134 -0.5895 -0.7790
vn 0.2043 -0.5642 0.8000
vn -0.2134 -0.5895 0.7790
vn -0.2043 -0.5642 -0.8000
vn -0.2938 -0.2938 0.9096
vn -0.2938 -0.2938 -0.9096
vn 0.2938 -0.2938 -0.9096
vn 0.2938 -0.2938 0.9096
vn 0.3827 -0.0000 -0.9239
vn 0.3827 -0.0000 0.9239
vn 0.4527 -0.5432 -0.7071
vn 0.4141 -0.4968 0.7626
vn -0.4527 -0.5432 0.7071
vn -0.4141 -0.4968 -0.7626
vn -0.0001 -0.8230 -0.5681
vn 0.0001 -0.8230 0.5681
vn -0.3827 -0.0000 0.9239
vn -0.3827 -0.0000 -0.9239
vn -0.0000 -0.3827 -0.9239
vn -0.0000 -0.3827 0.9239
vn 0.4082 -0.4082 0.8165
vn 0.4082 -0.4082 -0.8165
vn -0.4082 -0.4082 0.8165
vn -0.4082 -0.4083 -0.8165
vn 0.3404 -0.9403 -0.0000
vn -0.3404 -0.9403 -0.0000
vn 0.7071 -0.0000 -0.7071
vn -0.0000 -0.0000 -1.0000
vn 0.7071 -0.0000 0.7071
vn -0.0000 -0.0000 1.0000
vn 0.6402 -0.7682 -0.0000
vn -0.7071 -0.0000 0.7071
vn -0.7071 -0.0000 -0.7071
vn -0.6402 -0.7682 -0.0000
vn -0.0000 -1.0000 -0.0000
vn -0.0000 -0.7071 0.7071
vn -0.0000 -0.7071 -0.7071
vt 0.585707 0.582031
vt 0.586442 0.582031
vt 0.586348 0.581851
vt 0.585938 0.581787
vt 0.592248 0.023381
vt 0.591567 0.023438
vt 0.591797 0.022949
vt 0.592203 0.023167
vt 0.592241 0.023302
vt 0.650621 0.023438
vt 0.649902 0.023438
vt 0.649984 0.023257
vt 0.650391 0.023193
vt 0.646021 0.581975
vt 0.646715 0.582031
vt 0.646484 0.581543
vt 0.646078 0.581760
vt 0.646026 0.581895
vt 0.744124 0.187500
vt 0.744656 0.186930
vt 0.743813 0.186930
vt 0.743703 0.174398
vt 0.744527 0.174398
vt 0.744038 0.173828
vt 0.781264 0.173828
vt 0.780735 0.174398
vt 0.781531 0.174398
vt 0.781625 0.186930
vt 0.780863 0.186930
vt 0.781338 0.187500
vt 0.781445 0.714649
vt 0.781004 0.714383
vt 0.780680 0.714844
vt 0.646743 0.622770
vt 0.645980 0.622534
vt 0.646359 0.623096
vt 0.585592 0.622766
vt 0.585927 0.623144
vt 0.586316 0.622534
vt 0.591567 0.062247
vt 0.592285 0.062012
vt 0.592050 0.062500
vt 0.730833 0.187500
vt 0.730469 0.186930
vt 0.730469 0.174398
vt 0.730897 0.173828
vt 0.792656 0.173828
vt 0.792969 0.174398
vt 0.792969 0.186930
vt 0.792601 0.187500
vt 0.650736 0.062247
vt 0.649902 0.062012
vt 0.713137 0.714383
vt 0.713460 0.714844
vt 0.705344 0.707297
vt 0.712696 0.714649
vt 0.705792 0.707031
vt 0.580278 0.628707
vt 0.580078 0.628282
vt 0.788797 0.707297
vt 0.788348 0.707031
vt 0.652144 0.628707
vt 0.652344 0.628282
vt 0.580078 0.582031
vt 0.597287 0.574559
vt 0.585938 0.565089
vt 0.585938 0.067761
vt 0.585938 0.023438
vt 0.603015 0.015959
vt 0.639027 0.015965
vt 0.591797 0.006607
vt 0.656250 0.023438
vt 0.656250 0.067761
vt 0.650391 0.006495
vt 0.652344 0.582031
vt 0.635267 0.574553
vt 0.646484 0.565200
vt 0.788348 0.789062
vt 0.781004 0.783548
vt 0.713137 0.783548
vt 0.705792 0.789062
s 0
usemtl concrete_aged_brown
f 5/1/1 6/2/1 7/3/1 8/4/1
f 9/5/2 10/6/2 11/7/2 12/8/2 13/9/2
f 18/10/3 19/11/3 20/12/3 21/13/3
f 22/14/4 23/15/4 24/16/4 25/17/4 26/18/4
f 31/19/5 32/20/5 33/21/5
f 34/22/6 35/23/6 36/24/6
f 37/25/7 38/26/7 39/27/7
f 40/28/8 41/29/8 42/30/8
f 43/31/9 44/32/9 45/33/9
f 46/34/10 47/35/10 48/36/10
f 49/37/11 50/38/11 51/39/11
f 52/40/12 53/41/12 54/42/12
f 5/1/13 49/37/13 51/39/13 6/2/13
f 9/5/14 53/41/14 52/40/14 10/6/14
f 14/43/15 31/19/15 33/21/15 15/44/15
f 16/45/16 34/22/16 36/24/16 17/46/16
f 27/47/17 37/25/17 39/27/17 28/48/17
f 29/49/18 40/28/18 42/30/18 30/50/18
f 31/19/19 42/30/19 41/29/19 32/20/19
f 35/23/20 38/26/20 37/25/20 36/24/20
f 18/10/21 43/51/21 45/52/21 19/11/21
f 22/14/22 47/35/22 46/34/22 23/15/22
f 47/35/23 51/39/23 50/38/23 48/36/23
f 44/32/24 54/53/24 53/54/24 45/33/24
f 55/55/25 52/56/25 54/53/25 56/57/25
f 57/58/26 50/38/26 49/37/26 58/59/26
f 43/31/27 62/60/27 61/61/27 44/32/27
f 48/36/28 60/62/28 59/63/28 46/34/28
f 32/20/29 35/23/29 34/22/29 33/21/29
f 38/26/30 41/29/30 40/28/30 39/27/30
f 58/59/31 49/37/31 5/1/31 2/64/31
f 31/65/32 14/66/32 8/4/32 7/3/32
f 6/2/32 51/39/32 47/35/32 22/14/32
f 7/3/32 6/2/32 22/14/32 26/18/32 31/65/32
f 55/67/33 1/68/33 10/6/33 52/40/33
f 9/5/34 19/11/34 45/52/34 53/41/34
f 13/9/34 12/8/34 36/69/34 37/70/34
f 9/5/34 13/9/34 37/70/34 20/12/34 19/11/34
f 12/8/34 11/7/34 17/71/34 36/69/34
f 15/44/35 33/21/35 34/22/35 16/45/35
f 4/72/36 62/73/36 43/51/36 18/10/36
f 37/70/34 27/74/34 21/13/34 20/12/34
f 3/75/37 23/15/37 46/34/37 59/63/37
f 26/18/32 25/17/32 42/76/32 31/65/32
f 25/17/32 24/16/32 30/77/32 42/76/32
f 28/48/38 39/27/38 40/28/38 29/49/38
f 32/20/39 41/29/39 38/26/39 35/23/39
f 44/32/40 61/61/40 56/57/40 54/53/40
f 60/78/41 48/79/41 50/80/41 57/81/41
