# Blender 5.2.1 LTS
# www.blender.org
mtllib general_beam_hole.mtl
o general_beam_hole
v -0.968750 -0.281250 2.062500
v -0.968750 -0.281250 -2.062500
v 0.968750 -0.281250 -2.062500
v 0.968750 -0.281250 2.062500
v 0.968750 -0.843750 -2.062500
v 0.968750 -0.843750 2.062500
v 1.062500 -0.937500 -2.062500
v 1.062500 -0.937500 2.062500
v -0.562500 -0.843750 2.062500
v -0.562500 -0.843750 -2.062500
v -0.468750 -0.937500 2.062500
v -0.468750 -0.937500 -2.062500
v 0.562500 -0.843750 2.062500
v 0.562500 -0.843750 -2.062500
v 0.468750 -0.937500 2.062500
v 0.468750 -0.937500 -2.062500
v -0.562500 -0.343750 2.062500
v -0.562500 -0.343750 -2.062500
v 0.562500 -0.343750 2.062500
v 0.562500 -0.343750 -2.062500
v -0.437500 -0.218750 2.062500
v -0.437500 -0.218750 -2.062500
v 0.437500 -0.218750 2.062500
v 0.437500 -0.218750 -2.062500
v -1.242188 -0.062500 2.053386
v -1.250000 -0.070312 2.062500
v -1.242188 -0.062500 2.062500
v -1.244227 -0.062500 2.057237
v -1.250000 -0.070312 -2.062500
v -1.242188 -0.062500 -2.053386
v -1.244227 -0.062500 -2.057237
v -1.242188 -0.062500 -2.062500
v 1.242188 -0.062500 -2.053386
v 1.250000 -0.070312 -2.062500
v 1.242188 -0.062500 -2.062500
v 1.244227 -0.062500 -2.057237
v 1.250000 -0.070312 2.062500
v 1.242188 -0.062500 2.053386
v 1.244227 -0.062500 2.057237
v 1.242188 -0.062500 2.062500
v -1.250000 -0.210938 2.062500
v -1.242374 -0.220445 2.062500
v -1.242374 -0.220445 -2.062500
v -1.250000 -0.210938 -2.062500
v 1.250000 -0.210938 -2.062500
v 1.242374 -0.220445 -2.062500
v 1.242374 -0.220445 2.062500
v 1.250000 -0.210938 2.062500
v -0.968750 -0.835938 2.062500
v -0.974274 -0.849274 2.062500
v -0.974274 -0.849274 -2.062500
v -0.968750 -0.835938 -2.062500
v -1.056976 -0.931976 2.062500
v -1.062500 -0.945312 2.062500
v -1.062500 -0.945312 -2.062500
v -1.056976 -0.931976 -2.062500
v -1.062500 -1.210938 2.062500
v -1.054688 -1.218750 2.062500
v -1.054688 -1.218750 -2.062500
v -1.062500 -1.210938 -2.062500
v 1.062500 -1.210938 -2.062500
v 1.054688 -1.218750 -2.062500
v 1.054688 -1.218750 2.062500
v 1.062500 -1.210938 2.062500
v -0.476562 -1.218750 2.062500
v -0.468750 -1.210938 2.062500
v -0.468750 -1.210938 -2.062500
v -0.476562 -1.218750 -2.062500
v 0.468750 -1.210938 2.062500
v 0.476562 -1.218750 2.062500
v 0.476562 -1.218750 -2.062500
v 0.468750 -1.210938 -2.062500
v -0.318389 -0.062500 -0.975621
v -0.312500 -0.070312 -0.960938
v -0.306976 -0.070312 -0.974274
v -0.306976 -0.210938 -0.974274
v -0.312500 -0.210938 -0.960938
v -0.313632 -0.218750 -0.978652
v -0.193024 -0.070312 -1.088226
v -0.179688 -0.070312 -1.093750
v -0.194173 -0.062500 -1.099835
v -0.189752 -0.218750 -1.102476
v -0.179688 -0.210938 -1.093750
v -0.193024 -0.210938 -1.088226
v 0.179688 -0.070312 -1.093750
v 0.193024 -0.070312 -1.088226
v 0.194173 -0.062500 -1.099835
v 0.189752 -0.218750 -1.102476
v 0.193024 -0.210938 -1.088226
v 0.179688 -0.210938 -1.093750
v 0.306976 -0.070312 -0.974274
v 0.312500 -0.070312 -0.960938
v 0.318389 -0.062500 -0.975621
v 0.313632 -0.218750 -0.978652
v 0.312500 -0.210938 -0.960938
v 0.306976 -0.210938 -0.974274
v -0.318389 -0.062500 0.975621
v -0.306976 -0.070312 0.974274
v -0.312500 -0.070312 0.960938
v -0.312500 -0.210938 0.960938
v -0.306976 -0.210938 0.974274
v -0.313632 -0.218750 0.978652
v 0.312500 -0.070312 0.960938
v 0.306976 -0.070312 0.974274
v 0.318389 -0.062500 0.975621
v 0.313632 -0.218750 0.978652
v 0.306976 -0.210938 0.974274
v 0.312500 -0.210938 0.960938
v 0.193024 -0.070312 1.088226
v 0.179688 -0.070312 1.093750
v 0.194173 -0.062500 1.099835
v 0.189752 -0.218750 1.102476
v 0.179688 -0.210938 1.093750
v 0.193024 -0.210938 1.088226
v -0.179688 -0.070312 1.093750
v -0.193024 -0.070312 1.088226
v -0.194173 -0.062500 1.099835
v -0.189752 -0.218750 1.102476
v -0.193024 -0.210938 1.088226
v -0.179688 -0.210938 1.093750
vn 1.0000 -0.0000 -0.0000
vn 0.7071 0.7071 -0.0000
vn -0.7071 0.7071 -0.0000
vn -1.0000 -0.0000 -0.0000
vn -0.7071 -0.7071 -0.0000
vn 0.7071 -0.7071 -0.0000
vn -0.8042 0.5943 -0.0000
vn 0.8042 0.5943 -0.0000
vn 0.5330 0.8168 0.2208
vn 0.6528 -0.7077 0.2704
vn 0.2194 0.8193 0.5297
vn 0.2098 -0.8362 0.5066
vn -0.2194 0.8193 0.5297
vn -0.2098 -0.8362 0.5066
vn -0.5330 0.8168 0.2208
vn -0.6528 -0.7077 0.2704
vn 0.5330 0.8168 -0.2208
vn 0.6528 -0.7077 -0.2704
vn -0.5330 0.8168 -0.2208
vn -0.6528 -0.7077 -0.2704
vn -0.2194 0.8193 -0.5297
vn -0.2098 -0.8362 -0.5066
vn 0.2194 0.8193 -0.5297
vn 0.2098 -0.8362 -0.5066
vn -0.7800 -0.6257 -0.0000
vn 0.7800 -0.6257 -0.0000
vn -0.9239 0.3827 -0.0000
vn 0.4629 0.7560 0.4629
vn 0.5009 -0.7058 0.5010
vn -0.0000 -0.7451 0.6670
vn -0.0000 0.6145 0.7889
vn -0.4629 0.7560 0.4629
vn -0.5009 -0.7058 0.5010
vn -0.7985 0.6020 -0.0000
vn -0.9897 -0.1434 -0.0000
vn 0.7985 0.6020 -0.0000
vn 0.9897 -0.1434 -0.0000
vn -0.4629 0.7560 -0.4629
vn -0.5009 -0.7058 -0.5010
vn -0.0000 0.6145 -0.7889
vn -0.0000 -0.7451 -0.6670
vn 0.4629 0.7560 -0.4629
vn 0.5009 -0.7058 -0.5010
vn -0.3827 -0.0000 -0.9239
vn 0.3827 -0.0000 -0.9239
vn 0.9239 -0.0000 -0.3827
vn 0.3827 -0.0000 0.9239
vn -0.9239 -0.0000 0.3827
vn -0.3827 -0.0000 0.9239
vn 0.9239 -0.0000 0.3827
vn -0.9239 -0.0000 -0.3827
vn -0.0000 1.0000 -0.0000
vn -0.2169 -0.9762 -0.0000
vn 0.2169 -0.9762 -0.0000
vn -0.0000 -1.0000 -0.0000
vn 0.7071 -0.0000 0.7071
vn -0.0000 -0.0000 1.0000
vn -0.7071 -0.0000 0.7071
vn 0.7071 -0.0000 -0.7071
vn -0.7071 -0.0000 -0.7071
vn -0.0000 -0.0000 -1.0000
vt 0.257812 0.523438
vt 0.000000 0.523438
vt 0.000000 0.488281
vt 0.257812 0.488281
vt 0.263672 0.689453
vt 0.263672 0.382812
vt 0.269531 0.382812
vt 0.269531 0.689453
vt 0.691406 0.083984
vt 0.697266 0.083984
vt 0.697266 0.390625
vt 0.691406 0.390625
vt 0.718750 0.083984
vt 0.718750 0.390625
vt 0.710938 0.390625
vt 0.710938 0.083984
vt 0.691406 0.652344
vt 0.433594 0.652344
vt 0.433594 0.683594
vt 0.691406 0.683594
vt 0.257812 0.585938
vt 0.257812 0.617188
vt 0.000000 0.617188
vt 0.000000 0.585938
vt 0.386719 0.273438
vt 0.386719 0.000000
vt 0.378906 0.000000
vt 0.378906 0.273438
vt 0.314453 0.273438
vt 0.322266 0.273438
vt 0.322266 0.000000
vt 0.314453 0.000000
vt 0.156738 0.000570
vt 0.156250 0.000000
vt 0.156627 0.000122
vt 0.156611 0.000329
vt 0.156250 0.257812
vt 0.156738 0.257243
vt 0.156596 0.257471
vt 0.156598 0.257692
vt 0.311996 0.257260
vt 0.312500 0.257812
vt 0.312012 0.257812
vt 0.312139 0.257484
vt 0.312500 0.000000
vt 0.312012 0.000570
vt 0.312154 0.000342
vt 0.312153 0.000121
vt 0.214476 0.189883
vt 0.214844 0.188965
vt 0.215004 0.189640
vt 0.330423 0.201517
vt 0.330078 0.200912
vt 0.330007 0.201826
vt 0.222311 0.196920
vt 0.222900 0.197266
vt 0.222239 0.197646
vt 0.337750 0.209565
vt 0.338420 0.208984
vt 0.337718 0.208812
vt 0.245605 0.197266
vt 0.246275 0.197101
vt 0.246511 0.197646
vt 0.363422 0.209565
vt 0.363627 0.208639
vt 0.363017 0.208984
vt 0.253561 0.189798
vt 0.253906 0.189209
vt 0.254274 0.189883
vt 0.371164 0.201826
vt 0.371094 0.200652
vt 0.370938 0.201504
vt 0.214476 0.067930
vt 0.215189 0.068014
vt 0.214844 0.068604
vt 0.765625 0.432227
vt 0.766057 0.432227
vt 0.765968 0.431641
vt 0.253906 0.068848
vt 0.253746 0.068173
vt 0.254274 0.067930
vt 0.371164 0.071611
vt 0.370748 0.071920
vt 0.371094 0.072526
vt 0.246439 0.060892
vt 0.245850 0.060547
vt 0.246511 0.060167
vt 0.363422 0.063873
vt 0.362752 0.064453
vt 0.363454 0.064626
vt 0.223145 0.060547
vt 0.222475 0.060712
vt 0.222239 0.060167
vt 0.337750 0.063873
vt 0.337545 0.064798
vt 0.338155 0.064453
vt 0.597656 0.541504
vt 0.855469 0.541504
vt 0.855469 0.541016
vt 0.597656 0.541016
vt 0.521484 0.261719
vt 0.521484 0.000000
vt 0.521008 0.000000
vt 0.521008 0.261719
vt 0.000000 0.453613
vt 0.257812 0.453613
vt 0.257812 0.453125
vt 0.000000 0.453125
vt 0.258158 0.382812
vt 0.258158 0.689453
vt 0.257812 0.689453
vt 0.257812 0.382812
vt 0.382812 0.294922
vt 0.382812 0.550781
vt 0.383301 0.550781
vt 0.383301 0.294922
vt 0.691406 0.791504
vt 0.433594 0.791504
vt 0.433594 0.791016
vt 0.691406 0.791016
vt 0.419434 0.294922
vt 0.419434 0.550781
vt 0.419922 0.550781
vt 0.419922 0.294922
vt 0.000000 0.652832
vt 0.257812 0.652832
vt 0.257812 0.652344
vt 0.000000 0.652344
vt 0.330007 0.071611
vt 0.330078 0.072785
vt 0.330423 0.071920
vt 0.801127 0.442773
vt 0.801127 0.432227
vt 0.800252 0.432227
vt 0.800252 0.442773
vt 0.775920 0.442773
vt 0.775920 0.432227
vt 0.774959 0.432227
vt 0.774959 0.442773
vt 0.766057 0.442774
vt 0.765625 0.442773
vt 0.774959 0.495605
vt 0.774959 0.486816
vt 0.775920 0.486816
vt 0.775920 0.495606
vt 0.808249 0.495606
vt 0.808248 0.486816
vt 0.808594 0.486816
vt 0.808594 0.495605
vt 0.800252 0.495606
vt 0.800252 0.486816
vt 0.801127 0.486816
vt 0.801126 0.495605
vt 0.766057 0.486816
vt 0.766057 0.495606
vt 0.765625 0.495605
vt 0.765625 0.486816
vt 0.808249 0.432227
vt 0.808248 0.442773
vt 0.808594 0.442773
vt 0.808594 0.432227
vt 0.855469 0.550293
vt 0.597656 0.550293
vt 0.433594 0.854981
vt 0.433594 0.846191
vt 0.691406 0.846191
vt 0.691406 0.854981
vt 0.566883 0.289062
vt 0.566883 0.550781
vt 0.583984 0.550781
vt 0.583984 0.289062
vt 0.503906 0.000000
vt 0.503906 0.261719
vt 0.263327 0.382812
vt 0.263327 0.689453
vt 0.433594 0.776856
vt 0.691406 0.776856
vt 0.691406 0.760254
vt 0.433594 0.760254
vt 0.370605 0.550781
vt 0.370605 0.294922
vt 0.334473 0.294922
vt 0.334473 0.550781
vt 0.691406 0.808594
vt 0.433594 0.808594
vt 0.000000 0.687500
vt 0.000000 0.670410
vt 0.257812 0.670410
vt 0.257812 0.687500
vt 0.000000 0.669922
vt 0.257812 0.669922
vt 0.403809 0.696777
vt 0.283691 0.696777
vt 0.283691 0.687988
vt 0.403809 0.687988
vt 0.598144 0.417481
vt 0.718262 0.417481
vt 0.718262 0.408691
vt 0.598144 0.408691
s 0
usemtl concrete_aged_brown
f 3/1/1 4/2/1 6/3/1 5/4/1
f 5/5/2 6/6/2 8/7/2 7/8/2
f 9/9/2 11/10/2 12/11/2 10/12/2
f 13/13/3 14/14/3 16/15/3 15/16/3
f 14/17/4 13/18/4 19/19/4 20/20/4
f 10/21/1 18/22/1 17/23/1 9/24/1
f 20/25/5 19/26/5 23/27/5 24/28/5
f 18/29/6 22/30/6 21/31/6 17/32/6
f 76/52/10 77/53/10 78/54/10
f 82/58/12 83/59/12 84/60/12
f 88/64/14 89/65/14 90/66/14
f 94/70/16 95/71/16 96/72/16
f 106/82/20 107/83/20 108/84/20
f 112/88/22 113/89/22 114/90/22
f 118/94/24 119/95/24 120/96/24
f 45/101/26 48/102/26 47/103/26 46/104/26
f 49/105/27 52/106/27 51/107/27 50/108/27
f 53/109/27 56/110/27 55/111/27 54/112/27
f 57/113/5 60/114/5 59/115/5 58/116/5
f 61/117/6 64/118/6 63/119/6 62/120/6
f 65/121/6 68/122/6 67/123/6 66/124/6
f 69/125/5 72/126/5 71/127/5 70/128/5
f 78/54/29 82/58/29 84/60/29 76/52/29
f 82/58/30 88/64/30 90/66/30 83/59/30
f 88/64/33 94/70/33 96/72/33 89/65/33
f 94/70/35 106/82/35 108/84/35 95/71/35
f 102/129/37 78/54/37 77/53/37 100/130/37
f 106/82/39 112/88/39 114/90/39 107/83/39
f 112/88/41 118/94/41 120/96/41 113/89/41
f 118/94/43 102/129/43 101/131/43 119/95/43
f 42/168/53 43/169/53 2/170/53 1/171/53
f 46/104/54 47/103/54 4/172/54 3/173/54
f 50/174/3 51/175/3 56/110/3 53/109/3
f 1/3/4 2/4/4 52/106/4 49/105/4
f 54/176/4 55/177/4 60/178/4 57/179/4
f 59/115/55 68/122/55 65/121/55 58/116/55
f 62/180/55 63/181/55 70/182/55 71/183/55
f 7/184/1 8/185/1 64/118/1 61/117/1
f 11/186/1 66/187/1 67/188/1 12/189/1
f 15/190/4 16/191/4 72/126/4 69/125/4
f 78/54/55 22/30/55 82/58/55
f 22/30/55 78/54/55 102/129/55 21/31/55
f 24/28/55 88/64/55 82/58/55 22/30/55
f 88/64/55 24/28/55 94/70/55
f 23/27/55 106/82/55 94/70/55 24/28/55
f 21/31/55 102/129/55 118/94/55
f 106/82/55 23/27/55 112/88/55
f 21/31/55 118/94/55 112/88/55 23/27/55
usemtl concrete_aged
f 25/33/7 26/34/7 27/35/7 28/36/7
f 29/37/7 30/38/7 31/39/7 32/40/7
f 33/41/8 34/42/8 35/43/8 36/44/8
f 37/45/8 38/46/8 39/47/8 40/48/8
f 73/49/9 74/50/9 75/51/9
f 79/55/11 80/56/11 81/57/11
f 85/61/13 86/62/13 87/63/13
f 91/67/15 92/68/15 93/69/15
f 97/73/17 98/74/17 99/75/17
f 100/76/18 101/77/18 102/78/18
f 103/79/19 104/80/19 105/81/19
f 109/85/21 110/86/21 111/87/21
f 115/91/23 116/92/23 117/93/23
f 25/33/3 30/38/3 29/37/3 26/34/3
f 33/41/2 38/46/2 37/45/2 34/42/2
f 41/97/25 44/98/25 43/99/25 42/100/25
f 75/51/28 79/55/28 81/57/28 73/49/28
f 80/56/31 85/61/31 87/63/31 81/57/31
f 86/62/32 91/67/32 93/69/32 87/63/32
f 92/68/34 103/79/34 105/81/34 93/69/34
f 73/49/36 97/73/36 99/75/36 74/50/36
f 104/80/38 109/85/38 111/87/38 105/81/38
f 110/86/40 115/91/40 117/93/40 111/87/40
f 116/92/42 98/74/42 97/73/42 117/93/42
f 109/132/44 114/133/44 113/134/44 110/135/44
f 115/136/45 120/137/45 119/138/45 116/139/45
f 98/140/46 101/77/46 100/76/46 99/141/46
f 79/142/47 84/143/47 83/144/47 80/145/47
f 91/146/48 96/147/48 95/148/48 92/149/48
f 85/150/49 90/151/49 89/152/49 86/153/49
f 76/154/50 75/155/50 74/156/50 77/157/50
f 107/158/51 104/159/51 103/160/51 108/161/51
f 25/33/52 97/73/52 73/49/52 30/38/52
f 29/162/4 44/98/4 41/97/4 26/163/4
f 28/36/52 27/35/52 40/48/52 39/47/52 111/87/52 117/93/52
f 97/73/52 25/33/52 28/36/52 117/93/52
f 36/44/52 35/43/52 32/40/52 31/39/52 81/57/52 87/63/52
f 31/39/52 30/38/52 73/49/52 81/57/52
f 38/46/52 33/41/52 93/69/52 105/81/52
f 37/164/1 48/165/1 45/166/1 34/167/1
f 33/41/52 36/44/52 87/63/52 93/69/52
f 39/47/52 38/46/52 105/81/52 111/87/52
f 79/142/56 75/155/56 76/154/56 84/143/56
f 74/192/1 99/193/1 100/194/1 77/195/1
f 85/150/57 80/145/57 83/144/57 90/151/57
f 91/146/58 86/153/58 89/152/58 96/147/58
f 103/196/4 92/197/4 95/198/4 108/199/4
f 98/140/59 116/139/59 119/138/59 101/77/59
f 109/132/60 104/159/60 107/158/60 114/133/60
f 115/136/61 110/135/61 113/134/61 120/137/61
