# Blender 5.2.1 LTS
# www.blender.org
mtllib short_beam_fill.mtl
o short_beam_fill
v -1.250000 -0.062500 4.125000
v -1.250000 -0.062500 -4.125000
v 1.250000 -0.062500 -4.125000
v 1.250000 -0.062500 4.125000
v -1.250000 -0.218750 4.125000
v -1.250000 -0.218750 -4.125000
v 1.250000 -0.218750 -4.125000
v 1.250000 -0.218750 4.125000
v -0.906250 -0.218750 -3.812500
v -0.906250 -0.218750 3.812500
v -0.906250 -0.687500 -2.906250
v -0.906250 -0.687500 2.906250
v -0.906250 -1.125000 -3.968750
v -0.906250 -1.125000 3.968750
v -0.406250 -0.218750 -3.812500
v -0.406250 -0.218750 3.812500
v -0.406250 -0.687500 -2.906250
v -0.406250 -0.687500 2.906250
v -0.406250 -1.125000 -3.968750
v -0.406250 -1.125000 3.968750
v 0.406250 -0.218750 -3.812500
v 0.406250 -0.218750 3.812500
v 0.406250 -0.687500 -2.906250
v 0.406250 -0.687500 2.906250
v 0.406250 -1.125000 -3.968750
v 0.406250 -1.125000 3.968750
v 0.906250 -0.218750 -3.812500
v 0.906250 -0.218750 3.812500
v 0.906250 -0.687500 -2.906250
v 0.906250 -0.687500 2.906250
v 0.906250 -1.125000 -3.968750
v 0.906250 -1.125000 3.968750
v 0.406250 -0.218750 0.187500
v 0.406250 -0.687500 0.187500
v 0.906250 -0.218750 0.000000
v 0.906250 -0.687500 0.000000
v -0.906250 -0.218750 0.000000
v -0.906250 -0.687500 0.000000
v -0.406250 -0.218750 0.187500
v -0.406250 -0.687500 0.187500
v 0.406250 -0.218750 -0.187500
v 0.406250 -0.687500 -0.187500
v -0.406250 -0.218750 -0.187500
v -0.406250 -0.687500 -0.187500
v -1.250000 -0.062500 0.000000
v 1.250000 -0.062500 0.000000
v -1.250000 -0.218750 0.000000
v 1.250000 -0.218750 0.000000
vn 1.0000 -0.0000 -0.0000
vn -0.0000 -1.0000 -0.0000
vn -0.0000 1.0000 -0.0000
vn -1.0000 -0.0000 -0.0000
vn -0.0000 -0.9247 0.3807
vn -0.0000 -0.9247 -0.3807
vn -0.0000 -0.0000 1.0000
vn -0.0000 -0.0000 -1.0000
vt 0.161133 0.128899
vt 0.166015 0.128899
vt 0.166015 0.257798
vt 0.161133 0.257798
vt 0.000000 0.128906
vt 0.000000 0.257812
vt 0.078125 0.257812
vt 0.078125 0.128906
vt 0.156250 0.128906
vt 0.156250 0.257812
vt 0.125977 0.293945
vt 0.125977 0.279297
vt 0.035156 0.279297
vt 0.006836 0.293945
vt 0.245117 0.293945
vt 0.250000 0.265625
vt 0.216797 0.279297
vt 0.001953 0.265625
vt 0.120117 0.350586
vt 0.006836 0.350586
vt 0.035156 0.335938
vt 0.120117 0.335938
vt 0.233398 0.350586
vt 0.205078 0.335938
vt 0.238281 0.322266
vt 0.001953 0.322266
vt 0.332012 0.124038
vt 0.347637 0.118178
vt 0.347637 0.032241
vt 0.332012 0.032241
vt 0.332012 0.248061
vt 0.347637 0.248061
vt 0.347637 0.215834
vt 0.332012 0.215834
vt 0.347637 0.000014
vt 0.332012 0.000014
vt 0.120117 0.378906
vt 0.120117 0.364258
vt 0.035156 0.364258
vt 0.006836 0.378906
vt 0.233398 0.378906
vt 0.238281 0.350586
vt 0.205078 0.364258
vt 0.001953 0.350586
vt 0.125977 0.322266
vt 0.006836 0.322266
vt 0.035156 0.307617
vt 0.125977 0.307617
vt 0.245117 0.322266
vt 0.216797 0.307617
vt 0.250000 0.293945
vt 0.001953 0.293945
vt 0.373516 0.118178
vt 0.389141 0.124038
vt 0.389141 0.032241
vt 0.373516 0.032241
vt 0.373516 0.248061
vt 0.389141 0.248061
vt 0.389141 0.215834
vt 0.373516 0.215834
vt 0.389141 0.000014
vt 0.373516 0.000014
vt 0.373516 0.129897
vt 0.347637 0.129897
vt 0.367657 0.025405
vt 0.353009 0.025405
vt 0.353009 0.000014
vt 0.367657 0.000014
vt 0.367657 0.050795
vt 0.353009 0.050795
vt 0.078125 0.000000
vt 0.156250 0.000000
vt 0.000000 0.000000
vt 0.161133 0.000000
vt 0.166015 0.000000
vt 0.156250 0.257798
vt 0.156250 0.128899
s 0
usemtl concrete_aged_white
f 47/5/2 6/6/2 7/7/2 48/8/2
f 37/11/4 38/12/4 12/13/4 10/14/4
f 9/15/4 13/16/4 11/17/4
f 12/13/4 14/18/4 10/14/4
f 39/19/1 16/20/1 18/21/1 40/22/1
f 15/23/1 17/24/1 19/25/1
f 18/21/1 16/20/1 20/26/1
f 38/27/2 40/28/2 18/29/2 12/30/2
f 13/31/5 19/32/5 17/33/5 11/34/5
f 12/30/6 18/29/6 20/35/6 14/36/6
f 33/37/4 34/38/4 24/39/4 22/40/4
f 21/41/4 25/42/4 23/43/4
f 24/39/4 26/44/4 22/40/4
f 35/45/1 28/46/1 30/47/1 36/48/1
f 27/49/1 29/50/1 31/51/1
f 30/47/1 28/46/1 32/52/1
f 34/53/2 36/54/2 30/55/2 24/56/2
f 25/57/5 31/58/5 29/59/5 23/60/5
f 24/56/6 30/55/6 32/61/6 26/62/6
f 29/50/1 27/49/1 35/45/1 36/48/1
f 21/41/4 23/43/4 42/38/4 41/37/4
f 23/60/2 29/59/2 36/54/2 42/63/2
f 34/53/2 42/63/2 36/54/2
f 38/27/2 44/64/2 40/28/2
f 17/33/2 44/64/2 38/27/2 11/34/2
f 17/24/1 15/23/1 43/19/1 44/22/1
f 9/15/4 11/17/4 38/12/4 37/11/4
f 42/63/2 34/53/2 40/28/2 44/64/2
f 34/65/7 33/66/7 39/67/7 40/68/7
f 42/69/8 44/65/8 43/66/8 41/70/8
f 5/73/2 47/5/2 48/8/2 8/71/2
usemtl concrete_aged
f 46/1/1 48/2/1 7/3/1 3/4/1
f 45/8/3 46/9/3 3/10/3 2/7/3
f 1/71/3 4/72/3 46/9/3 45/8/3
f 4/74/1 8/75/1 48/2/1 46/1/1
f 2/76/4 6/4/4 47/1/4 45/77/4
f 45/77/4 47/1/4 5/74/4 1/72/4
l 35 41
l 37 43
