# Blender 5.2.1 LTS
# www.blender.org
mtllib short_beam_track_b_walkway_support.mtl
o short_beam_track_b_walkway_support
v -1.343750 -0.343750 0.125000
v -1.343750 -0.343750 -0.125000
v -1.343750 -0.562500 0.125000
v -1.343750 -0.562500 -0.125000
v -0.656250 -0.343750 0.125000
v -0.656250 -0.343750 -0.125000
v -0.656250 -0.562500 0.125000
v -0.656250 -0.562500 -0.125000
v -1.375000 -0.312500 0.125000
v -1.375000 -0.312500 -0.125000
v -1.375000 -0.593750 -0.125000
v -0.625000 -0.593750 -0.125000
v -0.625000 -0.593750 0.125000
v -1.375000 -0.593750 0.125000
v -0.625000 -0.312500 -0.125000
v -0.625000 -0.312500 0.125000
v -1.375000 -0.625000 0.156250
v -1.375000 -0.625000 -0.156250
v -1.343750 -0.343750 0.062500
v -1.343750 -0.343750 -0.062500
v -1.343750 -0.562500 0.062500
v -1.343750 -0.562500 -0.062500
v -0.656250 -0.343750 0.062500
v -0.656250 -0.343750 -0.062500
v -0.656250 -0.562500 0.062500
v -0.656250 -0.562500 -0.062500
v -1.375000 -0.187500 0.156250
v -1.375000 -0.187500 -0.156250
v -1.656250 -0.187500 0.156250
v -1.656250 -0.187500 -0.156250
v -1.406250 -0.625000 -0.156250
v -1.406250 -0.625000 0.156250
v -1.406250 -0.218750 -0.156250
v -1.406250 -0.218750 0.156250
v -1.656250 -0.218750 -0.156250
v -1.656250 -0.218750 0.156250
v -1.406250 -0.218750 -0.031250
v -1.406250 -0.218750 0.031250
v -1.593750 -0.218750 -0.031250
v -1.593750 -0.218750 0.031250
v -1.406250 -0.500000 -0.031250
v -1.406250 -0.500000 0.031250
vn -0.0000 -0.0000 1.0000
vn -0.0000 -1.0000 -0.0000
vn -0.0000 -0.0000 -1.0000
vn -0.0000 1.0000 -0.0000
vn 1.0000 -0.0000 -0.0000
vn -1.0000 -0.0000 -0.0000
vn -0.8321 -0.5547 -0.0000
vt 0.500977 0.213867
vt 0.522461 0.213867
vt 0.523438 0.214844
vt 0.500000 0.214844
vt 0.500000 0.248047
vt 0.521484 0.248047
vt 0.521484 0.246094
vt 0.500000 0.246094
vt 0.500000 0.231445
vt 0.523438 0.231445
vt 0.523438 0.223633
vt 0.500000 0.223633
vt 0.542969 0.248047
vt 0.542969 0.246094
vt 0.500977 0.222656
vt 0.522461 0.222656
vt 0.500977 0.215820
vt 0.522461 0.215820
vt 0.522461 0.207031
vt 0.500977 0.207031
vt 0.500000 0.206055
vt 0.523438 0.206055
vt 0.500000 0.239258
vt 0.521484 0.239258
vt 0.542969 0.239258
vt 0.521484 0.250000
vt 0.500000 0.250000
vt 0.523438 0.239258
vt 0.523438 0.232422
vt 0.525391 0.232422
vt 0.525391 0.239258
vt 0.546875 0.239258
vt 0.546875 0.246094
vt 0.544922 0.246094
vt 0.544922 0.239258
vt 0.542969 0.250000
vt 0.548828 0.246094
vt 0.548828 0.239258
vt 0.533203 0.206055
vt 0.533203 0.219727
vt 0.523438 0.219727
vt 0.541992 0.214844
vt 0.533203 0.214844
vt 0.541992 0.206055
vt 0.533203 0.232422
vt 0.543945 0.224609
vt 0.543945 0.214844
vt 0.536133 0.214844
vt 0.536133 0.224609
vt 0.534180 0.233398
vt 0.525391 0.233398
vt 0.535156 0.234375
vt 0.535156 0.220703
vt 0.534180 0.220703
vt 0.526367 0.234375
vt 0.526367 0.233398
vt 0.544922 0.214844
vt 0.544922 0.206055
vt 0.543945 0.206055
vt 0.501953 0.208984
vt 0.511719 0.208984
vt 0.511719 0.208008
vt 0.501953 0.208008
vt 0.534180 0.219727
vt 0.569336 0.235352
vt 0.563477 0.235352
vt 0.569336 0.226562
vt 0.556641 0.235352
vt 0.556641 0.226562
vt 0.550781 0.235352
s 0
usemtl rusty_aged_metal
f 1/1/1 5/2/1 16/3/1 9/4/1
f 2/5/2 6/6/2 24/7/2 20/8/2
f 11/9/2 12/10/2 13/11/2 14/12/2
f 1/7/2 19/6/2 23/13/2 5/14/2
f 2/15/3 10/12/3 15/11/3 6/16/3
f 4/17/3 8/18/3 12/3/3 11/4/3
f 7/19/1 3/20/1 14/21/1 13/22/1
f 2/15/3 4/17/3 11/4/3 10/12/3
f 3/20/1 1/1/1 9/4/1 14/21/1
f 5/2/1 7/19/1 13/22/1 16/3/1
f 8/18/3 6/16/3 15/11/3 12/3/3
f 19/8/1 21/23/1 25/24/1 23/7/1
f 20/7/3 24/14/3 26/25/3 22/24/3
f 8/26/4 4/27/4 22/5/4 26/6/4
f 1/28/5 3/29/5 21/30/5 19/31/5
f 4/32/5 2/33/5 20/34/5 22/35/5
f 3/6/4 7/13/4 25/36/4 21/26/4
f 7/32/6 5/33/6 23/37/6 25/38/6
f 6/34/6 8/35/6 26/25/6 24/14/6
f 15/28/4 10/23/4 9/9/4 16/10/4
f 18/39/5 28/40/5 27/41/5 17/22/5
f 28/42/4 30/43/4 29/39/4 27/44/4
f 31/40/6 32/41/6 34/29/6 33/45/6
f 33/46/2 34/47/2 36/48/2 35/49/2
f 27/50/1 29/51/1 36/30/1 34/45/1
f 28/52/3 18/53/3 31/54/3 33/50/3
f 30/55/3 28/52/3 33/50/3 35/56/3
f 18/57/2 17/58/2 32/59/2 31/47/2
f 29/60/6 30/61/6 35/62/6 36/63/6
f 17/64/1 27/50/1 34/45/1 32/40/1
f 40/42/7 39/47/7 41/59/7 42/44/7
f 38/65/1 40/66/1 42/67/1
f 37/68/3 41/69/3 39/70/3
