# Blender 5.2.1 LTS
# www.blender.org
mtllib short_beam_pillar.mtl
o short_beam_pillar
v -1.093750 -0.218750 -0.187500
v -1.093750 -0.218750 0.187500
v 1.093750 -0.218750 -0.187500
v 1.093750 -0.218750 0.187500
v -1.085938 -0.218750 -0.312500
v -1.093750 -0.218750 -0.304688
v 1.093750 -0.218750 -0.304688
v 1.085938 -0.218750 -0.312500
v -1.093750 -0.679688 -0.304688
v -1.085938 -0.679688 -0.312500
v -1.085938 -0.687500 -0.304688
v 1.093750 -0.679688 -0.304688
v 1.085938 -0.687500 -0.304688
v 1.085938 -0.679688 -0.312500
v -1.093750 -0.218750 0.304688
v -1.085938 -0.218750 0.312500
v 1.085938 -0.218750 0.312500
v 1.093750 -0.218750 0.304688
v -1.093750 -0.679688 0.304688
v -1.085938 -0.687500 0.304688
v -1.085938 -0.679688 0.312500
v 1.093750 -0.679688 0.304688
v 1.085938 -0.679688 0.312500
v 1.085938 -0.687500 0.304688
v -1.093750 -0.679688 0.179688
v -1.085938 -0.687500 0.187500
v -1.085938 -0.687500 -0.187500
v -1.093750 -0.679688 -0.179688
v 1.093750 -0.679688 -0.179688
v 1.085938 -0.687500 -0.187500
v 1.085938 -0.687500 0.187500
v 1.093750 -0.679688 0.179688
v -1.093750 -9.992188 0.179688
v -1.085938 -10.000000 0.187500
v -1.093750 -9.992188 -0.179688
v -1.085938 -10.000000 -0.187500
v 1.093750 -9.992188 -0.179688
v 1.085938 -10.000000 -0.187500
v 1.093750 -9.992188 0.179688
v 1.085938 -10.000000 0.187500
vn -0.0000 1.0000 -0.0000
vn -0.5774 -0.5773 -0.5774
vn 0.5774 -0.5773 -0.5774
vn -0.5774 -0.5773 0.5774
vn 0.5774 -0.5773 0.5774
vn 0.7071 -0.0000 -0.7071
vn -0.7071 -0.0000 -0.7071
vn -0.0000 -0.7071 -0.7071
vn 0.7071 -0.0000 0.7071
vn -0.7071 -0.0000 0.7071
vn -0.0000 -0.7071 0.7071
vn -0.7071 -0.7071 -0.0000
vn 0.7071 -0.7071 -0.0000
vn -0.0000 -0.0000 -1.0000
vn -1.0000 -0.0000 -0.0000
vn 1.0000 -0.0000 -0.0000
vn -0.0000 -1.0000 -0.0000
vn -0.0000 -0.0000 1.0000
vt 0.175781 0.817383
vt 0.175781 0.805664
vt 0.244141 0.805664
vt 0.244141 0.817383
vt 0.019287 0.806885
vt 0.019531 0.806885
vt 0.019287 0.806641
vt 0.038818 0.806885
vt 0.038818 0.806641
vt 0.039062 0.806885
vt 0.000244 0.806885
vt 0.000244 0.806641
vt 0.000000 0.806885
vt 0.019775 0.806885
vt 0.019775 0.806641
vt 0.039062 0.821289
vt 0.038818 0.821289
vt 0.019287 0.821289
vt 0.019531 0.821289
vt 0.176025 0.783447
vt 0.243896 0.783447
vt 0.243896 0.783203
vt 0.176025 0.783203
vt 0.019775 0.821289
vt 0.000000 0.821289
vt 0.000244 0.821289
vt 0.176025 0.798096
vt 0.243897 0.798096
vt 0.243896 0.797852
vt 0.176025 0.797852
vt 0.015381 0.806885
vt 0.015625 0.806641
vt 0.244141 0.801758
vt 0.244141 0.798096
vt 0.243896 0.801758
vt 0.004150 0.806885
vt 0.003906 0.806641
vt 0.034912 0.806885
vt 0.035156 0.806641
vt 0.175781 0.757080
vt 0.175781 0.768311
vt 0.176025 0.768555
vt 0.176025 0.756836
vt 0.244141 0.768311
vt 0.244141 0.757080
vt 0.243896 0.756836
vt 0.243896 0.768555
vt 0.004150 0.515869
vt 0.003906 0.515625
vt 0.023682 0.515869
vt 0.023682 0.806885
vt 0.023438 0.806641
vt 0.023438 0.515625
vt 0.035156 0.515625
vt 0.034912 0.515869
vt 0.015625 0.515625
vt 0.015381 0.515869
vt 0.176025 0.821289
vt 0.175781 0.821045
vt 0.244141 0.821045
vt 0.243896 0.821289
vt 0.015625 0.821289
vt 0.035156 0.821289
vt 0.176025 0.756592
vt 0.243896 0.756592
vt 0.243896 0.752930
vt 0.176025 0.752930
vt 0.176025 0.768799
vt 0.243896 0.768799
vt 0.003906 0.821289
vt 0.175781 0.802002
vt 0.176025 0.801758
vt 0.244141 0.802002
vt 0.023438 0.821289
vt 0.107178 0.821289
vt 0.039307 0.821289
vt 0.039307 0.530273
vt 0.107178 0.530273
vt 0.107666 0.821289
vt 0.175537 0.821289
vt 0.175537 0.530273
vt 0.107666 0.530273
s 0
usemtl concrete_aged_white_pillar
f 1/1/1 2/2/1 4/3/1 3/4/1
f 9/5/2 10/6/2 11/7/2
f 12/8/3 13/9/3 14/10/3
f 19/11/4 20/12/4 21/13/4
f 22/14/5 23/6/5 24/15/5
f 14/10/6 8/16/6 7/17/6 12/8/6
f 9/5/7 6/18/7 5/19/7 10/6/7
f 10/20/8 14/21/8 13/22/8 11/23/8
f 22/14/9 18/24/9 17/19/9 23/6/9
f 21/13/10 16/25/10 15/26/10 19/11/10
f 20/27/11 24/28/11 23/29/11 21/30/11
f 28/31/12 9/5/12 11/7/12 27/32/12
f 32/33/13 22/34/13 24/28/13 31/35/13
f 19/11/12 25/36/12 26/37/12 20/12/12
f 12/8/13 29/38/13 30/39/13 13/9/13
f 33/40/12 35/41/12 36/42/12 34/43/12
f 37/44/13 39/45/13 40/46/13 38/47/13
f 25/36/10 33/48/10 34/49/10 26/37/10
f 39/50/9 32/51/9 31/52/9 40/53/9
f 38/54/6 30/39/6 29/38/6 37/55/6
f 27/32/7 36/56/7 35/57/7 28/31/7
f 5/58/1 6/59/1 1/1/1 3/4/1 7/60/1 8/61/1
f 8/29/14 14/21/14 10/20/14 5/30/14
f 9/5/15 28/31/15 1/62/15 6/18/15
f 12/8/16 7/17/16 3/63/16 29/38/16
f 11/64/17 13/65/17 30/66/17 27/67/17
f 17/22/18 16/23/18 21/68/18 23/69/18
f 25/36/15 19/11/15 15/26/15 2/70/15
f 2/2/1 15/71/1 16/72/1 17/35/1 18/73/1 4/3/1
f 32/51/16 4/74/16 18/24/16 22/14/16
f 26/72/17 31/35/17 24/28/17 20/27/17
f 28/31/15 25/36/15 2/70/15 1/62/15
f 31/75/18 26/76/18 34/77/18 40/78/18
f 25/36/15 28/31/15 35/57/15 33/48/15
f 27/79/14 30/80/14 38/81/14 36/82/14
f 29/38/16 32/51/16 39/50/16 37/55/16
f 29/38/16 3/63/16 4/74/16 32/51/16
f 36/42/17 38/47/17 40/46/17 34/43/17
