# Blender 5.2.1 LTS
# www.blender.org
mtllib short_beam_hole.mtl
o short_beam_hole
v -1.250000 -0.062500 4.125000
v 1.250000 -0.062500 4.125000
v -1.250000 -0.218750 4.125000
v 1.250000 -0.218750 4.125000
v -0.906250 -0.218750 -3.812500
v -0.906250 -0.218750 3.812500
v -0.906250 -0.687500 -2.906250
v -0.906250 -0.687500 2.906250
v -0.906250 -1.125000 -3.968750
v -0.906250 -1.125000 3.968750
v -0.406250 -0.218750 -3.812500
v -0.406250 -0.218750 3.750000
v -0.406250 -0.687500 -2.906250
v -0.406250 -0.687500 2.906250
v -0.406250 -1.125000 -3.968750
v -0.406250 -1.125000 3.968750
v 0.406250 -0.218750 -3.812500
v 0.406250 -0.218750 3.750000
v 0.406250 -0.687500 -2.906250
v 0.406250 -0.687500 2.906250
v 0.406250 -1.125000 -3.968750
v 0.406250 -1.125000 3.968750
v 0.906250 -0.218750 -3.812500
v 0.906250 -0.218750 3.812500
v 0.906250 -0.687500 -2.906250
v 0.906250 -0.687500 2.906250
v 0.906250 -1.125000 -3.968750
v 0.906250 -1.125000 3.968750
v 0.406250 -0.218750 0.187500
v 0.406250 -0.687500 0.187500
v 0.906250 -0.218750 0.000000
v 0.906250 -0.687500 0.000000
v -0.906250 -0.218750 0.000000
v -0.906250 -0.687500 0.000000
v -0.406250 -0.218750 0.187500
v -0.406250 -0.687500 0.187500
v 0.406250 -0.218750 -0.187500
v 0.406250 -0.687500 -0.187500
v -0.406250 -0.218750 -0.187500
v -0.406250 -0.687500 -0.187500
v 1.250000 -0.062500 0.000000
v 1.250000 -0.218750 0.000000
v -1.250000 -0.062500 0.000000
v -1.250000 -0.218750 0.000000
v 0.312500 -0.218750 1.031250
v 0.312500 -0.062500 1.031250
v 0.187500 -0.218750 0.906250
v 0.187500 -0.062500 0.906250
v -0.312500 -0.218750 1.031250
v -0.312500 -0.062500 1.031250
v -0.187500 -0.218750 0.906250
v -0.187500 -0.062500 0.906250
v 0.312500 -0.218750 2.968750
v 0.312500 -0.218750 2.578125
v 0.312500 -0.062500 2.968750
v 0.312500 -0.062500 2.578125
v -0.312500 -0.218750 2.968750
v -0.312500 -0.062500 2.968750
v 0.187500 -0.218750 3.093750
v 0.187500 -0.062500 3.093750
v -0.187500 -0.218750 3.093750
v -0.187500 -0.062500 3.093750
v 1.250000 -0.062500 -4.125000
v 1.250000 -0.218750 -4.125000
v -1.250000 -0.062500 -4.125000
v -1.250000 -0.218750 -4.125000
v 0.312500 -0.218750 -2.968750
v 0.312500 -0.062500 -2.968750
v 0.187500 -0.218750 -3.093750
v 0.187500 -0.062500 -3.093750
v -0.312500 -0.218750 -2.968750
v -0.312500 -0.062500 -2.968750
v -0.187500 -0.218750 -3.093750
v -0.187500 -0.062500 -3.093750
v 0.312500 -0.218750 -1.031250
v 0.312500 -0.218750 -1.421875
v 0.312500 -0.062500 -1.031250
v 0.312500 -0.062500 -1.421875
v -0.312500 -0.218750 -1.031250
v -0.312500 -0.062500 -1.031250
v 0.187500 -0.218750 -0.906250
v 0.187500 -0.062500 -0.906250
v -0.187500 -0.218750 -0.906250
v -0.187500 -0.062500 -0.906250
vn -1.0000 -0.0000 -0.0000
vn 1.0000 -0.0000 -0.0000
vn -0.0000 -1.0000 -0.0000
vn -0.0000 -0.9247 0.3807
vn -0.0000 -0.9247 -0.3807
vn -0.0000 -0.0000 1.0000
vn -0.0000 -0.0000 -1.0000
vn -0.0000 1.0000 -0.0000
vn -0.7071 -0.0000 -0.7071
vn 0.7071 -0.0000 -0.7071
vn 0.7071 -0.0000 0.7071
vn -0.7071 -0.0000 0.7071
vt 0.125977 0.407227
vt 0.125977 0.392578
vt 0.035156 0.392578
vt 0.006836 0.407227
vt 0.245117 0.407227
vt 0.250000 0.378906
vt 0.216797 0.392578
vt 0.001953 0.378906
vt 0.120117 0.463867
vt 0.008789 0.463867
vt 0.035156 0.449219
vt 0.120117 0.449219
vt 0.233398 0.463867
vt 0.205078 0.449219
vt 0.238281 0.435547
vt 0.001953 0.435547
vt 0.389160 0.124023
vt 0.404785 0.118164
vt 0.404785 0.032227
vt 0.389160 0.032227
vt 0.389160 0.248047
vt 0.404785 0.248047
vt 0.404785 0.215820
vt 0.389160 0.215820
vt 0.404785 0.000000
vt 0.389160 0.000000
vt 0.120117 0.492188
vt 0.120117 0.477539
vt 0.035156 0.477539
vt 0.008789 0.492188
vt 0.233398 0.492188
vt 0.238281 0.463867
vt 0.205078 0.477539
vt 0.001953 0.463867
vt 0.125977 0.435547
vt 0.006836 0.435547
vt 0.035156 0.420898
vt 0.125977 0.420898
vt 0.245117 0.435547
vt 0.216797 0.420898
vt 0.250000 0.407227
vt 0.001953 0.407227
vt 0.430664 0.118164
vt 0.446289 0.124023
vt 0.446289 0.032227
vt 0.430664 0.032227
vt 0.430664 0.248047
vt 0.446289 0.248047
vt 0.446289 0.215820
vt 0.430664 0.215820
vt 0.446289 0.000000
vt 0.430664 0.000000
vt 0.430664 0.129883
vt 0.404785 0.129883
vt 0.419434 0.025391
vt 0.404785 0.025391
vt 0.419434 0.000000
vt 0.419434 0.050781
vt 0.404785 0.050781
vt 0.170897 0.257798
vt 0.166015 0.257798
vt 0.166015 0.128906
vt 0.170897 0.128906
vt 0.175780 0.128906
vt 0.175780 0.257798
vt 0.253896 0.128906
vt 0.175780 0.000014
vt 0.205073 0.036143
vt 0.205073 0.096683
vt 0.208979 0.100589
vt 0.220697 0.100589
vt 0.224602 0.096683
vt 0.224602 0.048349
vt 0.253896 0.000014
vt 0.332012 0.128906
vt 0.332012 0.000014
vt 0.302719 0.048349
vt 0.302719 0.096683
vt 0.298813 0.100589
vt 0.287095 0.100589
vt 0.283190 0.096683
vt 0.404785 0.054688
vt 0.404785 0.067383
vt 0.409668 0.067383
vt 0.409668 0.054688
vt 0.409668 0.050781
vt 0.224602 0.036143
vt 0.220697 0.032237
vt 0.208979 0.032237
vt 0.404785 0.087891
vt 0.404785 0.075195
vt 0.409668 0.075195
vt 0.409668 0.087891
vt 0.414551 0.129883
vt 0.414551 0.142090
vt 0.414551 0.190430
vt 0.419434 0.190430
vt 0.419434 0.142090
vt 0.419434 0.129883
vt 0.409668 0.071289
vt 0.404785 0.071289
vt 0.283190 0.036143
vt 0.287095 0.032237
vt 0.298813 0.032237
vt 0.302719 0.036143
vt 0.404785 0.091797
vt 0.409668 0.091797
vt 0.409668 0.190430
vt 0.409668 0.129883
vt 0.166015 0.000014
vt 0.170897 0.000014
vt 0.253887 0.257798
vt 0.175771 0.257798
vt 0.175771 0.128906
vt 0.205065 0.161129
vt 0.205065 0.221669
vt 0.208970 0.225575
vt 0.220688 0.225575
vt 0.224594 0.221669
vt 0.224594 0.173335
vt 0.253887 0.128906
vt 0.332012 0.257798
vt 0.302719 0.173335
vt 0.302719 0.221669
vt 0.298813 0.225575
vt 0.287095 0.225575
vt 0.283190 0.221669
vt 0.253896 0.257798
vt 0.414551 0.087891
vt 0.414551 0.075195
vt 0.414551 0.071289
vt 0.224594 0.161129
vt 0.220688 0.157223
vt 0.208970 0.157223
vt 0.414551 0.054688
vt 0.414551 0.067383
vt 0.404785 0.142090
vt 0.404785 0.190430
vt 0.409668 0.142090
vt 0.414551 0.091797
vt 0.283190 0.161129
vt 0.287095 0.157223
vt 0.298813 0.157223
vt 0.302719 0.161129
vt 0.253896 0.128906
vt 0.414551 0.050781
vt 0.424316 0.129883
vt 0.424316 0.190430
s 0
usemtl concrete_aged_white
f 33/1/1 34/2/1 8/3/1 6/4/1
f 5/5/1 9/6/1 7/7/1
f 8/3/1 10/8/1 6/4/1
f 35/9/2 12/10/2 14/11/2 36/12/2
f 11/13/2 13/14/2 15/15/2
f 14/11/2 12/10/2 16/16/2
f 34/17/3 36/18/3 14/19/3 8/20/3
f 9/21/4 15/22/4 13/23/4 7/24/4
f 8/20/5 14/19/5 16/25/5 10/26/5
f 29/27/1 30/28/1 20/29/1 18/30/1
f 17/31/1 21/32/1 19/33/1
f 20/29/1 22/34/1 18/30/1
f 31/35/2 24/36/2 26/37/2 32/38/2
f 23/39/2 25/40/2 27/41/2
f 26/37/2 24/36/2 28/42/2
f 30/43/3 32/44/3 26/45/3 20/46/3
f 21/47/4 27/48/4 25/49/4 19/50/4
f 20/46/5 26/45/5 28/51/5 22/52/5
f 25/40/2 23/39/2 31/35/2 32/38/2
f 17/31/1 19/33/1 38/28/1 37/27/1
f 19/50/3 25/49/3 32/44/3 38/53/3
f 30/43/3 38/53/3 32/44/3
f 34/17/3 40/54/3 36/18/3
f 13/23/3 40/54/3 34/17/3 7/24/3
f 13/14/2 11/13/2 39/9/2 40/12/2
f 5/5/1 7/7/1 34/2/1 33/1/1
f 38/53/3 30/43/3 36/18/3 40/54/3
f 30/55/6 29/56/6 35/25/6 36/57/6
f 38/58/7 40/55/7 39/56/7 37/59/7
f 42/75/3 4/76/3 54/77/3 45/78/3 47/79/3 51/80/3 49/81/3 44/66/3
f 44/66/3 49/81/3 57/102/3 61/103/3 59/104/3 53/105/3 54/77/3 4/76/3 3/74/3
f 64/122/3 42/75/3 76/123/3 67/124/3 69/125/3 73/126/3 71/127/3 66/128/3
f 66/128/3 71/127/3 79/141/3 83/142/3 81/143/3 75/144/3 76/123/3 42/75/3 44/145/3
usemtl concrete_aged
f 2/60/2 4/61/2 42/62/2 41/63/2
f 43/64/1 44/63/1 3/60/1 1/65/1
f 41/66/8 43/64/8 1/67/8 58/68/8 50/69/8 52/70/8 48/71/8 46/72/8 56/73/8 2/74/8
f 59/82/7 61/83/7 62/84/7 60/85/7
f 53/59/9 59/82/9 60/85/9 55/86/9
f 2/74/8 56/73/8 55/87/8 60/88/8 62/89/8 58/68/8 1/67/8
f 51/90/6 47/91/6 48/92/6 52/93/6
f 55/94/1 56/95/1 46/96/1 45/97/1 54/98/1 53/99/1
f 58/100/10 62/84/10 61/83/10 57/101/10
f 49/106/11 51/90/11 52/93/11 50/107/11
f 46/100/12 48/92/12 47/91/12 45/101/12
f 50/108/2 58/109/2 57/94/2 49/96/2
f 41/63/2 42/62/2 64/110/2 63/111/2
f 65/67/1 66/111/1 44/63/1 43/64/1
f 63/112/8 65/113/8 43/114/8 80/115/8 72/116/8 74/117/8 70/118/8 68/119/8 78/120/8 41/121/8
f 81/92/7 83/93/7 84/129/7 82/130/7
f 75/100/9 81/92/9 82/130/9 77/131/9
f 41/121/8 78/120/8 77/132/8 82/133/8 84/134/8 80/115/8 43/114/8
f 73/84/6 69/85/6 70/135/6 74/136/6
f 77/54/1 78/137/1 68/138/1 67/108/1 76/139/1 75/109/1
f 80/140/10 84/129/10 83/93/10 79/107/10
f 71/100/11 73/84/11 74/136/11 72/131/11
f 68/146/12 70/135/12 69/85/12 67/86/12
f 72/97/2 80/99/2 79/147/2 71/148/2
l 31 37
l 33 39
