# Blender 5.2.1 LTS
# www.blender.org
mtllib short_beam_track_a_walkway_support.mtl
o short_beam_track_a_walkway_support
v -2.093750 0.781250 0.093750
v -1.906250 0.781250 0.093750
v -2.093750 0.781250 -0.093750
v -1.906250 0.781250 -0.093750
v -1.906250 0.656250 -0.093750
v -1.906250 -0.093750 -0.093750
v -2.093750 -0.093750 -0.093750
v -1.906250 -0.093750 0.093750
v -2.093750 -0.093750 0.093750
v -1.906250 0.781250 0.062500
v -1.906250 0.781250 -0.062500
v -1.937500 0.781250 0.062500
v -1.937500 0.781250 -0.062500
v -1.906250 -0.093750 0.062500
v -1.906250 -0.093750 -0.062500
v -1.937500 -0.093750 0.062500
v -1.937500 -0.093750 -0.062500
v -2.093750 0.781250 0.125000
v -2.093750 0.781250 -0.125000
v -2.156250 0.875000 0.125000
v -2.156250 0.875000 -0.125000
v -2.281250 0.875000 0.125000
v -2.281250 0.875000 -0.125000
v -1.906250 0.656250 0.093750
v -1.906250 0.656250 0.125000
v -2.156250 0.875000 0.093750
v -2.156250 0.875000 -0.093750
v -2.281250 0.875000 0.093750
v -2.281250 0.875000 -0.093750
v -2.281250 0.843750 0.093750
v -2.281250 0.843750 -0.093750
v -2.187500 0.843750 0.093750
v -2.187500 0.843750 -0.093750
v -2.125000 0.750000 -0.093750
v -2.125000 0.750000 0.093750
v -2.125000 0.656250 -0.093750
v -2.125000 0.656250 -0.125000
v -2.125000 0.656250 0.125000
v -2.125000 0.656250 0.093750
v -2.281250 0.843750 -0.125000
v -2.281250 0.843750 0.125000
v -1.906250 0.781250 0.125000
v -1.906250 0.781250 -0.125000
v -1.843750 0.875000 0.125000
v -1.843750 0.875000 -0.125000
v -1.718750 0.875000 0.125000
v -1.718750 0.875000 -0.125000
v -2.093750 0.656250 0.093750
v -2.093750 0.656250 0.125000
v -1.843750 0.875000 0.093750
v -1.843750 0.875000 -0.093750
v -1.718750 0.875000 0.093750
v -1.718750 0.875000 -0.093750
v -1.718750 0.843750 0.093750
v -1.718750 0.843750 -0.093750
v -1.812500 0.843750 0.093750
v -1.812500 0.843750 -0.093750
v -1.875000 0.750000 -0.093750
v -1.875000 0.750000 0.093750
v -1.875000 0.656250 -0.093750
v -1.875000 0.656250 -0.125000
v -1.875000 0.656250 0.125000
v -1.875000 0.656250 0.093750
v -1.718750 0.843750 -0.125000
v -1.718750 0.843750 0.125000
v -2.093750 0.781250 -0.062500
v -2.093750 -0.093750 -0.062500
v -2.093750 0.781250 0.062500
v -2.093750 -0.093750 0.062500
v -2.062500 0.781250 -0.062500
v -2.062500 -0.093750 -0.062500
v -2.062500 0.781250 0.062500
v -2.062500 -0.093750 0.062500
v -1.906250 0.656250 -0.125000
v -2.093750 0.656250 -0.093750
v -2.093750 0.656250 -0.125000
v -2.179840 -0.376532 -0.179688
v -2.187500 -0.367188 -0.179688
v -2.179688 -0.368596 -0.187500
v -2.179840 -0.376532 0.179688
v -2.179688 -0.368596 0.187500
v -2.187500 -0.367188 0.179688
v -0.625000 -0.687500 -0.179688
v -0.625000 -0.679533 -0.187500
v -0.625000 -0.679533 0.187500
v -0.625000 -0.687500 0.179688
v -1.351562 -0.187500 -0.179688
v -1.343750 -0.195312 -0.179688
v -1.351562 -0.195312 -0.187500
v -1.351562 -0.187500 0.179688
v -1.351562 -0.195312 0.187500
v -1.343750 -0.195312 0.179688
v -1.335938 -0.250000 -0.179688
v -1.351562 -0.257812 -0.187500
v -1.343750 -0.242188 -0.179688
v -1.335938 -0.250000 0.179688
v -1.343750 -0.242188 0.179688
v -1.351562 -0.257812 0.187500
v -0.625000 -0.257812 -0.187500
v -0.625000 -0.250000 -0.179688
v -0.625000 -0.250000 0.179688
v -0.625000 -0.257812 0.187500
v -2.179688 -0.101562 -0.187500
v -2.187500 -0.101562 -0.179688
v -2.179688 -0.093750 -0.179688
v -2.179688 -0.101562 0.187500
v -2.179688 -0.093750 0.179688
v -2.187500 -0.101562 0.179688
v -1.812500 -0.101562 -0.179688
v -1.820312 -0.101562 -0.187500
v -1.820312 -0.093750 -0.179688
v -1.812500 -0.101562 0.179688
v -1.820312 -0.093750 0.179688
v -1.820312 -0.101562 0.187500
v -1.804688 -0.187500 -0.179688
v -1.820312 -0.195312 -0.187500
v -1.812500 -0.179688 -0.179688
v -1.804688 -0.187500 0.179688
v -1.812500 -0.179688 0.179688
v -1.820312 -0.195312 0.187500
vn -0.0000 -0.0000 1.0000
vn -0.0000 1.0000 -0.0000
vn 1.0000 -0.0000 -0.0000
vn -0.0000 -0.0000 -1.0000
vn 0.8321 0.5547 -0.0000
vn -1.0000 -0.0000 -0.0000
vn -0.0000 -1.0000 -0.0000
vn -0.8321 -0.5547 -0.0000
vn -0.7682 -0.6402 -0.0000
vn -0.8321 0.5547 -0.0000
vn 0.8321 -0.5547 -0.0000
vn 0.7682 -0.6402 -0.0000
vn -0.6457 -0.5293 -0.5503
vn -0.6457 -0.5294 0.5503
vn 0.5773 0.5774 -0.5774
vn 0.5773 0.5774 0.5774
vn 0.3015 0.3015 -0.9045
vn 0.3015 0.3015 0.9045
vn -0.5773 0.5773 -0.5774
vn -0.5773 0.5773 0.5774
vn 0.5773 0.5773 -0.5774
vn 0.5773 0.5773 0.5774
vn -0.7733 -0.6340 -0.0000
vn -0.7071 -0.0000 -0.7071
vn -0.7071 -0.0000 0.7071
vn -0.1387 -0.6934 0.7071
vn -0.1387 -0.6934 -0.7071
vn 0.7071 0.7071 -0.0000
vn 0.7071 -0.0000 0.7071
vn 0.7071 -0.0000 -0.7071
vn -0.0000 0.7071 0.7071
vn -0.0000 0.7071 -0.7071
vn -0.7071 0.7071 -0.0000
vn -0.1961 -0.9806 -0.0000
vt 0.560547 0.483398
vt 0.560547 0.456055
vt 0.566406 0.456055
vt 0.566406 0.483398
vt 0.583008 0.495117
vt 0.586914 0.495117
vt 0.586914 0.499023
vt 0.583008 0.499023
vt 0.582031 0.500000
vt 0.582031 0.499023
vt 0.587891 0.499023
vt 0.587891 0.500000
vt 0.567383 0.483398
vt 0.567383 0.456055
vt 0.574219 0.483398
vt 0.573242 0.483398
vt 0.573242 0.456055
vt 0.574219 0.456055
vt 0.572266 0.483398
vt 0.572266 0.456055
vt 0.568359 0.483398
vt 0.568359 0.456055
vt 0.580078 0.483398
vt 0.580078 0.456055
vt 0.582031 0.495117
vt 0.582031 0.494141
vt 0.587891 0.494141
vt 0.587891 0.495117
vt 0.587891 0.482422
vt 0.587891 0.483398
vt 0.583984 0.483398
vt 0.583984 0.482422
vt 0.601562 0.490234
vt 0.602539 0.490234
vt 0.602539 0.493164
vt 0.601562 0.493164
vt 0.585938 0.493164
vt 0.579102 0.493164
vt 0.579102 0.494141
vt 0.585938 0.494141
vt 0.593750 0.490234
vt 0.594727 0.490234
vt 0.594727 0.493164
vt 0.593750 0.493164
vt 0.587891 0.475586
vt 0.587891 0.476562
vt 0.583984 0.476562
vt 0.583984 0.475586
vt 0.582031 0.462891
vt 0.584961 0.462891
vt 0.584961 0.457031
vt 0.582031 0.457031
vt 0.582031 0.497070
vt 0.576172 0.497070
vt 0.576172 0.500000
vt 0.607422 0.494141
vt 0.602539 0.500000
vt 0.605469 0.500000
vt 0.607422 0.497070
vt 0.607422 0.500000
vt 0.612305 0.494141
vt 0.612305 0.497070
vt 0.610352 0.500000
vt 0.576172 0.494141
vt 0.578125 0.493164
vt 0.579102 0.486328
vt 0.578125 0.486328
vt 0.578125 0.494141
vt 0.586914 0.494141
vt 0.586914 0.493164
vt 0.586914 0.486328
vt 0.585938 0.486328
vt 0.554688 0.490234
vt 0.553711 0.486328
vt 0.548828 0.492188
vt 0.548828 0.493164
vt 0.552734 0.493164
vt 0.554688 0.497070
vt 0.552734 0.500000
vt 0.548828 0.500000
vt 0.548828 0.499023
vt 0.553711 0.493164
vt 0.580078 0.482422
vt 0.587891 0.467773
vt 0.587891 0.470703
vt 0.588867 0.470703
vt 0.588867 0.467773
vt 0.610352 0.492188
vt 0.610352 0.493164
vt 0.603516 0.493164
vt 0.603516 0.492188
vt 0.580078 0.467773
vt 0.580078 0.470703
vt 0.581055 0.470703
vt 0.581055 0.467773
vt 0.580078 0.475586
vt 0.580078 0.476562
vt 0.593750 0.487305
vt 0.590820 0.487305
vt 0.590820 0.493164
vt 0.570312 0.500000
vt 0.570312 0.497070
vt 0.591797 0.494141
vt 0.591797 0.497070
vt 0.593750 0.500000
vt 0.596680 0.500000
vt 0.601562 0.500000
vt 0.598633 0.500000
vt 0.596680 0.497070
vt 0.596680 0.494141
vt 0.570312 0.494141
vt 0.602539 0.492188
vt 0.602539 0.486328
vt 0.603516 0.486328
vt 0.611328 0.493164
vt 0.611328 0.492188
vt 0.611328 0.486328
vt 0.610352 0.486328
vt 0.560547 0.490234
vt 0.562500 0.493164
vt 0.566406 0.493164
vt 0.566406 0.492188
vt 0.561523 0.486328
vt 0.560547 0.497070
vt 0.561523 0.493164
vt 0.566406 0.499023
vt 0.566406 0.500000
vt 0.562500 0.500000
vt 0.553711 0.483398
vt 0.553711 0.456055
vt 0.552734 0.456055
vt 0.552734 0.483398
vt 0.559570 0.456055
vt 0.559570 0.483398
vt 0.558594 0.456055
vt 0.558594 0.483398
vt 0.554688 0.456055
vt 0.554688 0.483398
vt 0.570312 0.487305
vt 0.571289 0.487305
vt 0.571289 0.486328
vt 0.570312 0.486328
vt 0.578125 0.487305
vt 0.577148 0.486328
vt 0.577148 0.487305
vt 0.554688 0.493164
vt 0.560547 0.493164
vt 0.552734 0.455078
vt 0.558594 0.455078
vt 0.577148 0.493164
vt 0.577148 0.494141
vt 0.571289 0.494141
vt 0.571289 0.493164
vt 0.570312 0.493164
vt 0.560547 0.486328
vt 0.554688 0.486328
vt 0.587891 0.462891
vt 0.587891 0.463867
vt 0.582031 0.463867
vt 0.581055 0.463867
vt 0.594727 0.486328
vt 0.601562 0.486328
vt 0.500239 0.429443
vt 0.500000 0.429443
vt 0.500196 0.429688
vt 0.500239 0.418213
vt 0.500196 0.417969
vt 0.500000 0.418213
vt 0.531006 0.499756
vt 0.531250 0.499756
vt 0.531006 0.500000
vt 0.531006 0.488525
vt 0.531006 0.488281
vt 0.531250 0.488525
vt 0.500244 0.443115
vt 0.500000 0.443359
vt 0.500000 0.443115
vt 0.580322 0.473633
vt 0.580322 0.473877
vt 0.580078 0.473633
vt 0.511719 0.499756
vt 0.511475 0.499756
vt 0.511475 0.500000
vt 0.552979 0.443359
vt 0.552978 0.443603
vt 0.552734 0.443603
vt 0.591553 0.473389
vt 0.591797 0.473389
vt 0.591553 0.473633
vt 0.564453 0.443604
vt 0.564209 0.443603
vt 0.564209 0.443359
vt 0.516846 0.499756
vt 0.516602 0.500000
vt 0.516602 0.499756
vt 0.516846 0.488525
vt 0.516602 0.488525
vt 0.516602 0.488281
vt 0.511475 0.491455
vt 0.511719 0.491411
vt 0.500000 0.491411
vt 0.500000 0.499756
vt 0.500244 0.499756
vt 0.500244 0.491455
vt 0.548828 0.418213
vt 0.548780 0.417969
vt 0.548828 0.429443
vt 0.548780 0.429688
vt 0.591553 0.473877
vt 0.580078 0.475342
vt 0.580322 0.475342
vt 0.591797 0.473633
vt 0.591797 0.475342
vt 0.591553 0.475342
vt 0.500000 0.431641
vt 0.522461 0.431641
vt 0.522461 0.431885
vt 0.500244 0.431885
vt 0.522461 0.443359
vt 0.522461 0.443115
vt 0.500244 0.500000
vt 0.564209 0.454834
vt 0.564453 0.454834
vt 0.564209 0.455078
vt 0.552979 0.455078
vt 0.552979 0.454834
vt 0.580078 0.473389
vt 0.580322 0.470947
vt 0.580322 0.473389
vt 0.591797 0.470703
vt 0.591553 0.470947
vt 0.500244 0.465576
vt 0.511475 0.465576
vt 0.511475 0.462646
vt 0.526123 0.462647
vt 0.526123 0.460693
vt 0.548828 0.460693
vt 0.548828 0.447515
vt 0.500244 0.457231
vt 0.500244 0.475786
vt 0.548828 0.466069
vt 0.548828 0.479248
vt 0.526123 0.479248
vt 0.526123 0.481201
vt 0.511475 0.481201
vt 0.511475 0.484131
vt 0.500244 0.484131
s 0
usemtl rusty_aged_metal
f 1/1/1 9/2/1 8/3/1 2/4/1
f 72/5/2 12/6/2 13/7/2 70/8/2
f 3/9/2 66/10/2 70/8/2 13/7/2 11/11/2 4/12/2
f 10/13/3 2/4/3 8/3/3 14/14/3
f 4/15/3 11/16/3 15/17/3 6/18/3
f 15/17/1 11/16/1 13/19/1 17/20/1
f 10/21/4 14/22/4 16/14/4 12/13/4
f 12/21/3 16/22/3 17/20/3 13/19/3
f 3/15/4 4/23/4 6/24/4 7/18/4
f 12/6/2 72/5/2 68/25/2 1/26/2 2/27/2 10/28/2
f 27/29/2 21/30/2 23/31/2 29/32/2
f 3/33/5 19/34/5 21/35/5 27/36/5
f 31/37/6 30/38/6 28/39/6 29/40/6
f 18/41/5 1/42/5 26/43/5 20/44/5
f 1/42/5 3/33/5 27/36/5 26/43/5
f 20/45/2 26/46/2 28/47/2 22/48/2
f 26/46/2 27/29/2 29/32/2 28/47/2
f 31/49/7 33/50/7 32/51/7 30/52/7
f 33/9/8 34/53/8 35/54/8 32/55/8
f 39/56/4 30/57/4 32/58/4 35/59/4
f 31/60/1 36/61/1 34/62/1 33/63/1
f 34/53/6 36/26/6 39/64/6 35/54/6
f 41/65/9 30/38/9 39/66/9 38/67/9
f 28/39/6 30/38/6 41/65/6 22/68/6
f 23/69/6 40/70/6 31/37/6 29/40/6
f 37/71/9 36/72/9 31/37/9 40/70/9
f 19/73/4 37/74/4 40/75/4 23/76/4 21/77/4
f 18/78/1 20/79/1 22/80/1 41/81/1 38/82/1
f 51/83/2 53/32/2 47/31/2 45/23/2
f 4/84/10 51/85/10 45/86/10 43/87/10
f 55/88/3 53/89/3 52/90/3 54/91/3
f 42/92/10 44/93/10 50/94/10 2/95/10
f 2/95/10 50/94/10 51/85/10 4/84/10
f 44/96/2 46/48/2 52/47/2 50/97/2
f 50/97/2 52/47/2 53/32/2 51/83/2
f 55/44/7 54/98/7 56/99/7 57/100/7
f 57/55/11 56/101/11 59/102/11 58/54/11
f 63/103/4 59/104/4 56/105/4 54/106/4
f 55/107/1 57/108/1 58/109/1 60/110/1
f 58/54/3 59/102/3 63/111/3 60/64/3
f 65/112/12 62/113/12 63/114/12 54/91/12
f 52/90/3 46/35/3 65/112/3 54/91/3
f 47/115/3 53/89/3 55/88/3 64/116/3
f 61/117/12 64/116/12 55/88/12 60/118/12
f 43/119/4 45/120/4 47/121/4 64/122/4 61/123/4
f 42/124/1 62/125/1 65/126/1 46/127/1 44/128/1
f 3/129/6 7/130/6 67/131/6 66/132/6
f 9/133/6 1/134/6 68/1/6 69/2/6
f 69/135/4 68/136/4 72/134/4 73/133/4
f 66/129/1 67/130/1 71/137/1 70/138/1
f 70/136/6 71/135/6 73/137/6 72/138/6
f 39/139/7 48/140/7 49/141/7 38/142/7
f 63/143/7 62/67/7 25/144/7 24/145/7
f 48/140/7 24/145/7 25/144/7 49/141/7
f 18/78/1 38/82/1 49/146/1
f 25/147/1 62/125/1 42/124/1
f 18/78/1 49/146/1 25/147/1 42/124/1
f 1/131/2 18/148/2 42/149/2 2/135/2
f 61/68/7 60/65/7 5/150/7 74/151/7
f 37/111/7 76/152/7 75/153/7 36/154/7
f 5/150/7 75/153/7 76/152/7 74/151/7
f 61/123/4 74/155/4 43/119/4
f 37/74/4 19/73/4 76/156/4
f 76/156/4 19/73/4 43/119/4 74/155/4
f 3/49/2 4/157/2 43/158/2 19/159/2
f 36/154/7 75/153/7 48/140/7 39/139/7
f 60/65/7 63/143/7 24/145/7 5/150/7
f 2/95/6 4/84/6 5/158/6 24/160/6
f 3/33/3 1/42/3 48/161/3 75/162/3
usemtl concrete_aged_white
f 77/163/13 78/164/13 79/165/13
f 80/166/14 81/167/14 82/168/14
f 87/169/15 88/170/15 89/171/15
f 90/172/16 91/173/16 92/174/16
f 93/175/17 94/176/17 95/177/17
f 96/178/18 97/179/18 98/180/18
f 103/181/19 104/182/19 105/183/19
f 106/184/20 107/185/20 108/186/20
f 109/187/21 110/188/21 111/189/21
f 112/190/22 113/191/22 114/192/22
f 115/193/17 116/194/17 117/195/17
f 118/196/18 119/197/18 120/198/18
f 77/163/23 80/166/23 82/168/23 78/164/23
f 78/199/24 104/182/24 103/181/24 79/200/24
f 81/201/25 106/202/25 108/203/25 82/204/25
f 80/166/26 86/205/26 85/206/26 81/167/26
f 83/207/27 77/163/27 79/165/27 84/208/27
f 87/169/28 90/172/28 92/174/28 88/170/28
f 95/209/28 97/179/28 96/178/28 93/189/28
f 91/210/29 98/180/29 97/179/29 92/211/29
f 94/212/30 89/213/30 88/214/30 95/209/30
f 98/215/31 102/216/31 101/217/31 96/218/31
f 99/219/32 94/176/32 93/175/32 100/220/32
f 104/182/33 108/203/33 107/221/33 105/183/33
f 111/222/28 113/191/28 112/190/28 109/223/28
f 106/184/31 114/192/31 113/191/31 107/185/31
f 110/224/32 103/225/32 105/226/32 111/222/32
f 117/195/28 119/197/28 118/196/28 115/193/28
f 114/227/29 120/93/29 119/228/29 112/229/29
f 116/230/30 110/188/30 109/187/30 117/231/30
f 120/198/31 91/173/31 90/172/31 118/196/31
f 89/171/32 116/194/32 115/193/32 87/169/32
f 77/163/34 83/207/34 86/205/34 80/166/34
f 82/204/6 108/203/6 104/182/6 78/199/6
f 103/232/4 110/233/4 116/234/4 89/235/4 94/236/4 99/237/4 84/238/4 79/239/4
f 81/240/1 85/241/1 102/242/1 98/243/1 91/244/1 120/245/1 114/246/1 106/247/1
f 88/214/3 92/211/3 97/179/3 95/209/3
f 118/196/2 90/172/2 87/169/2 115/193/2
f 93/175/2 96/218/2 101/217/2 100/220/2
f 105/226/2 107/185/2 113/191/2 111/222/2
f 109/187/3 112/229/3 119/228/3 117/231/3
