# Blender 5.2.1 LTS
# www.blender.org
mtllib track_bed_hole.mtl
o track_bed_hole
v -1.062500 0.062500 1.968750
v -1.062500 0.062500 -1.968750
v 1.062500 0.062500 1.968750
v 1.062500 0.062500 -1.968750
v -1.062500 -0.062500 1.968750
v -1.062500 -0.062500 -1.968750
v 1.062500 -0.062500 -1.968750
v 1.062500 -0.062500 1.968750
v -0.312500 0.062500 -1.968750
v -0.312500 0.062500 1.968750
v 0.312500 0.062500 -1.968750
v 0.312500 0.062500 1.968750
v -0.312500 0.062500 -0.968750
v -0.187500 0.062500 -1.093750
v -0.312500 0.062500 -1.218750
v 0.187500 0.062500 -1.093750
v 0.312500 0.062500 -0.968750
v 0.312500 0.062500 -1.218750
v 0.312500 0.062500 0.968750
v 0.187500 0.062500 1.093750
v 0.312500 0.062500 1.218750
v -0.187500 0.062500 1.093750
v -0.312500 0.062500 0.968750
v -0.312500 0.062500 1.218750
v -0.187500 -0.062500 -1.093750
v -0.312500 -0.062500 -0.968750
v 0.312500 -0.062500 -0.968750
v 0.187500 -0.062500 -1.093750
v 0.187500 -0.062500 1.093750
v 0.312500 -0.062500 0.968750
v -0.312500 -0.062500 0.968750
v -0.187500 -0.062500 1.093750
vn -1.0000 -0.0000 -0.0000
vn 1.0000 -0.0000 -0.0000
vn -0.0000 1.0000 -0.0000
vn -0.7071 -0.0000 0.7071
vn -0.7071 -0.0000 -0.7071
vn 0.7071 -0.0000 -0.7071
vn 0.7071 -0.0000 0.7071
vn -0.0000 -0.0000 1.0000
vn -0.0000 -0.0000 -1.0000
vt -0.000000 0.496094
vt -0.000000 0.511719
vt 0.492188 0.511719
vt 0.492188 0.496094
vt 0.492188 0.515625
vt 0.492188 0.531250
vt -0.000000 0.531250
vt -0.000000 0.515625
vt 0.093750 0.367188
vt 0.109375 0.382812
vt 0.093750 0.398438
vt 0.156250 0.382812
vt 0.171875 0.367188
vt 0.171875 0.398438
vt 0.171875 0.125000
vt 0.156250 0.109375
vt 0.171875 0.093750
vt 0.109375 0.109375
vt 0.093750 0.125000
vt 0.093750 0.093750
vt 0.421875 0.375000
vt 0.421875 0.359375
vt 0.437500 0.359375
vt 0.437500 0.375000
vt 0.421875 0.378906
vt 0.421875 0.394531
vt 0.437500 0.394531
vt 0.437500 0.378906
vt 0.371094 0.394531
vt 0.371094 0.378906
vt 0.355469 0.378906
vt 0.355469 0.394531
vt 0.371094 0.359375
vt 0.371094 0.375000
vt 0.355469 0.375000
vt 0.355469 0.359375
vt 0.511719 0.308594
vt 0.269531 0.308594
vt 0.269531 0.292969
vt 0.511719 0.292969
vt 0.171875 0.492188
vt 0.093750 0.492188
vt 0.000000 0.000000
vt 0.093750 0.000000
vt 0.000000 0.492188
vt 0.269531 0.328125
vt 0.511719 0.328125
vt 0.511719 0.312500
vt 0.269531 0.312500
vt 0.171875 0.000000
vt 0.265625 0.000000
vt 0.265625 0.492188
vt 0.269531 0.253906
vt 0.535156 0.253906
vt 0.535156 0.269531
vt 0.269531 0.269531
vt 0.535156 0.289062
vt 0.535156 0.273438
vt 0.269531 0.273438
vt 0.269531 0.289062
vt 0.363281 0.289062
vt 0.441406 0.289062
s 0
usemtl concrete_aged
f 5/1/1 1/2/1 2/3/1 6/4/1
f 7/5/2 4/6/2 3/7/2 8/8/2
f 13/9/3 14/10/3 15/11/3
f 16/12/3 17/13/3 18/14/3
f 19/15/3 20/16/3 21/17/3
f 22/18/3 23/19/3 24/20/3
f 16/21/4 28/22/4 27/23/4 17/24/4
f 29/25/5 20/26/5 19/27/5 30/28/5
f 22/29/6 32/30/6 31/31/6 23/32/6
f 25/33/7 14/34/7 13/35/7 26/36/7
f 13/37/2 23/38/2 31/39/2 26/40/2
f 25/33/8 28/22/8 16/21/8 14/34/8
f 15/11/3 14/10/3 16/12/3 18/14/3 11/41/3 9/42/3
f 1/43/3 10/44/3 24/20/3 23/19/3 13/9/3 15/11/3 9/42/3 2/45/3
f 19/46/1 17/47/1 27/48/1 30/49/1
f 11/41/3 18/14/3 17/13/3 19/15/3 21/17/3 12/50/3 3/51/3 4/52/3
f 32/30/9 22/29/9 20/26/9 29/25/9
f 21/17/3 20/16/3 22/18/3 24/20/3 10/44/3 12/50/3
f 5/53/8 8/54/8 3/55/8 1/56/8
f 4/57/9 7/58/9 6/59/9 2/60/9 9/61/9 11/62/9
o end_hinge_1
v 0.000000 -0.062500 1.687500
v 0.000000 0.093750 1.687500
v 0.156250 -0.062500 1.729367
v 0.156250 0.093750 1.729367
v 0.270633 -0.062500 1.843750
v 0.270633 0.093750 1.843750
v 0.312500 -0.062500 2.000000
v 0.312500 0.093750 2.000000
v -0.312500 -0.062500 2.000000
v -0.312500 0.093750 2.000000
v -0.270633 -0.062500 1.843750
v -0.270633 0.093750 1.843750
v -0.156250 -0.062500 1.729367
v -0.156250 0.093750 1.729367
v 0.281250 0.093750 2.062500
v 0.281250 -0.062500 2.062500
v -0.281250 -0.062500 2.062500
v -0.281250 0.093750 2.062500
vn -0.0000 -0.0000 -1.0000
vn 0.5000 -0.0000 -0.8660
vn 0.8660 -0.0000 -0.5000
vn 0.9949 -0.0000 0.1008
vn -0.0000 1.0000 -0.0000
vn -0.9949 -0.0000 0.1008
vn -0.8944 -0.0000 0.4472
vn -0.8660 -0.0000 -0.5000
vn -0.5000 -0.0000 -0.8660
vn -0.0000 -0.0000 1.0000
vn -0.0000 -1.0000 -0.0000
vn 0.8944 -0.0000 0.4472
vt 0.394531 0.398438
vt 0.394531 0.417969
vt 0.414062 0.417969
vt 0.414062 0.398438
vt 0.429688 0.417969
vt 0.429688 0.398438
vt 0.472656 0.406250
vt 0.472656 0.425781
vt 0.453125 0.425781
vt 0.453125 0.406250
vt 0.308594 0.386719
vt 0.289062 0.382812
vt 0.273438 0.367188
vt 0.269531 0.347656
vt 0.347656 0.347656
vt 0.343750 0.367188
vt 0.328125 0.382812
vt 0.453125 0.449219
vt 0.453125 0.429688
vt 0.445312 0.429688
vt 0.445312 0.449219
vt 0.472656 0.449219
vt 0.472656 0.429688
vt 0.359375 0.398438
vt 0.359375 0.417969
vt 0.375000 0.417969
vt 0.375000 0.398438
vt 0.429688 0.429688
vt 0.429688 0.449219
vt 0.359375 0.449219
vt 0.359375 0.429688
vt 0.355469 0.421875
vt 0.433594 0.421875
vt 0.273438 0.339844
vt 0.343750 0.339844
vt 0.445312 0.425781
vt 0.445312 0.406250
s 1
usemtl end_hinge
f 33/63/10 34/64/10 36/65/11 35/66/11
f 35/66/11 36/65/11 38/67/12 37/68/12
f 37/69/12 38/70/12 40/71/13 39/72/13
f 34/73/14 46/74/14 44/75/14 42/76/14 40/77/14 38/78/14 36/79/14
f 42/80/15 41/81/15 49/82/16 50/83/16
f 41/81/15 42/80/15 44/84/17 43/85/17
f 43/86/17 44/87/17 46/88/18 45/89/18
f 45/89/18 46/88/18 34/64/10 33/63/10
f 48/90/19 47/91/19 50/92/19 49/93/19
f 41/94/20 39/95/20 48/90/20 49/93/20
f 40/77/14 42/76/14 50/96/14 47/97/14
f 39/72/13 40/71/13 47/98/21 48/99/21
o end_hinge_2
v -0.000000 -0.062500 -1.687500
v -0.000000 0.093750 -1.687500
v -0.156250 -0.062500 -1.729367
v -0.156250 0.093750 -1.729367
v -0.270633 -0.062500 -1.843750
v -0.270633 0.093750 -1.843750
v -0.312500 -0.062500 -2.000000
v -0.312500 0.093750 -2.000000
v 0.312500 -0.062500 -2.000000
v 0.312500 0.093750 -2.000000
v 0.270633 -0.062500 -1.843750
v 0.270633 0.093750 -1.843750
v 0.156250 -0.062500 -1.729367
v 0.156250 0.093750 -1.729367
v -0.281250 0.093750 -2.062500
v -0.281250 -0.062500 -2.062500
v 0.281250 -0.062500 -2.062500
v 0.281250 0.093750 -2.062500
vn -0.0000 -0.0000 1.0000
vn -0.5000 -0.0000 0.8660
vn -0.8660 -0.0000 0.5000
vn -0.9949 -0.0000 -0.1008
vn -0.0000 1.0000 -0.0000
vn 0.9949 -0.0000 -0.1008
vn 0.8660 -0.0000 0.5000
vn 0.5000 -0.0000 0.8660
vn -0.0000 -0.0000 -1.0000
vn -0.8944 -0.0000 -0.4472
vn 0.8944 -0.0000 -0.4472
vn -0.0000 -1.0000 -0.0000
vt 0.289062 0.441406
vt 0.289062 0.460938
vt 0.269531 0.460938
vt 0.269531 0.441406
vt 0.445312 0.453125
vt 0.445312 0.472656
vt 0.460938 0.472656
vt 0.460938 0.453125
vt 0.480469 0.472656
vt 0.480469 0.453125
vt 0.308594 0.390625
vt 0.328125 0.394531
vt 0.343750 0.410156
vt 0.347656 0.429688
vt 0.269531 0.429688
vt 0.273438 0.410156
vt 0.289062 0.394531
vt 0.343750 0.437500
vt 0.273438 0.437500
vt 0.464844 0.375000
vt 0.464844 0.394531
vt 0.445312 0.394531
vt 0.445312 0.375000
vt 0.324219 0.441406
vt 0.324219 0.460938
vt 0.308594 0.460938
vt 0.308594 0.441406
vt 0.359375 0.453125
vt 0.359375 0.472656
vt 0.429688 0.472656
vt 0.429688 0.453125
vt 0.488281 0.472656
vt 0.488281 0.453125
vt 0.472656 0.375000
vt 0.472656 0.394531
vt 0.347656 0.464844
vt 0.269531 0.464844
vt 0.273438 0.472656
vt 0.343750 0.472656
s 1
usemtl end_hinge
f 51/100/22 52/101/22 54/102/23 53/103/23
f 53/104/23 54/105/23 56/106/24 55/107/24
f 55/107/24 56/106/24 58/108/25 57/109/25
f 52/110/26 64/111/26 62/112/26 60/113/26 58/114/26 56/115/26 54/116/26
f 58/114/26 60/113/26 68/117/26 65/118/26
f 59/119/27 60/120/27 62/121/28 61/122/28
f 61/123/28 62/124/28 64/125/29 63/126/29
f 63/126/29 64/125/29 52/101/22 51/100/22
f 66/127/30 65/128/30 68/129/30 67/130/30
f 57/109/25 58/108/25 65/131/31 66/132/31
f 60/120/27 59/119/27 67/133/32 68/134/32
f 59/135/33 57/136/33 66/137/33 67/138/33
