# Blender 5.2.1 LTS
# www.blender.org
mtllib track_bed_fill.mtl
o end_hinge_1
v 0.000000 -0.062500 1.687500
v 0.000000 0.093750 1.687500
v 0.156250 -0.062500 1.729367
v 0.156250 0.093750 1.729367
v 0.270633 -0.062500 1.843750
v 0.270633 0.093750 1.843750
v 0.312500 -0.062500 2.000000
v 0.312500 0.093750 2.000000
v -0.312500 -0.062500 2.000000
v -0.312500 0.093750 2.000000
v -0.270633 -0.062500 1.843750
v -0.270633 0.093750 1.843750
v -0.156250 -0.062500 1.729367
v -0.156250 0.093750 1.729367
v 0.281250 0.093750 2.062500
v 0.281250 -0.062500 2.062500
v -0.281250 -0.062500 2.062500
v -0.281250 0.093750 2.062500
vn -0.0000 -0.0000 -1.0000
vn 0.5000 -0.0000 -0.8660
vn 0.8660 -0.0000 -0.5000
vn 0.9949 -0.0000 0.1008
vn -0.0000 1.0000 -0.0000
vn -0.9949 -0.0000 0.1008
vn -0.8944 -0.0000 0.4472
vn -0.8660 -0.0000 -0.5000
vn -0.5000 -0.0000 -0.8660
vn -0.0000 -0.0000 1.0000
vn -0.0000 -1.0000 -0.0000
vn 0.8944 -0.0000 0.4472
vt 0.394531 0.398438
vt 0.394531 0.417969
vt 0.414062 0.417969
vt 0.414062 0.398438
vt 0.429688 0.417969
vt 0.429688 0.398438
vt 0.472656 0.406250
vt 0.472656 0.425781
vt 0.453125 0.425781
vt 0.453125 0.406250
vt 0.308594 0.386719
vt 0.289062 0.382812
vt 0.273438 0.367188
vt 0.269531 0.347656
vt 0.347656 0.347656
vt 0.343750 0.367188
vt 0.328125 0.382812
vt 0.453125 0.449219
vt 0.453125 0.429688
vt 0.445312 0.429688
vt 0.445312 0.449219
vt 0.472656 0.449219
vt 0.472656 0.429688
vt 0.359375 0.398438
vt 0.359375 0.417969
vt 0.375000 0.417969
vt 0.375000 0.398438
vt 0.429688 0.429688
vt 0.429688 0.449219
vt 0.359375 0.449219
vt 0.359375 0.429688
vt 0.355469 0.421875
vt 0.433594 0.421875
vt 0.273438 0.339844
vt 0.343750 0.339844
vt 0.445312 0.425781
vt 0.445312 0.406250
s 1
usemtl end_hinge
f 1/1/1 2/2/1 4/3/2 3/4/2
f 3/4/2 4/3/2 6/5/3 5/6/3
f 5/7/3 6/8/3 8/9/4 7/10/4
f 2/11/5 14/12/5 12/13/5 10/14/5 8/15/5 6/16/5 4/17/5
f 10/18/6 9/19/6 17/20/7 18/21/7
f 9/19/6 10/18/6 12/22/8 11/23/8
f 11/24/8 12/25/8 14/26/9 13/27/9
f 13/27/9 14/26/9 2/2/1 1/1/1
f 16/28/10 15/29/10 18/30/10 17/31/10
f 9/32/11 7/33/11 16/28/11 17/31/11
f 8/15/5 10/14/5 18/34/5 15/35/5
f 7/10/4 8/9/4 15/36/12 16/37/12
o end_hinge_2
v -0.000000 -0.062500 -1.687500
v -0.000000 0.093750 -1.687500
v -0.156250 -0.062500 -1.729367
v -0.156250 0.093750 -1.729367
v -0.270633 -0.062500 -1.843750
v -0.270633 0.093750 -1.843750
v -0.312500 -0.062500 -2.000000
v -0.312500 0.093750 -2.000000
v 0.312500 -0.062500 -2.000000
v 0.312500 0.093750 -2.000000
v 0.270633 -0.062500 -1.843750
v 0.270633 0.093750 -1.843750
v 0.156250 -0.062500 -1.729367
v 0.156250 0.093750 -1.729367
v -0.281250 0.093750 -2.062500
v -0.281250 -0.062500 -2.062500
v 0.281250 -0.062500 -2.062500
v 0.281250 0.093750 -2.062500
vn -0.0000 -0.0000 1.0000
vn -0.5000 -0.0000 0.8660
vn -0.8660 -0.0000 0.5000
vn -0.9949 -0.0000 -0.1008
vn -0.0000 1.0000 -0.0000
vn 0.9949 -0.0000 -0.1008
vn 0.8660 -0.0000 0.5000
vn 0.5000 -0.0000 0.8660
vn -0.0000 -0.0000 -1.0000
vn -0.8944 -0.0000 -0.4472
vn 0.8944 -0.0000 -0.4472
vn -0.0000 -1.0000 -0.0000
vt 0.289062 0.441406
vt 0.289062 0.460938
vt 0.269531 0.460938
vt 0.269531 0.441406
vt 0.445312 0.453125
vt 0.445312 0.472656
vt 0.460938 0.472656
vt 0.460938 0.453125
vt 0.480469 0.472656
vt 0.480469 0.453125
vt 0.308594 0.390625
vt 0.328125 0.394531
vt 0.343750 0.410156
vt 0.347656 0.429688
vt 0.269531 0.429688
vt 0.273438 0.410156
vt 0.289062 0.394531
vt 0.343750 0.437500
vt 0.273438 0.437500
vt 0.464844 0.375000
vt 0.464844 0.394531
vt 0.445312 0.394531
vt 0.445312 0.375000
vt 0.324219 0.441406
vt 0.324219 0.460938
vt 0.308594 0.460938
vt 0.308594 0.441406
vt 0.359375 0.453125
vt 0.359375 0.472656
vt 0.429688 0.472656
vt 0.429688 0.453125
vt 0.488281 0.472656
vt 0.488281 0.453125
vt 0.472656 0.375000
vt 0.472656 0.394531
vt 0.347656 0.464844
vt 0.269531 0.464844
vt 0.273438 0.472656
vt 0.343750 0.472656
s 1
usemtl end_hinge
f 19/38/13 20/39/13 22/40/14 21/41/14
f 21/42/14 22/43/14 24/44/15 23/45/15
f 23/45/15 24/44/15 26/46/16 25/47/16
f 20/48/17 32/49/17 30/50/17 28/51/17 26/52/17 24/53/17 22/54/17
f 26/52/17 28/51/17 36/55/17 33/56/17
f 27/57/18 28/58/18 30/59/19 29/60/19
f 29/61/19 30/62/19 32/63/20 31/64/20
f 31/64/20 32/63/20 20/39/13 19/38/13
f 34/65/21 33/66/21 36/67/21 35/68/21
f 25/47/16 26/46/16 33/69/22 34/70/22
f 28/58/18 27/57/18 35/71/23 36/72/23
f 27/73/24 25/74/24 34/75/24 35/76/24
o track_bed_fill
v -1.058594 0.058594 1.968750
v -1.058594 0.062500 1.964844
v -1.062500 0.058594 1.964844
v -1.058594 0.062500 -1.964844
v -1.058594 0.058594 -1.968750
v -1.062500 0.058594 -1.964844
v 1.058594 0.062500 1.964844
v 1.058594 0.058594 1.968750
v 1.062500 0.058594 1.964844
v 1.058594 0.062500 -1.964844
v 1.062500 0.058594 -1.964844
v 1.058594 0.058594 -1.968750
v -1.058594 -0.058594 1.968750
v -1.062500 -0.058594 1.964844
v -1.058594 -0.062500 1.964844
v -1.058594 -0.058594 -1.968750
v -1.058594 -0.062500 -1.964844
v -1.062500 -0.058594 -1.964844
v 1.058594 -0.058594 -1.968750
v 1.062500 -0.058594 -1.964844
v 1.058594 -0.062500 -1.964844
v 1.058594 -0.058594 1.968750
v 1.058594 -0.062500 1.964844
v 1.062500 -0.058594 1.964844
vn -0.5774 0.5774 0.5774
vn -0.5774 0.5774 -0.5774
vn 0.5774 0.5774 0.5774
vn 0.5774 0.5774 -0.5774
vn -0.5774 -0.5774 0.5774
vn -0.5774 -0.5774 -0.5774
vn 0.5774 -0.5774 -0.5774
vn 0.5774 -0.5774 0.5774
vn -0.7071 -0.0000 0.7071
vn -0.7071 0.7071 -0.0000
vn 0.7071 0.7071 -0.0000
vn -0.7071 -0.0000 -0.7071
vn -0.7071 -0.7071 -0.0000
vn 0.7071 -0.0000 -0.7071
vn 0.7071 -0.0000 0.7071
vn 0.7071 -0.7071 -0.0000
vn -0.0000 0.7071 0.7071
vn -0.0000 0.7071 -0.7071
vn -0.0000 -0.7071 0.7071
vn -0.0000 -0.7071 -0.7071
vn -0.0000 -0.0000 1.0000
vn -1.0000 -0.0000 -0.0000
vn -0.0000 1.0000 -0.0000
vn -0.0000 -0.0000 -1.0000
vn 1.0000 -0.0000 -0.0000
vn -0.0000 -1.0000 -0.0000
vt 0.496094 0.999512
vt 0.496582 0.999512
vt 0.496582 1.000000
vt 0.987793 0.999512
vt 0.988281 0.999512
vt 0.987793 1.000000
vt 0.496582 0.734863
vt 0.496094 0.734863
vt 0.496582 0.734375
vt 0.987793 0.734863
vt 0.987793 0.734375
vt 0.988281 0.734863
vt 0.000000 0.668457
vt 0.000488 0.668457
vt 0.000488 0.667969
vt 0.492188 0.999512
vt 0.491699 0.999512
vt 0.491699 1.000000
vt 0.492187 0.684082
vt 0.491698 0.684082
vt 0.491698 0.683594
vt 0.000000 0.734863
vt 0.000488 0.734863
vt 0.000488 0.734375
vt 0.000000 0.683106
vt 0.000488 0.683106
vt 0.492187 0.683106
vt 0.492187 0.668457
vt 0.491698 0.668457
vt 0.491698 0.683106
vt 0.000488 1.000000
vt 0.000488 0.999512
vt 0.491698 0.698731
vt 0.492187 0.698731
vt 0.000000 0.698731
vt 0.000000 0.684082
vt 0.000488 0.684082
vt 0.000488 0.698731
vt 0.491699 0.734375
vt 0.491699 0.734863
vt 0.000000 0.999512
vt 0.492188 0.734863
vt 0.000488 0.715332
vt 0.265137 0.715332
vt 0.265137 0.729980
vt 0.000488 0.729980
vt 0.265136 0.714355
vt 0.265136 0.699707
vt 0.000488 0.699707
vt 0.000488 0.714355
s 0
usemtl concrete_aged
f 37/77/25 38/78/25 39/79/25
f 40/80/26 41/81/26 42/82/26
f 43/83/27 44/84/27 45/85/27
f 46/86/28 47/87/28 48/88/28
f 49/89/29 50/90/29 51/91/29
f 52/92/30 53/93/30 54/94/30
f 55/95/31 56/96/31 57/97/31
f 58/98/32 59/99/32 60/100/32
f 49/89/33 37/101/33 39/102/33 50/90/33
f 38/78/34 40/80/34 42/82/34 39/79/34
f 46/86/35 43/83/35 45/85/35 47/87/35
f 41/103/36 52/104/36 54/105/36 42/106/36
f 50/107/37 54/94/37 53/93/37 51/108/37
f 47/109/38 56/96/38 55/95/38 48/110/38
f 44/111/39 58/112/39 60/113/39 45/114/39
f 56/115/40 60/100/40 59/99/40 57/116/40
f 43/83/41 38/78/41 37/77/41 44/84/41
f 48/88/42 41/81/42 40/80/42 46/86/42
f 51/108/43 59/99/43 58/98/43 49/117/43
f 52/92/44 55/118/44 57/116/44 53/93/44
f 49/119/45 58/120/45 44/121/45 37/122/45
f 50/90/46 39/102/46 42/106/46 54/105/46
f 38/78/47 43/83/47 46/86/47 40/80/47
f 48/123/48 55/124/48 52/125/48 41/126/48
f 56/96/49 47/109/49 45/114/49 60/113/49
f 51/108/50 53/93/50 57/116/50 59/99/50
