# Blender 5.2.0 LTS
# www.blender.org
mtllib hk_1_indented.mtl
o cube
v 0.500000 -0.687500 0.000000
v -1.125000 -0.687500 0.000000
v 0.500000 -1.500000 0.000000
v -1.125000 -1.500000 0.000000
v -1.125000 -0.687500 1.000000
v 0.500000 -0.687500 1.000000
v -1.125000 -1.500000 1.000000
v 0.500000 -1.500000 1.000000
vn -1.0000 -0.0000 -0.0000
vn -0.0000 -0.0000 -1.0000
vn 1.0000 -0.0000 -0.0000
vn -0.0000 -0.0000 1.0000
vn -0.0000 -1.0000 -0.0000
vt 0.000000 0.000000
vt 1.000000 0.000000
vt 1.000000 0.812500
vt 0.000000 0.812500
vt -0.500000 0.000000
vt 0.750000 0.000000
vt 0.750000 0.812500
vt -0.500000 0.812500
vt 0.250000 0.000000
vt 1.500000 0.000000
vt 1.500000 0.812500
vt 0.250000 0.812500
vt 0.000000 0.375000
vt 1.000000 0.375000
vt 1.000000 1.000000
vt 0.000000 1.000000
s 1
usemtl m_e14e146a-fe33-2319-f799-c654f226764d
f 4/1/1 7/2/1 5/3/1 2/4/1
usemtl m_b0c8da84-2b53-328b-eb42-b4048867abda
f 3/5/2 4/6/2 2/7/2 1/8/2
f 8/1/3 3/2/3 1/3/3 6/4/3
f 7/9/4 8/10/4 6/11/4 5/12/4
f 7/13/5 4/14/5 3/15/5 8/16/5
o cube.001
v -0.500000 -0.493000 0.000000
v -1.500000 -0.493000 0.000000
v -1.500000 -0.493000 1.000000
v -0.500000 -0.493000 1.000000
vn -0.0000 1.0000 -0.0000
vt 0.000000 0.000000
vt 1.000000 0.000000
vt 1.000000 1.000000
vt 0.000000 1.000000
s 1
usemtl m_8eee6e52-fad0-3fc2-e065-a05e6691b419
f 12/17/6 9/18/6 10/19/6 11/20/6
o cube.002
v -0.500000 -0.500635 0.000000
v -1.500000 -0.500635 0.000000
v -0.500000 -0.687500 0.000000
v -1.500000 -0.687500 0.000000
v -1.500000 -0.500000 1.000000
v -0.500000 -0.500000 1.000000
v -1.500000 -0.687500 1.000000
v -0.500000 -0.687500 1.000000
v 0.524784 -0.507477 0.000000
v 0.524784 -0.687500 0.000000
v 0.524784 -0.507476 1.000000
v 0.524784 -0.687500 1.000000
vn -1.0000 -0.0000 -0.0000
vn -0.0000 -0.0000 -1.0000
vn -0.0000 -0.0000 1.0000
vn -0.0000 1.0000 -0.0006
vn -0.0000 -1.0000 -0.0000
vn 1.0000 -0.0000 -0.0000
vn 0.0070 1.0000 -0.0003
vt 0.000000 0.812500
vt 1.000000 0.812500
vt 1.000000 1.000000
vt 0.000000 1.000000
vt 0.000000 0.756355
vt 0.000000 0.573390
vt 1.000000 0.573390
vt 1.000000 0.746597
vt 0.000000 0.000000
vt 1.000000 0.000000
vt 0.012092 1.000000
vt 0.987907 1.000000
vt 0.987907 0.000000
vt 0.012092 0.000000
s 0
usemtl m_b0c8da84-2b53-328b-eb42-b4048867abda
f 16/21/7 19/22/7 17/23/7 14/24/7
f 15/21/8 16/22/8 14/23/8 13/24/8
f 18/25/9 20/26/9 24/27/9 23/28/9
f 19/21/9 20/22/9 18/23/9 17/24/9
f 18/29/10 13/30/10 14/23/10 17/24/10
f 19/29/11 16/30/11 15/23/11 20/24/11
f 24/21/12 22/22/12 21/23/12 23/24/12
f 20/24/11 15/23/11 22/23/11 24/24/11
f 15/26/8 13/25/8 21/28/8 22/27/8
f 13/31/13 18/32/13 23/33/13 21/34/13
