# Blender 4.2.2 LTS
# www.blender.org
mtllib 1m.mtl
o platform_gap_filler_main
v 0.496094 1.000000 0.417969
v -0.496094 1.000000 0.417969
v 0.496094 1.000000 0.500000
v -0.496094 1.000000 0.500000
v 0.496094 0.917969 0.417969
v -0.496094 0.917969 0.417969
vn -0.0000 -0.0000 -1.0000
vn -0.0000 1.0000 -0.0000
vt 0.000000 0.835938
vt 0.992188 0.835938
vt 0.992188 1.000000
vt 0.000000 1.000000
vt 0.000000 0.671875
vt 0.992188 0.671875
s 0
usemtl platform_gap_filler_surface#exteriortranslucent
f 2/1/1 1/2/1 5/3/1 6/4/1
f 1/2/2 2/1/2 4/5/2 3/6/2
o platform_gap_filler_branch_polyfill
v -0.488281 1.000000 0.417969
v -0.488281 0.917969 0.417969
v -0.488281 1.000000 0.468750
v -0.480469 1.000000 0.417969
v -0.480469 0.917969 0.417969
v -0.480469 1.000000 0.468750
v -0.472656 1.000000 0.417969
v -0.472656 0.917969 0.417969
v -0.472656 1.000000 0.468750
v -0.464844 1.000000 0.417969
v -0.464844 0.917969 0.417969
v -0.464844 1.000000 0.468750
v -0.457031 1.000000 0.417969
v -0.457031 0.917969 0.417969
v -0.457031 1.000000 0.468750
v -0.449219 1.000000 0.417969
v -0.449219 0.917969 0.417969
v -0.449219 1.000000 0.468750
v -0.441406 1.000000 0.417969
v -0.441406 0.917969 0.417969
v -0.441406 1.000000 0.468750
v -0.433594 1.000000 0.417969
v -0.433594 0.917969 0.417969
v -0.433594 1.000000 0.468750
v -0.425781 1.000000 0.417969
v -0.425781 0.917969 0.417969
v -0.425781 1.000000 0.468750
v -0.417969 1.000000 0.417969
v -0.417969 0.917969 0.417969
v -0.417969 1.000000 0.468750
v -0.410156 1.000000 0.417969
v -0.410156 0.917969 0.417969
v -0.410156 1.000000 0.468750
v -0.402344 1.000000 0.417969
v -0.402344 0.917969 0.417969
v -0.402344 1.000000 0.468750
v -0.394531 1.000000 0.417969
v -0.394531 0.917969 0.417969
v -0.394531 1.000000 0.468750
v -0.386719 1.000000 0.417969
v -0.386719 0.917969 0.417969
v -0.386719 1.000000 0.468750
v -0.378906 1.000000 0.417969
v -0.378906 0.917969 0.417969
v -0.378906 1.000000 0.468750
v -0.371094 1.000000 0.417969
v -0.371094 0.917969 0.417969
v -0.371094 1.000000 0.468750
v -0.363281 1.000000 0.417969
v -0.363281 0.917969 0.417969
v -0.363281 1.000000 0.468750
v -0.355469 1.000000 0.417969
v -0.355469 0.917969 0.417969
v -0.355469 1.000000 0.468750
v -0.347656 1.000000 0.417969
v -0.347656 0.917969 0.417969
v -0.347656 1.000000 0.468750
v -0.339844 1.000000 0.417969
v -0.339844 0.917969 0.417969
v -0.339844 1.000000 0.468750
v -0.332031 1.000000 0.417969
v -0.332031 0.917969 0.417969
v -0.332031 1.000000 0.468750
v -0.324219 1.000000 0.417969
v -0.324219 0.917969 0.417969
v -0.324219 1.000000 0.468750
v -0.316406 1.000000 0.417969
v -0.316406 0.917969 0.417969
v -0.316406 1.000000 0.468750
v -0.308594 1.000000 0.417969
v -0.308594 0.917969 0.417969
v -0.308594 1.000000 0.468750
v -0.300781 1.000000 0.417969
v -0.300781 0.917969 0.417969
v -0.300781 1.000000 0.468750
v -0.292969 1.000000 0.417969
v -0.292969 0.917969 0.417969
v -0.292969 1.000000 0.468750
v -0.285156 1.000000 0.417969
v -0.285156 0.917969 0.417969
v -0.285156 1.000000 0.468750
v -0.277344 1.000000 0.417969
v -0.277344 0.917969 0.417969
v -0.277344 1.000000 0.468750
v -0.269531 1.000000 0.417969
v -0.269531 0.917969 0.417969
v -0.269531 1.000000 0.468750
v -0.261719 1.000000 0.417969
v -0.261719 0.917969 0.417969
v -0.261719 1.000000 0.468750
v -0.253906 1.000000 0.417969
v -0.253906 0.917969 0.417969
v -0.253906 1.000000 0.468750
v -0.246094 1.000000 0.417969
v -0.246094 0.917969 0.417969
v -0.246094 1.000000 0.468750
v -0.238281 1.000000 0.417969
v -0.238281 0.917969 0.417969
v -0.238281 1.000000 0.468750
v -0.230469 1.000000 0.417969
v -0.230469 0.917969 0.417969
v -0.230469 1.000000 0.468750
v -0.222656 1.000000 0.417969
v -0.222656 0.917969 0.417969
v -0.222656 1.000000 0.468750
v -0.214844 1.000000 0.417969
v -0.214844 0.917969 0.417969
v -0.214844 1.000000 0.468750
v -0.207031 1.000000 0.417969
v -0.207031 0.917969 0.417969
v -0.207031 1.000000 0.468750
v -0.199219 1.000000 0.417969
v -0.199219 0.917969 0.417969
v -0.199219 1.000000 0.468750
v -0.191406 1.000000 0.417969
v -0.191406 0.917969 0.417969
v -0.191406 1.000000 0.468750
v -0.183594 1.000000 0.417969
v -0.183594 0.917969 0.417969
v -0.183594 1.000000 0.468750
v -0.175781 1.000000 0.417969
v -0.175781 0.917969 0.417969
v -0.175781 1.000000 0.468750
v -0.167969 1.000000 0.417969
v -0.167969 0.917969 0.417969
v -0.167969 1.000000 0.468750
v -0.160156 1.000000 0.417969
v -0.160156 0.917969 0.417969
v -0.160156 1.000000 0.468750
v -0.152344 1.000000 0.417969
v -0.152344 0.917969 0.417969
v -0.152344 1.000000 0.468750
v -0.144531 1.000000 0.417969
v -0.144531 0.917969 0.417969
v -0.144531 1.000000 0.468750
v -0.136719 1.000000 0.417969
v -0.136719 0.917969 0.417969
v -0.136719 1.000000 0.468750
v -0.128906 1.000000 0.417969
v -0.128906 0.917969 0.417969
v -0.128906 1.000000 0.468750
v -0.121094 1.000000 0.417969
v -0.121094 0.917969 0.417969
v -0.121094 1.000000 0.468750
v -0.113281 1.000000 0.417969
v -0.113281 0.917969 0.417969
v -0.113281 1.000000 0.468750
v -0.105469 1.000000 0.417969
v -0.105469 0.917969 0.417969
v -0.105469 1.000000 0.468750
v -0.097656 1.000000 0.417969
v -0.097656 0.917969 0.417969
v -0.097656 1.000000 0.468750
v -0.089844 1.000000 0.417969
v -0.089844 0.917969 0.417969
v -0.089844 1.000000 0.468750
v -0.082031 1.000000 0.417969
v -0.082031 0.917969 0.417969
v -0.082031 1.000000 0.468750
v -0.074219 1.000000 0.417969
v -0.074219 0.917969 0.417969
v -0.074219 1.000000 0.468750
v -0.066406 1.000000 0.417969
v -0.066406 0.917969 0.417969
v -0.066406 1.000000 0.468750
v -0.058594 1.000000 0.417969
v -0.058594 0.917969 0.417969
v -0.058594 1.000000 0.468750
v -0.050781 1.000000 0.417969
v -0.050781 0.917969 0.417969
v -0.050781 1.000000 0.468750
v -0.042969 1.000000 0.417969
v -0.042969 0.917969 0.417969
v -0.042969 1.000000 0.468750
v -0.035156 1.000000 0.417969
v -0.035156 0.917969 0.417969
v -0.035156 1.000000 0.468750
v -0.027344 1.000000 0.417969
v -0.027344 0.917969 0.417969
v -0.027344 1.000000 0.468750
v -0.019531 1.000000 0.417969
v -0.019531 0.917969 0.417969
v -0.019531 1.000000 0.468750
v -0.011719 1.000000 0.417969
v -0.011719 0.917969 0.417969
v -0.011719 1.000000 0.468750
v -0.003906 1.000000 0.417969
v -0.003906 0.917969 0.417969
v -0.003906 1.000000 0.468750
v 0.003906 1.000000 0.417969
v 0.003906 0.917969 0.417969
v 0.003906 1.000000 0.468750
v 0.011719 1.000000 0.417969
v 0.011719 0.917969 0.417969
v 0.011719 1.000000 0.468750
v 0.019531 1.000000 0.417969
v 0.019531 0.917969 0.417969
v 0.019531 1.000000 0.468750
v 0.027344 1.000000 0.417969
v 0.027344 0.917969 0.417969
v 0.027344 1.000000 0.468750
v 0.035156 1.000000 0.417969
v 0.035156 0.917969 0.417969
v 0.035156 1.000000 0.468750
v 0.042969 1.000000 0.417969
v 0.042969 0.917969 0.417969
v 0.042969 1.000000 0.468750
v 0.050781 1.000000 0.417969
v 0.050781 0.917969 0.417969
v 0.050781 1.000000 0.468750
v 0.058594 1.000000 0.417969
v 0.058594 0.917969 0.417969
v 0.058594 1.000000 0.468750
v 0.066406 1.000000 0.417969
v 0.066406 0.917969 0.417969
v 0.066406 1.000000 0.468750
v 0.074219 1.000000 0.417969
v 0.074219 0.917969 0.417969
v 0.074219 1.000000 0.468750
v 0.082031 1.000000 0.417969
v 0.082031 0.917969 0.417969
v 0.082031 1.000000 0.468750
v 0.089844 1.000000 0.417969
v 0.089844 0.917969 0.417969
v 0.089844 1.000000 0.468750
v 0.097656 1.000000 0.417969
v 0.097656 0.917969 0.417969
v 0.097656 1.000000 0.468750
v 0.105469 1.000000 0.417969
v 0.105469 0.917969 0.417969
v 0.105469 1.000000 0.468750
v 0.113281 1.000000 0.417969
v 0.113281 0.917969 0.417969
v 0.113281 1.000000 0.468750
v 0.121094 1.000000 0.417969
v 0.121094 0.917969 0.417969
v 0.121094 1.000000 0.468750
v 0.128906 1.000000 0.417969
v 0.128906 0.917969 0.417969
v 0.128906 1.000000 0.468750
v 0.136719 1.000000 0.417969
v 0.136719 0.917969 0.417969
v 0.136719 1.000000 0.468750
v 0.144531 1.000000 0.417969
v 0.144531 0.917969 0.417969
v 0.144531 1.000000 0.468750
v 0.152344 1.000000 0.417969
v 0.152344 0.917969 0.417969
v 0.152344 1.000000 0.468750
v 0.160156 1.000000 0.417969
v 0.160156 0.917969 0.417969
v 0.160156 1.000000 0.468750
v 0.167969 1.000000 0.417969
v 0.167969 0.917969 0.417969
v 0.167969 1.000000 0.468750
v 0.175781 1.000000 0.417969
v 0.175781 0.917969 0.417969
v 0.175781 1.000000 0.468750
v 0.183594 1.000000 0.417969
v 0.183594 0.917969 0.417969
v 0.183594 1.000000 0.468750
v 0.191406 1.000000 0.417969
v 0.191406 0.917969 0.417969
v 0.191406 1.000000 0.468750
v 0.199219 1.000000 0.417969
v 0.199219 0.917969 0.417969
v 0.199219 1.000000 0.468750
v 0.207031 1.000000 0.417969
v 0.207031 0.917969 0.417969
v 0.207031 1.000000 0.468750
v 0.214844 1.000000 0.417969
v 0.214844 0.917969 0.417969
v 0.214844 1.000000 0.468750
v 0.222656 1.000000 0.417969
v 0.222656 0.917969 0.417969
v 0.222656 1.000000 0.468750
v 0.230469 1.000000 0.417969
v 0.230469 0.917969 0.417969
v 0.230469 1.000000 0.468750
v 0.238281 1.000000 0.417969
v 0.238281 0.917969 0.417969
v 0.238281 1.000000 0.468750
v 0.246094 1.000000 0.417969
v 0.246094 0.917969 0.417969
v 0.246094 1.000000 0.468750
v 0.253906 1.000000 0.417969
v 0.253906 0.917969 0.417969
v 0.253906 1.000000 0.468750
v 0.261719 1.000000 0.417969
v 0.261719 0.917969 0.417969
v 0.261719 1.000000 0.468750
v 0.269531 1.000000 0.417969
v 0.269531 0.917969 0.417969
v 0.269531 1.000000 0.468750
v 0.277344 1.000000 0.417969
v 0.277344 0.917969 0.417969
v 0.277344 1.000000 0.468750
v 0.285156 1.000000 0.417969
v 0.285156 0.917969 0.417969
v 0.285156 1.000000 0.468750
v 0.292969 1.000000 0.417969
v 0.292969 0.917969 0.417969
v 0.292969 1.000000 0.468750
v 0.300781 1.000000 0.417969
v 0.300781 0.917969 0.417969
v 0.300781 1.000000 0.468750
v 0.308594 1.000000 0.417969
v 0.308594 0.917969 0.417969
v 0.308594 1.000000 0.468750
v 0.316406 1.000000 0.417969
v 0.316406 0.917969 0.417969
v 0.316406 1.000000 0.468750
v 0.324219 1.000000 0.417969
v 0.324219 0.917969 0.417969
v 0.324219 1.000000 0.468750
v 0.332031 1.000000 0.417969
v 0.332031 0.917969 0.417969
v 0.332031 1.000000 0.468750
v 0.339844 1.000000 0.417969
v 0.339844 0.917969 0.417969
v 0.339844 1.000000 0.468750
v 0.347656 1.000000 0.417969
v 0.347656 0.917969 0.417969
v 0.347656 1.000000 0.468750
v 0.355469 1.000000 0.417969
v 0.355469 0.917969 0.417969
v 0.355469 1.000000 0.468750
v 0.363281 1.000000 0.417969
v 0.363281 0.917969 0.417969
v 0.363281 1.000000 0.468750
v 0.371094 1.000000 0.417969
v 0.371094 0.917969 0.417969
v 0.371094 1.000000 0.468750
v 0.378906 1.000000 0.417969
v 0.378906 0.917969 0.417969
v 0.378906 1.000000 0.468750
v 0.386719 1.000000 0.417969
v 0.386719 0.917969 0.417969
v 0.386719 1.000000 0.468750
v 0.394531 1.000000 0.417969
v 0.394531 0.917969 0.417969
v 0.394531 1.000000 0.468750
v 0.402344 1.000000 0.417969
v 0.402344 0.917969 0.417969
v 0.402344 1.000000 0.468750
v 0.410156 1.000000 0.417969
v 0.410156 0.917969 0.417969
v 0.410156 1.000000 0.468750
v 0.417969 1.000000 0.417969
v 0.417969 0.917969 0.417969
v 0.417969 1.000000 0.468750
v 0.425781 1.000000 0.417969
v 0.425781 0.917969 0.417969
v 0.425781 1.000000 0.468750
v 0.433594 1.000000 0.417969
v 0.433594 0.917969 0.417969
v 0.433594 1.000000 0.468750
v 0.441406 1.000000 0.417969
v 0.441406 0.917969 0.417969
v 0.441406 1.000000 0.468750
v 0.449219 1.000000 0.417969
v 0.449219 0.917969 0.417969
v 0.449219 1.000000 0.468750
v 0.457031 1.000000 0.417969
v 0.457031 0.917969 0.417969
v 0.457031 1.000000 0.468750
v 0.464844 1.000000 0.417969
v 0.464844 0.917969 0.417969
v 0.464844 1.000000 0.468750
v 0.472656 1.000000 0.417969
v 0.472656 0.917969 0.417969
v 0.472656 1.000000 0.468750
v 0.480469 1.000000 0.417969
v 0.480469 0.917969 0.417969
v 0.480469 1.000000 0.468750
v 0.488281 1.000000 0.417969
v 0.488281 0.917969 0.417969
v 0.488281 1.000000 0.468750
vn -1.0000 -0.0000 -0.0000
vn 1.0000 -0.0000 -0.0000
vt 0.000000 0.507812
vt 0.000000 0.343750
vt 0.050781 0.507812
vt 0.050781 0.671875
vt 0.000000 0.671875
vt 0.050781 0.343750
vt 0.101562 0.507812
vt 0.101562 0.671875
vt 0.101562 0.343750
vt 0.152344 0.507812
vt 0.152344 0.671875
vt 0.152344 0.343750
vt 0.203125 0.507812
vt 0.203125 0.671875
vt 0.203125 0.343750
vt 0.253906 0.507812
vt 0.253906 0.671875
vt 0.253906 0.343750
vt 0.304688 0.507812
vt 0.304688 0.671875
vt 0.304688 0.343750
vt 0.355469 0.507812
vt 0.355469 0.671875
vt 0.355469 0.343750
vt 0.406250 0.507812
vt 0.406250 0.671875
vt 0.406250 0.343750
vt 0.457031 0.507812
vt 0.457031 0.671875
vt 0.457031 0.343750
vt 0.507812 0.507812
vt 0.507812 0.671875
vt 0.507812 0.343750
vt 0.558594 0.507812
vt 0.558594 0.671875
vt 0.558594 0.343750
vt 0.609375 0.507812
vt 0.609375 0.671875
vt 0.609375 0.343750
vt 0.660156 0.507812
vt 0.660156 0.671875
vt 0.660156 0.343750
vt 0.710938 0.507812
vt 0.710938 0.671875
vt 0.710938 0.343750
vt 0.761719 0.507812
vt 0.761719 0.671875
vt 0.761719 0.343750
vt 0.812500 0.507812
vt 0.812500 0.671875
vt 0.812500 0.343750
vt 0.863281 0.507812
vt 0.863281 0.671875
vt 0.863281 0.343750
vt 0.914062 0.507812
vt 0.914062 0.671875
s 0
usemtl platform_gap_filler_surface#exteriortranslucent
f 10/7/3 11/8/3 12/9/3
f 7/10/4 9/11/4 8/9/4
f 16/9/3 17/12/3 18/13/3
f 13/14/4 15/10/4 14/13/4
f 22/13/3 23/15/3 24/16/3
f 19/17/4 21/14/4 20/16/4
f 28/16/3 29/18/3 30/19/3
f 25/20/4 27/17/4 26/19/4
f 34/19/3 35/21/3 36/22/3
f 31/23/4 33/20/4 32/22/4
f 40/22/3 41/24/3 42/25/3
f 37/26/4 39/23/4 38/25/4
f 46/25/3 47/27/3 48/28/3
f 43/29/4 45/26/4 44/28/4
f 52/28/3 53/30/3 54/31/3
f 49/32/4 51/29/4 50/31/4
f 58/31/3 59/33/3 60/34/3
f 55/35/4 57/32/4 56/34/4
f 64/34/3 65/36/3 66/37/3
f 61/38/4 63/35/4 62/37/4
f 70/37/3 71/39/3 72/40/3
f 67/41/4 69/38/4 68/40/4
f 76/40/3 77/42/3 78/43/3
f 73/44/4 75/41/4 74/43/4
f 82/43/3 83/45/3 84/46/3
f 79/47/4 81/44/4 80/46/4
f 88/46/3 89/48/3 90/49/3
f 85/50/4 87/47/4 86/49/4
f 94/49/3 95/51/3 96/52/3
f 91/53/4 93/50/4 92/52/4
f 100/52/3 101/54/3 102/55/3
f 97/56/4 99/53/4 98/55/4
f 106/55/3 107/57/3 108/58/3
f 103/59/4 105/56/4 104/58/4
f 112/58/3 113/60/3 114/61/3
f 109/62/4 111/59/4 110/61/4
f 118/7/3 119/8/3 120/9/3
f 115/10/4 117/11/4 116/9/4
f 124/9/3 125/12/3 126/13/3
f 121/14/4 123/10/4 122/13/4
f 130/13/3 131/15/3 132/16/3
f 127/17/4 129/14/4 128/16/4
f 136/16/3 137/18/3 138/19/3
f 133/20/4 135/17/4 134/19/4
f 142/19/3 143/21/3 144/22/3
f 139/23/4 141/20/4 140/22/4
f 148/22/3 149/24/3 150/25/3
f 145/26/4 147/23/4 146/25/4
f 154/25/3 155/27/3 156/28/3
f 151/29/4 153/26/4 152/28/4
f 160/28/3 161/30/3 162/31/3
f 157/32/4 159/29/4 158/31/4
f 166/31/3 167/33/3 168/34/3
f 163/35/4 165/32/4 164/34/4
f 172/34/3 173/36/3 174/37/3
f 169/38/4 171/35/4 170/37/4
f 178/37/3 179/39/3 180/40/3
f 175/41/4 177/38/4 176/40/4
f 184/40/3 185/42/3 186/43/3
f 181/44/4 183/41/4 182/43/4
f 190/43/3 191/45/3 192/46/3
f 187/47/4 189/44/4 188/46/4
f 196/46/3 197/48/3 198/49/3
f 193/50/4 195/47/4 194/49/4
f 202/49/3 203/51/3 204/52/3
f 199/53/4 201/50/4 200/52/4
f 208/52/3 209/54/3 210/55/3
f 205/56/4 207/53/4 206/55/4
f 214/55/3 215/57/3 216/58/3
f 211/59/4 213/56/4 212/58/4
f 220/58/3 221/60/3 222/61/3
f 217/62/4 219/59/4 218/61/4
f 226/7/3 227/8/3 228/9/3
f 223/10/4 225/11/4 224/9/4
f 232/9/3 233/12/3 234/13/3
f 229/14/4 231/10/4 230/13/4
f 238/13/3 239/15/3 240/16/3
f 235/17/4 237/14/4 236/16/4
f 244/16/3 245/18/3 246/19/3
f 241/20/4 243/17/4 242/19/4
f 250/19/3 251/21/3 252/22/3
f 247/23/4 249/20/4 248/22/4
f 256/22/3 257/24/3 258/25/3
f 253/26/4 255/23/4 254/25/4
f 262/25/3 263/27/3 264/28/3
f 259/29/4 261/26/4 260/28/4
f 268/28/3 269/30/3 270/31/3
f 265/32/4 267/29/4 266/31/4
f 274/31/3 275/33/3 276/34/3
f 271/35/4 273/32/4 272/34/4
f 280/34/3 281/36/3 282/37/3
f 277/38/4 279/35/4 278/37/4
f 286/37/3 287/39/3 288/40/3
f 283/41/4 285/38/4 284/40/4
f 292/40/3 293/42/3 294/43/3
f 289/44/4 291/41/4 290/43/4
f 298/43/3 299/45/3 300/46/3
f 295/47/4 297/44/4 296/46/4
f 304/46/3 305/48/3 306/49/3
f 301/50/4 303/47/4 302/49/4
f 310/49/3 311/51/3 312/52/3
f 307/53/4 309/50/4 308/52/4
f 316/52/3 317/54/3 318/55/3
f 313/56/4 315/53/4 314/55/4
f 322/55/3 323/57/3 324/58/3
f 319/59/4 321/56/4 320/58/4
f 328/58/3 329/60/3 330/61/3
f 325/62/4 327/59/4 326/61/4
f 334/7/3 335/8/3 336/9/3
f 331/10/4 333/11/4 332/9/4
f 340/9/3 341/12/3 342/13/3
f 337/14/4 339/10/4 338/13/4
f 346/13/3 347/15/3 348/16/3
f 343/17/4 345/14/4 344/16/4
f 352/16/3 353/18/3 354/19/3
f 349/20/4 351/17/4 350/19/4
f 358/19/3 359/21/3 360/22/3
f 355/23/4 357/20/4 356/22/4
f 364/22/3 365/24/3 366/25/3
f 361/26/4 363/23/4 362/25/4
f 370/25/3 371/27/3 372/28/3
f 367/29/4 369/26/4 368/28/4
f 376/28/3 377/30/3 378/31/3
f 373/32/4 375/29/4 374/31/4
f 382/31/3 383/33/3 384/34/3
f 379/35/4 381/32/4 380/34/4
o platform_gap_filler_inner_area
v 0.496094 1.000000 0.468750
v -0.496094 1.000000 0.468750
v 0.496094 0.917969 0.468750
v -0.496094 0.917969 0.468750
vn -0.0000 -0.0000 -1.0000
vt -0.000000 0.343750
vt 0.000000 0.179688
vt 0.992188 0.179688
vt 0.992188 0.343750
s 0
usemtl platform_gap_filler#exterior
f 385/63/5 387/64/5 388/65/5 386/66/5
o platform_gap_filler_end_left
v -0.496094 1.000000 0.417969
v -0.496094 0.917969 0.417969
v -0.496094 1.000000 0.500000
v -0.496094 0.917969 0.500000
vn -1.0000 -0.0000 -0.0000
vt 0.914062 0.507812
vt 0.914062 0.343750
vt 0.996094 0.343750
vt 0.996094 0.507812
s 0
usemtl platform_gap_filler_surface#exteriortranslucent
f 389/67/6 390/68/6 392/69/6 391/70/6
o platform_gap_filler_end_right
v 0.496094 1.000000 0.417969
v 0.496094 0.917969 0.417969
v 0.496094 1.000000 0.500000
v 0.496094 0.917969 0.500000
vn 1.0000 -0.0000 -0.0000
vt 0.996094 0.671875
vt 0.996094 0.507812
vt 0.914062 0.507812
vt 0.914062 0.671875
s 0
usemtl platform_gap_filler_surface#exteriortranslucent
f 393/71/7 395/72/7 396/73/7 394/74/7
