# Blender 4.2.2 LTS
# www.blender.org
mtllib 2m.mtl
o platform_gap_filler_main
v 0.488281 1.000000 0.417969
v -0.496094 1.000000 0.417969
v 0.488281 1.000000 0.500000
v -0.496094 1.000000 0.500000
v 0.488281 0.917969 0.417969
v -0.496094 0.917969 0.417969
v 0.511721 1.000000 0.417969
v 0.511721 1.000000 0.500000
v 0.511721 0.917969 0.417969
v 1.496094 1.000000 0.417969
v 1.496094 1.000000 0.500000
v 1.496094 0.917969 0.417969
vn -0.0000 -0.0000 -1.0000
vn -0.0000 1.0000 -0.0000
vt 0.992188 0.835938
vt 0.007812 0.835938
vt 0.007812 1.000000
vt 0.992188 1.000000
vt 0.984375 0.835938
vt 0.000000 0.835938
vt 0.000000 0.671875
vt 0.984375 0.671875
vt 0.015625 0.835938
vt 0.015625 0.671875
vt 0.039062 0.671875
vt 0.039062 0.835938
vt 0.039062 1.000000
vt 0.015625 1.000000
vt 0.007812 0.671875
vt 0.992188 0.671875
vt 0.984375 1.000000
vt 0.000000 1.000000
s 0
usemtl platform_gap_filler_surface#exteriortranslucent
f 2/1/1 1/2/1 5/3/1 6/4/1
f 1/5/2 2/6/2 4/7/2 3/8/2
f 1/9/2 3/10/2 8/11/2 7/12/2
f 5/13/1 1/12/1 7/9/1 9/14/1
f 7/2/2 8/15/2 11/16/2 10/1/2
f 9/17/1 7/5/1 10/6/1 12/18/1
o platform_gap_filler_inner_area
v 0.488281 1.000000 0.468750
v -0.496094 1.000000 0.468750
v 0.488281 0.917969 0.468750
v -0.496094 0.917969 0.468750
v 0.511721 0.917969 0.468750
v 0.511721 1.000000 0.468750
v 1.496094 0.917969 0.468750
v 1.496094 1.000000 0.468750
vn -0.0000 -0.0000 -1.0000
vt 0.007812 0.343750
vt 0.007812 0.179688
vt 0.992188 0.179688
vt 0.992188 0.343750
vt 0.039062 0.179688
vt 0.039062 0.343750
vt 0.015625 0.343750
vt 0.015625 0.179688
vt 0.984375 0.179688
vt 0.984375 0.343750
vt 0.000000 0.343750
vt 0.000000 0.179688
s 0
usemtl platform_gap_filler#exterior
f 13/19/3 15/20/3 16/21/3 14/22/3
f 15/23/3 13/24/3 18/25/3 17/26/3
f 17/27/3 18/28/3 20/29/3 19/30/3
o platform_gap_filler_end_right
v 1.496094 1.000000 0.417969
v 1.496094 0.917969 0.417969
v 1.496094 1.000000 0.500000
v 1.496094 0.917969 0.500000
vn 1.0000 -0.0000 -0.0000
vt 0.996094 0.671875
vt 0.996094 0.507812
vt 0.914062 0.507812
vt 0.914062 0.671875
s 0
usemtl platform_gap_filler_surface#exteriortranslucent
f 21/31/4 23/32/4 24/33/4 22/34/4
o platform_gap_filler_end_left
v -0.496094 1.000000 0.417969
v -0.496094 0.917969 0.417969
v -0.496094 1.000000 0.500000
v -0.496094 0.917969 0.500000
vn -1.0000 -0.0000 -0.0000
vt 0.914062 0.507812
vt 0.914062 0.343750
vt 0.996094 0.343750
vt 0.996094 0.507812
s 0
usemtl platform_gap_filler_surface#exteriortranslucent
f 25/35/5 26/36/5 28/37/5 27/38/5
o platform_gap_filler_branch_polyfill
v -0.488281 1.000000 0.417969
v -0.488281 0.917969 0.417969
v -0.488281 1.000000 0.468750
v -0.480469 1.000000 0.417969
v -0.480469 0.917969 0.417969
v -0.480469 1.000000 0.468750
v -0.472656 1.000000 0.417969
v -0.472656 0.917969 0.417969
v -0.472656 1.000000 0.468750
v -0.464844 1.000000 0.417969
v -0.464844 0.917969 0.417969
v -0.464844 1.000000 0.468750
v -0.457031 1.000000 0.417969
v -0.457031 0.917969 0.417969
v -0.457031 1.000000 0.468750
v -0.449219 1.000000 0.417969
v -0.449219 0.917969 0.417969
v -0.449219 1.000000 0.468750
v -0.441406 1.000000 0.417969
v -0.441406 0.917969 0.417969
v -0.441406 1.000000 0.468750
v -0.433594 1.000000 0.417969
v -0.433594 0.917969 0.417969
v -0.433594 1.000000 0.468750
v -0.425781 1.000000 0.417969
v -0.425781 0.917969 0.417969
v -0.425781 1.000000 0.468750
v -0.417969 1.000000 0.417969
v -0.417969 0.917969 0.417969
v -0.417969 1.000000 0.468750
v -0.410156 1.000000 0.417969
v -0.410156 0.917969 0.417969
v -0.410156 1.000000 0.468750
v -0.402344 1.000000 0.417969
v -0.402344 0.917969 0.417969
v -0.402344 1.000000 0.468750
v -0.394531 1.000000 0.417969
v -0.394531 0.917969 0.417969
v -0.394531 1.000000 0.468750
v -0.386719 1.000000 0.417969
v -0.386719 0.917969 0.417969
v -0.386719 1.000000 0.468750
v -0.378906 1.000000 0.417969
v -0.378906 0.917969 0.417969
v -0.378906 1.000000 0.468750
v -0.371094 1.000000 0.417969
v -0.371094 0.917969 0.417969
v -0.371094 1.000000 0.468750
v -0.363281 1.000000 0.417969
v -0.363281 0.917969 0.417969
v -0.363281 1.000000 0.468750
v -0.355469 1.000000 0.417969
v -0.355469 0.917969 0.417969
v -0.355469 1.000000 0.468750
v -0.347656 1.000000 0.417969
v -0.347656 0.917969 0.417969
v -0.347656 1.000000 0.468750
v -0.339844 1.000000 0.417969
v -0.339844 0.917969 0.417969
v -0.339844 1.000000 0.468750
v -0.332031 1.000000 0.417969
v -0.332031 0.917969 0.417969
v -0.332031 1.000000 0.468750
v -0.324219 1.000000 0.417969
v -0.324219 0.917969 0.417969
v -0.324219 1.000000 0.468750
v -0.316406 1.000000 0.417969
v -0.316406 0.917969 0.417969
v -0.316406 1.000000 0.468750
v -0.308594 1.000000 0.417969
v -0.308594 0.917969 0.417969
v -0.308594 1.000000 0.468750
v -0.300781 1.000000 0.417969
v -0.300781 0.917969 0.417969
v -0.300781 1.000000 0.468750
v -0.292969 1.000000 0.417969
v -0.292969 0.917969 0.417969
v -0.292969 1.000000 0.468750
v -0.285156 1.000000 0.417969
v -0.285156 0.917969 0.417969
v -0.285156 1.000000 0.468750
v -0.277344 1.000000 0.417969
v -0.277344 0.917969 0.417969
v -0.277344 1.000000 0.468750
v -0.269531 1.000000 0.417969
v -0.269531 0.917969 0.417969
v -0.269531 1.000000 0.468750
v -0.261719 1.000000 0.417969
v -0.261719 0.917969 0.417969
v -0.261719 1.000000 0.468750
v -0.253906 1.000000 0.417969
v -0.253906 0.917969 0.417969
v -0.253906 1.000000 0.468750
v -0.246094 1.000000 0.417969
v -0.246094 0.917969 0.417969
v -0.246094 1.000000 0.468750
v -0.238281 1.000000 0.417969
v -0.238281 0.917969 0.417969
v -0.238281 1.000000 0.468750
v -0.230469 1.000000 0.417969
v -0.230469 0.917969 0.417969
v -0.230469 1.000000 0.468750
v -0.222656 1.000000 0.417969
v -0.222656 0.917969 0.417969
v -0.222656 1.000000 0.468750
v -0.214844 1.000000 0.417969
v -0.214844 0.917969 0.417969
v -0.214844 1.000000 0.468750
v -0.207031 1.000000 0.417969
v -0.207031 0.917969 0.417969
v -0.207031 1.000000 0.468750
v -0.199219 1.000000 0.417969
v -0.199219 0.917969 0.417969
v -0.199219 1.000000 0.468750
v -0.191406 1.000000 0.417969
v -0.191406 0.917969 0.417969
v -0.191406 1.000000 0.468750
v -0.183594 1.000000 0.417969
v -0.183594 0.917969 0.417969
v -0.183594 1.000000 0.468750
v -0.175781 1.000000 0.417969
v -0.175781 0.917969 0.417969
v -0.175781 1.000000 0.468750
v -0.167969 1.000000 0.417969
v -0.167969 0.917969 0.417969
v -0.167969 1.000000 0.468750
v -0.160156 1.000000 0.417969
v -0.160156 0.917969 0.417969
v -0.160156 1.000000 0.468750
v -0.152344 1.000000 0.417969
v -0.152344 0.917969 0.417969
v -0.152344 1.000000 0.468750
v -0.144531 1.000000 0.417969
v -0.144531 0.917969 0.417969
v -0.144531 1.000000 0.468750
v -0.136719 1.000000 0.417969
v -0.136719 0.917969 0.417969
v -0.136719 1.000000 0.468750
v -0.128906 1.000000 0.417969
v -0.128906 0.917969 0.417969
v -0.128906 1.000000 0.468750
v -0.121094 1.000000 0.417969
v -0.121094 0.917969 0.417969
v -0.121094 1.000000 0.468750
v -0.113281 1.000000 0.417969
v -0.113281 0.917969 0.417969
v -0.113281 1.000000 0.468750
v -0.105469 1.000000 0.417969
v -0.105469 0.917969 0.417969
v -0.105469 1.000000 0.468750
v -0.097656 1.000000 0.417969
v -0.097656 0.917969 0.417969
v -0.097656 1.000000 0.468750
v -0.089844 1.000000 0.417969
v -0.089844 0.917969 0.417969
v -0.089844 1.000000 0.468750
v -0.082031 1.000000 0.417969
v -0.082031 0.917969 0.417969
v -0.082031 1.000000 0.468750
v -0.074219 1.000000 0.417969
v -0.074219 0.917969 0.417969
v -0.074219 1.000000 0.468750
v -0.066406 1.000000 0.417969
v -0.066406 0.917969 0.417969
v -0.066406 1.000000 0.468750
v -0.058594 1.000000 0.417969
v -0.058594 0.917969 0.417969
v -0.058594 1.000000 0.468750
v -0.050781 1.000000 0.417969
v -0.050781 0.917969 0.417969
v -0.050781 1.000000 0.468750
v -0.042969 1.000000 0.417969
v -0.042969 0.917969 0.417969
v -0.042969 1.000000 0.468750
v -0.035156 1.000000 0.417969
v -0.035156 0.917969 0.417969
v -0.035156 1.000000 0.468750
v -0.027344 1.000000 0.417969
v -0.027344 0.917969 0.417969
v -0.027344 1.000000 0.468750
v -0.019531 1.000000 0.417969
v -0.019531 0.917969 0.417969
v -0.019531 1.000000 0.468750
v -0.011719 1.000000 0.417969
v -0.011719 0.917969 0.417969
v -0.011719 1.000000 0.468750
v -0.003906 1.000000 0.417969
v -0.003906 0.917969 0.417969
v -0.003906 1.000000 0.468750
v 0.003906 1.000000 0.417969
v 0.003906 0.917969 0.417969
v 0.003906 1.000000 0.468750
v 0.011719 1.000000 0.417969
v 0.011719 0.917969 0.417969
v 0.011719 1.000000 0.468750
v 0.019531 1.000000 0.417969
v 0.019531 0.917969 0.417969
v 0.019531 1.000000 0.468750
v 0.027344 1.000000 0.417969
v 0.027344 0.917969 0.417969
v 0.027344 1.000000 0.468750
v 0.035156 1.000000 0.417969
v 0.035156 0.917969 0.417969
v 0.035156 1.000000 0.468750
v 0.042969 1.000000 0.417969
v 0.042969 0.917969 0.417969
v 0.042969 1.000000 0.468750
v 0.050781 1.000000 0.417969
v 0.050781 0.917969 0.417969
v 0.050781 1.000000 0.468750
v 0.058594 1.000000 0.417969
v 0.058594 0.917969 0.417969
v 0.058594 1.000000 0.468750
v 0.066406 1.000000 0.417969
v 0.066406 0.917969 0.417969
v 0.066406 1.000000 0.468750
v 0.074219 1.000000 0.417969
v 0.074219 0.917969 0.417969
v 0.074219 1.000000 0.468750
v 0.082031 1.000000 0.417969
v 0.082031 0.917969 0.417969
v 0.082031 1.000000 0.468750
v 0.089844 1.000000 0.417969
v 0.089844 0.917969 0.417969
v 0.089844 1.000000 0.468750
v 0.097656 1.000000 0.417969
v 0.097656 0.917969 0.417969
v 0.097656 1.000000 0.468750
v 0.105469 1.000000 0.417969
v 0.105469 0.917969 0.417969
v 0.105469 1.000000 0.468750
v 0.113281 1.000000 0.417969
v 0.113281 0.917969 0.417969
v 0.113281 1.000000 0.468750
v 0.121094 1.000000 0.417969
v 0.121094 0.917969 0.417969
v 0.121094 1.000000 0.468750
v 0.128906 1.000000 0.417969
v 0.128906 0.917969 0.417969
v 0.128906 1.000000 0.468750
v 0.136719 1.000000 0.417969
v 0.136719 0.917969 0.417969
v 0.136719 1.000000 0.468750
v 0.144531 1.000000 0.417969
v 0.144531 0.917969 0.417969
v 0.144531 1.000000 0.468750
v 0.152344 1.000000 0.417969
v 0.152344 0.917969 0.417969
v 0.152344 1.000000 0.468750
v 0.160156 1.000000 0.417969
v 0.160156 0.917969 0.417969
v 0.160156 1.000000 0.468750
v 0.167969 1.000000 0.417969
v 0.167969 0.917969 0.417969
v 0.167969 1.000000 0.468750
v 0.175781 1.000000 0.417969
v 0.175781 0.917969 0.417969
v 0.175781 1.000000 0.468750
v 0.183594 1.000000 0.417969
v 0.183594 0.917969 0.417969
v 0.183594 1.000000 0.468750
v 0.191406 1.000000 0.417969
v 0.191406 0.917969 0.417969
v 0.191406 1.000000 0.468750
v 0.199219 1.000000 0.417969
v 0.199219 0.917969 0.417969
v 0.199219 1.000000 0.468750
v 0.207031 1.000000 0.417969
v 0.207031 0.917969 0.417969
v 0.207031 1.000000 0.468750
v 0.214844 1.000000 0.417969
v 0.214844 0.917969 0.417969
v 0.214844 1.000000 0.468750
v 0.222656 1.000000 0.417969
v 0.222656 0.917969 0.417969
v 0.222656 1.000000 0.468750
v 0.230469 1.000000 0.417969
v 0.230469 0.917969 0.417969
v 0.230469 1.000000 0.468750
v 0.238281 1.000000 0.417969
v 0.238281 0.917969 0.417969
v 0.238281 1.000000 0.468750
v 0.246094 1.000000 0.417969
v 0.246094 0.917969 0.417969
v 0.246094 1.000000 0.468750
v 0.253906 1.000000 0.417969
v 0.253906 0.917969 0.417969
v 0.253906 1.000000 0.468750
v 0.261719 1.000000 0.417969
v 0.261719 0.917969 0.417969
v 0.261719 1.000000 0.468750
v 0.269531 1.000000 0.417969
v 0.269531 0.917969 0.417969
v 0.269531 1.000000 0.468750
v 0.277344 1.000000 0.417969
v 0.277344 0.917969 0.417969
v 0.277344 1.000000 0.468750
v 0.285156 1.000000 0.417969
v 0.285156 0.917969 0.417969
v 0.285156 1.000000 0.468750
v 0.292969 1.000000 0.417969
v 0.292969 0.917969 0.417969
v 0.292969 1.000000 0.468750
v 0.300781 1.000000 0.417969
v 0.300781 0.917969 0.417969
v 0.300781 1.000000 0.468750
v 0.308594 1.000000 0.417969
v 0.308594 0.917969 0.417969
v 0.308594 1.000000 0.468750
v 0.316406 1.000000 0.417969
v 0.316406 0.917969 0.417969
v 0.316406 1.000000 0.468750
v 0.324219 1.000000 0.417969
v 0.324219 0.917969 0.417969
v 0.324219 1.000000 0.468750
v 0.332031 1.000000 0.417969
v 0.332031 0.917969 0.417969
v 0.332031 1.000000 0.468750
v 0.339844 1.000000 0.417969
v 0.339844 0.917969 0.417969
v 0.339844 1.000000 0.468750
v 0.347656 1.000000 0.417969
v 0.347656 0.917969 0.417969
v 0.347656 1.000000 0.468750
v 0.355469 1.000000 0.417969
v 0.355469 0.917969 0.417969
v 0.355469 1.000000 0.468750
v 0.363281 1.000000 0.417969
v 0.363281 0.917969 0.417969
v 0.363281 1.000000 0.468750
v 0.371094 1.000000 0.417969
v 0.371094 0.917969 0.417969
v 0.371094 1.000000 0.468750
v 0.378906 1.000000 0.417969
v 0.378906 0.917969 0.417969
v 0.378906 1.000000 0.468750
v 0.386719 1.000000 0.417969
v 0.386719 0.917969 0.417969
v 0.386719 1.000000 0.468750
v 0.394531 1.000000 0.417969
v 0.394531 0.917969 0.417969
v 0.394531 1.000000 0.468750
v 0.402344 1.000000 0.417969
v 0.402344 0.917969 0.417969
v 0.402344 1.000000 0.468750
v 0.410156 1.000000 0.417969
v 0.410156 0.917969 0.417969
v 0.410156 1.000000 0.468750
v 0.417969 1.000000 0.417969
v 0.417969 0.917969 0.417969
v 0.417969 1.000000 0.468750
v 0.425781 1.000000 0.417969
v 0.425781 0.917969 0.417969
v 0.425781 1.000000 0.468750
v 0.433594 1.000000 0.417969
v 0.433594 0.917969 0.417969
v 0.433594 1.000000 0.468750
v 0.441406 1.000000 0.417969
v 0.441406 0.917969 0.417969
v 0.441406 1.000000 0.468750
v 0.449219 1.000000 0.417969
v 0.449219 0.917969 0.417969
v 0.449219 1.000000 0.468750
v 0.457031 1.000000 0.417969
v 0.457031 0.917969 0.417969
v 0.457031 1.000000 0.468750
v 0.464844 1.000000 0.417969
v 0.464844 0.917969 0.417969
v 0.464844 1.000000 0.468750
v 0.472656 1.000000 0.417969
v 0.472656 0.917969 0.417969
v 0.472656 1.000000 0.468750
v 0.480469 1.000000 0.417969
v 0.480469 0.917969 0.417969
v 0.480469 1.000000 0.468750
v 0.488281 1.000000 0.417969
v 0.488281 0.917969 0.417969
v 0.488281 1.000000 0.468750
v 0.496094 1.000000 0.417969
v 0.496094 0.917969 0.417969
v 0.496094 1.000000 0.468750
v 0.503906 1.000000 0.417969
v 0.503906 0.917969 0.417969
v 0.503906 1.000000 0.468750
v 0.511719 1.000000 0.417969
v 0.511719 0.917969 0.417969
v 0.511719 1.000000 0.468750
v 0.519531 1.000000 0.417969
v 0.519531 0.917969 0.417969
v 0.519531 1.000000 0.468750
v 0.527344 1.000000 0.417969
v 0.527344 0.917969 0.417969
v 0.527344 1.000000 0.468750
v 0.535156 1.000000 0.417969
v 0.535156 0.917969 0.417969
v 0.535156 1.000000 0.468750
v 0.542969 1.000000 0.417969
v 0.542969 0.917969 0.417969
v 0.542969 1.000000 0.468750
v 0.550781 1.000000 0.417969
v 0.550781 0.917969 0.417969
v 0.550781 1.000000 0.468750
v 0.558594 1.000000 0.417969
v 0.558594 0.917969 0.417969
v 0.558594 1.000000 0.468750
v 0.566406 1.000000 0.417969
v 0.566406 0.917969 0.417969
v 0.566406 1.000000 0.468750
v 0.574219 1.000000 0.417969
v 0.574219 0.917969 0.417969
v 0.574219 1.000000 0.468750
v 0.582031 1.000000 0.417969
v 0.582031 0.917969 0.417969
v 0.582031 1.000000 0.468750
v 0.589844 1.000000 0.417969
v 0.589844 0.917969 0.417969
v 0.589844 1.000000 0.468750
v 0.597656 1.000000 0.417969
v 0.597656 0.917969 0.417969
v 0.597656 1.000000 0.468750
v 0.605469 1.000000 0.417969
v 0.605469 0.917969 0.417969
v 0.605469 1.000000 0.468750
v 0.613281 1.000000 0.417969
v 0.613281 0.917969 0.417969
v 0.613281 1.000000 0.468750
v 0.621094 1.000000 0.417969
v 0.621094 0.917969 0.417969
v 0.621094 1.000000 0.468750
v 0.628906 1.000000 0.417969
v 0.628906 0.917969 0.417969
v 0.628906 1.000000 0.468750
v 0.636719 1.000000 0.417969
v 0.636719 0.917969 0.417969
v 0.636719 1.000000 0.468750
v 0.644531 1.000000 0.417969
v 0.644531 0.917969 0.417969
v 0.644531 1.000000 0.468750
v 0.652344 1.000000 0.417969
v 0.652344 0.917969 0.417969
v 0.652344 1.000000 0.468750
v 0.660156 1.000000 0.417969
v 0.660156 0.917969 0.417969
v 0.660156 1.000000 0.468750
v 0.667969 1.000000 0.417969
v 0.667969 0.917969 0.417969
v 0.667969 1.000000 0.468750
v 0.675781 1.000000 0.417969
v 0.675781 0.917969 0.417969
v 0.675781 1.000000 0.468750
v 0.683594 1.000000 0.417969
v 0.683594 0.917969 0.417969
v 0.683594 1.000000 0.468750
v 0.691406 1.000000 0.417969
v 0.691406 0.917969 0.417969
v 0.691406 1.000000 0.468750
v 0.699219 1.000000 0.417969
v 0.699219 0.917969 0.417969
v 0.699219 1.000000 0.468750
v 0.707031 1.000000 0.417969
v 0.707031 0.917969 0.417969
v 0.707031 1.000000 0.468750
v 0.714844 1.000000 0.417969
v 0.714844 0.917969 0.417969
v 0.714844 1.000000 0.468750
v 0.722656 1.000000 0.417969
v 0.722656 0.917969 0.417969
v 0.722656 1.000000 0.468750
v 0.730469 1.000000 0.417969
v 0.730469 0.917969 0.417969
v 0.730469 1.000000 0.468750
v 0.738281 1.000000 0.417969
v 0.738281 0.917969 0.417969
v 0.738281 1.000000 0.468750
v 0.746094 1.000000 0.417969
v 0.746094 0.917969 0.417969
v 0.746094 1.000000 0.468750
v 0.753906 1.000000 0.417969
v 0.753906 0.917969 0.417969
v 0.753906 1.000000 0.468750
v 0.761719 1.000000 0.417969
v 0.761719 0.917969 0.417969
v 0.761719 1.000000 0.468750
v 0.769531 1.000000 0.417969
v 0.769531 0.917969 0.417969
v 0.769531 1.000000 0.468750
v 0.777344 1.000000 0.417969
v 0.777344 0.917969 0.417969
v 0.777344 1.000000 0.468750
v 0.785156 1.000000 0.417969
v 0.785156 0.917969 0.417969
v 0.785156 1.000000 0.468750
v 0.792969 1.000000 0.417969
v 0.792969 0.917969 0.417969
v 0.792969 1.000000 0.468750
v 0.800781 1.000000 0.417969
v 0.800781 0.917969 0.417969
v 0.800781 1.000000 0.468750
v 0.808594 1.000000 0.417969
v 0.808594 0.917969 0.417969
v 0.808594 1.000000 0.468750
v 0.816406 1.000000 0.417969
v 0.816406 0.917969 0.417969
v 0.816406 1.000000 0.468750
v 0.824219 1.000000 0.417969
v 0.824219 0.917969 0.417969
v 0.824219 1.000000 0.468750
v 0.832031 1.000000 0.417969
v 0.832031 0.917969 0.417969
v 0.832031 1.000000 0.468750
v 0.839844 1.000000 0.417969
v 0.839844 0.917969 0.417969
v 0.839844 1.000000 0.468750
v 0.847656 1.000000 0.417969
v 0.847656 0.917969 0.417969
v 0.847656 1.000000 0.468750
v 0.855469 1.000000 0.417969
v 0.855469 0.917969 0.417969
v 0.855469 1.000000 0.468750
v 0.863281 1.000000 0.417969
v 0.863281 0.917969 0.417969
v 0.863281 1.000000 0.468750
v 0.871094 1.000000 0.417969
v 0.871094 0.917969 0.417969
v 0.871094 1.000000 0.468750
v 0.878906 1.000000 0.417969
v 0.878906 0.917969 0.417969
v 0.878906 1.000000 0.468750
v 0.886719 1.000000 0.417969
v 0.886719 0.917969 0.417969
v 0.886719 1.000000 0.468750
v 0.894531 1.000000 0.417969
v 0.894531 0.917969 0.417969
v 0.894531 1.000000 0.468750
v 0.902344 1.000000 0.417969
v 0.902344 0.917969 0.417969
v 0.902344 1.000000 0.468750
v 0.910156 1.000000 0.417969
v 0.910156 0.917969 0.417969
v 0.910156 1.000000 0.468750
v 0.917969 1.000000 0.417969
v 0.917969 0.917969 0.417969
v 0.917969 1.000000 0.468750
v 0.925781 1.000000 0.417969
v 0.925781 0.917969 0.417969
v 0.925781 1.000000 0.468750
v 0.933594 1.000000 0.417969
v 0.933594 0.917969 0.417969
v 0.933594 1.000000 0.468750
v 0.941406 1.000000 0.417969
v 0.941406 0.917969 0.417969
v 0.941406 1.000000 0.468750
v 0.949219 1.000000 0.417969
v 0.949219 0.917969 0.417969
v 0.949219 1.000000 0.468750
v 0.957031 1.000000 0.417969
v 0.957031 0.917969 0.417969
v 0.957031 1.000000 0.468750
v 0.964844 1.000000 0.417969
v 0.964844 0.917969 0.417969
v 0.964844 1.000000 0.468750
v 0.972656 1.000000 0.417969
v 0.972656 0.917969 0.417969
v 0.972656 1.000000 0.468750
v 0.980469 1.000000 0.417969
v 0.980469 0.917969 0.417969
v 0.980469 1.000000 0.468750
v 0.988281 1.000000 0.417969
v 0.988281 0.917969 0.417969
v 0.988281 1.000000 0.468750
v 0.996094 1.000000 0.417969
v 0.996094 0.917969 0.417969
v 0.996094 1.000000 0.468750
v 1.003906 1.000000 0.417969
v 1.003906 0.917969 0.417969
v 1.003906 1.000000 0.468750
v 1.011719 1.000000 0.417969
v 1.011719 0.917969 0.417969
v 1.011719 1.000000 0.468750
v 1.019531 1.000000 0.417969
v 1.019531 0.917969 0.417969
v 1.019531 1.000000 0.468750
v 1.027344 1.000000 0.417969
v 1.027344 0.917969 0.417969
v 1.027344 1.000000 0.468750
v 1.035156 1.000000 0.417969
v 1.035156 0.917969 0.417969
v 1.035156 1.000000 0.468750
v 1.042969 1.000000 0.417969
v 1.042969 0.917969 0.417969
v 1.042969 1.000000 0.468750
v 1.050781 1.000000 0.417969
v 1.050781 0.917969 0.417969
v 1.050781 1.000000 0.468750
v 1.058594 1.000000 0.417969
v 1.058594 0.917969 0.417969
v 1.058594 1.000000 0.468750
v 1.066406 1.000000 0.417969
v 1.066406 0.917969 0.417969
v 1.066406 1.000000 0.468750
v 1.074219 1.000000 0.417969
v 1.074219 0.917969 0.417969
v 1.074219 1.000000 0.468750
v 1.082031 1.000000 0.417969
v 1.082031 0.917969 0.417969
v 1.082031 1.000000 0.468750
v 1.089844 1.000000 0.417969
v 1.089844 0.917969 0.417969
v 1.089844 1.000000 0.468750
v 1.097656 1.000000 0.417969
v 1.097656 0.917969 0.417969
v 1.097656 1.000000 0.468750
v 1.105469 1.000000 0.417969
v 1.105469 0.917969 0.417969
v 1.105469 1.000000 0.468750
v 1.113281 1.000000 0.417969
v 1.113281 0.917969 0.417969
v 1.113281 1.000000 0.468750
v 1.121094 1.000000 0.417969
v 1.121094 0.917969 0.417969
v 1.121094 1.000000 0.468750
v 1.128906 1.000000 0.417969
v 1.128906 0.917969 0.417969
v 1.128906 1.000000 0.468750
v 1.136719 1.000000 0.417969
v 1.136719 0.917969 0.417969
v 1.136719 1.000000 0.468750
v 1.144531 1.000000 0.417969
v 1.144531 0.917969 0.417969
v 1.144531 1.000000 0.468750
v 1.152344 1.000000 0.417969
v 1.152344 0.917969 0.417969
v 1.152344 1.000000 0.468750
v 1.160156 1.000000 0.417969
v 1.160156 0.917969 0.417969
v 1.160156 1.000000 0.468750
v 1.167969 1.000000 0.417969
v 1.167969 0.917969 0.417969
v 1.167969 1.000000 0.468750
v 1.175781 1.000000 0.417969
v 1.175781 0.917969 0.417969
v 1.175781 1.000000 0.468750
v 1.183594 1.000000 0.417969
v 1.183594 0.917969 0.417969
v 1.183594 1.000000 0.468750
v 1.191406 1.000000 0.417969
v 1.191406 0.917969 0.417969
v 1.191406 1.000000 0.468750
v 1.199219 1.000000 0.417969
v 1.199219 0.917969 0.417969
v 1.199219 1.000000 0.468750
v 1.207031 1.000000 0.417969
v 1.207031 0.917969 0.417969
v 1.207031 1.000000 0.468750
v 1.214844 1.000000 0.417969
v 1.214844 0.917969 0.417969
v 1.214844 1.000000 0.468750
v 1.222656 1.000000 0.417969
v 1.222656 0.917969 0.417969
v 1.222656 1.000000 0.468750
v 1.230469 1.000000 0.417969
v 1.230469 0.917969 0.417969
v 1.230469 1.000000 0.468750
v 1.238281 1.000000 0.417969
v 1.238281 0.917969 0.417969
v 1.238281 1.000000 0.468750
v 1.246094 1.000000 0.417969
v 1.246094 0.917969 0.417969
v 1.246094 1.000000 0.468750
v 1.253906 1.000000 0.417969
v 1.253906 0.917969 0.417969
v 1.253906 1.000000 0.468750
v 1.261719 1.000000 0.417969
v 1.261719 0.917969 0.417969
v 1.261719 1.000000 0.468750
v 1.269531 1.000000 0.417969
v 1.269531 0.917969 0.417969
v 1.269531 1.000000 0.468750
v 1.277344 1.000000 0.417969
v 1.277344 0.917969 0.417969
v 1.277344 1.000000 0.468750
v 1.285156 1.000000 0.417969
v 1.285156 0.917969 0.417969
v 1.285156 1.000000 0.468750
v 1.292969 1.000000 0.417969
v 1.292969 0.917969 0.417969
v 1.292969 1.000000 0.468750
v 1.300781 1.000000 0.417969
v 1.300781 0.917969 0.417969
v 1.300781 1.000000 0.468750
v 1.308594 1.000000 0.417969
v 1.308594 0.917969 0.417969
v 1.308594 1.000000 0.468750
v 1.316406 1.000000 0.417969
v 1.316406 0.917969 0.417969
v 1.316406 1.000000 0.468750
v 1.324219 1.000000 0.417969
v 1.324219 0.917969 0.417969
v 1.324219 1.000000 0.468750
v 1.332031 1.000000 0.417969
v 1.332031 0.917969 0.417969
v 1.332031 1.000000 0.468750
v 1.339844 1.000000 0.417969
v 1.339844 0.917969 0.417969
v 1.339844 1.000000 0.468750
v 1.347656 1.000000 0.417969
v 1.347656 0.917969 0.417969
v 1.347656 1.000000 0.468750
v 1.355469 1.000000 0.417969
v 1.355469 0.917969 0.417969
v 1.355469 1.000000 0.468750
v 1.363281 1.000000 0.417969
v 1.363281 0.917969 0.417969
v 1.363281 1.000000 0.468750
v 1.371094 1.000000 0.417969
v 1.371094 0.917969 0.417969
v 1.371094 1.000000 0.468750
v 1.378906 1.000000 0.417969
v 1.378906 0.917969 0.417969
v 1.378906 1.000000 0.468750
v 1.386719 1.000000 0.417969
v 1.386719 0.917969 0.417969
v 1.386719 1.000000 0.468750
v 1.394531 1.000000 0.417969
v 1.394531 0.917969 0.417969
v 1.394531 1.000000 0.468750
v 1.402344 1.000000 0.417969
v 1.402344 0.917969 0.417969
v 1.402344 1.000000 0.468750
v 1.410156 1.000000 0.417969
v 1.410156 0.917969 0.417969
v 1.410156 1.000000 0.468750
v 1.417969 1.000000 0.417969
v 1.417969 0.917969 0.417969
v 1.417969 1.000000 0.468750
v 1.425781 1.000000 0.417969
v 1.425781 0.917969 0.417969
v 1.425781 1.000000 0.468750
v 1.433594 1.000000 0.417969
v 1.433594 0.917969 0.417969
v 1.433594 1.000000 0.468750
v 1.441406 1.000000 0.417969
v 1.441406 0.917969 0.417969
v 1.441406 1.000000 0.468750
v 1.449219 1.000000 0.417969
v 1.449219 0.917969 0.417969
v 1.449219 1.000000 0.468750
v 1.457031 1.000000 0.417969
v 1.457031 0.917969 0.417969
v 1.457031 1.000000 0.468750
v 1.464844 1.000000 0.417969
v 1.464844 0.917969 0.417969
v 1.464844 1.000000 0.468750
v 1.472656 1.000000 0.417969
v 1.472656 0.917969 0.417969
v 1.472656 1.000000 0.468750
v 1.480469 1.000000 0.417969
v 1.480469 0.917969 0.417969
v 1.480469 1.000000 0.468750
v 1.488281 1.000000 0.417969
v 1.488281 0.917969 0.417969
v 1.488281 1.000000 0.468750
vn -1.0000 -0.0000 -0.0000
vn 1.0000 -0.0000 -0.0000
vt 0.609375 0.507812
vt 0.609375 0.343750
vt 0.660156 0.507812
vt 0.558594 0.671875
vt 0.507812 0.671875
vt 0.558594 0.507812
vt 0.710938 0.507812
vt 0.710938 0.343750
vt 0.761719 0.507812
vt 0.101562 0.671875
vt 0.050781 0.671875
vt 0.101562 0.507812
vt 0.457031 0.507812
vt 0.457031 0.343750
vt 0.507812 0.507812
vt 0.152344 0.507812
vt 0.152344 0.343750
vt 0.203125 0.507812
vt 0.406250 0.507812
vt 0.406250 0.343750
vt 0.253906 0.671875
vt 0.203125 0.671875
vt 0.253906 0.507812
vt 0.253906 0.343750
vt 0.304688 0.507812
vt 0.355469 0.671875
vt 0.304688 0.671875
vt 0.355469 0.507812
vt 0.304688 0.343750
vt 0.609375 0.671875
vt 0.355469 0.343750
vt 0.406250 0.671875
vt 0.558594 0.343750
vt 0.507812 0.343750
vt 0.660156 0.671875
vt 0.761719 0.671875
vt 0.710938 0.671875
vt 0.812500 0.671875
vt 0.812500 0.507812
vt 0.812500 0.343750
vt 0.863281 0.507812
vt 0.863281 0.671875
vt 0.863281 0.343750
vt 0.914062 0.507812
vt 0.914062 0.671875
vt 0.203125 0.343750
vt -0.000000 0.671875
vt 0.050781 0.507812
vt 0.000000 0.507812
vt 0.000000 0.343750
vt 0.152344 0.671875
vt 0.457031 0.671875
vt 0.660156 0.343750
vt 0.761719 0.343750
vt 0.050781 0.343750
vt 0.101562 0.343750
s 0
usemtl platform_gap_filler_surface#exteriortranslucent
f 32/39/6 33/40/6 34/41/6
f 29/42/7 31/43/7 30/44/7
f 38/45/6 39/46/6 40/47/6
f 35/48/7 37/49/7 36/50/7
f 44/51/6 45/52/6 46/53/6
f 41/42/7 43/43/7 42/44/7
f 50/54/6 51/55/6 52/56/6
f 47/48/7 49/49/7 48/50/7
f 56/57/6 57/58/6 58/51/6
f 53/59/7 55/60/7 54/61/7
f 62/61/6 63/62/6 64/63/6
f 59/64/7 61/65/7 60/66/7
f 68/63/6 69/67/6 70/66/6
f 65/68/7 67/42/7 66/39/7
f 74/66/6 75/69/6 76/57/6
f 71/70/7 73/64/7 72/57/7
f 80/54/6 81/55/6 82/56/6
f 77/65/7 79/59/7 78/63/7
f 86/44/6 87/71/6 88/39/6
f 83/65/7 85/59/7 84/63/7
f 92/53/6 93/72/6 94/44/6
f 89/42/7 91/43/7 90/44/7
f 98/44/6 99/71/6 100/39/6
f 95/68/7 97/42/7 96/39/7
f 104/39/6 105/40/6 106/41/6
f 101/73/7 103/68/7 102/41/7
f 110/51/6 111/52/6 112/53/6
f 107/65/7 109/59/7 108/63/7
f 116/45/6 117/46/6 118/47/6
f 113/74/7 115/75/7 114/47/7
f 122/44/6 123/71/6 124/39/6
f 119/76/7 121/74/7 120/77/7
f 128/77/6 129/78/6 130/79/6
f 125/80/7 127/76/7 126/79/7
f 134/79/6 135/81/6 136/82/6
f 131/83/7 133/80/7 132/82/7
f 140/56/6 141/84/6 142/61/6
f 137/49/7 139/85/7 138/86/7
f 146/87/6 147/88/6 148/86/6
f 143/48/7 145/49/7 144/50/7
f 152/57/6 153/58/6 154/51/6
f 149/75/7 151/73/7 150/45/7
f 158/54/6 159/55/6 160/56/6
f 155/60/7 157/89/7 156/56/7
f 164/56/6 165/84/6 166/61/6
f 161/59/7 163/60/7 162/61/7
f 170/61/6 171/62/6 172/63/6
f 167/65/7 169/59/7 168/63/7
f 176/63/6 177/67/6 178/66/6
f 173/89/7 175/48/7 174/54/7
f 182/66/6 183/69/6 184/57/6
f 179/70/7 181/64/7 180/57/7
f 188/57/6 189/58/6 190/51/6
f 185/43/7 187/90/7 186/53/7
f 194/51/6 195/52/6 196/53/6
f 191/75/7 193/73/7 192/45/7
f 200/53/6 201/72/6 202/44/6
f 197/42/7 199/43/7 198/44/7
f 206/44/6 207/71/6 208/39/6
f 203/68/7 205/42/7 204/39/7
f 212/39/6 213/40/6 214/41/6
f 209/73/7 211/68/7 210/41/7
f 218/41/6 219/91/6 220/45/6
f 215/70/7 217/64/7 216/57/7
f 224/45/6 225/46/6 226/47/6
f 221/74/7 223/75/7 222/47/7
f 230/47/6 231/92/6 232/77/6
f 227/76/7 229/74/7 228/77/7
f 236/77/6 237/78/6 238/79/6
f 233/80/7 235/76/7 234/79/7
f 242/79/6 243/81/6 244/82/6
f 239/83/7 241/80/7 240/82/7
f 248/87/6 249/88/6 250/86/6
f 245/49/7 247/85/7 246/86/7
f 254/86/6 255/93/6 256/50/6
f 251/48/7 253/49/7 252/50/7
f 260/50/6 261/94/6 262/54/6
f 257/89/7 259/48/7 258/54/7
f 266/54/6 267/55/6 268/56/6
f 263/60/7 265/89/7 264/56/7
f 272/56/6 273/84/6 274/61/6
f 269/59/7 271/60/7 270/61/7
f 278/61/6 279/62/6 280/63/6
f 275/65/7 277/59/7 276/63/7
f 284/63/6 285/67/6 286/66/6
f 281/64/7 283/65/7 282/66/7
f 290/66/6 291/69/6 292/57/6
f 287/70/7 289/64/7 288/57/7
f 296/57/6 297/58/6 298/51/6
f 293/90/7 295/70/7 294/51/7
f 302/51/6 303/52/6 304/53/6
f 299/43/7 301/90/7 300/53/7
f 308/53/6 309/72/6 310/44/6
f 305/42/7 307/43/7 306/44/7
f 314/44/6 315/71/6 316/39/6
f 311/68/7 313/42/7 312/39/7
f 320/39/6 321/40/6 322/41/6
f 317/73/7 319/68/7 318/41/7
f 326/41/6 327/91/6 328/45/6
f 323/74/7 325/75/7 324/47/7
f 332/45/6 333/46/6 334/47/6
f 329/74/7 331/75/7 330/47/7
f 338/47/6 339/92/6 340/77/6
f 335/76/7 337/74/7 336/77/7
f 344/77/6 345/78/6 346/79/6
f 341/80/7 343/76/7 342/79/7
f 350/79/6 351/81/6 352/82/6
f 347/83/7 349/80/7 348/82/7
f 356/87/6 357/88/6 358/86/6
f 353/49/7 355/85/7 354/86/7
f 362/86/6 363/93/6 364/50/6
f 359/48/7 361/49/7 360/50/7
f 368/50/6 369/94/6 370/54/6
f 365/89/7 367/48/7 366/54/7
f 374/54/6 375/55/6 376/56/6
f 371/60/7 373/89/7 372/56/7
f 380/56/6 381/84/6 382/61/6
f 377/59/7 379/60/7 378/61/7
f 386/61/6 387/62/6 388/63/6
f 383/65/7 385/59/7 384/63/7
f 392/63/6 393/67/6 394/66/6
f 389/64/7 391/65/7 390/66/7
f 398/66/6 399/69/6 400/57/6
f 395/70/7 397/64/7 396/57/7
f 404/57/6 405/58/6 406/51/6
f 401/90/7 403/70/7 402/51/7
f 410/87/6 411/88/6 412/86/6
f 407/49/7 409/85/7 408/86/7
f 416/86/6 417/93/6 418/50/6
f 413/48/7 415/49/7 414/50/7
f 422/50/6 423/94/6 424/54/6
f 419/89/7 421/48/7 420/54/7
f 428/54/6 429/55/6 430/56/6
f 425/60/7 427/89/7 426/56/7
f 434/56/6 435/84/6 436/61/6
f 431/59/7 433/60/7 432/61/7
f 440/61/6 441/62/6 442/63/6
f 437/65/7 439/59/7 438/63/7
f 446/63/6 447/67/6 448/66/6
f 443/64/7 445/65/7 444/66/7
f 452/66/6 453/69/6 454/57/6
f 449/70/7 451/64/7 450/57/7
f 458/57/6 459/58/6 460/51/6
f 455/90/7 457/70/7 456/51/7
f 464/51/6 465/52/6 466/53/6
f 461/43/7 463/90/7 462/53/7
f 470/53/6 471/72/6 472/44/6
f 467/42/7 469/43/7 468/44/7
f 476/44/6 477/71/6 478/39/6
f 473/68/7 475/42/7 474/39/7
f 482/39/6 483/40/6 484/41/6
f 479/73/7 481/68/7 480/41/7
f 488/41/6 489/91/6 490/45/6
f 485/90/7 487/70/7 486/51/7
f 494/45/6 495/46/6 496/47/6
f 491/74/7 493/75/7 492/47/7
f 500/47/6 501/92/6 502/77/6
f 497/76/7 499/74/7 498/77/7
f 506/77/6 507/78/6 508/79/6
f 503/80/7 505/76/7 504/79/7
f 512/79/6 513/81/6 514/82/6
f 509/83/7 511/80/7 510/82/7
f 518/87/6 519/88/6 520/86/6
f 515/49/7 517/85/7 516/86/7
f 524/86/6 525/93/6 526/50/6
f 521/48/7 523/49/7 522/50/7
f 530/50/6 531/94/6 532/54/6
f 527/89/7 529/48/7 528/54/7
f 536/54/6 537/55/6 538/56/6
f 533/60/7 535/89/7 534/56/7
f 542/56/6 543/84/6 544/61/6
f 539/59/7 541/60/7 540/61/7
f 548/61/6 549/62/6 550/63/6
f 545/65/7 547/59/7 546/63/7
f 554/63/6 555/67/6 556/66/6
f 551/64/7 553/65/7 552/66/7
f 560/66/6 561/69/6 562/57/6
f 557/70/7 559/64/7 558/57/7
f 566/57/6 567/58/6 568/51/6
f 563/90/7 565/70/7 564/51/7
f 572/51/6 573/52/6 574/53/6
f 569/43/7 571/90/7 570/53/7
f 578/53/6 579/72/6 580/44/6
f 575/42/7 577/43/7 576/44/7
f 584/44/6 585/71/6 586/39/6
f 581/68/7 583/42/7 582/39/7
f 590/39/6 591/40/6 592/41/6
f 587/73/7 589/68/7 588/41/7
f 596/41/6 597/91/6 598/45/6
f 593/75/7 595/73/7 594/45/7
f 602/45/6 603/46/6 604/47/6
f 599/74/7 601/75/7 600/47/7
f 608/47/6 609/92/6 610/77/6
f 605/76/7 607/74/7 606/77/7
f 614/77/6 615/78/6 616/79/6
f 611/80/7 613/76/7 612/79/7
f 620/79/6 621/81/6 622/82/6
f 617/83/7 619/80/7 618/82/7
f 626/87/6 627/88/6 628/86/6
f 623/49/7 625/85/7 624/86/7
f 632/86/6 633/93/6 634/50/6
f 629/48/7 631/49/7 630/50/7
f 638/50/6 639/94/6 640/54/6
f 635/89/7 637/48/7 636/54/7
f 644/54/6 645/55/6 646/56/6
f 641/60/7 643/89/7 642/56/7
f 650/56/6 651/84/6 652/61/6
f 647/59/7 649/60/7 648/61/7
f 656/61/6 657/62/6 658/63/6
f 653/65/7 655/59/7 654/63/7
f 662/63/6 663/67/6 664/66/6
f 659/64/7 661/65/7 660/66/7
f 668/66/6 669/69/6 670/57/6
f 665/70/7 667/64/7 666/57/7
f 674/57/6 675/58/6 676/51/6
f 671/90/7 673/70/7 672/51/7
f 680/51/6 681/52/6 682/53/6
f 677/43/7 679/90/7 678/53/7
f 686/53/6 687/72/6 688/44/6
f 683/42/7 685/43/7 684/44/7
f 692/44/6 693/71/6 694/39/6
f 689/68/7 691/42/7 690/39/7
f 698/39/6 699/40/6 700/41/6
f 695/73/7 697/68/7 696/41/7
f 704/41/6 705/91/6 706/45/6
f 701/75/7 703/73/7 702/45/7
f 710/45/6 711/46/6 712/47/6
f 707/74/7 709/75/7 708/47/7
f 716/47/6 717/92/6 718/77/6
f 713/76/7 715/74/7 714/77/7
f 722/77/6 723/78/6 724/79/6
f 719/80/7 721/76/7 720/79/7
f 728/79/6 729/81/6 730/82/6
f 725/83/7 727/80/7 726/82/7
f 734/87/6 735/88/6 736/86/6
f 731/49/7 733/85/7 732/86/7
f 740/86/6 741/93/6 742/50/6
f 737/48/7 739/49/7 738/50/7
f 746/50/6 747/94/6 748/54/6
f 743/89/7 745/48/7 744/54/7
f 752/54/6 753/55/6 754/56/6
f 749/60/7 751/89/7 750/56/7
f 758/56/6 759/84/6 760/61/6
f 755/59/7 757/60/7 756/61/7
f 764/61/6 765/62/6 766/63/6
f 761/65/7 763/59/7 762/63/7
f 770/63/6 771/67/6 772/66/6
f 767/64/7 769/65/7 768/66/7
f 776/66/6 777/69/6 778/57/6
f 773/70/7 775/64/7 774/57/7
f 782/57/6 783/58/6 784/51/6
f 779/90/7 781/70/7 780/51/7
f 788/57/6 789/58/6 790/51/6
f 785/90/7 787/70/7 786/51/7
