# Blender 4.2.2 LTS
# www.blender.org
mtllib 3m.mtl
o platform_gap_filler_main
v 0.488281 1.000000 0.417969
v -0.496094 1.000000 0.417969
v 0.488281 1.000000 0.500000
v -0.496094 1.000000 0.500000
v 0.488281 0.917969 0.417969
v -0.496094 0.917969 0.417969
v 1.511721 1.000000 0.417969
v 1.511721 1.000000 0.500000
v 1.511721 0.917969 0.417969
v 2.496094 1.000000 0.417969
v 2.496094 1.000000 0.500000
v 2.496094 0.917969 0.417969
v 0.550781 1.000000 0.417969
v 0.550781 1.000000 0.500000
v 0.550781 0.917969 0.417969
vn -0.0000 -0.0000 -1.0000
vn -0.0000 1.0000 -0.0000
vt 0.992188 0.835938
vt 0.007812 0.835938
vt 0.007812 1.000000
vt 0.992188 1.000000
vt 0.984375 0.835938
vt 0.000000 0.835938
vt 0.000000 0.671875
vt 0.984375 0.671875
vt 0.007812 0.671875
vt 0.992188 0.671875
vt 0.984375 1.000000
vt 0.000000 1.000000
vt 0.015625 0.835938
vt 0.015625 0.671875
vt 0.078125 0.671875
vt 0.078125 0.835938
vt 0.070312 1.000000
vt 0.070312 0.835938
vt 0.976562 1.000000
vt 0.015625 1.000000
vt 0.976562 0.835938
vt 0.976562 0.671875
s 0
usemtl platform_gap_filler_surface#exteriortranslucent
f 2/1/1 1/2/1 5/3/1 6/4/1
f 1/5/2 2/6/2 4/7/2 3/8/2
f 7/2/2 8/9/2 11/10/2 10/1/2
f 9/11/1 7/5/1 10/6/1 12/12/1
f 1/13/2 3/14/2 14/15/2 13/16/2
f 5/17/1 1/18/1 13/2/1 15/3/1
f 9/19/1 15/20/1 13/13/1 7/21/1
f 7/21/2 13/13/2 14/14/2 8/22/2
o platform_gap_filler_inner_area
v 0.488281 1.000000 0.468750
v -0.496094 1.000000 0.468750
v 0.488281 0.917969 0.468750
v -0.496094 0.917969 0.468750
v 1.511721 0.917969 0.468750
v 1.511721 1.000000 0.468750
v 2.496094 0.917969 0.468750
v 2.496094 1.000000 0.468750
v 0.550781 1.000000 0.468750
v 0.550781 0.917969 0.468750
vn -0.0000 -0.0000 -1.0000
vt 0.007812 0.343750
vt 0.007812 0.179688
vt 0.992188 0.179688
vt 0.992188 0.343750
vt 0.984375 0.179688
vt 0.984375 0.343750
vt 0.000000 0.343750
vt 0.000000 0.179688
vt 0.070312 0.179688
vt 0.070312 0.343750
vt 0.015625 0.179688
vt 0.015625 0.343750
s 0
usemtl platform_gap_filler#exterior
f 16/23/3 18/24/3 19/25/3 17/26/3
f 20/27/3 21/28/3 23/29/3 22/30/3
f 18/31/3 16/32/3 24/23/3 25/24/3
f 21/28/3 20/27/3 25/33/3 24/34/3
o platform_gap_filler_end_right
v 2.496094 1.000000 0.417969
v 2.496094 0.917969 0.417969
v 2.496094 1.000000 0.500000
v 2.496094 0.917969 0.500000
vn 1.0000 -0.0000 -0.0000
vt 0.996094 0.671875
vt 0.996094 0.507812
vt 0.914062 0.507812
vt 0.914062 0.671875
s 0
usemtl platform_gap_filler_surface#exteriortranslucent
f 26/35/4 28/36/4 29/37/4 27/38/4
o platform_gap_filler_end_left
v -0.496094 1.000000 0.417969
v -0.496094 0.917969 0.417969
v -0.496094 1.000000 0.500000
v -0.496094 0.917969 0.500000
vn -1.0000 -0.0000 -0.0000
vt 0.914062 0.507812
vt 0.914062 0.343750
vt 0.996094 0.343750
vt 0.996094 0.507812
s 0
usemtl platform_gap_filler_surface#exteriortranslucent
f 30/39/5 31/40/5 33/41/5 32/42/5
o platform_gap_filler_branch_polyfill
v -0.488281 1.000000 0.417969
v -0.488281 0.917969 0.417969
v -0.488281 1.000000 0.468750
v -0.480469 1.000000 0.417969
v -0.480469 0.917969 0.417969
v -0.480469 1.000000 0.468750
v -0.472656 1.000000 0.417969
v -0.472656 0.917969 0.417969
v -0.472656 1.000000 0.468750
v -0.464844 1.000000 0.417969
v -0.464844 0.917969 0.417969
v -0.464844 1.000000 0.468750
v -0.457031 1.000000 0.417969
v -0.457031 0.917969 0.417969
v -0.457031 1.000000 0.468750
v -0.449219 1.000000 0.417969
v -0.449219 0.917969 0.417969
v -0.449219 1.000000 0.468750
v -0.441406 1.000000 0.417969
v -0.441406 0.917969 0.417969
v -0.441406 1.000000 0.468750
v -0.433594 1.000000 0.417969
v -0.433594 0.917969 0.417969
v -0.433594 1.000000 0.468750
v -0.425781 1.000000 0.417969
v -0.425781 0.917969 0.417969
v -0.425781 1.000000 0.468750
v -0.417969 1.000000 0.417969
v -0.417969 0.917969 0.417969
v -0.417969 1.000000 0.468750
v -0.410156 1.000000 0.417969
v -0.410156 0.917969 0.417969
v -0.410156 1.000000 0.468750
v -0.402344 1.000000 0.417969
v -0.402344 0.917969 0.417969
v -0.402344 1.000000 0.468750
v -0.394531 1.000000 0.417969
v -0.394531 0.917969 0.417969
v -0.394531 1.000000 0.468750
v -0.386719 1.000000 0.417969
v -0.386719 0.917969 0.417969
v -0.386719 1.000000 0.468750
v -0.378906 1.000000 0.417969
v -0.378906 0.917969 0.417969
v -0.378906 1.000000 0.468750
v -0.371094 1.000000 0.417969
v -0.371094 0.917969 0.417969
v -0.371094 1.000000 0.468750
v -0.363281 1.000000 0.417969
v -0.363281 0.917969 0.417969
v -0.363281 1.000000 0.468750
v -0.355469 1.000000 0.417969
v -0.355469 0.917969 0.417969
v -0.355469 1.000000 0.468750
v -0.347656 1.000000 0.417969
v -0.347656 0.917969 0.417969
v -0.347656 1.000000 0.468750
v -0.339844 1.000000 0.417969
v -0.339844 0.917969 0.417969
v -0.339844 1.000000 0.468750
v -0.332031 1.000000 0.417969
v -0.332031 0.917969 0.417969
v -0.332031 1.000000 0.468750
v -0.324219 1.000000 0.417969
v -0.324219 0.917969 0.417969
v -0.324219 1.000000 0.468750
v -0.316406 1.000000 0.417969
v -0.316406 0.917969 0.417969
v -0.316406 1.000000 0.468750
v -0.308594 1.000000 0.417969
v -0.308594 0.917969 0.417969
v -0.308594 1.000000 0.468750
v -0.300781 1.000000 0.417969
v -0.300781 0.917969 0.417969
v -0.300781 1.000000 0.468750
v -0.292969 1.000000 0.417969
v -0.292969 0.917969 0.417969
v -0.292969 1.000000 0.468750
v -0.285156 1.000000 0.417969
v -0.285156 0.917969 0.417969
v -0.285156 1.000000 0.468750
v -0.277344 1.000000 0.417969
v -0.277344 0.917969 0.417969
v -0.277344 1.000000 0.468750
v -0.269531 1.000000 0.417969
v -0.269531 0.917969 0.417969
v -0.269531 1.000000 0.468750
v -0.261719 1.000000 0.417969
v -0.261719 0.917969 0.417969
v -0.261719 1.000000 0.468750
v -0.253906 1.000000 0.417969
v -0.253906 0.917969 0.417969
v -0.253906 1.000000 0.468750
v -0.246094 1.000000 0.417969
v -0.246094 0.917969 0.417969
v -0.246094 1.000000 0.468750
v -0.238281 1.000000 0.417969
v -0.238281 0.917969 0.417969
v -0.238281 1.000000 0.468750
v -0.230469 1.000000 0.417969
v -0.230469 0.917969 0.417969
v -0.230469 1.000000 0.468750
v -0.222656 1.000000 0.417969
v -0.222656 0.917969 0.417969
v -0.222656 1.000000 0.468750
v -0.214844 1.000000 0.417969
v -0.214844 0.917969 0.417969
v -0.214844 1.000000 0.468750
v -0.207031 1.000000 0.417969
v -0.207031 0.917969 0.417969
v -0.207031 1.000000 0.468750
v -0.199219 1.000000 0.417969
v -0.199219 0.917969 0.417969
v -0.199219 1.000000 0.468750
v -0.191406 1.000000 0.417969
v -0.191406 0.917969 0.417969
v -0.191406 1.000000 0.468750
v -0.183594 1.000000 0.417969
v -0.183594 0.917969 0.417969
v -0.183594 1.000000 0.468750
v -0.175781 1.000000 0.417969
v -0.175781 0.917969 0.417969
v -0.175781 1.000000 0.468750
v -0.167969 1.000000 0.417969
v -0.167969 0.917969 0.417969
v -0.167969 1.000000 0.468750
v -0.160156 1.000000 0.417969
v -0.160156 0.917969 0.417969
v -0.160156 1.000000 0.468750
v -0.152344 1.000000 0.417969
v -0.152344 0.917969 0.417969
v -0.152344 1.000000 0.468750
v -0.144531 1.000000 0.417969
v -0.144531 0.917969 0.417969
v -0.144531 1.000000 0.468750
v -0.136719 1.000000 0.417969
v -0.136719 0.917969 0.417969
v -0.136719 1.000000 0.468750
v -0.128906 1.000000 0.417969
v -0.128906 0.917969 0.417969
v -0.128906 1.000000 0.468750
v -0.121094 1.000000 0.417969
v -0.121094 0.917969 0.417969
v -0.121094 1.000000 0.468750
v -0.113281 1.000000 0.417969
v -0.113281 0.917969 0.417969
v -0.113281 1.000000 0.468750
v -0.105469 1.000000 0.417969
v -0.105469 0.917969 0.417969
v -0.105469 1.000000 0.468750
v -0.097656 1.000000 0.417969
v -0.097656 0.917969 0.417969
v -0.097656 1.000000 0.468750
v -0.089844 1.000000 0.417969
v -0.089844 0.917969 0.417969
v -0.089844 1.000000 0.468750
v -0.082031 1.000000 0.417969
v -0.082031 0.917969 0.417969
v -0.082031 1.000000 0.468750
v -0.074219 1.000000 0.417969
v -0.074219 0.917969 0.417969
v -0.074219 1.000000 0.468750
v -0.066406 1.000000 0.417969
v -0.066406 0.917969 0.417969
v -0.066406 1.000000 0.468750
v -0.058594 1.000000 0.417969
v -0.058594 0.917969 0.417969
v -0.058594 1.000000 0.468750
v -0.050781 1.000000 0.417969
v -0.050781 0.917969 0.417969
v -0.050781 1.000000 0.468750
v -0.042969 1.000000 0.417969
v -0.042969 0.917969 0.417969
v -0.042969 1.000000 0.468750
v -0.035156 1.000000 0.417969
v -0.035156 0.917969 0.417969
v -0.035156 1.000000 0.468750
v -0.027344 1.000000 0.417969
v -0.027344 0.917969 0.417969
v -0.027344 1.000000 0.468750
v -0.019531 1.000000 0.417969
v -0.019531 0.917969 0.417969
v -0.019531 1.000000 0.468750
v -0.011719 1.000000 0.417969
v -0.011719 0.917969 0.417969
v -0.011719 1.000000 0.468750
v -0.003906 1.000000 0.417969
v -0.003906 0.917969 0.417969
v -0.003906 1.000000 0.468750
v 0.003906 1.000000 0.417969
v 0.003906 0.917969 0.417969
v 0.003906 1.000000 0.468750
v 0.011719 1.000000 0.417969
v 0.011719 0.917969 0.417969
v 0.011719 1.000000 0.468750
v 0.019531 1.000000 0.417969
v 0.019531 0.917969 0.417969
v 0.019531 1.000000 0.468750
v 0.027344 1.000000 0.417969
v 0.027344 0.917969 0.417969
v 0.027344 1.000000 0.468750
v 0.035156 1.000000 0.417969
v 0.035156 0.917969 0.417969
v 0.035156 1.000000 0.468750
v 0.042969 1.000000 0.417969
v 0.042969 0.917969 0.417969
v 0.042969 1.000000 0.468750
v 0.050781 1.000000 0.417969
v 0.050781 0.917969 0.417969
v 0.050781 1.000000 0.468750
v 0.058594 1.000000 0.417969
v 0.058594 0.917969 0.417969
v 0.058594 1.000000 0.468750
v 0.066406 1.000000 0.417969
v 0.066406 0.917969 0.417969
v 0.066406 1.000000 0.468750
v 0.074219 1.000000 0.417969
v 0.074219 0.917969 0.417969
v 0.074219 1.000000 0.468750
v 0.082031 1.000000 0.417969
v 0.082031 0.917969 0.417969
v 0.082031 1.000000 0.468750
v 0.089844 1.000000 0.417969
v 0.089844 0.917969 0.417969
v 0.089844 1.000000 0.468750
v 0.097656 1.000000 0.417969
v 0.097656 0.917969 0.417969
v 0.097656 1.000000 0.468750
v 0.105469 1.000000 0.417969
v 0.105469 0.917969 0.417969
v 0.105469 1.000000 0.468750
v 0.113281 1.000000 0.417969
v 0.113281 0.917969 0.417969
v 0.113281 1.000000 0.468750
v 0.121094 1.000000 0.417969
v 0.121094 0.917969 0.417969
v 0.121094 1.000000 0.468750
v 0.128906 1.000000 0.417969
v 0.128906 0.917969 0.417969
v 0.128906 1.000000 0.468750
v 0.136719 1.000000 0.417969
v 0.136719 0.917969 0.417969
v 0.136719 1.000000 0.468750
v 0.144531 1.000000 0.417969
v 0.144531 0.917969 0.417969
v 0.144531 1.000000 0.468750
v 0.152344 1.000000 0.417969
v 0.152344 0.917969 0.417969
v 0.152344 1.000000 0.468750
v 0.160156 1.000000 0.417969
v 0.160156 0.917969 0.417969
v 0.160156 1.000000 0.468750
v 0.167969 1.000000 0.417969
v 0.167969 0.917969 0.417969
v 0.167969 1.000000 0.468750
v 0.175781 1.000000 0.417969
v 0.175781 0.917969 0.417969
v 0.175781 1.000000 0.468750
v 0.183594 1.000000 0.417969
v 0.183594 0.917969 0.417969
v 0.183594 1.000000 0.468750
v 0.191406 1.000000 0.417969
v 0.191406 0.917969 0.417969
v 0.191406 1.000000 0.468750
v 0.199219 1.000000 0.417969
v 0.199219 0.917969 0.417969
v 0.199219 1.000000 0.468750
v 0.207031 1.000000 0.417969
v 0.207031 0.917969 0.417969
v 0.207031 1.000000 0.468750
v 0.214844 1.000000 0.417969
v 0.214844 0.917969 0.417969
v 0.214844 1.000000 0.468750
v 0.222656 1.000000 0.417969
v 0.222656 0.917969 0.417969
v 0.222656 1.000000 0.468750
v 0.230469 1.000000 0.417969
v 0.230469 0.917969 0.417969
v 0.230469 1.000000 0.468750
v 0.238281 1.000000 0.417969
v 0.238281 0.917969 0.417969
v 0.238281 1.000000 0.468750
v 0.246094 1.000000 0.417969
v 0.246094 0.917969 0.417969
v 0.246094 1.000000 0.468750
v 0.253906 1.000000 0.417969
v 0.253906 0.917969 0.417969
v 0.253906 1.000000 0.468750
v 0.261719 1.000000 0.417969
v 0.261719 0.917969 0.417969
v 0.261719 1.000000 0.468750
v 0.269531 1.000000 0.417969
v 0.269531 0.917969 0.417969
v 0.269531 1.000000 0.468750
v 0.277344 1.000000 0.417969
v 0.277344 0.917969 0.417969
v 0.277344 1.000000 0.468750
v 0.285156 1.000000 0.417969
v 0.285156 0.917969 0.417969
v 0.285156 1.000000 0.468750
v 0.292969 1.000000 0.417969
v 0.292969 0.917969 0.417969
v 0.292969 1.000000 0.468750
v 0.300781 1.000000 0.417969
v 0.300781 0.917969 0.417969
v 0.300781 1.000000 0.468750
v 0.308594 1.000000 0.417969
v 0.308594 0.917969 0.417969
v 0.308594 1.000000 0.468750
v 0.316406 1.000000 0.417969
v 0.316406 0.917969 0.417969
v 0.316406 1.000000 0.468750
v 0.324219 1.000000 0.417969
v 0.324219 0.917969 0.417969
v 0.324219 1.000000 0.468750
v 0.332031 1.000000 0.417969
v 0.332031 0.917969 0.417969
v 0.332031 1.000000 0.468750
v 0.339844 1.000000 0.417969
v 0.339844 0.917969 0.417969
v 0.339844 1.000000 0.468750
v 0.347656 1.000000 0.417969
v 0.347656 0.917969 0.417969
v 0.347656 1.000000 0.468750
v 0.355469 1.000000 0.417969
v 0.355469 0.917969 0.417969
v 0.355469 1.000000 0.468750
v 0.363281 1.000000 0.417969
v 0.363281 0.917969 0.417969
v 0.363281 1.000000 0.468750
v 0.371094 1.000000 0.417969
v 0.371094 0.917969 0.417969
v 0.371094 1.000000 0.468750
v 0.378906 1.000000 0.417969
v 0.378906 0.917969 0.417969
v 0.378906 1.000000 0.468750
v 0.386719 1.000000 0.417969
v 0.386719 0.917969 0.417969
v 0.386719 1.000000 0.468750
v 0.394531 1.000000 0.417969
v 0.394531 0.917969 0.417969
v 0.394531 1.000000 0.468750
v 0.402344 1.000000 0.417969
v 0.402344 0.917969 0.417969
v 0.402344 1.000000 0.468750
v 0.410156 1.000000 0.417969
v 0.410156 0.917969 0.417969
v 0.410156 1.000000 0.468750
v 0.417969 1.000000 0.417969
v 0.417969 0.917969 0.417969
v 0.417969 1.000000 0.468750
v 0.425781 1.000000 0.417969
v 0.425781 0.917969 0.417969
v 0.425781 1.000000 0.468750
v 0.433594 1.000000 0.417969
v 0.433594 0.917969 0.417969
v 0.433594 1.000000 0.468750
v 0.441406 1.000000 0.417969
v 0.441406 0.917969 0.417969
v 0.441406 1.000000 0.468750
v 0.449219 1.000000 0.417969
v 0.449219 0.917969 0.417969
v 0.449219 1.000000 0.468750
v 0.457031 1.000000 0.417969
v 0.457031 0.917969 0.417969
v 0.457031 1.000000 0.468750
v 0.464844 1.000000 0.417969
v 0.464844 0.917969 0.417969
v 0.464844 1.000000 0.468750
v 0.472656 1.000000 0.417969
v 0.472656 0.917969 0.417969
v 0.472656 1.000000 0.468750
v 0.480469 1.000000 0.417969
v 0.480469 0.917969 0.417969
v 0.480469 1.000000 0.468750
v 0.488281 1.000000 0.417969
v 0.488281 0.917969 0.417969
v 0.488281 1.000000 0.468750
v 0.496094 1.000000 0.417969
v 0.496094 0.917969 0.417969
v 0.496094 1.000000 0.468750
v 0.503906 1.000000 0.417969
v 0.503906 0.917969 0.417969
v 0.503906 1.000000 0.468750
v 0.511719 1.000000 0.417969
v 0.511719 0.917969 0.417969
v 0.511719 1.000000 0.468750
v 0.519531 1.000000 0.417969
v 0.519531 0.917969 0.417969
v 0.519531 1.000000 0.468750
v 0.527344 1.000000 0.417969
v 0.527344 0.917969 0.417969
v 0.527344 1.000000 0.468750
v 0.535156 1.000000 0.417969
v 0.535156 0.917969 0.417969
v 0.535156 1.000000 0.468750
v 0.542969 1.000000 0.417969
v 0.542969 0.917969 0.417969
v 0.542969 1.000000 0.468750
v 0.550781 1.000000 0.417969
v 0.550781 0.917969 0.417969
v 0.550781 1.000000 0.468750
v 0.558594 1.000000 0.417969
v 0.558594 0.917969 0.417969
v 0.558594 1.000000 0.468750
v 0.566406 1.000000 0.417969
v 0.566406 0.917969 0.417969
v 0.566406 1.000000 0.468750
v 0.574219 1.000000 0.417969
v 0.574219 0.917969 0.417969
v 0.574219 1.000000 0.468750
v 0.582031 1.000000 0.417969
v 0.582031 0.917969 0.417969
v 0.582031 1.000000 0.468750
v 0.589844 1.000000 0.417969
v 0.589844 0.917969 0.417969
v 0.589844 1.000000 0.468750
v 0.597656 1.000000 0.417969
v 0.597656 0.917969 0.417969
v 0.597656 1.000000 0.468750
v 0.605469 1.000000 0.417969
v 0.605469 0.917969 0.417969
v 0.605469 1.000000 0.468750
v 0.613281 1.000000 0.417969
v 0.613281 0.917969 0.417969
v 0.613281 1.000000 0.468750
v 0.621094 1.000000 0.417969
v 0.621094 0.917969 0.417969
v 0.621094 1.000000 0.468750
v 0.628906 1.000000 0.417969
v 0.628906 0.917969 0.417969
v 0.628906 1.000000 0.468750
v 0.636719 1.000000 0.417969
v 0.636719 0.917969 0.417969
v 0.636719 1.000000 0.468750
v 0.644531 1.000000 0.417969
v 0.644531 0.917969 0.417969
v 0.644531 1.000000 0.468750
v 0.652344 1.000000 0.417969
v 0.652344 0.917969 0.417969
v 0.652344 1.000000 0.468750
v 0.660156 1.000000 0.417969
v 0.660156 0.917969 0.417969
v 0.660156 1.000000 0.468750
v 0.667969 1.000000 0.417969
v 0.667969 0.917969 0.417969
v 0.667969 1.000000 0.468750
v 0.675781 1.000000 0.417969
v 0.675781 0.917969 0.417969
v 0.675781 1.000000 0.468750
v 0.683594 1.000000 0.417969
v 0.683594 0.917969 0.417969
v 0.683594 1.000000 0.468750
v 0.691406 1.000000 0.417969
v 0.691406 0.917969 0.417969
v 0.691406 1.000000 0.468750
v 0.699219 1.000000 0.417969
v 0.699219 0.917969 0.417969
v 0.699219 1.000000 0.468750
v 0.707031 1.000000 0.417969
v 0.707031 0.917969 0.417969
v 0.707031 1.000000 0.468750
v 0.714844 1.000000 0.417969
v 0.714844 0.917969 0.417969
v 0.714844 1.000000 0.468750
v 0.722656 1.000000 0.417969
v 0.722656 0.917969 0.417969
v 0.722656 1.000000 0.468750
v 0.730469 1.000000 0.417969
v 0.730469 0.917969 0.417969
v 0.730469 1.000000 0.468750
v 0.738281 1.000000 0.417969
v 0.738281 0.917969 0.417969
v 0.738281 1.000000 0.468750
v 0.746094 1.000000 0.417969
v 0.746094 0.917969 0.417969
v 0.746094 1.000000 0.468750
v 0.753906 1.000000 0.417969
v 0.753906 0.917969 0.417969
v 0.753906 1.000000 0.468750
v 0.761719 1.000000 0.417969
v 0.761719 0.917969 0.417969
v 0.761719 1.000000 0.468750
v 0.769531 1.000000 0.417969
v 0.769531 0.917969 0.417969
v 0.769531 1.000000 0.468750
v 0.777344 1.000000 0.417969
v 0.777344 0.917969 0.417969
v 0.777344 1.000000 0.468750
v 0.785156 1.000000 0.417969
v 0.785156 0.917969 0.417969
v 0.785156 1.000000 0.468750
v 0.792969 1.000000 0.417969
v 0.792969 0.917969 0.417969
v 0.792969 1.000000 0.468750
v 0.800781 1.000000 0.417969
v 0.800781 0.917969 0.417969
v 0.800781 1.000000 0.468750
v 0.808594 1.000000 0.417969
v 0.808594 0.917969 0.417969
v 0.808594 1.000000 0.468750
v 0.816406 1.000000 0.417969
v 0.816406 0.917969 0.417969
v 0.816406 1.000000 0.468750
v 0.824219 1.000000 0.417969
v 0.824219 0.917969 0.417969
v 0.824219 1.000000 0.468750
v 0.832031 1.000000 0.417969
v 0.832031 0.917969 0.417969
v 0.832031 1.000000 0.468750
v 0.839844 1.000000 0.417969
v 0.839844 0.917969 0.417969
v 0.839844 1.000000 0.468750
v 0.847656 1.000000 0.417969
v 0.847656 0.917969 0.417969
v 0.847656 1.000000 0.468750
v 0.855469 1.000000 0.417969
v 0.855469 0.917969 0.417969
v 0.855469 1.000000 0.468750
v 0.863281 1.000000 0.417969
v 0.863281 0.917969 0.417969
v 0.863281 1.000000 0.468750
v 0.871094 1.000000 0.417969
v 0.871094 0.917969 0.417969
v 0.871094 1.000000 0.468750
v 0.878906 1.000000 0.417969
v 0.878906 0.917969 0.417969
v 0.878906 1.000000 0.468750
v 0.886719 1.000000 0.417969
v 0.886719 0.917969 0.417969
v 0.886719 1.000000 0.468750
v 0.894531 1.000000 0.417969
v 0.894531 0.917969 0.417969
v 0.894531 1.000000 0.468750
v 0.902344 1.000000 0.417969
v 0.902344 0.917969 0.417969
v 0.902344 1.000000 0.468750
v 0.910156 1.000000 0.417969
v 0.910156 0.917969 0.417969
v 0.910156 1.000000 0.468750
v 0.917969 1.000000 0.417969
v 0.917969 0.917969 0.417969
v 0.917969 1.000000 0.468750
v 0.925781 1.000000 0.417969
v 0.925781 0.917969 0.417969
v 0.925781 1.000000 0.468750
v 0.933594 1.000000 0.417969
v 0.933594 0.917969 0.417969
v 0.933594 1.000000 0.468750
v 0.941406 1.000000 0.417969
v 0.941406 0.917969 0.417969
v 0.941406 1.000000 0.468750
v 0.949219 1.000000 0.417969
v 0.949219 0.917969 0.417969
v 0.949219 1.000000 0.468750
v 0.957031 1.000000 0.417969
v 0.957031 0.917969 0.417969
v 0.957031 1.000000 0.468750
v 0.964844 1.000000 0.417969
v 0.964844 0.917969 0.417969
v 0.964844 1.000000 0.468750
v 0.972656 1.000000 0.417969
v 0.972656 0.917969 0.417969
v 0.972656 1.000000 0.468750
v 0.980469 1.000000 0.417969
v 0.980469 0.917969 0.417969
v 0.980469 1.000000 0.468750
v 0.988281 1.000000 0.417969
v 0.988281 0.917969 0.417969
v 0.988281 1.000000 0.468750
v 0.996094 1.000000 0.417969
v 0.996094 0.917969 0.417969
v 0.996094 1.000000 0.468750
v 1.003906 1.000000 0.417969
v 1.003906 0.917969 0.417969
v 1.003906 1.000000 0.468750
v 1.011719 1.000000 0.417969
v 1.011719 0.917969 0.417969
v 1.011719 1.000000 0.468750
v 1.019531 1.000000 0.417969
v 1.019531 0.917969 0.417969
v 1.019531 1.000000 0.468750
v 1.027344 1.000000 0.417969
v 1.027344 0.917969 0.417969
v 1.027344 1.000000 0.468750
v 1.035156 1.000000 0.417969
v 1.035156 0.917969 0.417969
v 1.035156 1.000000 0.468750
v 1.042969 1.000000 0.417969
v 1.042969 0.917969 0.417969
v 1.042969 1.000000 0.468750
v 1.050781 1.000000 0.417969
v 1.050781 0.917969 0.417969
v 1.050781 1.000000 0.468750
v 1.058594 1.000000 0.417969
v 1.058594 0.917969 0.417969
v 1.058594 1.000000 0.468750
v 1.066406 1.000000 0.417969
v 1.066406 0.917969 0.417969
v 1.066406 1.000000 0.468750
v 1.074219 1.000000 0.417969
v 1.074219 0.917969 0.417969
v 1.074219 1.000000 0.468750
v 1.082031 1.000000 0.417969
v 1.082031 0.917969 0.417969
v 1.082031 1.000000 0.468750
v 1.089844 1.000000 0.417969
v 1.089844 0.917969 0.417969
v 1.089844 1.000000 0.468750
v 1.097656 1.000000 0.417969
v 1.097656 0.917969 0.417969
v 1.097656 1.000000 0.468750
v 1.105469 1.000000 0.417969
v 1.105469 0.917969 0.417969
v 1.105469 1.000000 0.468750
v 1.113281 1.000000 0.417969
v 1.113281 0.917969 0.417969
v 1.113281 1.000000 0.468750
v 1.121094 1.000000 0.417969
v 1.121094 0.917969 0.417969
v 1.121094 1.000000 0.468750
v 1.128906 1.000000 0.417969
v 1.128906 0.917969 0.417969
v 1.128906 1.000000 0.468750
v 1.136719 1.000000 0.417969
v 1.136719 0.917969 0.417969
v 1.136719 1.000000 0.468750
v 1.144531 1.000000 0.417969
v 1.144531 0.917969 0.417969
v 1.144531 1.000000 0.468750
v 1.152344 1.000000 0.417969
v 1.152344 0.917969 0.417969
v 1.152344 1.000000 0.468750
v 1.160156 1.000000 0.417969
v 1.160156 0.917969 0.417969
v 1.160156 1.000000 0.468750
v 1.167969 1.000000 0.417969
v 1.167969 0.917969 0.417969
v 1.167969 1.000000 0.468750
v 1.175781 1.000000 0.417969
v 1.175781 0.917969 0.417969
v 1.175781 1.000000 0.468750
v 1.183594 1.000000 0.417969
v 1.183594 0.917969 0.417969
v 1.183594 1.000000 0.468750
v 1.191406 1.000000 0.417969
v 1.191406 0.917969 0.417969
v 1.191406 1.000000 0.468750
v 1.199219 1.000000 0.417969
v 1.199219 0.917969 0.417969
v 1.199219 1.000000 0.468750
v 1.207031 1.000000 0.417969
v 1.207031 0.917969 0.417969
v 1.207031 1.000000 0.468750
v 1.214844 1.000000 0.417969
v 1.214844 0.917969 0.417969
v 1.214844 1.000000 0.468750
v 1.222656 1.000000 0.417969
v 1.222656 0.917969 0.417969
v 1.222656 1.000000 0.468750
v 1.230469 1.000000 0.417969
v 1.230469 0.917969 0.417969
v 1.230469 1.000000 0.468750
v 1.238281 1.000000 0.417969
v 1.238281 0.917969 0.417969
v 1.238281 1.000000 0.468750
v 1.246094 1.000000 0.417969
v 1.246094 0.917969 0.417969
v 1.246094 1.000000 0.468750
v 1.253906 1.000000 0.417969
v 1.253906 0.917969 0.417969
v 1.253906 1.000000 0.468750
v 1.261719 1.000000 0.417969
v 1.261719 0.917969 0.417969
v 1.261719 1.000000 0.468750
v 1.269531 1.000000 0.417969
v 1.269531 0.917969 0.417969
v 1.269531 1.000000 0.468750
v 1.277344 1.000000 0.417969
v 1.277344 0.917969 0.417969
v 1.277344 1.000000 0.468750
v 1.285156 1.000000 0.417969
v 1.285156 0.917969 0.417969
v 1.285156 1.000000 0.468750
v 1.292969 1.000000 0.417969
v 1.292969 0.917969 0.417969
v 1.292969 1.000000 0.468750
v 1.300781 1.000000 0.417969
v 1.300781 0.917969 0.417969
v 1.300781 1.000000 0.468750
v 1.308594 1.000000 0.417969
v 1.308594 0.917969 0.417969
v 1.308594 1.000000 0.468750
v 1.316406 1.000000 0.417969
v 1.316406 0.917969 0.417969
v 1.316406 1.000000 0.468750
v 1.324219 1.000000 0.417969
v 1.324219 0.917969 0.417969
v 1.324219 1.000000 0.468750
v 1.332031 1.000000 0.417969
v 1.332031 0.917969 0.417969
v 1.332031 1.000000 0.468750
v 1.339844 1.000000 0.417969
v 1.339844 0.917969 0.417969
v 1.339844 1.000000 0.468750
v 1.347656 1.000000 0.417969
v 1.347656 0.917969 0.417969
v 1.347656 1.000000 0.468750
v 1.355469 1.000000 0.417969
v 1.355469 0.917969 0.417969
v 1.355469 1.000000 0.468750
v 1.363281 1.000000 0.417969
v 1.363281 0.917969 0.417969
v 1.363281 1.000000 0.468750
v 1.371094 1.000000 0.417969
v 1.371094 0.917969 0.417969
v 1.371094 1.000000 0.468750
v 1.378906 1.000000 0.417969
v 1.378906 0.917969 0.417969
v 1.378906 1.000000 0.468750
v 1.386719 1.000000 0.417969
v 1.386719 0.917969 0.417969
v 1.386719 1.000000 0.468750
v 1.394531 1.000000 0.417969
v 1.394531 0.917969 0.417969
v 1.394531 1.000000 0.468750
v 1.402344 1.000000 0.417969
v 1.402344 0.917969 0.417969
v 1.402344 1.000000 0.468750
v 1.410156 1.000000 0.417969
v 1.410156 0.917969 0.417969
v 1.410156 1.000000 0.468750
v 1.417969 1.000000 0.417969
v 1.417969 0.917969 0.417969
v 1.417969 1.000000 0.468750
v 1.425781 1.000000 0.417969
v 1.425781 0.917969 0.417969
v 1.425781 1.000000 0.468750
v 1.433594 1.000000 0.417969
v 1.433594 0.917969 0.417969
v 1.433594 1.000000 0.468750
v 1.441406 1.000000 0.417969
v 1.441406 0.917969 0.417969
v 1.441406 1.000000 0.468750
v 1.449219 1.000000 0.417969
v 1.449219 0.917969 0.417969
v 1.449219 1.000000 0.468750
v 1.457031 1.000000 0.417969
v 1.457031 0.917969 0.417969
v 1.457031 1.000000 0.468750
v 1.464844 1.000000 0.417969
v 1.464844 0.917969 0.417969
v 1.464844 1.000000 0.468750
v 1.472656 1.000000 0.417969
v 1.472656 0.917969 0.417969
v 1.472656 1.000000 0.468750
v 1.480469 1.000000 0.417969
v 1.480469 0.917969 0.417969
v 1.480469 1.000000 0.468750
v 1.488281 1.000000 0.417969
v 1.488281 0.917969 0.417969
v 1.488281 1.000000 0.468750
v 1.496089 1.000000 0.417969
v 1.496089 0.917969 0.417969
v 1.496089 1.000000 0.468750
v 1.503901 1.000000 0.417969
v 1.503901 0.917969 0.417969
v 1.503901 1.000000 0.468750
v 1.511714 1.000000 0.417969
v 1.511714 0.917969 0.417969
v 1.511714 1.000000 0.468750
v 1.519526 1.000000 0.417969
v 1.519526 0.917969 0.417969
v 1.519526 1.000000 0.468750
v 1.527339 1.000000 0.417969
v 1.527339 0.917969 0.417969
v 1.527339 1.000000 0.468750
v 1.535151 1.000000 0.417969
v 1.535151 0.917969 0.417969
v 1.535151 1.000000 0.468750
v 1.542964 1.000000 0.417969
v 1.542964 0.917969 0.417969
v 1.542964 1.000000 0.468750
v 1.550776 1.000000 0.417969
v 1.550776 0.917969 0.417969
v 1.550776 1.000000 0.468750
v 1.558589 1.000000 0.417969
v 1.558589 0.917969 0.417969
v 1.558589 1.000000 0.468750
v 1.566401 1.000000 0.417969
v 1.566401 0.917969 0.417969
v 1.566401 1.000000 0.468750
v 1.574214 1.000000 0.417969
v 1.574214 0.917969 0.417969
v 1.574214 1.000000 0.468750
v 1.582026 1.000000 0.417969
v 1.582026 0.917969 0.417969
v 1.582026 1.000000 0.468750
v 1.589839 1.000000 0.417969
v 1.589839 0.917969 0.417969
v 1.589839 1.000000 0.468750
v 1.597651 1.000000 0.417969
v 1.597651 0.917969 0.417969
v 1.597651 1.000000 0.468750
v 1.605464 1.000000 0.417969
v 1.605464 0.917969 0.417969
v 1.605464 1.000000 0.468750
v 1.613276 1.000000 0.417969
v 1.613276 0.917969 0.417969
v 1.613276 1.000000 0.468750
v 1.621089 1.000000 0.417969
v 1.621089 0.917969 0.417969
v 1.621089 1.000000 0.468750
v 1.628901 1.000000 0.417969
v 1.628901 0.917969 0.417969
v 1.628901 1.000000 0.468750
v 1.636714 1.000000 0.417969
v 1.636714 0.917969 0.417969
v 1.636714 1.000000 0.468750
v 1.644526 1.000000 0.417969
v 1.644526 0.917969 0.417969
v 1.644526 1.000000 0.468750
v 1.652339 1.000000 0.417969
v 1.652339 0.917969 0.417969
v 1.652339 1.000000 0.468750
v 1.660151 1.000000 0.417969
v 1.660151 0.917969 0.417969
v 1.660151 1.000000 0.468750
v 1.667964 1.000000 0.417969
v 1.667964 0.917969 0.417969
v 1.667964 1.000000 0.468750
v 1.675776 1.000000 0.417969
v 1.675776 0.917969 0.417969
v 1.675776 1.000000 0.468750
v 1.683589 1.000000 0.417969
v 1.683589 0.917969 0.417969
v 1.683589 1.000000 0.468750
v 1.691401 1.000000 0.417969
v 1.691401 0.917969 0.417969
v 1.691401 1.000000 0.468750
v 1.699214 1.000000 0.417969
v 1.699214 0.917969 0.417969
v 1.699214 1.000000 0.468750
v 1.707026 1.000000 0.417969
v 1.707026 0.917969 0.417969
v 1.707026 1.000000 0.468750
v 1.714839 1.000000 0.417969
v 1.714839 0.917969 0.417969
v 1.714839 1.000000 0.468750
v 1.722651 1.000000 0.417969
v 1.722651 0.917969 0.417969
v 1.722651 1.000000 0.468750
v 1.730464 1.000000 0.417969
v 1.730464 0.917969 0.417969
v 1.730464 1.000000 0.468750
v 1.738276 1.000000 0.417969
v 1.738276 0.917969 0.417969
v 1.738276 1.000000 0.468750
v 1.746089 1.000000 0.417969
v 1.746089 0.917969 0.417969
v 1.746089 1.000000 0.468750
v 1.753901 1.000000 0.417969
v 1.753901 0.917969 0.417969
v 1.753901 1.000000 0.468750
v 1.761714 1.000000 0.417969
v 1.761714 0.917969 0.417969
v 1.761714 1.000000 0.468750
v 1.769526 1.000000 0.417969
v 1.769526 0.917969 0.417969
v 1.769526 1.000000 0.468750
v 1.777339 1.000000 0.417969
v 1.777339 0.917969 0.417969
v 1.777339 1.000000 0.468750
v 1.785151 1.000000 0.417969
v 1.785151 0.917969 0.417969
v 1.785151 1.000000 0.468750
v 1.792964 1.000000 0.417969
v 1.792964 0.917969 0.417969
v 1.792964 1.000000 0.468750
v 1.800776 1.000000 0.417969
v 1.800776 0.917969 0.417969
v 1.800776 1.000000 0.468750
v 1.808589 1.000000 0.417969
v 1.808589 0.917969 0.417969
v 1.808589 1.000000 0.468750
v 1.816401 1.000000 0.417969
v 1.816401 0.917969 0.417969
v 1.816401 1.000000 0.468750
v 1.824214 1.000000 0.417969
v 1.824214 0.917969 0.417969
v 1.824214 1.000000 0.468750
v 1.832026 1.000000 0.417969
v 1.832026 0.917969 0.417969
v 1.832026 1.000000 0.468750
v 1.839839 1.000000 0.417969
v 1.839839 0.917969 0.417969
v 1.839839 1.000000 0.468750
v 1.847651 1.000000 0.417969
v 1.847651 0.917969 0.417969
v 1.847651 1.000000 0.468750
v 1.855464 1.000000 0.417969
v 1.855464 0.917969 0.417969
v 1.855464 1.000000 0.468750
v 1.863276 1.000000 0.417969
v 1.863276 0.917969 0.417969
v 1.863276 1.000000 0.468750
v 1.871089 1.000000 0.417969
v 1.871089 0.917969 0.417969
v 1.871089 1.000000 0.468750
v 1.878901 1.000000 0.417969
v 1.878901 0.917969 0.417969
v 1.878901 1.000000 0.468750
v 1.886714 1.000000 0.417969
v 1.886714 0.917969 0.417969
v 1.886714 1.000000 0.468750
v 1.894526 1.000000 0.417969
v 1.894526 0.917969 0.417969
v 1.894526 1.000000 0.468750
v 1.902339 1.000000 0.417969
v 1.902339 0.917969 0.417969
v 1.902339 1.000000 0.468750
v 1.910151 1.000000 0.417969
v 1.910151 0.917969 0.417969
v 1.910151 1.000000 0.468750
v 1.917964 1.000000 0.417969
v 1.917964 0.917969 0.417969
v 1.917964 1.000000 0.468750
v 1.925776 1.000000 0.417969
v 1.925776 0.917969 0.417969
v 1.925776 1.000000 0.468750
v 1.933589 1.000000 0.417969
v 1.933589 0.917969 0.417969
v 1.933589 1.000000 0.468750
v 1.941401 1.000000 0.417969
v 1.941401 0.917969 0.417969
v 1.941401 1.000000 0.468750
v 1.949214 1.000000 0.417969
v 1.949214 0.917969 0.417969
v 1.949214 1.000000 0.468750
v 1.957026 1.000000 0.417969
v 1.957026 0.917969 0.417969
v 1.957026 1.000000 0.468750
v 1.964839 1.000000 0.417969
v 1.964839 0.917969 0.417969
v 1.964839 1.000000 0.468750
v 1.972651 1.000000 0.417969
v 1.972651 0.917969 0.417969
v 1.972651 1.000000 0.468750
v 1.980464 1.000000 0.417969
v 1.980464 0.917969 0.417969
v 1.980464 1.000000 0.468750
v 1.988276 1.000000 0.417969
v 1.988276 0.917969 0.417969
v 1.988276 1.000000 0.468750
v 1.996089 1.000000 0.417969
v 1.996089 0.917969 0.417969
v 1.996089 1.000000 0.468750
v 2.003901 1.000000 0.417969
v 2.003901 0.917969 0.417969
v 2.003901 1.000000 0.468750
v 2.011714 1.000000 0.417969
v 2.011714 0.917969 0.417969
v 2.011714 1.000000 0.468750
v 2.019526 1.000000 0.417969
v 2.019526 0.917969 0.417969
v 2.019526 1.000000 0.468750
v 2.027339 1.000000 0.417969
v 2.027339 0.917969 0.417969
v 2.027339 1.000000 0.468750
v 2.035151 1.000000 0.417969
v 2.035151 0.917969 0.417969
v 2.035151 1.000000 0.468750
v 2.042964 1.000000 0.417969
v 2.042964 0.917969 0.417969
v 2.042964 1.000000 0.468750
v 2.050776 1.000000 0.417969
v 2.050776 0.917969 0.417969
v 2.050776 1.000000 0.468750
v 2.058589 1.000000 0.417969
v 2.058589 0.917969 0.417969
v 2.058589 1.000000 0.468750
v 2.066401 1.000000 0.417969
v 2.066401 0.917969 0.417969
v 2.066401 1.000000 0.468750
v 2.074214 1.000000 0.417969
v 2.074214 0.917969 0.417969
v 2.074214 1.000000 0.468750
v 2.082026 1.000000 0.417969
v 2.082026 0.917969 0.417969
v 2.082026 1.000000 0.468750
v 2.089839 1.000000 0.417969
v 2.089839 0.917969 0.417969
v 2.089839 1.000000 0.468750
v 2.097651 1.000000 0.417969
v 2.097651 0.917969 0.417969
v 2.097651 1.000000 0.468750
v 2.105464 1.000000 0.417969
v 2.105464 0.917969 0.417969
v 2.105464 1.000000 0.468750
v 2.113276 1.000000 0.417969
v 2.113276 0.917969 0.417969
v 2.113276 1.000000 0.468750
v 2.121089 1.000000 0.417969
v 2.121089 0.917969 0.417969
v 2.121089 1.000000 0.468750
v 2.128901 1.000000 0.417969
v 2.128901 0.917969 0.417969
v 2.128901 1.000000 0.468750
v 2.136714 1.000000 0.417969
v 2.136714 0.917969 0.417969
v 2.136714 1.000000 0.468750
v 2.144526 1.000000 0.417969
v 2.144526 0.917969 0.417969
v 2.144526 1.000000 0.468750
v 2.152339 1.000000 0.417969
v 2.152339 0.917969 0.417969
v 2.152339 1.000000 0.468750
v 2.160151 1.000000 0.417969
v 2.160151 0.917969 0.417969
v 2.160151 1.000000 0.468750
v 2.167964 1.000000 0.417969
v 2.167964 0.917969 0.417969
v 2.167964 1.000000 0.468750
v 2.175776 1.000000 0.417969
v 2.175776 0.917969 0.417969
v 2.175776 1.000000 0.468750
v 2.183589 1.000000 0.417969
v 2.183589 0.917969 0.417969
v 2.183589 1.000000 0.468750
v 2.191401 1.000000 0.417969
v 2.191401 0.917969 0.417969
v 2.191401 1.000000 0.468750
v 2.199214 1.000000 0.417969
v 2.199214 0.917969 0.417969
v 2.199214 1.000000 0.468750
v 2.207026 1.000000 0.417969
v 2.207026 0.917969 0.417969
v 2.207026 1.000000 0.468750
v 2.214839 1.000000 0.417969
v 2.214839 0.917969 0.417969
v 2.214839 1.000000 0.468750
v 2.222651 1.000000 0.417969
v 2.222651 0.917969 0.417969
v 2.222651 1.000000 0.468750
v 2.230464 1.000000 0.417969
v 2.230464 0.917969 0.417969
v 2.230464 1.000000 0.468750
v 2.238276 1.000000 0.417969
v 2.238276 0.917969 0.417969
v 2.238276 1.000000 0.468750
v 2.246089 1.000000 0.417969
v 2.246089 0.917969 0.417969
v 2.246089 1.000000 0.468750
v 2.253901 1.000000 0.417969
v 2.253901 0.917969 0.417969
v 2.253901 1.000000 0.468750
v 2.261714 1.000000 0.417969
v 2.261714 0.917969 0.417969
v 2.261714 1.000000 0.468750
v 2.269526 1.000000 0.417969
v 2.269526 0.917969 0.417969
v 2.269526 1.000000 0.468750
v 2.277339 1.000000 0.417969
v 2.277339 0.917969 0.417969
v 2.277339 1.000000 0.468750
v 2.285151 1.000000 0.417969
v 2.285151 0.917969 0.417969
v 2.285151 1.000000 0.468750
v 2.292964 1.000000 0.417969
v 2.292964 0.917969 0.417969
v 2.292964 1.000000 0.468750
v 2.300776 1.000000 0.417969
v 2.300776 0.917969 0.417969
v 2.300776 1.000000 0.468750
v 2.308589 1.000000 0.417969
v 2.308589 0.917969 0.417969
v 2.308589 1.000000 0.468750
v 2.316401 1.000000 0.417969
v 2.316401 0.917969 0.417969
v 2.316401 1.000000 0.468750
v 2.324214 1.000000 0.417969
v 2.324214 0.917969 0.417969
v 2.324214 1.000000 0.468750
v 2.332026 1.000000 0.417969
v 2.332026 0.917969 0.417969
v 2.332026 1.000000 0.468750
v 2.339839 1.000000 0.417969
v 2.339839 0.917969 0.417969
v 2.339839 1.000000 0.468750
v 2.347651 1.000000 0.417969
v 2.347651 0.917969 0.417969
v 2.347651 1.000000 0.468750
v 2.355464 1.000000 0.417969
v 2.355464 0.917969 0.417969
v 2.355464 1.000000 0.468750
v 2.363276 1.000000 0.417969
v 2.363276 0.917969 0.417969
v 2.363276 1.000000 0.468750
v 2.371089 1.000000 0.417969
v 2.371089 0.917969 0.417969
v 2.371089 1.000000 0.468750
v 2.378901 1.000000 0.417969
v 2.378901 0.917969 0.417969
v 2.378901 1.000000 0.468750
v 2.386714 1.000000 0.417969
v 2.386714 0.917969 0.417969
v 2.386714 1.000000 0.468750
v 2.394526 1.000000 0.417969
v 2.394526 0.917969 0.417969
v 2.394526 1.000000 0.468750
v 2.402339 1.000000 0.417969
v 2.402339 0.917969 0.417969
v 2.402339 1.000000 0.468750
v 2.410151 1.000000 0.417969
v 2.410151 0.917969 0.417969
v 2.410151 1.000000 0.468750
v 2.417964 1.000000 0.417969
v 2.417964 0.917969 0.417969
v 2.417964 1.000000 0.468750
v 2.425776 1.000000 0.417969
v 2.425776 0.917969 0.417969
v 2.425776 1.000000 0.468750
v 2.433589 1.000000 0.417969
v 2.433589 0.917969 0.417969
v 2.433589 1.000000 0.468750
v 2.441401 1.000000 0.417969
v 2.441401 0.917969 0.417969
v 2.441401 1.000000 0.468750
v 2.449214 1.000000 0.417969
v 2.449214 0.917969 0.417969
v 2.449214 1.000000 0.468750
v 2.457026 1.000000 0.417969
v 2.457026 0.917969 0.417969
v 2.457026 1.000000 0.468750
v 2.464839 1.000000 0.417969
v 2.464839 0.917969 0.417969
v 2.464839 1.000000 0.468750
v 2.472651 1.000000 0.417969
v 2.472651 0.917969 0.417969
v 2.472651 1.000000 0.468750
v 2.480464 1.000000 0.417969
v 2.480464 0.917969 0.417969
v 2.480464 1.000000 0.468750
v 2.488276 1.000000 0.417969
v 2.488276 0.917969 0.417969
v 2.488276 1.000000 0.468750
vn -1.0000 -0.0000 -0.0000
vn 1.0000 -0.0000 -0.0000
vt 0.558594 0.507812
vt 0.558594 0.343750
vt 0.609375 0.507812
vt 0.050781 0.671875
vt 0.000000 0.671875
vt 0.050781 0.507812
vt 0.050781 0.343750
vt 0.101562 0.507812
vt 0.101562 0.671875
vt 0.101562 0.343750
vt 0.152344 0.507812
vt 0.660156 0.671875
vt 0.609375 0.671875
vt 0.660156 0.507812
vt 0.660156 0.343750
vt 0.710938 0.507812
vt 0.355469 0.671875
vt 0.304688 0.671875
vt 0.355469 0.507812
vt 0.203125 0.507812
vt 0.203125 0.343750
vt 0.253906 0.507812
vt 0.253906 0.671875
vt 0.203125 0.671875
vt 0.253906 0.343750
vt 0.304688 0.507812
vt 0.457031 0.507812
vt 0.457031 0.343750
vt 0.507812 0.507812
vt 0.457031 0.671875
vt 0.406250 0.671875
vt 0.507812 0.671875
vt 0.355469 0.343750
vt 0.406250 0.507812
vt 0.558594 0.671875
vt 0.609375 0.343750
vt 0.761719 0.671875
vt 0.710938 0.671875
vt 0.761719 0.507812
vt 0.710938 0.343750
vt 0.761719 0.343750
vt 0.812500 0.507812
vt 0.812500 0.671875
vt 0.812500 0.343750
vt 0.863281 0.507812
vt 0.863281 0.671875
vt 0.863281 0.343750
vt 0.914062 0.507812
vt 0.914062 0.671875
vt -0.000000 0.507812
vt -0.000000 0.343750
vt 0.152344 0.671875
vt 0.152344 0.343750
vt 0.304688 0.343750
vt 0.406250 0.343750
vt 0.507812 0.343750
s 0
usemtl platform_gap_filler_surface#exteriortranslucent
f 37/43/6 38/44/6 39/45/6
f 34/46/7 36/47/7 35/48/7
f 43/48/6 44/49/6 45/50/6
f 40/51/7 42/46/7 41/50/7
f 49/50/6 50/52/6 51/53/6
f 46/54/7 48/55/7 47/56/7
f 55/56/6 56/57/6 57/58/6
f 52/59/7 54/60/7 53/61/7
f 61/62/6 62/63/6 63/64/6
f 58/65/7 60/66/7 59/64/7
f 67/64/6 68/67/6 69/68/6
f 64/60/7 66/65/7 65/68/7
f 73/43/6 74/44/6 75/45/6
f 70/59/7 72/60/7 71/61/7
f 79/69/6 80/70/6 81/71/6
f 76/65/7 78/66/7 77/64/7
f 85/62/6 86/63/6 87/64/6
f 82/72/7 84/73/7 83/69/7
f 91/69/6 92/70/6 93/71/6
f 88/74/7 90/72/7 89/71/7
f 97/61/6 98/75/6 99/76/6
f 94/77/7 96/74/7 95/43/7
f 103/43/6 104/44/6 105/45/6
f 100/77/7 102/74/7 101/43/7
f 109/45/6 110/78/6 111/56/6
f 106/79/7 108/80/7 107/81/7
f 115/56/6 116/57/6 117/58/6
f 112/80/7 114/54/7 113/58/7
f 121/58/6 122/82/6 123/81/6
f 118/79/7 120/80/7 119/81/7
f 127/81/6 128/83/6 129/84/6
f 124/85/7 126/79/7 125/84/7
f 133/84/6 134/86/6 135/87/6
f 130/88/7 132/85/7 131/87/7
f 139/87/6 140/89/6 141/90/6
f 136/91/7 138/88/7 137/90/7
f 145/92/6 146/93/6 147/48/6
f 142/46/7 144/47/7 143/48/7
f 151/48/6 152/49/6 153/50/6
f 148/51/7 150/46/7 149/50/7
f 157/50/6 158/52/6 159/53/6
f 154/94/7 156/51/7 155/53/7
f 163/53/6 164/95/6 165/62/6
f 160/74/7 162/72/7 161/71/7
f 169/62/6 170/63/6 171/64/6
f 166/65/7 168/66/7 167/64/7
f 175/64/6 176/67/6 177/68/6
f 172/60/7 174/65/7 173/68/7
f 181/68/6 182/96/6 183/61/6
f 178/59/7 180/60/7 179/61/7
f 187/61/6 188/75/6 189/76/6
f 184/65/7 186/66/7 185/64/7
f 193/76/6 194/97/6 195/69/6
f 190/72/7 192/73/7 191/69/7
f 199/69/6 200/70/6 201/71/6
f 196/74/7 198/72/7 197/71/7
f 205/71/6 206/98/6 207/43/6
f 202/77/7 204/74/7 203/43/7
f 211/43/6 212/44/6 213/45/6
f 208/55/7 210/77/7 209/45/7
f 217/45/6 218/78/6 219/56/6
f 214/54/7 216/55/7 215/56/7
f 223/56/6 224/57/6 225/58/6
f 220/80/7 222/54/7 221/58/7
f 229/58/6 230/82/6 231/81/6
f 226/79/7 228/80/7 227/81/7
f 235/81/6 236/83/6 237/84/6
f 232/85/7 234/79/7 233/84/7
f 241/84/6 242/86/6 243/87/6
f 238/88/7 240/85/7 239/87/7
f 247/87/6 248/89/6 249/90/6
f 244/91/7 246/88/7 245/90/7
f 253/92/6 254/93/6 255/48/6
f 250/46/7 252/47/7 251/48/7
f 259/48/6 260/49/6 261/50/6
f 256/51/7 258/46/7 257/50/7
f 265/50/6 266/52/6 267/53/6
f 262/94/7 264/51/7 263/53/7
f 271/53/6 272/95/6 273/62/6
f 268/66/7 270/94/7 269/62/7
f 277/62/6 278/63/6 279/64/6
f 274/65/7 276/66/7 275/64/7
f 283/64/6 284/67/6 285/68/6
f 280/60/7 282/65/7 281/68/7
f 289/68/6 290/96/6 291/61/6
f 286/59/7 288/60/7 287/61/7
f 295/61/6 296/75/6 297/76/6
f 292/73/7 294/59/7 293/76/7
f 301/76/6 302/97/6 303/69/6
f 298/72/7 300/73/7 299/69/7
f 307/69/6 308/70/6 309/71/6
f 304/74/7 306/72/7 305/71/7
f 313/71/6 314/98/6 315/43/6
f 310/77/7 312/74/7 311/43/7
f 319/43/6 320/44/6 321/45/6
f 316/55/7 318/77/7 317/45/7
f 325/45/6 326/78/6 327/56/6
f 322/54/7 324/55/7 323/56/7
f 331/56/6 332/57/6 333/58/6
f 328/80/7 330/54/7 329/58/7
f 337/58/6 338/82/6 339/81/6
f 334/79/7 336/80/7 335/81/7
f 343/81/6 344/83/6 345/84/6
f 340/85/7 342/79/7 341/84/7
f 349/84/6 350/86/6 351/87/6
f 346/88/7 348/85/7 347/87/7
f 355/87/6 356/89/6 357/90/6
f 352/91/7 354/88/7 353/90/7
f 361/92/6 362/93/6 363/48/6
f 358/46/7 360/47/7 359/48/7
f 367/48/6 368/49/6 369/50/6
f 364/51/7 366/46/7 365/50/7
f 373/50/6 374/52/6 375/53/6
f 370/94/7 372/51/7 371/53/7
f 379/53/6 380/95/6 381/62/6
f 376/66/7 378/94/7 377/62/7
f 385/62/6 386/63/6 387/64/6
f 382/65/7 384/66/7 383/64/7
f 391/64/6 392/67/6 393/68/6
f 388/60/7 390/65/7 389/68/7
f 397/68/6 398/96/6 399/61/6
f 394/59/7 396/60/7 395/61/7
f 403/61/6 404/75/6 405/76/6
f 400/73/7 402/59/7 401/76/7
f 409/76/6 410/97/6 411/69/6
f 406/72/7 408/73/7 407/69/7
f 415/92/6 416/93/6 417/48/6
f 412/46/7 414/47/7 413/48/7
f 421/48/6 422/49/6 423/50/6
f 418/51/7 420/46/7 419/50/7
f 427/50/6 428/52/6 429/53/6
f 424/94/7 426/51/7 425/53/7
f 433/53/6 434/95/6 435/62/6
f 430/66/7 432/94/7 431/62/7
f 439/62/6 440/63/6 441/64/6
f 436/65/7 438/66/7 437/64/7
f 445/64/6 446/67/6 447/68/6
f 442/60/7 444/65/7 443/68/7
f 451/68/6 452/96/6 453/61/6
f 448/59/7 450/60/7 449/61/7
f 457/61/6 458/75/6 459/76/6
f 454/73/7 456/59/7 455/76/7
f 463/76/6 464/97/6 465/69/6
f 460/72/7 462/73/7 461/69/7
f 469/69/6 470/70/6 471/71/6
f 466/74/7 468/72/7 467/71/7
f 475/71/6 476/98/6 477/43/6
f 472/77/7 474/74/7 473/43/7
f 481/43/6 482/44/6 483/45/6
f 478/55/7 480/77/7 479/45/7
f 487/45/6 488/78/6 489/56/6
f 484/54/7 486/55/7 485/56/7
f 493/56/6 494/57/6 495/58/6
f 490/80/7 492/54/7 491/58/7
f 499/58/6 500/82/6 501/81/6
f 496/79/7 498/80/7 497/81/7
f 505/81/6 506/83/6 507/84/6
f 502/85/7 504/79/7 503/84/7
f 511/84/6 512/86/6 513/87/6
f 508/88/7 510/85/7 509/87/7
f 517/87/6 518/89/6 519/90/6
f 514/91/7 516/88/7 515/90/7
f 523/92/6 524/93/6 525/48/6
f 520/46/7 522/47/7 521/48/7
f 529/48/6 530/49/6 531/50/6
f 526/51/7 528/46/7 527/50/7
f 535/50/6 536/52/6 537/53/6
f 532/94/7 534/51/7 533/53/7
f 541/53/6 542/95/6 543/62/6
f 538/66/7 540/94/7 539/62/7
f 547/62/6 548/63/6 549/64/6
f 544/65/7 546/66/7 545/64/7
f 553/64/6 554/67/6 555/68/6
f 550/60/7 552/65/7 551/68/7
f 559/68/6 560/96/6 561/61/6
f 556/59/7 558/60/7 557/61/7
f 565/61/6 566/75/6 567/76/6
f 562/73/7 564/59/7 563/76/7
f 571/76/6 572/97/6 573/69/6
f 568/72/7 570/73/7 569/69/7
f 577/69/6 578/70/6 579/71/6
f 574/74/7 576/72/7 575/71/7
f 583/71/6 584/98/6 585/43/6
f 580/77/7 582/74/7 581/43/7
f 589/43/6 590/44/6 591/45/6
f 586/55/7 588/77/7 587/45/7
f 595/45/6 596/78/6 597/56/6
f 592/54/7 594/55/7 593/56/7
f 601/56/6 602/57/6 603/58/6
f 598/80/7 600/54/7 599/58/7
f 607/58/6 608/82/6 609/81/6
f 604/79/7 606/80/7 605/81/7
f 613/81/6 614/83/6 615/84/6
f 610/85/7 612/79/7 611/84/7
f 619/84/6 620/86/6 621/87/6
f 616/88/7 618/85/7 617/87/7
f 625/87/6 626/89/6 627/90/6
f 622/91/7 624/88/7 623/90/7
f 631/92/6 632/93/6 633/48/6
f 628/46/7 630/47/7 629/48/7
f 637/48/6 638/49/6 639/50/6
f 634/51/7 636/46/7 635/50/7
f 643/50/6 644/52/6 645/53/6
f 640/94/7 642/51/7 641/53/7
f 649/53/6 650/95/6 651/62/6
f 646/66/7 648/94/7 647/62/7
f 655/62/6 656/63/6 657/64/6
f 652/65/7 654/66/7 653/64/7
f 661/64/6 662/67/6 663/68/6
f 658/60/7 660/65/7 659/68/7
f 667/68/6 668/96/6 669/61/6
f 664/59/7 666/60/7 665/61/7
f 673/61/6 674/75/6 675/76/6
f 670/73/7 672/59/7 671/76/7
f 679/76/6 680/97/6 681/69/6
f 676/72/7 678/73/7 677/69/7
f 685/69/6 686/70/6 687/71/6
f 682/74/7 684/72/7 683/71/7
f 691/71/6 692/98/6 693/43/6
f 688/77/7 690/74/7 689/43/7
f 697/43/6 698/44/6 699/45/6
f 694/55/7 696/77/7 695/45/7
f 703/45/6 704/78/6 705/56/6
f 700/54/7 702/55/7 701/56/7
f 709/56/6 710/57/6 711/58/6
f 706/80/7 708/54/7 707/58/7
f 715/58/6 716/82/6 717/81/6
f 712/79/7 714/80/7 713/81/7
f 721/81/6 722/83/6 723/84/6
f 718/85/7 720/79/7 719/84/7
f 727/84/6 728/86/6 729/87/6
f 724/88/7 726/85/7 725/87/7
f 733/87/6 734/89/6 735/90/6
f 730/91/7 732/88/7 731/90/7
f 739/92/6 740/93/6 741/48/6
f 736/46/7 738/47/7 737/48/7
f 745/48/6 746/49/6 747/50/6
f 742/51/7 744/46/7 743/50/7
f 751/50/6 752/52/6 753/53/6
f 748/94/7 750/51/7 749/53/7
f 757/53/6 758/95/6 759/62/6
f 754/66/7 756/94/7 755/62/7
f 763/62/6 764/63/6 765/64/6
f 760/65/7 762/66/7 761/64/7
f 769/64/6 770/67/6 771/68/6
f 766/60/7 768/65/7 767/68/7
f 775/68/6 776/96/6 777/61/6
f 772/59/7 774/60/7 773/61/7
f 781/61/6 782/75/6 783/76/6
f 778/73/7 780/59/7 779/76/7
f 787/76/6 788/97/6 789/69/6
f 784/72/7 786/73/7 785/69/7
f 793/76/6 794/97/6 795/69/6
f 790/72/7 792/73/7 791/69/7
f 799/92/6 800/93/6 801/48/6
f 796/46/7 798/47/7 797/48/7
f 805/48/6 806/49/6 807/50/6
f 802/51/7 804/46/7 803/50/7
f 811/50/6 812/52/6 813/53/6
f 808/94/7 810/51/7 809/53/7
f 817/53/6 818/95/6 819/62/6
f 814/66/7 816/94/7 815/62/7
f 823/62/6 824/63/6 825/64/6
f 820/65/7 822/66/7 821/64/7
f 829/64/6 830/67/6 831/68/6
f 826/60/7 828/65/7 827/68/7
f 835/68/6 836/96/6 837/61/6
f 832/59/7 834/60/7 833/61/7
f 841/61/6 842/75/6 843/76/6
f 838/73/7 840/59/7 839/76/7
f 847/76/6 848/97/6 849/69/6
f 844/72/7 846/73/7 845/69/7
f 853/69/6 854/70/6 855/71/6
f 850/74/7 852/72/7 851/71/7
f 859/71/6 860/98/6 861/43/6
f 856/77/7 858/74/7 857/43/7
f 865/43/6 866/44/6 867/45/6
f 862/55/7 864/77/7 863/45/7
f 871/45/6 872/78/6 873/56/6
f 868/54/7 870/55/7 869/56/7
f 877/56/6 878/57/6 879/58/6
f 874/80/7 876/54/7 875/58/7
f 883/58/6 884/82/6 885/81/6
f 880/79/7 882/80/7 881/81/7
f 889/81/6 890/83/6 891/84/6
f 886/85/7 888/79/7 887/84/7
f 895/84/6 896/86/6 897/87/6
f 892/88/7 894/85/7 893/87/7
f 901/87/6 902/89/6 903/90/6
f 898/91/7 900/88/7 899/90/7
f 907/92/6 908/93/6 909/48/6
f 904/46/7 906/47/7 905/48/7
f 913/48/6 914/49/6 915/50/6
f 910/51/7 912/46/7 911/50/7
f 919/50/6 920/52/6 921/53/6
f 916/94/7 918/51/7 917/53/7
f 925/53/6 926/95/6 927/62/6
f 922/66/7 924/94/7 923/62/7
f 931/62/6 932/63/6 933/64/6
f 928/65/7 930/66/7 929/64/7
f 937/64/6 938/67/6 939/68/6
f 934/60/7 936/65/7 935/68/7
f 943/68/6 944/96/6 945/61/6
f 940/59/7 942/60/7 941/61/7
f 949/61/6 950/75/6 951/76/6
f 946/73/7 948/59/7 947/76/7
f 955/76/6 956/97/6 957/69/6
f 952/72/7 954/73/7 953/69/7
f 961/69/6 962/70/6 963/71/6
f 958/74/7 960/72/7 959/71/7
f 967/71/6 968/98/6 969/43/6
f 964/77/7 966/74/7 965/43/7
f 973/43/6 974/44/6 975/45/6
f 970/55/7 972/77/7 971/45/7
f 979/45/6 980/78/6 981/56/6
f 976/54/7 978/55/7 977/56/7
f 985/56/6 986/57/6 987/58/6
f 982/80/7 984/54/7 983/58/7
f 991/58/6 992/82/6 993/81/6
f 988/79/7 990/80/7 989/81/7
f 997/81/6 998/83/6 999/84/6
f 994/85/7 996/79/7 995/84/7
f 1003/84/6 1004/86/6 1005/87/6
f 1000/88/7 1002/85/7 1001/87/7
f 1009/87/6 1010/89/6 1011/90/6
f 1006/91/7 1008/88/7 1007/90/7
f 1015/92/6 1016/93/6 1017/48/6
f 1012/46/7 1014/47/7 1013/48/7
f 1021/48/6 1022/49/6 1023/50/6
f 1018/51/7 1020/46/7 1019/50/7
f 1027/50/6 1028/52/6 1029/53/6
f 1024/94/7 1026/51/7 1025/53/7
f 1033/53/6 1034/95/6 1035/62/6
f 1030/66/7 1032/94/7 1031/62/7
f 1039/62/6 1040/63/6 1041/64/6
f 1036/65/7 1038/66/7 1037/64/7
f 1045/64/6 1046/67/6 1047/68/6
f 1042/60/7 1044/65/7 1043/68/7
f 1051/68/6 1052/96/6 1053/61/6
f 1048/59/7 1050/60/7 1049/61/7
f 1057/61/6 1058/75/6 1059/76/6
f 1054/73/7 1056/59/7 1055/76/7
f 1063/76/6 1064/97/6 1065/69/6
f 1060/72/7 1062/73/7 1061/69/7
f 1069/69/6 1070/70/6 1071/71/6
f 1066/74/7 1068/72/7 1067/71/7
f 1075/71/6 1076/98/6 1077/43/6
f 1072/77/7 1074/74/7 1073/43/7
f 1081/43/6 1082/44/6 1083/45/6
f 1078/55/7 1080/77/7 1079/45/7
f 1087/45/6 1088/78/6 1089/56/6
f 1084/54/7 1086/55/7 1085/56/7
f 1093/56/6 1094/57/6 1095/58/6
f 1090/80/7 1092/54/7 1091/58/7
f 1099/58/6 1100/82/6 1101/81/6
f 1096/79/7 1098/80/7 1097/81/7
f 1105/81/6 1106/83/6 1107/84/6
f 1102/85/7 1104/79/7 1103/84/7
f 1111/84/6 1112/86/6 1113/87/6
f 1108/88/7 1110/85/7 1109/87/7
f 1117/87/6 1118/89/6 1119/90/6
f 1114/91/7 1116/88/7 1115/90/7
f 1123/92/6 1124/93/6 1125/48/6
f 1120/46/7 1122/47/7 1121/48/7
f 1129/48/6 1130/49/6 1131/50/6
f 1126/51/7 1128/46/7 1127/50/7
f 1135/50/6 1136/52/6 1137/53/6
f 1132/94/7 1134/51/7 1133/53/7
f 1141/53/6 1142/95/6 1143/62/6
f 1138/66/7 1140/94/7 1139/62/7
f 1147/62/6 1148/63/6 1149/64/6
f 1144/65/7 1146/66/7 1145/64/7
f 1153/64/6 1154/67/6 1155/68/6
f 1150/60/7 1152/65/7 1151/68/7
f 1159/68/6 1160/96/6 1161/61/6
f 1156/59/7 1158/60/7 1157/61/7
f 1165/61/6 1166/75/6 1167/76/6
f 1162/73/7 1164/59/7 1163/76/7
f 1171/76/6 1172/97/6 1173/69/6
f 1168/72/7 1170/73/7 1169/69/7
f 1177/76/6 1178/97/6 1179/69/6
f 1174/72/7 1176/73/7 1175/69/7
